<?xml version="1.0" encoding="utf-8"?>
<!-- Generator: Adobe Illustrator 19.0.0, SVG Export Plug-In . SVG Version: 6.00 Build 0)  -->
<svg version="1.1" id="Layer_1" xmlns="http://www.w3.org/2000/svg" xmlns:xlink="http://www.w3.org/1999/xlink" x="0px" y="0px"
	 viewBox="0 0 500 500" enable-background="new 0 0 500 500" xml:space="preserve">
<g>
	<path style="fill:#fff" d="M175.058,100.16c3.877-4.214,7.518-3.855,11.662-2.359c18.303,6.608,36.696,12.968,55.016,19.532
		c9.674,3.466,19.144,7.543,28.921,10.672c16.398,5.248,33.137,9.465,49.409,15.059c12.453,4.281,24.404,10.022,36.582,15.105
		c11.107,4.636,22.218,9.26,33.904,14.13c0.147,1.776,0.84,4.056,0.426,6.112c-2.959,14.702-1.019,29.482-0.702,44.198
		c0.468,21.715,2.254,43.408,2.472,65.12c0.348,34.706-0.028,69.422-0.328,104.132c-0.083,9.612-1.101,19.214-1.457,28.828
		c-0.199,5.368,0.14,10.753,0.114,16.13c-0.01,2.001-0.07,4.09-0.633,5.982c-1.04,3.497-3.024,4.139-5.974,1.994
		c-18.653-13.565-37.291-27.15-55.877-40.806c-8.483-6.233-16.942-12.506-25.22-19.006c-8.804-6.912-17.363-14.136-26.061-21.184
		c-15.299-12.397-30.622-24.766-45.937-37.143c-6.091-4.923-12.17-9.86-18.292-14.745c-3.75-2.992-5.222-7.224-5.901-11.623
		c-3.138-20.351-5.994-40.746-9.105-61.101c-2.097-13.723-4.547-27.392-6.667-41.112c-3.213-20.798-6.129-41.642-9.468-62.419
		c-1.562-9.72-3.833-19.326-5.757-28.989C175.75,104.491,175.423,102.292,175.058,100.16z M381.628,186.283
		c-7.213,3.72-110.014,82.702-114.841,88.406c9.883,13.269,19.69,26.85,29.939,40.087c11.369,14.684,23.572,28.736,34.637,43.639
		c15.875,21.381,31.109,43.239,48.025,63.836c1.061,1.292,2.415,2.342,4.042,3.896c0.642-11.628,1.623-22.489,1.765-33.36
		c0.339-25.966,0.251-51.936,0.413-77.905c0.033-5.366,0.732-10.742,0.559-16.094c-0.558-17.229-1.395-34.449-2.098-51.673
		C383.248,226.986,382.453,206.855,381.628,186.283z M187.598,106.097c-0.514,0.373-1.027,0.747-1.541,1.12
		c11.235,23.271,22.728,46.421,33.631,69.846c11,23.633,21.415,47.538,32.047,71.236c9.479-5.241,18.371-10.946,27.895-15.252
		c17.62-7.966,33.721-18.474,50.133-28.479c13.729-8.369,25.736-19.417,40.561-26.123c1.899-0.859,3.414-2.567,5.749-4.38
		c-2.404-1.096-3.96-1.824-5.53-2.519c-7.361-3.261-14.702-6.569-22.094-9.758c-15.401-6.644-30.801-13.203-47.086-17.597
		c-16.833-4.542-33.616-9.391-50.122-14.987C229.873,121.958,208.799,113.839,187.598,106.097z M221.12,307.843
		c3.709,3.203,6.982,6.2,10.432,8.979c17.421,14.033,34.839,28.071,52.351,41.991c21.176,16.831,42.362,33.652,63.719,50.252
		c7.328,5.696,15.183,10.712,22.798,16.039c0.31-0.319,0.621-0.638,0.931-0.957c-1.077-1.539-2.105-3.115-3.238-4.612
		c-10.526-13.904-21.041-27.817-31.619-41.682c-9.631-12.624-19.313-25.209-29.014-37.779
		c-14.075-18.235-29.298-35.592-41.888-54.967c-1.535-2.363-3.793-4.257-5.837-6.5C245.597,286.961,232.862,296.257,221.12,307.843z
		 M214.384,295.957c8.781-10.182,16.257-18.769,23.618-27.455c1.578-1.862,2.952-3.971,4.045-6.154
		c2.649-5.291,3.676-10.494,0.66-16.325c-3.274-6.331-5.522-13.185-8.39-19.735c-6.185-14.125-12.307-28.282-18.776-42.277
		c-8.535-18.466-17.371-36.793-26.105-55.167c-0.647-1.361-1.516-2.617-2.759-4.735
		C195.947,181.604,205.047,238.046,214.384,295.957z M288.477,247.257c-5.041-3.518-5.198-3.764-7.406-2.353
		c-3.65,2.334-7.075,5.02-11.013,7.86c3.046,2.44,5.269,4.406,8.357,2.17C281.779,252.499,285.026,249.901,288.477,247.257z
		 M244.416,273.93c4.531,3.137,4.531,3.137,10.081-2.354c-1.678-1.711-3.353-3.418-5.563-5.672
		C247.156,269.063,245.777,271.512,244.416,273.93z M290.543,239.039c4.968,3.407,5.323,3.304,10.741-3.093
		C296.622,233.455,295.87,233.671,290.543,239.039z M259.626,261.456c3.476,5.364,4.61,5.338,9.141-0.209
		C263.771,257.217,263.771,257.217,259.626,261.456z M319.214,223.358c-0.32-0.465-0.641-0.93-0.961-1.395
		c-3.794,2.247-7.587,4.495-12.581,7.453c2.247,0.549,3.27,1.142,3.71,0.852C312.723,228.062,315.951,225.683,319.214,223.358z
		 M236.896,282.82c0.355,0.398,0.71,0.797,1.064,1.195c0.835-0.934,1.67-1.869,2.505-2.803c-0.271-0.249-0.542-0.498-0.813-0.747
		C238.733,281.25,237.815,282.035,236.896,282.82z"/>
	<path style="fill:#fff" d="M242.729,400.982c-0.433,1.932-0.886,3.957-1.362,6.083c-3.999-1.896-5.47-4.393-4.342-6.834
		C237.737,398.689,238.769,398.8,242.729,400.982z"/>
</g>
</svg>
