<?xml version="1.0" encoding="utf-8"?>
<!-- Generator: Adobe Illustrator 19.0.0, SVG Export Plug-In . SVG Version: 6.00 Build 0)  -->
<svg version="1.1" id="Layer_3" xmlns="http://www.w3.org/2000/svg" xmlns:xlink="http://www.w3.org/1999/xlink" x="0px" y="0px"
	 viewBox="0 0 500 500" enable-background="new 0 0 500 500" xml:space="preserve">
<path style="fill:#fff" d="M34.733,282.731c5.447-6.947,10.374-13.214,15.283-19.494c19.95-25.519,39.389-51.46,60.01-76.424
	c14.987-18.143,31.484-35.042,47.42-52.393c4.021-4.378,8.319-8.541,12.827-12.408c1.19-1.021,4.462-1.482,5.377-0.654
	c6.184,5.6,14.374,5.757,21.613,7.976c23.549,7.219,47.307,13.804,71.148,20.003c16.051,4.173,32.4,7.191,48.573,10.91
	c6.818,1.568,13.664,3.216,20.257,5.516c14.228,4.963,28.769,8.639,43.438,11.985c7.564,1.725,14.955,4.234,22.386,6.512
	c4.958,1.519,7.153,8.026,4.316,12.586c-0.679,1.092-1.556,2.094-2.482,2.995c-7.796,7.581-15.744,15.009-23.41,22.718
	c-8.585,8.632-16.763,17.671-25.403,26.246c-17.306,17.176-34.76,34.204-52.241,51.202c-10.602,10.31-21.44,20.377-31.996,30.733
	c-1.923,1.887-3.335,4.499-4.391,7.025c-2.54,6.073-5.857,6.416-10.509,1.687c-2.386-2.426-5.917-3.992-9.201-5.225
	c-20.634-7.748-42.037-12.748-63.441-17.845c-12.074-2.875-23.876-6.979-35.676-10.906c-20.526-6.832-41.617-10.629-63.084-12.798
	c-11.353-1.147-22.712-2.465-33.953-4.384C46.027,287.342,40.141,286.36,34.733,282.731z M221.489,258.257
	c-21.514-41.168-36.502-82.711-49.922-126.107c-46.983,43.169-82.029,94.984-120.699,144.208
	c19.194-0.913,38.006-2.348,56.746-4.426c18.547-2.056,37.005-4.904,55.533-7.144C181.888,262.521,200.666,260.573,221.489,258.257z
	 M187.524,134.103c-0.444,0.525-0.889,1.05-1.333,1.575c22.814,38.2,45.628,76.401,68.732,115.088
	c1.927-0.643,4.155-1.225,6.251-2.115c6.448-2.74,12.985-5.322,19.241-8.457c33.67-16.873,68.33-31.49,103.17-45.715
	c2.22-0.906,4.191-2.421,6.278-3.652c-0.083-0.582-0.167-1.163-0.25-1.745c-5.144-1.51-10.252-3.154-15.439-4.5
	c-8.777-2.278-17.959-3.453-26.337-6.717c-21.164-8.247-43.135-13.542-65.245-17.848c-27.349-5.326-53.992-12.893-80.443-21.384
	C197.291,137.072,192.401,135.61,187.524,134.103z M387.316,204.011c-10.642,1.942-125.455,51.063-133.117,57.089
	c1.938,10.241,4.007,20.879,5.952,31.54c1.964,10.765,3.804,21.552,5.841,33.139C308.784,286.775,348.637,246.249,387.316,204.011z
	 M225.317,266.67c-4.007,0.465-7.076,0.818-10.144,1.177c-5.915,0.692-11.824,1.439-17.745,2.07
	c-15.205,1.62-30.421,3.15-45.624,4.789c-18.544,2-37.054,4.359-55.628,6.017c-12.457,1.112-24.998,1.277-37.502,1.866
	c10.508,2,21.076,2.968,31.562,4.503c15.63,2.287,31.407,4.097,46.752,7.69c24.473,5.73,48.671,12.651,72.925,19.287
	c11.243,3.076,22.339,6.687,33.516,10.005c2.341,0.695,4.748,1.169,8.211,2.008C242.491,305.432,233.937,286.124,225.317,266.67z
	 M240.542,247.611c-5.062-18.181-11.15-21.927-26.933-26.686C215.332,236.962,227.669,241.915,240.542,247.611z M221.531,214.375
	c-5.431-14.733-8.894-17.868-19.046-17.719C203.712,207.531,210.855,212.282,221.531,214.375z M196.073,176.973
	c0.042,8.198,1.554,9.809,11.722,11.317C203.998,183.492,203.539,176.942,196.073,176.973z M249.301,285.397
	c-0.437-8.065-1.192-8.824-10.36-10.562C239.784,280.739,243.458,283.676,249.301,285.397z M253.364,307.561
	c-0.781-11.301-0.781-11.301-6.21-11.63C249.346,300.037,251.355,303.799,253.364,307.561z M238.27,265.623
	c2.441,0.973,4.882,1.946,8.053,3.21C244.599,263.728,244.599,263.728,238.27,265.623z M228.047,250.15
	c1.325,5.32,1.325,5.32,7.376,3.771C232.679,252.518,230.524,251.416,228.047,250.15z M189.165,158.824
	c-0.025,3.677,0.374,7.089,5.68,8.799C192.533,164.042,190.849,161.433,189.165,158.824z"/>
</svg>
