<?xml version="1.0" encoding="utf-8"?>
<!-- Generator: Adobe Illustrator 19.0.0, SVG Export Plug-In . SVG Version: 6.00 Build 0)  -->
<svg version="1.1" id="Layer_8" xmlns="http://www.w3.org/2000/svg" xmlns:xlink="http://www.w3.org/1999/xlink" x="0px" y="0px"
	 viewBox="0 0 500 500" enable-background="new 0 0 500 500" xml:space="preserve">
<path style="fill:#fff" d="M25.33,304.164c2.862-2.051,5.149-3.725,7.471-5.349c10.856-7.596,21.332-15.827,32.66-22.638
	c27.663-16.633,54.756-34.254,83.782-48.591c7.447-3.679,13.785-9.541,20.93-13.912c8.472-5.183,17.193-9.977,25.976-14.617
	c1.918-1.013,4.7-1.315,6.838-0.84c14.225,3.164,28.359,6.738,42.57,9.966c14.438,3.28,28.941,6.267,43.396,9.471
	c13.598,3.015,27.225,5.923,40.736,9.291c12.919,3.22,26.027,4.985,39.209,6.585c10.896,1.323,21.714,3.31,32.545,5.128
	c1.668,0.28,3.374,1.001,4.796,1.928c2.65,1.727,3.255,4.092,1.188,6.753c-1.484,1.91-2.793,4.052-4.602,5.597
	c-5.885,5.028-12.135,9.637-17.918,14.775c-5.272,4.683-10.402,9.594-15.08,14.861c-5.423,6.106-10.245,12.742-15.396,19.094
	c-9.9,12.208-20.725,23.477-32.354,34.115c-11.396,10.425-21.69,22.05-32.569,33.048c-6.513,6.585-13.111,12.968-17.043,21.685
	c-1.371,3.039-4.967,4.322-8.639,3.465c-1.285-0.3-2.55-0.755-3.762-1.283c-18.537-8.071-38.11-12.72-57.623-17.601
	c-4.924-1.232-9.818-2.714-14.563-4.509c-16.108-6.095-32.068-12.584-48.223-18.547c-23.827-8.795-47.833-17.107-71.645-25.944
	c-12.429-4.613-24.587-9.95-36.906-14.864C28.075,310.021,26.915,307.602,25.33,304.164z M38.756,305.94
	c0.027,0.638,0.053,1.276,0.08,1.914c1.776,0.843,3.497,1.838,5.337,2.505c30.552,11.081,61.121,22.112,91.679,33.175
	c7.067,2.559,14.114,5.174,21.155,7.802c11.387,4.25,22.591,9.088,34.183,12.671c17.303,5.348,34.891,9.769,52.326,14.699
	c4.805,1.359,9.495,3.125,15.706,5.192c-8.493-19.96-16.773-38.653-24.417-57.602c-7.661-18.991-13.373-38.742-21.488-57.654
	c-2.152,0.19-3.712,0.138-5.176,0.487c-12.469,2.973-24.903,6.097-37.383,9.022c-14.642,3.432-29.24,7.126-44.001,9.954
	c-21.255,4.072-42.681,7.244-63.947,11.261C54.667,300.903,46.766,303.711,38.756,305.94z M385.856,249.068
	c-8.727-0.273-15.712-0.668-22.697-0.674c-16.556-0.015-33.114,0.348-49.668,0.188c-13.591-0.131-26.837,2.216-40.07,4.747
	c-6.382,1.221-13.222,1.357-18.433,6.352c-0.653,5.277,0.17,10.048,5.314,13.242c-1.392,2.335-3.492,4.286-3.54,6.285
	c-0.082,3.433,0.669,7.076,1.949,10.279c0.768,1.924,1.005,3.308,0.829,5.409c-0.496,5.895-0.28,11.886,4.598,16.728
	c-2.47,4.991-0.929,10.234-0.346,15.438c1.471,13.124,2.999,26.243,4.61,39.351c0.421,3.424,1.227,6.801,2.058,11.293
	c2.112-1.968,3.404-3.037,4.536-4.254c2.407-2.587,4.736-5.247,7.09-7.884c9.274-10.387,18.45-20.864,27.85-31.135
	c6.4-6.993,13.161-13.653,19.668-20.55c4.831-5.12,9.537-10.36,14.255-15.587c2.655-2.942,5.14-6.039,7.841-8.936
	c9.625-10.324,19.403-20.508,28.897-30.95C382.573,256.238,383.586,253.19,385.856,249.068z M56.832,291.384
	c0.163,0.285,0.326,0.571,0.49,0.856c25.603-4.754,51.278-9.157,76.79-14.359c25.455-5.19,50.63-11.656,76.543-17.852
	c-5.094-16.498-9.883-32.006-14.905-48.267c-7.643,4.734-14.595,8.99-21.496,13.327c-8.794,5.527-17.274,11.621-26.381,16.565
	c-13.589,7.378-27.68,13.825-41.421,20.93c-12.173,6.294-24.247,12.794-36.188,19.516C65.541,284.759,61.295,288.264,56.832,291.384
	z M335.813,239.371c-0.032-0.463-0.063-0.927-0.095-1.39c-40.433-9.507-80.578-20.35-122.25-26.389
	c3.404,5.456,10.654,12.355,16.715,16.491c2.298,1.568,4.42,3.448,6.416,5.397c13.064,12.754,17.185,13.94,35.371,11.521
	c13.319-1.772,26.462-4.921,40.069-4.602C319.952,240.584,327.888,239.747,335.813,239.371z M249.5,287.075
	c0.513-0.997,0.8-1.362,0.888-1.77c0.14-0.641,0.197-1.31,0.201-1.968c0.034-6.436-0.454-6.809-6.892-7.937
	c-4.108-0.72-8.135-1.918-12.179-2.979c-3.053-0.801-6.074-1.724-9.65-2.747c4.379,11.996,3.045,9.885,12.234,13.112
	c3.328,1.169,6.625,2.441,10.002,3.445C245.905,286.766,247.846,286.831,249.5,287.075z M252.006,295.268
	c-7.664-2.125-14.678-4.07-23.072-6.397c1.644,4.754,2.733,8.224,4.081,11.591c0.36,0.899,1.391,1.855,2.316,2.15
	c5.948,1.894,11.952,3.612,19.088,5.729C253.428,302.97,252.692,298.987,252.006,295.268z M209.938,229.989
	c1.787,9.563,1.777,9.589,8.745,12.148c7.045,2.588,14.103,5.143,21.178,7.651c1.22,0.432,2.548,0.56,3.826,0.829
	c-3.683-4.352-8.306-7.178-11.766-11.045C226.083,233.048,218.302,232.313,209.938,229.989z M257.389,327.039
	c-0.534-3.525-0.857-6.516-1.507-9.434c-0.199-0.892-1.158-2.048-1.999-2.293c-5.126-1.492-10.318-2.757-16.065-4.246
	c0.359,4.588,0.721,8.63,3.618,10.459C245.925,324.361,251.074,326.3,257.389,327.039z M259.997,347.856
	c-0.519-3.753-0.814-7.011-1.492-10.187c-0.242-1.134-1.198-2.588-2.198-3.002c-3.361-1.391-6.888-2.38-10.712-3.642
	C248.099,344.409,252.085,347.581,259.997,347.856z M249.09,269.726c-0.24-2.411-0.259-3.697-0.52-4.932
	c-0.302-1.427-0.818-2.809-1.22-4.137c-6.356,0.654-11.791,2.474-14.8,5.169C237.986,267.108,243.022,268.296,249.09,269.726z
	 M230.486,255.244c-0.003-0.385-0.007-0.77-0.01-1.155c-4.767-1.743-9.534-3.487-15.505-5.67c0.834,3.213,1.028,5.409,2.005,7.171
	c0.571,1.03,2.479,2.035,3.636,1.886C223.944,257.049,227.2,256.03,230.486,255.244z M255.642,355.212
	c2,3.713,3.369,6.256,5.273,9.792C261.482,356.85,261.482,356.85,255.642,355.212z M211.966,222.287
	c-2.074-1.833-3.632-3.21-6.274-5.545C207.356,222.797,207.356,222.797,211.966,222.287z"/>
<path style="fill:#fff" d="M257.051,452.231c1.991-1.6,3.48-2.797,5.587-4.491c1.123,1.548,2.585,2.746,2.875,4.181
	c0.325,1.607,0.004,3.689-0.851,5.054c-0.48,0.767-3.171,1.169-3.873,0.571C259.252,456.236,258.348,454.183,257.051,452.231z"/>
<path style="fill:#fff" d="M372.743,302.365c-2.015-3.718-2.617-6.615-0.038-9.561C377.259,295.967,377.295,296.669,372.743,302.365z"/>
<path style="fill:#fff" d="M83.875,480.122c-4.486-3.373-4.486-3.373-2.157-8.38c1.432,0.701,2.855,1.399,4.612,2.259
	C85.491,476.094,84.796,477.824,83.875,480.122z"/>
<path style="fill:#fff" d="M89.044,451.73c0.29-0.571,0.466-0.919,0.643-1.267c0.415,0.352,0.923,0.646,1.199,1.086
	c0.106,0.169-0.317,0.67-0.499,1.019C89.934,452.285,89.48,452.002,89.044,451.73z"/>
</svg>
