<?xml version="1.0" encoding="utf-8"?>
<!-- Generator: Adobe Illustrator 19.0.0, SVG Export Plug-In . SVG Version: 6.00 Build 0)  -->
<svg version="1.1" id="Layer_9" xmlns="http://www.w3.org/2000/svg" xmlns:xlink="http://www.w3.org/1999/xlink" x="0px" y="0px"
	 viewBox="0 0 500 500" enable-background="new 0 0 500 500" xml:space="preserve">
<path style="fill:#fff" d="M133.925,444.453c2.453-9.108,4.767-18.041,7.283-26.917c1.473-5.196,3.348-10.275,4.904-15.449
	c7.935-26.399,16.005-52.759,23.659-79.239c4.076-14.102,7.33-28.439,11.094-42.633c4.887-18.423,9.997-36.787,14.838-55.221
	c2.024-7.708,3.572-15.54,5.395-23.301c1.484-6.314,4.735-11.15,10.421-14.8c9.076-5.827,17.606-12.496,26.542-18.552
	c8.091-5.483,16.552-10.424,24.602-15.963c10.365-7.131,20.342-14.829,30.753-21.89c8.303-5.631,16.891-10.872,25.556-15.936
	c17.114-10.001,34.593-19.394,51.49-29.744c11.578-7.092,23.969-13.078,33.862-22.756c3.347-3.274,7.624-1.815,8.583,2.826
	c0.413,1.996,0.313,4.11,0.346,6.172c0.283,17.787,0.365,35.58,0.852,53.361c0.763,27.821,2.05,55.629,2.624,83.453
	c0.377,18.307-0.206,36.632-0.177,54.949c0.022,13.922,0.401,27.844,0.479,41.766c0.032,5.65,1.059,10.207,7.77,11.367
	c1.457,0.252,3.061,1.944,3.833,3.383c1.536,2.86-0.385,5.889-3.679,5.833c-8.717-0.147-16.083,4.189-23.827,7.105
	c-7.18,2.704-13.81,7.039-21.112,9.212c-12.433,3.7-24.001,9.056-35.572,14.781c-12.445,6.158-25.433,11.235-38.248,16.629
	c-22.336,9.401-44.791,18.524-67.057,28.088c-9.916,4.259-19.472,9.351-29.235,13.973c-4.887,2.314-9.809,4.577-14.823,6.594
	c-16.968,6.824-34.263,12.991-49.295,23.766C141.921,448.08,138.648,447.065,133.925,444.453z M401.257,319.597
	c-3.097-2.266-5.071-3.787-7.121-5.197c-9.006-6.194-19.082-10.112-29.277-13.81c-18.871-6.846-37.724-13.745-56.549-20.716
	c-17.158-6.353-34.262-12.849-51.412-19.224c-1.639-0.609-3.431-0.807-6.124-1.415c-3.966,5.452-8.429,10.704-11.902,16.545
	c-7.101,11.939-13.808,24.12-20.424,36.339c-9.07,16.752-17.546,33.834-26.931,50.404c-11.543,20.38-23.788,40.361-35.654,60.559
	c-1.733,2.95-3.047,6.147-5.193,10.535c8.562-4.139,15.428-7.635,22.441-10.805c9.377-4.239,18.942-8.064,28.288-12.367
	c8.638-3.977,16.925-8.743,25.659-12.477c31.965-13.665,64.295-26.507,95.993-40.757c16.047-7.214,31.031-16.789,46.507-25.276
	c6.283-3.445,12.345-7.164,19.877-7.84C393.048,323.768,396.486,321.488,401.257,319.597z M404.905,76.811
	c-2.509,2.219-3.762,3.073-4.693,4.195c-3.946,4.754-7.68,9.688-11.703,14.374c-14.432,16.813-28.944,33.557-43.436,50.317
	c-8.771,10.144-17.663,20.186-26.32,30.426c-10.478,12.394-20.84,24.889-31.099,37.465c-4.189,5.136-7.975,10.601-12.284,16.371
	c1.093,0.748,1.719,1.197,2.366,1.616c16.882,10.936,33.539,22.242,50.703,32.714c24.194,14.761,48.029,30.196,73.801,42.21
	c1.742,0.812,3.69,1.184,6.367,2.017C408.215,231.301,408.038,155.012,404.905,76.811z M217.815,190.253
	c0.663,1.168,0.804,1.775,1.183,2.034c15.064,10.266,30.156,20.492,45.228,30.747c2.904,1.975,5.251,1.504,7.297-1.305
	c1.214-1.666,2.572-3.226,3.872-4.828c13.954-17.191,27.561-34.68,41.959-51.491c15.759-18.401,32.333-36.103,48.379-54.262
	c6.551-7.413,12.647-15.228,18.95-22.86c-0.395-0.439-0.789-0.878-1.184-1.318c-10.994,5.984-22.256,11.529-32.924,18.047
	c-18.871,11.53-38.383,21.977-56.458,34.875c-14.619,10.432-30.198,19.512-45.24,29.362
	C238.56,176.01,228.435,183.058,217.815,190.253z M152.057,411.234c0.441,0.2,0.882,0.4,1.323,0.6
	c0.984-1.389,2.108-2.7,2.931-4.179c11.009-19.783,22.03-39.559,32.922-59.406c3.467-6.319,6.383-12.941,9.858-19.255
	c12.65-22.988,25.343-45.954,38.234-68.807c2.577-4.569,2.522-8.713,0.286-13.135c-3.25-6.426-6.38-12.918-9.818-19.242
	c-4.632-8.521-9.509-16.909-14.862-26.383C192.39,272.219,172.223,341.726,152.057,411.234z M300.444,256.814
	c-3.888-2.974-6.822-6.9-12.475-6.463c-5.634,0.436-11.303,0.468-16.958,0.587c-3.99,0.084-7.984,0.016-12.824,0.016
	c5.724,4.591,9.791,5.913,16.132,5.873C282.737,256.775,291.155,256.814,300.444,256.814z M240.968,232.569
	c2.363,6.188,5.716,8.997,11.197,8.998c4.63,0.001,6.055-3.601,8.73-7.355C254.008,233.644,248.061,233.154,240.968,232.569z
	 M249.759,224.261c-4.73-3.351-9.052-8.378-16.077-4.963C237.802,224.084,237.802,224.084,249.759,224.261z M304.432,268.329
	c5.391,3.395,10.802,6.624,17.772,2.935C316.66,266.575,310.359,268.329,304.432,268.329z M266.063,241.977
	c7.339,1.518,7.339,1.518,10.384-0.783C270.411,237.646,270.411,237.646,266.063,241.977z M331.156,276.272
	c-0.436,0.803-0.871,1.605-1.307,2.408c3.224,1.466,6.448,2.932,9.672,4.398c0.234-0.442,0.467-0.885,0.701-1.327
	C337.2,279.924,334.178,278.098,331.156,276.272z"/>
<path style="fill:#fff" d="M166.28,211.061c-0.778-3.355-1.331-5.742-1.88-8.109c6.281-1.683,6.988-1.36,10.68,5.11
	C172.224,209.035,169.534,209.951,166.28,211.061z"/>
<path style="fill:#fff" d="M338.925,413.573c-3.264-0.397-3.92-2.535-4.285-5.238C338.495,408.409,338.495,408.409,338.925,413.573z"/>
<path style="fill:#fff" d="M155.98,497c1.061-3.202,1.743-5.262,2.513-7.585C161.97,494.464,161.963,494.494,155.98,497z"/>
<path style="fill:#fff" d="M177.331,494.116c-1.166-1.577-2.375-2.495-2.348-3.376c0.027-0.892,1.277-1.747,1.991-2.618
	c0.754,0.81,1.993,1.551,2.122,2.45C179.222,491.445,178.205,492.48,177.331,494.116z"/>
<path style="fill:#fff" d="M107.573,299.85c2.575-3.329,4.248-0.894,6,0C111.788,299.85,110.004,299.85,107.573,299.85z"/>
<path style="fill:#fff" d="M293.101,334.36c-0.814-1.458-1.485-2.175-1.544-2.939c-0.039-0.498,1.021-1.589,1.229-1.507
	c0.782,0.31,1.829,0.897,1.983,1.564C294.906,332.071,293.994,332.908,293.101,334.36z"/>
<path style="fill:#fff" d="M306.153,220.583c-3.15,0.925-4.92,1.481-6.727,1.853c-0.078,0.016-1.008-1.985-0.681-2.493
	C300.17,217.727,302.11,217.318,306.153,220.583z"/>
<path style="fill:#fff" d="M397.692,248.733c1.178,0.833,2.355,1.667,3.533,2.5c-0.34,0.475-0.68,0.95-1.02,1.425c-1.168-0.847-2.337-1.693-3.505-2.54
	C397.03,249.656,397.361,249.194,397.692,248.733z"/>
</svg>
