<?xml version="1.0" encoding="utf-8"?>
<!-- Generator: Adobe Illustrator 19.0.0, SVG Export Plug-In . SVG Version: 6.00 Build 0)  -->
<svg version="1.1" id="Layer_5" xmlns="http://www.w3.org/2000/svg" xmlns:xlink="http://www.w3.org/1999/xlink" x="0px" y="0px"
	 viewBox="0 0 500 500" enable-background="new 0 0 500 500" xml:space="preserve">
<path style="fill:#fff" d="M295.736,451.724c4.873-4.891,2.773-9.992,0.181-15.159c-1.971-3.929-3.834-7.918-5.572-11.955
	c-0.748-1.739-1.589-3.7-1.472-5.501c0.381-5.865-1.54-11.171-3.728-16.325c-9.953-23.443-19.734-46.97-30.312-70.131
	c-6.188-13.548-14.446-26.157-20.543-39.74c-9.111-20.301-17.075-41.116-25.688-61.644c-1.458-3.476-1.205-6.47,0.229-9.798
	c3.099-7.196,6.371-14.359,8.824-21.783c6.143-18.587,11.948-37.287,17.738-55.988c4.344-14.031,8.266-28.194,12.714-42.191
	c6.597-20.759,13.514-41.416,20.246-62.132c1.812-5.576,3.404-11.224,5.191-16.809c0.74-2.312,1.457-5.222,4.651-4.672
	c2.899,0.499,6.7-0.436,8.124,3.627c0.404,1.153,0.834,2.327,1.462,3.365c4.051,6.69,7.905,13.519,12.305,19.974
	c8.684,12.741,17.888,25.13,26.495,37.921c10.663,15.849,20.258,32.456,31.522,47.852c22.569,30.846,45.973,61.081,69,91.593
	c5.004,6.63,9.795,13.421,14.847,20.013c1.805,2.355,2.11,4.637-0.025,6.506c-5.506,4.819-8.019,11.552-11.756,17.503
	c-2.989,4.761-5.943,9.548-9.067,14.22c-8.155,12.199-16.366,24.361-24.611,36.499c-4.661,6.862-9.245,13.789-14.197,20.439
	c-10.096,13.558-20.281,27.055-30.692,40.371c-7.749,9.912-13.778,20.79-19.511,31.914c-2.678,5.196-5.891,10.13-9.053,15.059
	c-5.683,8.86-11.428,17.683-17.311,26.411C302.325,456.213,300.944,456.229,295.736,451.724z M428.883,251.237
	c-4.03-2.844-7.788-3.759-12.183-3.281c-8.518,0.926-17.071,1.587-25.626,2.092c-35.678,2.104-71.363,4.073-107.041,6.187
	c-5.363,0.318-10.747,0.865-16.028,1.821c-5.167,0.935-10.214,2.528-15.982,4.003c2.993,10.378,5.74,19.996,8.543,29.598
	c2.807,9.611,5.587,19.231,8.531,28.801c2.949,9.589,6.1,19.115,9.135,28.677c3.032,9.557,6.037,19.123,9.039,28.689
	c3,9.56,5.448,19.336,9.122,28.628c3.555,8.99,6.06,18.335,9.31,28.951c1.924-3.101,2.963-4.689,3.916-6.326
	c6.64-11.406,12.825-23.107,20.012-34.156c7.329-11.268,15.679-21.869,23.502-32.819c4.691-6.566,9.228-13.242,13.834-19.87
	c7.246-10.428,14.583-20.794,21.716-31.3c11.409-16.805,22.679-33.703,34.012-50.559
	C424.716,257.366,426.759,254.372,428.883,251.237z M426.295,237.665c0.329-0.419,0.658-0.837,0.988-1.256
	c-5.427-7.202-10.891-14.375-16.273-21.611c-16.653-22.392-33.311-44.781-49.891-67.227c-6.828-9.245-13.723-18.458-20.122-27.998
	c-8.45-12.599-16.237-25.642-24.684-38.244c-10.496-15.659-21.367-31.066-32.113-46.557c-0.326-0.47-1.048-0.664-2.074-1.28
	c-0.967,8.962-1.61,17.454-2.855,25.856c-1.901,12.836-4.763,25.548-6.238,38.425c-2.507,21.893-4.043,43.896-6.383,65.81
	c-1.819,17.036-4.259,34.005-6.372,51.011c-0.199,1.602-0.027,3.251-0.027,4.893c18.118,1.21,35.914,2.594,53.733,3.54
	c23.291,1.236,46.206,5.262,69.205,8.722c8.47,1.274,17.018,3.367,25.458,3.067C414.942,234.595,420.634,235.069,426.295,237.665z
	 M251.667,221.411c0.551-2.902,1.19-5.492,1.519-8.122c2.334-18.681,4.727-37.356,6.857-56.061
	c1.714-15.048,3.05-30.139,4.619-45.204c1.265-12.143,2.629-24.276,3.948-36.413c0.266-2.449,0.532-4.899,0.798-7.348
	c-0.482-0.086-0.964-0.173-1.447-0.259c-1.063,2.923-2.249,5.807-3.169,8.775c-4.125,13.308-8.33,26.595-12.202,39.977
	c-3.255,11.248-6.096,22.616-9.107,33.935c-1.567,5.891-2.632,11.966-4.746,17.652c-5.873,15.799-12.199,31.429-18.275,47.153
	c-0.641,1.658-0.814,3.498-1.351,5.915C230.199,221.411,240.413,221.411,251.667,221.411z M258.594,322.494
	c0.49-0.206,0.98-0.413,1.47-0.619c0.062-0.469,0.286-0.986,0.162-1.4c-5.29-17.798-10.581-35.596-15.984-53.36
	c-0.473-1.556-1.51-3.066-2.629-4.279c-5.639-6.112-11.366-12.145-17.133-18.138c-0.995-1.034-2.33-1.741-3.508-2.599
	c-0.406,0.352-0.813,0.705-1.22,1.057C232.7,269.601,245.647,296.048,258.594,322.494z M258.061,231.197
	c2.571,1.362,3.77,2.155,5.079,2.667c10.418,4.073,21.497,6.236,31.603,11.3c3.868,1.938,8.287,1.616,12.621-0.223
	C292.339,234.476,274.268,229.199,258.061,231.197z M302.845,233.438c11.802,9.326,27.461,13.029,37.668,8.966
	C328.878,236.048,317.07,231.068,302.845,233.438z M250.256,236.5c-11.861-7.259-18.137-8.342-27.146-4.79
	c1.152,1.081,1.99,2.44,3.171,2.882c7.057,2.639,14.193,5.07,21.31,7.548c0.168,0.058,0.432-0.159,1.195-0.468
	C249.192,240.242,249.698,238.464,250.256,236.5z M278.336,246.888c-7.009-2.501-14.017-5.002-21.401-7.638
	c-0.463,2.539-0.758,4.151-1.027,5.627C263.943,249.701,263.943,249.701,278.336,246.888z M380.636,241.835
	c-0.014-0.509-0.027-1.018-0.04-1.527c-9.612-1.221-19.224-2.443-29.824-3.79c2.084,1.753,3.211,2.891,4.52,3.75
	c1.327,0.87,2.833,2.072,4.263,2.077C366.581,242.368,373.609,242.04,380.636,241.835z M248.056,250.508
	c-3.362-1.444-5.653-2.427-9.065-3.892C243.176,253.681,243.176,253.681,248.056,250.508z"/>
</svg>
