<?xml version="1.0" encoding="utf-8"?>
<!-- Generator: Adobe Illustrator 19.0.0, SVG Export Plug-In . SVG Version: 6.00 Build 0)  -->
<svg version="1.1" id="Layer_4" xmlns="http://www.w3.org/2000/svg" xmlns:xlink="http://www.w3.org/1999/xlink" x="0px" y="0px"
	 viewBox="0 0 500 500" enable-background="new 0 0 500 500" xml:space="preserve">
<path style="fill:#fff" d="M361.442,167.192c-2.111,22.997-4.286,45.988-6.304,68.993c-0.876,9.982-1.433,19.993-2.127,29.991
	c-1.445,20.815-3.055,41.621-4.267,62.45c-0.84,14.433-1.223,28.896-1.607,43.351c-0.122,4.586-2.501,7.308-6.295,8.951
	c-21.811,9.448-41.419,22.717-61.584,35.057c-9.95,6.089-20.144,12.068-30.878,16.534c-29.783,12.391-56.286,30.267-83.033,47.822
	c-5.581,3.663-11.305,7.149-17.204,10.261c-1.571,0.829-4.392,0.588-5.964-0.325c-1.122-0.651-1.738-3.331-1.517-4.962
	c3.089-22.822,6.502-45.601,9.532-68.431c1.574-11.861,2.257-23.841,3.864-35.696c2.313-17.062,5.133-34.055,7.674-51.088
	c1.355-9.079,2.96-18.144,3.777-27.275c1.486-16.6,2.703-33.233,3.562-49.877c0.419-8.119,3.277-13.381,10.474-18.222
	c15.432-10.381,29.969-22.136,44.523-33.765c14.973-11.965,29.19-24.89,44.35-36.602c21.953-16.96,44.454-33.212,66.728-49.755
	c4.238-3.148,8.305-6.596,12.818-9.288c6.508-3.883,10.924-2.082,12.104,5.232c1.141,7.074,1.64,14.332,1.582,21.502
	c-0.095,11.686-0.874,23.367-1.364,35.049C360.673,167.13,361.057,167.161,361.442,167.192z M153.54,476.008
	c0.328,0.326,0.656,0.653,0.983,0.979c1.209-0.609,2.462-1.145,3.617-1.843c1.661-1.004,3.268-2.102,4.87-3.201
	c26.195-17.972,52.959-34.92,82.195-47.706c9.406-4.114,18.513-9.039,27.376-14.242c14.389-8.446,28.478-17.405,42.666-26.193
	c5.272-3.265,10.465-6.659,15.293-9.739c-27.821-31.294-62.281-52.984-94.83-77.631c-0.941,1.663-1.834,3.036-2.53,4.503
	c-6.886,14.525-14.769,28.54-20.677,43.578c-6.388,16.26-14,32.036-20.935,48.085c-7.721,17.869-15.043,35.913-22.999,53.675
	C164.034,456.397,158.58,466.11,153.54,476.008z M351.305,123.195c-0.528-0.23-1.057-0.461-1.585-0.691
	c-13.375,21.95-26.687,43.911-42.691,64.086c-16.191,20.411-31.63,41.417-47.509,62.308c8.561,13.207,16.343,26.049,24.959,38.306
	c12.792,18.198,26.148,35.999,39.321,53.928c3.703,5.04,7.606,9.934,11.417,14.896c2.414-12.716,3.788-24.807,4.222-36.931
	c0.874-24.448,1.224-48.915,1.828-73.373c0.062-2.501,0.324-5.001,0.579-7.492c3.144-30.688,6.454-61.361,9.352-92.072
	C351.915,138.568,351.305,130.853,351.305,123.195z M154.551,453.435c1.727-0.653,2.494-0.701,2.656-1.039
	c24.014-50.126,40.852-103.401,66.963-152.614c1.539-2.9,2.409-6.155,3.786-9.757c-15.289-13.077-33.255-21.895-49.179-34.852
	c-1.498,16.275-2.813,31.183-4.269,46.077c-0.622,6.36-1.365,12.718-2.352,19.031c-2.233,14.287-5.003,28.497-6.912,42.824
	c-3.012,22.604-5.511,45.276-8.195,67.924C156.187,438.302,155.423,445.586,154.551,453.435z M336.975,127.792
	c-0.699-0.706-1.398-1.412-2.098-2.118c-51.562,34.218-96.551,76.885-146.328,113.783c1.182,1.109,1.532,1.738,1.953,1.788
	c9.375,1.132,18.734,2.637,28.147,3.158c9.439,0.522,19.241,4.594,28.281-1.79c4.272,1.717,6.718-0.831,9.029-3.812
	c7.486-9.658,15.065-19.243,22.481-28.954c9.118-11.939,18.389-23.777,27.083-36.021
	C316.282,158.675,326.515,143.153,336.975,127.792z M243.462,283.479c7.722,1.597,15.325,4.923,24.249,5.614
	c-3.691-9.69-9.192-11.073-20.059-10.826C244.687,278.335,242.811,279.112,243.462,283.479z M257.352,296.783
	c7.081,5.217,15.048,7.751,24.019,8.036c-0.993-2.005-2.201-4.341-3.84-4.697C270.877,298.679,264.09,297.843,257.352,296.783z
	 M295.472,320.823c-4.684-4.717-9.152-5.147-15.142-5.359C284.813,320.228,288.269,323.698,295.472,320.823z M240.146,258.268
	c0.06-0.581,0.12-1.162,0.181-1.742c-6.791-0.732-13.582-1.463-20.373-2.195c-0.062,0.588-0.124,1.176-0.186,1.763
	C226.56,256.819,233.353,257.544,240.146,258.268z M309.559,340.668c0.419-0.459,0.839-0.919,1.258-1.378
	c-2.213-2.161-3.047-6.012-7.999-4.912C305.065,336.475,307.312,338.572,309.559,340.668z M233.762,278.845
	c0.056-0.66,0.112-1.32,0.168-1.981c-1.653-0.132-3.306-0.263-4.959-0.395c-0.06,0.565-0.12,1.13-0.18,1.696
	C230.448,278.391,232.105,278.618,233.762,278.845z"/>
<path style="fill:#fff" d="M94.241,55.226c6.107,2.298,6.407,3.378,2.217,8.567c-3.807-2.187-1.81-5.738-2.067-8.712
	C94.392,55.08,94.241,55.226,94.241,55.226z"/>
</svg>
