<?xml version="1.0" encoding="utf-8"?>
<!-- Generator: Adobe Illustrator 19.0.0, SVG Export Plug-In . SVG Version: 6.00 Build 0)  -->
<svg version="1.1" id="Layer_7" xmlns="http://www.w3.org/2000/svg" xmlns:xlink="http://www.w3.org/1999/xlink" x="0px" y="0px"
	 viewBox="0 0 500 500" enable-background="new 0 0 500 500" xml:space="preserve">
<path style="fill:#fff" d="M410.234,307.863c-13.25,5.321-26.64,10.811-40.117,16.079c-14.146,5.53-28.311,11.02-42.582,16.216
	c-19.99,7.279-40.049,14.377-60.146,21.357c-21.481,7.46-42.734,15.399-62.311,27.193c-1.733,1.044-3.296,2.372-5.425,3.922
	c-1.863-1.32-4.181-2.515-5.933-4.275c-13.036-13.092-25.98-26.274-38.912-39.469c-12.61-12.866-25.42-25.547-37.686-38.734
	c-13.377-14.381-26.195-29.281-39.324-43.894c-6.568-7.31-13.307-14.467-19.921-21.736c-1.727-1.898-3.508-3.811-4.865-5.969
	c-3.811-6.057-2.481-11.302,4.179-14.21c18.812-8.213,37.259-17.321,57.27-22.609c9.228-2.438,18.071-6.294,27.224-9.061
	c8.277-2.503,16.803-4.176,25.103-6.611c16.831-4.939,33.621-10.018,49.652-17.3c2.491-1.131,5.4-1.309,8.067-2.094
	c2.218-0.653,4.603-1.184,6.488-2.42c3.139-2.058,6.367-3.197,10.061-4.002c2.614-0.57,4.538-0.675,6.396,0.929
	c4.588,3.96,9.169,7.941,13.557,12.119c7.452,7.096,14.677,14.429,22.138,21.515c6.784,6.443,13.774,12.669,20.64,19.026
	c14.749,13.655,29.632,27.171,44.153,41.064c7.864,7.524,16.689,13.364,26.061,18.813c6.978,4.057,12.88,9.985,19.193,15.162
	c3.781,3.1,7.163,6.772,11.224,9.42C407.896,300.56,409.976,303.133,410.234,307.863z M64.195,237.95
	c-0.298,0.512-0.595,1.023-0.893,1.535c3.436,3.385,6.967,6.679,10.291,10.17c18.379,19.301,36.705,38.653,55.057,57.979
	c4.991,5.256,10.501,10.107,14.894,15.82c6.026,7.836,12.589,15.05,19.758,21.826c4.235,4.002,7.842,8.668,11.755,13.013
	c6.849,7.604,14.059,14.826,22.662,21.99c2.271-5.023,4.82-9.075,5.957-13.49c2.737-10.629,5.229-21.356,7.069-32.172
	c4.122-24.22,7.781-48.518,11.645-72.782c0.654-4.108,1.393-8.203,2.138-12.567c-1.882-0.517-3.167-1.079-4.493-1.204
	c-16.068-1.514-32.128-3.162-48.221-4.341c-7.458-0.546-15.02-0.591-22.471-0.022c-5.43,0.415-10.673,1.052-15.867-1.078
	c-0.825-0.338-1.841-0.227-2.772-0.288c-10.04-0.66-20.081-1.308-30.121-1.971C88.454,239.567,76.325,238.756,64.195,237.95z
	 M210.693,373.635c11.712-4.336,22.372-8.208,32.976-12.228c12.011-4.553,24.025-9.108,35.939-13.907
	c9.937-4.003,19.738-8.347,29.588-12.564c7.716-3.304,15.224-7.226,23.165-9.839c13.086-4.307,26.444-7.789,39.694-11.596
	c6.836-1.964,13.651-3.96,20.598-8.088c-11.824-4.034-22.529-7.782-33.297-11.337c-13.305-4.393-26.892-8.038-39.928-13.108
	c-10.904-4.241-21.621-8.86-32.979-11.823c-5.65-1.474-11.146-3.556-16.817-4.924c-5.563-1.343-10.981-3.68-16.85-3.522
	c-4.562,11.164-8.994,21.953-13.354,32.77c-0.42,1.042-0.878,2.464-0.498,3.363c1.385,3.273,0.184,5.257-2.492,7.1
	c-1.037,0.714-1.716,2.173-2.199,3.43c-6.544,17.015-11.761,34.525-19.608,51.067C212.509,362.896,212.056,368.155,210.693,373.635z
	 M234.797,171.728c-2.032,0.351-3.405,0.193-4.225,0.791c-8.296,6.053-18.443,7.597-27.655,11.388
	c-7.989,3.288-16.6,5.127-24.45,8.681c-16.471,7.458-33.286,13.72-50.851,18.062c-10.648,2.632-21.197,5.685-31.738,8.728
	c-6.294,1.817-12.523,3.88-18.714,6.029c-3.35,1.163-6.556,2.739-10.976,4.616c7.645,2.142,154.429,7.772,159.865,6.449
	C228.914,215.289,231.787,194.015,234.797,171.728z M376.85,291.381c0.219-0.581,0.437-1.161,0.656-1.742
	c-1.036-0.885-2.056-1.791-3.111-2.653c-10.493-8.575-21.058-17.063-31.469-25.735c-9.319-7.762-18.406-15.805-27.723-23.569
	c-5.549-4.624-11.557-8.71-16.979-13.47c-7.523-6.605-15.381-12.796-21.687-20.814c-6.329-8.048-13.605-15.371-20.703-22.785
	c-2.454-2.564-5.619-4.448-9.043-7.094c0,6.341-0.47,11.494,0.106,16.526c0.945,8.246,0.463,16.816,4.675,24.486
	c0.476,0.867,0.107,2.218,0.072,3.342c-0.112,3.677-0.397,7.356-0.331,11.029c0.049,2.789,0.66,5.564,0.797,8.356
	c0.467,9.561,1.625,11.102,10.572,14.045c7.542,2.481,15.099,4.93,22.568,7.619c13.407,4.827,26.719,9.92,40.137,14.716
	c8.573,3.065,17.287,5.735,25.898,8.697C359.833,285.275,368.331,288.36,376.85,291.381z M231.507,256.217
	c-0.696,2.603-1.39,4.582-1.737,6.62c-0.771,4.523,1.673,7.859,6.514,9.161c3.106,0.835,4.483-0.553,5.89-6.001
	c0.343-1.328,0.591-2.68,1.028-4.684C239.319,259.62,235.598,257.999,231.507,256.217z M236.904,280.234
	c-3.3-1.872-5.631-3.194-8.751-4.964c-0.755,3.723-1.377,6.579-1.907,9.452c-0.925,5.016-0.901,5.02,5.435,7.212
	C233.289,288.332,234.929,284.657,236.904,280.234z M242.256,228.997c0.889-10.826,0.302-12.295-6.073-14.731
	c-0.319,3.564-0.617,6.906-0.916,10.251C237.624,226.029,239.555,227.266,242.256,228.997z M224.664,297.497
	c-1.314,5.295-2.631,9.856-1.213,16.166c2.861-5.077,4.392-9.187,4.493-13.698C227.958,299.341,226.293,298.679,224.664,297.497z
	 M241.381,238.787c0.283-0.453,0.566-0.906,0.849-1.359c-2.35-1.42-4.7-2.84-7.294-4.408
	C233.952,238.711,233.952,238.711,241.381,238.787z M240.393,205.762c-0.22-3.137-0.439-6.273-0.659-9.41
	c-0.467,0.033-0.933,0.065-1.4,0.098C238.948,199.559,236.022,202.916,240.393,205.762z M242.296,252.909
	c0.147-0.672,0.294-1.344,0.441-2.016c-1.885-0.473-3.77-0.946-5.655-1.418c-0.129,0.47-0.258,0.939-0.387,1.409
	C238.562,251.559,240.429,252.234,242.296,252.909z"/>
<path style="fill:#fff" d="M205.613,400.035c4.852,1.358,5.906,4.233,5.375,8.836c-3.151,0-6.164,0-10.456,0
	C202.576,405.315,204.097,402.671,205.613,400.035z"/>
<path style="fill:#fff" d="M121.679,113.258c2.888-1.227,4.96-2.107,7.81-3.317c1.201,2.328,2.26,4.379,3.292,6.379
	C127.691,119.959,125.055,117.093,121.679,113.258z"/>
</svg>
