<?xml version="1.0" encoding="utf-8"?>
<!-- Generator: Adobe Illustrator 19.0.0, SVG Export Plug-In . SVG Version: 6.00 Build 0)  -->
<svg version="1.1" id="Layer_0" xmlns="http://www.w3.org/2000/svg" xmlns:xlink="http://www.w3.org/1999/xlink" x="0px" y="0px"
	 viewBox="0 0 500 500" enable-background="new 0 0 500 500" xml:space="preserve">
<path style="fill:#fff" d="M380.464,242.592c-2.813,5.585-5.321,10.136-7.443,14.859c-6.238,13.886-12.799,27.655-18.321,41.825
	c-4.643,11.915-8.343,24.233-11.848,36.547c-4.292,15.079-12.692,28.206-19.043,42.3c-5.859,13.002-11.222,26.227-16.853,39.333
	c-1.809,4.211-3.676,8.403-5.69,12.518c-4.351,8.893-8.48,17.919-13.319,26.543c-5.489,9.782-9.714,19.984-12.495,30.812
	c-0.667,2.597-2.075,4.647-4.79,4.67c-2.398,0.021-3.848-1.32-5.302-3.85c-6.126-10.661-13.251-20.746-19.438-31.375
	c-9.729-16.713-18.908-33.746-28.486-50.548c-8.377-14.696-16.644-29.472-25.577-43.829c-10.975-17.637-22.464-34.96-33.972-52.258
	c-8.841-13.288-18.09-26.305-27.081-39.494c-2.396-3.515-6.67-5.811-7.067-10.617c-0.114-1.382-0.348-3.033,0.245-4.151
	c5.176-9.76,11.022-19.194,15.727-29.168c10.421-22.091,20.378-44.403,30.344-66.705c3.255-7.283,5.652-14.952,8.961-22.208
	c11.435-25.077,23.093-50.053,34.679-75.062c5.901-12.738,12.064-25.315,19.943-37.015c2.397-3.56,3.494-7.97,5.495-11.831
	c1.152-2.222,2.783-5.708,4.439-5.851c3.813-0.33,7.591,1.608,9.675,5.193c1.567,2.695,2.467,5.771,3.739,8.644
	c2.248,5.08,4.69,10.079,6.79,15.218c1.631,3.991,2.757,8.185,4.312,12.21c1.037,2.684,2.218,5.358,3.701,7.816
	c10.253,17.003,20.994,33.724,30.824,50.965c13.299,23.326,25.735,47.144,38.897,70.551c10.44,18.568,21.344,36.878,32.215,55.199
	C375.768,237.278,378.628,240.238,380.464,242.592z M273.063,471.341c1.196-2.396,1.947-3.752,2.568-5.166
	c5.058-11.505,10.06-23.035,15.14-34.53c5.856-13.247,11.774-26.467,17.666-39.699c2.161-4.853,4.288-9.722,6.49-14.556
	c6.01-13.194,12.694-26.126,17.904-39.627c5.388-13.963,8.824-28.676,14.105-42.687c4.85-12.866,11.035-25.228,16.595-37.828
	c1.033-2.342,1.891-4.761,3.33-8.413c-3.893,0.625-6.432,1.089-8.987,1.431c-6.218,0.835-12.441,1.629-18.666,2.408
	c-3.106,0.389-6.218,0.727-9.331,1.054c-9.377,0.985-18.832,3.192-28.114,2.616c-11.941-0.741-23.673-0.339-35.471,1
	c-3.294,0.374-6.606,0.587-10.799,0.95c0.441,10.758,0.562,20.897,1.335,30.987c1.387,18.09,3.304,36.138,4.741,54.224
	c1.296,16.31,2.167,32.654,3.373,48.972c1.266,17.129,2.518,34.264,4.152,51.361C269.934,452.634,271.592,461.349,273.063,471.341z
	 M133.194,255.023c4.636-1.405,7.751-2.459,10.924-3.29c9.088-2.38,18.153-4.877,27.316-6.935c8.25-1.853,16.794-2.565,24.891-4.887
	c13.922-3.992,27.617-8.787,41.369-13.36c7.924-2.635,7.7-2.739,7.838-11.292c0.383-23.689-2.128-47.309-0.636-71.062
	c1.699-27.067,0.722-54.203-1.397-81.256c-0.799-10.195-2.034-20.356-3.236-32.164c-3.006,4.789-5.41,8.102-7.271,11.696
	c-3.774,7.288-7.263,14.722-10.851,22.106c-7.182,14.78-14.551,29.472-21.477,44.371c-9.765,21.01-19.108,42.215-28.796,63.261
	c-11.219,24.372-22.612,48.664-33.94,72.986C136.627,247.989,135.256,250.749,133.194,255.023z M262.328,465.954
	c-6.253-69.249-9.767-138.167-15.326-207.152c-4.132,0-7.801-0.407-11.35,0.073c-13.211,1.787-26.398,1.998-39.741,1.607
	c-17.395-0.51-34.836,0.4-52.253,0.847c-3.009,0.077-5.999,0.894-10.145,1.551c3.124,4.471,5.541,8.019,8.048,11.503
	c9.749,13.546,19.74,26.924,29.231,40.648c8.791,12.712,17.312,25.627,25.49,38.741c9.198,14.749,18.11,29.689,26.718,44.79
	c9.095,15.954,17.511,32.295,26.58,48.265C253.356,453.472,258.052,459.594,262.328,465.954z M250.393,33.687
	c-0.608,0.118-1.215,0.237-1.823,0.355c0.367,4.562,0.795,9.121,1.092,13.688c1.3,20.018,3.17,40.024,3.651,60.063
	c0.399,16.657-1.225,33.352-1.267,50.031c-0.043,17.169,0.757,34.34,1.157,51.511c0.078,3.331,0.011,6.665,0.011,10.814
	c8.92,1.056,17.005,2.069,25.105,2.951c4.317,0.47,8.683,0.527,12.982,1.106c5.98,0.805,11.928,2.804,17.871,2.733
	c13.229-0.158,25.929,2.164,38.596,5.582c4.936,1.332,10.17,1.557,15.919,2.38c-24.056-43.44-47.56-85.883-71.314-128.777
	c-4.287,2.584-6.466,0.708-7.927-3.074c-1.567-4.058-3.155-8.136-5.132-12.002c-3.834-7.495-7.975-14.833-11.934-22.265
	c-2.493-4.682-5.004-9.361-7.297-14.141C256.754,47.704,253.614,40.676,250.393,33.687z M254.583,229.823
	c3.675,9.684,32.953,20.378,46.905,16.893C286.571,237.663,272.873,227.961,254.583,229.823z M327.763,245.433
	c-11.489-9.849-20.653-12.812-33.959-11.704c5.969,4.176,12.041,8.457,18.164,12.663c0.735,0.505,1.782,0.933,2.624,0.841
	C318.585,246.797,322.556,246.167,327.763,245.433z M213.851,243.865c12.518,7.538,16.862,8.544,25.029,5.872
	c-4.569-2.492-8.949-4.907-13.353-7.277C221.606,240.352,217.871,240.408,213.851,243.865z M329.679,235.611
	c6.827,7.499,14.513,12.183,24.957,5.849C345.941,239.422,337.81,237.517,329.679,235.611z M231.074,237.812
	c5.703,2.81,10.03,4.941,14.67,7.227c1.305-3.724,1.639-6.647-1.024-8.566C240.724,233.594,236.63,234.97,231.074,237.812z
	 M266.38,248.93c0.105-0.514,0.209-1.027,0.314-1.541c-3.719-1.928-7.438-3.855-11.764-6.098c0,3.08,0,5.124,0,7.639
	C259.01,248.93,262.695,248.93,266.38,248.93z M167.602,253.17c7.658-1.051,15.634,0.951,23.322-1.426
	C182.939,247.751,175.466,253.194,167.602,253.17z M199.021,247.92c5.901,5.728,7.671,6.26,14.777,4.197
	C208.537,250.681,205.108,245.634,199.021,247.92z"/>
<path style="fill:#fff" d="M241.557,372.438c-1.463,1.588-2.926,3.176-4.699,5.1C235.519,371.953,235.519,371.953,241.557,372.438z"/>
</svg>
