<?xml version="1.0" encoding="utf-8"?>
<!-- Generator: Adobe Illustrator 19.0.0, SVG Export Plug-In . SVG Version: 6.00 Build 0)  -->
<svg version="1.1" id="Layer_2" xmlns="http://www.w3.org/2000/svg" xmlns:xlink="http://www.w3.org/1999/xlink" x="0px" y="0px"
	 viewBox="0 0 500 500" enable-background="new 0 0 500 500" xml:space="preserve">
<path style="fill:#fff" d="M222.52,283.871c-1.035-0.531-2.205-1.084-3.332-1.715c-13.606-7.625-25.796-16.855-36.384-28.536
	c-8.399-9.266-18.341-17.125-27.478-25.736c-7.968-7.511-15.673-15.301-23.661-22.791c-16.961-15.902-33.979-31.745-51.085-47.492
	c-5.872-5.406-5.639-8.194,1.332-11.537c12.255-5.876,24.448-11.882,36.687-17.794c16.105-7.78,32.318-15.342,48.319-23.328
	c16.961-8.466,33.684-17.407,50.594-25.977c15.969-8.093,32.029-16.007,48.082-23.933c8.029-3.964,14.707-3.121,20.654,3.32
	c11.775,12.751,23.427,25.627,34.78,38.754c14.142,16.351,27.927,33.011,41.871,49.532c8.44,9.999,16.792,20.073,25.365,29.956
	c8.214,9.468,16.898,18.537,24.938,28.147c6.817,8.148,13.484,16.504,19.32,25.361c4.238,6.432,3.119,7.474-4.057,9.892
	c-22.351,7.53-45.534,11.408-68.606,15.669c-20.463,3.779-41.09,6.668-61.603,10.187c-7.623,1.308-15.13,3.296-22.692,4.963
	c-11.445,2.523-22.904,4.983-34.332,7.578c-4.663,1.059-9.273,2.363-13.883,3.643C225.819,282.46,224.364,283.16,222.52,283.871z
	 M279.619,63.777c-0.548,0.359-1.095,0.718-1.643,1.077c-1.895,14.818-3.174,29.746-5.813,44.43
	c-5.396,30.03-7.158,60.384-9.541,90.708c-1.106,14.066-1.492,28.286-6.029,41.927c-1.103,3.316-3.066,6.958-0.598,10.967
	c12.725-1.278,25.45-2.465,38.153-3.859c10.612-1.165,21.342-1.874,31.765-4.02c21.229-4.372,42.585-7.426,64.17-9.294
	c10.822-0.936,21.548-2.978,34.02-4.764c-3.235-4.517-5.395-8.09-8.088-11.202c-13.803-15.955-27.755-31.779-41.63-47.671
	c-11.954-13.692-24.418-26.984-35.675-41.228c-14.418-18.244-28.656-36.57-45.422-52.776
	C288.551,73.494,284.165,68.552,279.619,63.777z M92.014,152.078c2.743,1.792,4.429,2.988,6.203,4.035
	c7.354,4.341,14.836,8.472,22.086,12.977c28.574,17.753,56.908,35.86,84.086,55.741c6.582,4.815,14.131,8.306,21.252,12.415
	c3.457-6.492,39.055-149.767,41.539-166.595c0.256-1.734-0.127-3.561-0.258-6.257C208.467,93.698,150.725,122.645,92.014,152.078z
	 M218.263,269.857c1.675-6.541,3.232-12.456,4.697-18.395c1.372-5.563,1.191-5.933-3.971-8.747
	c-4.445-2.424-9.172-4.416-13.347-7.234c-19.023-12.839-37.809-26.028-56.857-38.829c-9.203-6.185-18.795-11.79-28.211-17.658
	c-0.29,1.732,0.107,2.65,0.764,3.309c11.497,11.531,22.942,23.115,34.569,34.514c12.195,11.955,24.622,23.674,36.848,35.598
	C199.994,259.474,206.866,266.98,218.263,269.857z M242.414,214.439c-5.057,11.958-4.716,12.966,6.573,20.733
	C253.976,224.619,252.952,221.204,242.414,214.439z M253.436,211.681c0-6.939,0.224-12.437-0.191-17.888
	c-0.082-1.078-2.624-1.968-4.103-2.995C243.07,202.979,243.254,204.157,253.436,211.681z M279.019,260.269
	c-15.037-1.801-25.126,0.548-30.987,7.135C259.189,264.835,269.104,262.552,279.019,260.269z M236.808,236.231
	c-2.713,6.908-0.369,9.563,9.968,12.301C246.851,241.705,240.766,240.423,236.808,236.231z M243.824,256.911
	c-4.763-2.228-8.038-3.759-11.18-5.229c-2.97,4.73-1.709,7.606,1.746,9.551C238.212,263.384,239.892,259.904,243.824,256.911z
	 M253.557,181.921c2-7.187,1.973-7.566-0.824-11.528C249.301,177.886,249.356,178.661,253.557,181.921z M258.034,149.816
	c-0.452-0.021-0.904-0.043-1.356-0.064c-0.568,2.731-1.137,5.463-1.705,8.194c0.446,0.079,0.891,0.157,1.337,0.236
	C256.884,155.393,257.459,152.605,258.034,149.816z"/>
</svg>
