<?xml version="1.0" encoding="utf-8"?>
<!-- Generator: Adobe Illustrator 19.0.0, SVG Export Plug-In . SVG Version: 6.00 Build 0)  -->
<svg version="1.1" id="Layer_6" xmlns="http://www.w3.org/2000/svg" xmlns:xlink="http://www.w3.org/1999/xlink" x="0px" y="0px"
	 viewBox="0 0 500 500" enable-background="new 0 0 500 500" xml:space="preserve">
<path style="fill:#fff" d="M117.15,44.06c2.121-3.478,5.19-3.587,8.434-2.63c2.28,0.672,4.509,1.581,6.671,2.578
	c20.021,9.228,40.986,15.816,61.886,22.677c13.323,4.373,26.184,10.147,39.274,15.234c25.68,9.979,51.44,19.753,77.039,29.936
	c13.516,5.377,26.761,11.436,40.13,17.184c3.847,1.654,3.768,5.51,4.618,8.674c2.127,7.921,4.123,15.889,5.823,23.912
	c3.73,17.606,7.287,35.249,10.833,52.893c3.13,15.575,6.225,31.157,9.195,46.763c2.574,13.524,5.193,27.046,7.358,40.639
	c3.209,20.145,5.944,40.366,9.087,60.522c0.771,4.943,2.599,9.719,3.42,14.658c0.35,2.102,0.046,4.967-1.183,6.518
	c-1.7,2.147-4.086,0.676-6.396-0.433c-6.666-3.201-13.449-6.215-20.362-8.837c-25.743-9.767-51.543-19.386-77.351-28.979
	c-10.421-3.873-20.864-7.704-31.397-11.256c-21.073-7.104-42.225-13.973-63.325-20.995c-13.056-4.345-26.095-8.741-39.101-13.233
	c-2.812-0.971-5.209-1.521-8.342-0.407c-5.386,1.916-6.932-0.424-6.039-6.462c0.604-4.088,0.221-8.41-0.281-12.56
	c-4.008-33.159-8.197-66.296-12.23-99.452c-1.929-15.858-1.951-31.994-7.052-47.378c2.614-13.174-2.273-25.796-2.996-38.746
	c-0.737-13.197-3.063-26.315-4.917-39.435C119.398,51.573,118.092,47.81,117.15,44.06z M135.902,55.554
	c1.22,2.473,1.972,4.674,3.26,6.496c5.647,7.989,11.618,15.752,17.162,23.811c14.861,21.605,30.3,42.863,44.113,65.125
	c12.691,20.455,23.554,42.043,35.251,63.116c1.102,1.985,2.413,3.855,4.007,6.381c12.629-9.421,24.989-18.046,36.668-27.511
	c13.123-10.637,25.498-22.192,38.452-33.044c8.958-7.505,18.158-14.696,25.531-23.949C315.521,122.94,159.852,61.636,135.902,55.554
	z M257.465,254.505c7.539,6.488,14.199,12.459,21.113,18.123c17.805,14.586,36.013,28.695,53.497,43.653
	c12.851,10.994,24.701,23.15,37.216,34.547c5.959,5.427,12.429,10.294,18.668,15.414c1.177-3.475,1.114-6.033,0.7-8.534
	c-3.756-22.716-7.278-45.477-11.459-68.115c-3.845-20.822-8.547-41.483-12.627-62.263c-3.061-15.59-5.729-31.257-8.593-46.885
	c-0.283-1.544-0.225-3.551-1.17-4.501c-3.142-3.154-2.911-7.184-3.735-11.02c-1.022-4.758-0.809-9.995-4.843-14.855
	C315.639,184.228,288.276,220.262,257.465,254.505z M156.303,282.906c4.302-3.209,7.425-5.607,10.617-7.908
	c16.548-11.925,33.181-23.733,49.602-35.83c2.619-1.93,3.96-5.564,6.535-7.594c2.478-1.954,5.79-2.851,9.006-4.339
	C204.51,167.91,168.027,115.091,128.732,62.03c0.922,6.286,1.494,11.136,2.366,15.93c1.845,10.134,4.371,20.174,5.657,30.373
	c1.786,14.157,2.471,28.45,4.018,42.642c3.302,30.293,6.803,60.564,10.328,90.831C152.656,255.149,154.466,268.461,156.303,282.906z
	 M167.783,292.043c1.261,1.131,1.592,1.655,2.045,1.802c24.148,7.859,48.301,15.7,72.468,23.502
	c3.529,1.139,7.196,1.875,10.675,3.141c15.667,5.701,31.337,11.399,46.915,17.338c18.56,7.076,37.016,14.426,55.544,21.587
	c3.848,1.487,7.816,2.666,11.728,3.987c-0.313-2.369-1.156-3.66-2.26-4.664c-17.24-15.675-34.203-31.673-51.863-46.861
	c-18.665-16.052-38.044-31.271-56.99-46.999c-2.526-2.097-4.638-2.801-7.835-1.727c-6.5,2.183-13.162,3.878-19.73,5.863
	c-6.813,2.059-13.684,3.976-20.367,6.401c-8.696,3.156-17.26,6.685-25.827,10.184C177.657,287.489,173.14,289.651,167.783,292.043z
	 M242.76,245.343c-3.823-1.552-6.922-3.05-10.177-4.028c-1.619-0.486-3.988-0.698-5.215,0.141
	c-3.997,2.733-7.623,6.007-11.691,9.315c16.046,8.418,16.046,8.418,24.986,4.505C241.308,252.219,241.949,249.184,242.76,245.343z
	 M243.318,229.092c2.154,3.295,3.756,6.689,6.228,9.239c2.143,2.211,5.405,4.049,8.399,1.105c2.686-2.642,4.914-5.749,7.344-8.651
	c-0.288-0.539-0.576-1.077-0.863-1.616C257.67,229.129,251.379,220.968,243.318,229.092z M269.34,222.852
	c2.447-1.631,4.439-2.615,5.981-4.076c1.784-1.69,3.171-3.799,4.812-5.827c-10.949-5.687-14.431-4.747-21.782,5.768
	C262.399,220.24,266.269,221.696,269.34,222.852z M218.754,262.567c-10.534-7.221-11.542-8.554-21.933,3.627
	C205.147,270.715,211.172,263.186,218.754,262.567z M278.926,202.649c8.532,4.367,11.237,2.864,16.714-8.701
	C289.035,190.926,287.654,191.62,278.926,202.649z M301.455,188.487c4.2-4.992,8-9.508,11.8-14.024
	c-0.3-0.266-0.6-0.531-0.899-0.797c-4.853,3.751-9.706,7.503-14.811,11.449C298.876,186.263,299.655,186.934,301.455,188.487z
	 M191.371,274.251c-6.616-2.741-8.063-2.161-13.089,4.256C182.3,277.201,186.157,275.947,191.371,274.251z"/>
<path style="fill:#fff" d="M461.093,93.306c2.975,2.053,5.402,3.728,8.355,5.767c-3.484,3.033-6.399,2.626-9.055,0.828
	C458.119,98.362,459.036,96.35,461.093,93.306z"/>
</svg>
