<?xml version="1.0" encoding="utf-8"?>
<!-- Generator: Adobe Illustrator 19.0.0, SVG Export Plug-In . SVG Version: 6.00 Build 0)  -->
<svg version="1.1" id="Layer_8" xmlns="http://www.w3.org/2000/svg" xmlns:xlink="http://www.w3.org/1999/xlink" x="0px" y="0px"
	 viewBox="0 0 500 500" enable-background="new 0 0 500 500" xml:space="preserve">
<path style="fill:#fff" d="M9.239,396.492c10.319-4.59,20.06-9.29,30.082-13.301c17.698-7.084,35.494-13.943,53.389-20.523
	c12.472-4.586,25.185-8.527,37.77-12.817c1.816-0.619,3.515-1.575,5.265-2.383c4.663-2.152,5.226-2.024,8.902,1.65
	c9.541,9.536,18.976,19.195,30.379,26.649c2.681,1.752,5.468,3.369,8.002,5.309c1.04,0.796,2.416,2.684,2.097,3.371
	c-0.602,1.297-2.261,2.865-3.584,2.961c-13.415,0.976-24.762,8.225-37.323,11.776c-19.593,5.538-39.086,11.435-58.536,17.451
	c-15.155,4.687-30.226,9.69-44.394,16.913c-4.36,2.223-8.456,4.95-12.691,7.458c-3.172-1.41-4.944-3.44-5.928-6.876
	c-3.381-11.81-6.521-23.741-12.583-34.62C9.52,398.492,9.433,397.214,9.239,396.492z M16.524,399.572
	c4.307,11.622,8.388,22.633,12.522,33.789c4.115-2.279,7.506-4.622,11.239-6.138c11.265-4.573,22.649-8.861,34.017-13.182
	c4.79-1.821,9.605-3.603,14.497-5.13c13.249-4.135,26.546-8.12,39.812-12.202c0.255-0.079,0.362-0.625,0.594-1.055
	c-1.598-0.687-3.189-1.37-4.78-2.054c-0.03-0.442-0.061-0.883-0.091-1.325c1.649-0.537,3.563-1.859,4.883-1.421
	c1.864,0.619,3.289,2.54,5.799,4.664c11.642-4.363,23.995-8.993,36.393-13.64c-11.227-9.98-21.891-19.459-32.54-28.925
	c-11.919,4.268-23.345,9.004-35.16,12.434c-16.099,4.674-31.638,10.736-47.217,16.756c-7.394,2.858-14.867,5.541-22.136,8.683
	C28.313,393.44,22.516,396.608,16.524,399.572z"/>
</svg>
