<?xml version="1.0" encoding="utf-8"?>
<!-- Generator: Adobe Illustrator 19.0.0, SVG Export Plug-In . SVG Version: 6.00 Build 0)  -->
<svg version="1.1" id="Layer_3" xmlns="http://www.w3.org/2000/svg" xmlns:xlink="http://www.w3.org/1999/xlink" x="0px" y="0px"
	 viewBox="0 0 500 500" enable-background="new 0 0 500 500" xml:space="preserve">
<path style="fill:#fff" d="M460.071,155.664c-0.06-0.07,0.411,0.317,0.685,0.813c6.382,11.586,12.856,23.124,19.055,34.807
	c2.645,4.985,4.774,10.252,6.992,15.452c0.586,1.374,0.887,2.98,0.875,4.477c-0.032,3.844-1.137,4.897-4.989,4.425
	c-6.38-0.781-12.805-1.469-19.074-2.83c-16.093-3.494-32.481-4.188-48.787-5.748c-15.91-1.523-31.778-3.482-47.687-5.013
	c-6.763-0.651-13.582-0.84-20.38-0.985c-7.412-0.157-14.831-0.053-22.246,0.009c-2.302,0.019-4.603,0.271-7.125,0.431
	c-0.307,1.683-0.698,2.97-0.755,4.271c-0.988,22.599-1.887,45.202-2.926,67.799c-0.269,5.841-0.896,11.669-1.479,17.491
	c-0.152,1.516-0.538,3.091-1.192,4.46c-2.156,4.51-5.442,6.383-10.763,5.548c-8.665-1.359-17.422-2.336-26.177-2.871
	c-16.139-0.985-32.298-1.741-48.46-2.203c-15.967-0.457-31.948-0.439-47.922-0.616c-2.91-0.032-5.821-0.005-9.197-0.005
	c0.305,1.857,0.503,3.703,0.919,5.499c2.771,11.954,5.409,23.944,8.44,35.832c3.127,12.265,6.512,24.469,10.077,36.614
	c1.208,4.114,1.208,7.939-0.261,12.275c-4.671,1.387-9.493,2.829-14.321,4.25c-7.639,2.247-15.282,4.479-22.924,6.714
	c-0.373,0.109-0.756,0.184-1.134,0.278c-11.32,2.824-22.664,5.554-33.948,8.517c-4.889,1.284-9.651,3.051-14.473,4.594
	c-15.758,5.045-31.377,10.507-47.858,13.019c-5.728,0.873-11.252,3.126-16.849,4.815c-5.227,1.577-10.745-1.151-12.292-6.348
	c-3.276-11.007-6.473-22.038-9.638-33.078c-0.972-3.392,0.06-5.239,3.912-6.631c6.583-2.379,13.218-4.619,19.865-6.815
	c9.794-3.236,19.667-6.241,29.419-9.597c16.747-5.761,33.429-11.712,50.134-17.595c4.917-1.731,9.819-3.503,15.193-5.423
	c-1.256-7.354-2.097-14.493-3.733-21.444c-4.954-21.049-10.198-42.029-15.379-63.024c-0.837-3.391-1.93-6.718-2.889-10.018
	c2.6-3.613,6.148-4.132,9.964-4.013c17.146,0.534,34.289,1.295,51.438,1.479c7.761,0.083,15.53-1.08,23.305-1.504
	c5.452-0.297,10.922-0.472,16.38-0.401c14.807,0.193,29.61,0.577,44.417,0.789c1.662,0.024,3.333-0.567,5.141-0.9
	c-1.965-22.632,1.945-44.681,2.729-66.869c0.2-5.647,0.112-11.305,0.159-16.958c0.008-0.977-0.009-1.956,0.055-2.929
	c0.52-7.87,1.66-8.224,9.476-9.437c7.574-1.175,14.593,1.142,21.866,1.663c13.607,0.975,27.172,2.518,40.766,3.687
	c11.842,1.018,23.688,2.127,35.555,2.677c11.495,0.532,23.02,0.477,34.532,0.545c13.84,0.082,27.68,0.022,41.521,0.023
	C451.733,155.664,455.381,155.664,460.071,155.664z M118.452,250.92c3.817,15.682,7.737,31.117,11.301,46.633
	c3.009,13.102,5.64,26.292,8.348,39.462c0.429,2.087,0.49,4.269,0.535,6.41c0.055,2.643-1.292,4.353-3.82,5.228
	c-13.99,4.84-27.93,9.826-41.96,14.545c-16.994,5.715-34.062,11.207-51.094,16.808c-6.805,2.238-13.599,4.511-20.987,6.964
	c3.466,12.618,6.791,24.724,10.198,37.125c5.308-1.675,9.859-3.476,14.578-4.536c17.298-3.888,34.518-7.972,51.157-14.254
	c6.178-2.332,12.56-4.171,18.932-5.938c18.588-5.154,37.232-10.103,55.817-15.264c4.021-1.117,7.887-2.788,12.139-4.318
	c-2.058-7.662-3.543-14.722-5.864-21.496c-4.372-12.76-7.381-25.817-10.06-39.009c-1.621-7.98-4.001-15.825-6.431-23.609
	c-0.779-2.497-0.232-4.011,1.812-4.634c2.362-0.72,4.946-0.956,7.436-0.971c9.166-0.055,18.337,0.277,27.497,0.074
	c13.056-0.29,26.083,0.036,39.104,0.929c9.332,0.639,18.684,1.92,27.996,1.689c12.368-0.307,24.501,1.167,36.681,2.684
	c1.262,0.157,2.561,0.021,4.46,0.021c0.736-13.733,1.576-27.117,2.14-40.513c0.656-15.583,0.94-31.181,1.637-46.761
	c0.48-10.732,1.988-11.983,13.007-12.472c0.78-0.035,1.561-0.062,2.342-0.071c9.536-0.106,19.072-0.246,28.608-0.289
	c3.118-0.014,6.272-0.025,9.351,0.395c22.028,3.007,44.137,5.133,66.305,6.83c10.859,0.831,21.644,2.654,32.45,4.126
	c5.953,0.811,11.877,1.826,18.552,2.863c-2.758-8.021-5.934-15.01-9.823-21.7c-4.404-7.576-8.911-15.1-13.033-22.829
	c-1.293-2.425-2.621-3.47-5.334-3.459c-8.388,0.034-16.777-0.223-25.165-0.214c-13.457,0.016-26.916,0.333-40.371,0.176
	c-8.377-0.098-16.746-0.836-25.119-1.282c-9.541-0.508-19.101-0.789-28.62-1.572c-13.196-1.086-26.36-2.548-39.538-3.848
	c-0.582-0.057-1.269-0.34-1.732-0.13c-4.906,2.223-9.742,0.238-14.609-0.112c-2.22-0.16-4.462-0.027-7.007-0.027
	c-0.196,4.074-0.444,7.558-0.512,11.047c-0.084,4.287,0.251,8.597-0.07,12.861c-0.893,11.864-2.343,23.693-2.986,35.567
	c-0.619,11.437-2.311,22.986,1.498,34.289c0.397,1.178-0.338,2.738-0.519,3.934c-2.858-0.816-4.991-1.916-7.148-1.964
	c-18.124-0.403-36.252-0.616-54.379-0.874c-0.972-0.014-1.96,0.001-2.917,0.153c-17.629,2.81-35.391,1.348-53.094,1.575
	c-9.721,0.125-19.451-0.481-29.177-0.72C120.23,250.424,119.493,250.713,118.452,250.92z"/>
<path style="fill:#fff" d="M257.442,459.043c0.372,3.895-2.038,4.676-4.853,5.527c-0.973-1.22-2.005-2.514-3.042-3.815
	C251.704,456.083,254.74,459.376,257.442,459.043z"/>
<path style="fill:#fff" d="M330.832,404.867c-3.004,1.678-5.419,2.273-7.84,0.154C325.975,402.109,325.975,402.109,330.832,404.867z"/>
<path style="fill:#fff" d="M200.714,326.667c1.022,1.727,1.668,2.818,2.313,3.909c-0.614,0.299-1.337,0.971-1.824,0.829
	C199.451,330.896,198.807,329.734,200.714,326.667z"/>
<path style="fill:#fff" d="M399.758,379.166c-1.554,3.425-3.644,4.885-6.731,4.883C395.659,383.204,395.181,378.378,399.758,379.166z"/>
<path style="fill:#fff" d="M402.188,386.34c-1.669,1.849-2.33,2.983-3.315,3.506c-0.51,0.271-1.595-0.54-2.42-0.862
	c0.591-0.726,1.055-1.666,1.81-2.113C398.945,386.467,399.946,386.604,402.188,386.34z"/>
<path style="fill:#fff" d="M146.794,162.891c-0.254-1.501-0.467-2.759-0.903-5.338c1.609,1.268,2.278,1.567,2.586,2.082
	C149.287,160.994,149.225,161.031,146.794,162.891z"/>
<path style="fill:#fff" d="M371.874,270.349c-1.884-0.788-3.049-1.275-4.222-1.765c0.198-0.384,0.282-0.869,0.533-0.982
	C370.07,266.752,371.379,267.078,371.874,270.349z"/>
<path style="fill:#fff" d="M367.348,256.612c-0.636-0.863-1.384-1.437-1.339-1.942c0.042-0.483,0.926-1.263,1.407-1.24
	c0.563,0.027,1.092,0.781,1.636,1.22C368.586,255.188,368.119,255.725,367.348,256.612z"/>
<path style="fill:#fff" d="M293.147,133.53c-1.163,0.7-2.037,1.227-3.069,1.848C290.139,132.778,290.139,132.778,293.147,133.53z"/>
<path style="fill:#fff" d="M137.816,256.048c0.804,2.366,1.441,4.239,2.23,6.558c-2.281,0.459-4.019,0.81-5.973,1.203
	C133.098,260.049,134.757,258.13,137.816,256.048z"/>
</svg>
