<?xml version="1.0" encoding="utf-8"?>
<!-- Generator: Adobe Illustrator 19.0.0, SVG Export Plug-In . SVG Version: 6.00 Build 0)  -->
<svg version="1.1" id="Layer_9" xmlns="http://www.w3.org/2000/svg" xmlns:xlink="http://www.w3.org/1999/xlink" x="0px" y="0px"
	 viewBox="0 0 500 500" enable-background="new 0 0 500 500" xml:space="preserve">
<path style="fill:#fff" d="M98.444,405.475c-0.145,0.18-0.508,1.016-1.068,1.265c-24.63,10.991-49.987,19.837-74.06,34.333
	c-0.85-2.716-1.488-4.651-2.062-6.611c-3.346-11.425-6.613-22.883-10.086-34.256c-0.495-1.621-1.969-2.843-3.463-4.901
	c2.281-1.378,4.345-3.174,6.662-3.935c14.702-4.835,28.136-12.917,41.653-20.873c3.751-2.208,8.018-3.234,11.986-4.989
	c3.358-1.485,6.604-3.302,9.942-4.849c1.593-0.738,3.279-1.213,4.934-1.764c1.859-0.619,2.879,0.25,3.437,2.305
	C90.3,375.842,94.327,390.464,98.444,405.475z M27.371,433.996c3.338-2.001,6.282-4.071,9.429-5.578
	c4.611-2.209,9.592-3.508,14.014-6.098c8.825-5.167,18.207-8.481,27.457-12.296c4.79-1.975,9.37-4.63,14.286-7.1
	c-3.974-13.158-7.74-25.625-11.536-38.191c-0.918,0.159-1.734,0.033-2.236,0.428c-6.629,5.228-14.518,6.944-21.733,10.512
	c-10.767,5.324-20.92,12.258-32.215,16.219c-2.942,1.032-5.824,2.294-8.713,3.441C16.818,402.531,22.306,421.48,27.371,433.996z"/>
</svg>
