<?xml version="1.0" encoding="utf-8"?>
<!-- Generator: Adobe Illustrator 19.0.0, SVG Export Plug-In . SVG Version: 6.00 Build 0)  -->
<svg version="1.1" id="Layer_7" xmlns="http://www.w3.org/2000/svg" xmlns:xlink="http://www.w3.org/1999/xlink" x="0px" y="0px"
	 viewBox="0 0 500 500" enable-background="new 0 0 500 500" xml:space="preserve">
<path style="fill:#fff" d="M122.836,356.074c-2.007-12.411-4.043-24.879-6.022-37.356c-0.375-2.362-0.575-4.756-0.765-7.143
	c-0.812-10.226-1.612-20.453-2.366-30.683c-0.229-3.111-2.537-6.741,0.687-9.176c3.309-2.499,5.395,1.39,7.995,2.577
	c6.49,2.964,13.047,5.786,19.482,8.863c2.728,1.305,5.173,3.187,7.825,4.668c6.654,3.716,13.262,7.535,20.081,10.924
	c2.409,1.197,5.377,1.27,8.25,1.891c0.159,1.074,0.406,1.911,0.386,2.741c-0.388,16.143,6.266,31.159,7.506,47.052
	c0.56,7.17,1.798,14.285,2.413,21.452c0.566,6.6-0.755,8.116-7.179,10.159c-16.882,5.367-33.865,10.45-50.578,16.303
	c-14.435,5.055-28.446,11.317-42.842,16.495c-16.912,6.082-33.585,12.589-49.387,21.25c-6.002,3.29-10.065,1.452-11.848-6.409
	c-1.858-8.188-5.583-15.489-8.557-23.154c-1.502-3.871-2.842-7.813-4.548-11.591c-0.841-1.863-2.349-3.424-3.68-5.299
	c0.809-2.796,2.96-3.663,5.773-4.198c5.328-1.013,10.636-2.236,15.845-3.744c7.767-2.249,15.372-5.066,23.166-7.208
	C77.005,368.294,99.597,362.316,122.836,356.074z M121.049,281.137c-1.78,8.223,4.845,65.339,9.284,79.803
	c-18.283,5.697-37.261,8.693-55.596,14.079c-18.627,5.471-37.248,10.964-56.776,16.714c5.774,13.212,11.223,25.68,16.909,38.693
	c23.645-13.163,49.117-20.099,73.025-30.789c23.945-10.707,49.548-16.699,73.693-25.722c0.203-1.239,0.355-1.668,0.33-2.086
	c-1.173-19.494-5.96-38.34-10.423-57.232c-0.893-3.78-2.324-7.288-6.381-9.502c-7.651-4.175-15.065-8.829-22.329-13.658
	C136.01,286.932,128.598,284.033,121.049,281.137z"/>
<path style="fill:#fff" d="M33.745,278.683c0.715-1.848,1.168-3.019,1.735-4.486c2.636-0.199,5.321-0.403,9.063-0.686
	C41.414,277.574,38.362,278.912,33.745,278.683z"/>
<path style="fill:#fff" d="M10.291,185.103c-2.203-1.992-3.382-3.058-4.837-4.373C9.521,180.73,9.521,180.73,10.291,185.103z"/>
<path style="fill:#fff" d="M115.939,206.658c0.671-1.449,1.342-2.899,2.013-4.348c0.182,0.048,0.364,0.096,0.546,0.143
	c-0.411,1.585-0.823,3.171-1.234,4.756C116.822,207.025,116.381,206.841,115.939,206.658z"/>
</svg>
