<?xml version="1.0" encoding="utf-8"?>
<!-- Generator: Adobe Illustrator 19.0.0, SVG Export Plug-In . SVG Version: 6.00 Build 0)  -->
<svg version="1.1" id="Layer_2" xmlns="http://www.w3.org/2000/svg" xmlns:xlink="http://www.w3.org/1999/xlink" x="0px" y="0px"
	 viewBox="0 0 500 500" enable-background="new 0 0 500 500" xml:space="preserve">
<path style="fill:#fff" d="M12.722,390.26c4.298-5.063,10.595-4.512,16.389-5.997c-0.399-1.216-0.746-2.274-1.101-3.354
	c2.561-1.018,3.07,0.751,3.822,2.738c4.076-1.177,8.133-2.523,12.278-3.499c4.865-1.145,9.818-1.911,14.709-2.952
	c2.868-0.61,5.862-1.049,8.502-2.231c12.03-5.384,24.753-8.592,37.331-12.258c8.61-2.51,17.245-4.932,25.859-7.427
	c0.628-0.182,1.176-0.638,2.107-1.16c-3.706-10.998-3.824-22.762-8.446-33.539c-2.233-5.207-3.488-10.842-5.075-16.315
	c-3.125-10.774-6.162-21.573-9.258-32.355c-0.761-2.649-1.715-5.247-2.385-7.917c-0.537-2.14-0.661-4.384-1.187-6.528
	c-0.437-1.779-1.193-3.481-1.884-5.433c0.529-1.236,1.542-2.706,1.727-4.274c0.218-1.845,1.178-2.341,2.654-2.542
	c2.217-0.301,4.457-0.463,6.658-0.85c17.029-2.992,34.037-2.892,51.049,0.154c17.418,3.119,34.949,4.475,52.672,4.114
	c11.568-0.236,23.154,0.546,34.734,0.751c2.544,0.045,5.098-0.418,8.027-0.681c0.554-4.994,1.357-9.574,1.52-14.177
	c0.635-17.978,0.982-35.966,1.606-53.944c0.347-10.004,0.941-20.001,1.6-29.99c0.316-4.792,3.54-7.919,8.117-8.454
	c10.351-1.211,20.689-0.755,31.055-0.044c9.999,0.686,20.04,0.774,30.038,1.469c7.751,0.539,15.461,1.654,23.199,2.423
	c5.334,0.53,10.675,1.035,16.026,1.323c10.306,0.555,20.387,2.736,30.586,4.055c5.115,0.662,10.198,1.573,15.308,2.279
	c1.344,0.186,2.736,0.028,4.71,0.028c0.161-5.663,0.424-11.14,0.451-16.619c0.052-10.542-0.134-21.085-0.024-31.626
	c0.1-9.608,0.446-19.214,0.714-28.82c0.134-4.824,2.003-6.29,6.756-5.724c6.164,0.734,12.334,1.598,18.525,1.861
	c6.731,0.286,13.489-0.052,20.236-0.121c2.617-0.027,5.095,0.046,7.235,2.103c0.826,0.795,2.524,0.751,3.846,0.951
	c3.339,0.505,3.793,0.886,3.68,4.294c-0.201,6.043-0.643,12.08-0.773,18.124c-0.148,6.898-0.034,13.802-0.09,20.703
	c-0.078,9.504-0.335,19.009-0.282,28.512c0.057,10.211,0.43,20.42,0.576,30.631c0.069,4.833-0.113,9.669-0.092,14.504
	c0.01,2.236,0.246,4.471,0.354,6.707c0.081,1.691,0.416,3.436,0.124,5.065c-0.89,4.976-1.715,5.41-6.587,4.201
	c-9.424-2.339-19.034-2.841-28.695-3.042c-5.681-0.119-11.358-0.554-17.029-0.957c-25.354-1.805-50.694-3.83-76.061-5.405
	c-12.802-0.795-25.544,0.517-38.113,3.172c-1.668,0.352-3.269,1.022-5.505,1.738c-0.23,5.449-0.502,10.888-0.676,16.33
	c-0.148,4.629-0.112,9.263-0.283,13.891c-0.505,13.639-0.911,27.285-1.689,40.909c-0.353,6.179-1.531,12.309-2.24,18.472
	c-0.125,1.09,0.064,2.274,0.364,3.343c0.847,3.022,0.102,4.222-3.075,4.147c-6.565-0.155-13.128-0.674-19.691-0.664
	c-21.272,0.031-42.544,0.261-63.817,0.36c-12.626,0.059-25.254-0.059-37.879,0.056c-4.615,0.042-9.225,0.526-14.494,0.849
	c2.758,8.966,5.368,17.295,7.879,25.654c2.481,8.258,4.861,16.546,7.368,25.1c1.203-0.342,2.234-0.635,3.5-0.995
	c0,0.755,0.214,1.478-0.033,1.709c-2.65,2.479-1.629,5.132-0.631,7.918c1.748,4.879,3.528,9.761,4.939,14.742
	c1.872,6.612,0.422,8.745-6.361,10.027c-12.571,2.377-25.301,4.106-37.693,7.195c-19.942,4.97-39.669,10.714-59.21,17.231
	c-17.174,5.727-34.995,9.517-52.538,14.133c-3.846,1.012-7.726,1.897-11.59,2.84c-4.925,1.203-4.929,1.175-6.016-3.918
	c-1.009-4.732-1.973-9.478-3.171-14.164C16.258,402.764,14.438,396.493,12.722,390.26z M433.16,75.895
	c0,4.784-0.553,8.638,0.102,12.274c2.136,11.853,2.632,23.681,1.142,35.639c-0.597,4.787-0.725,9.638-0.955,14.465
	c-0.23,4.823-0.234,9.657-0.499,14.477c-0.196,3.577-1.97,5.271-5.578,5.252c-3.613-0.018-7.224-0.347-10.886-0.543
	c-0.936,1.062-1.92,2.179-3.3,3.745c-2.019-4.811-6.18-4.529-9.944-5.079c-3.932-0.575-7.874-1.092-11.82-1.558
	c-14.078-1.662-28.137-3.538-42.246-4.875c-21.535-2.042-43.114-3.614-64.769-3.501c-3.903,0.02-7.804,0.61-11.958,0.957
	c-0.526,4.183-1.267,7.715-1.341,11.261c-0.094,4.466,0.677,8.956,0.508,13.414c-0.406,10.707-1.332,21.396-1.701,32.104
	c-0.517,15.037,0.212,30.127-2.195,45.078c-0.31,1.925-0.115,4.043-2.65,4.343c-4.739,0.56-9.507,1.344-14.254,1.291
	c-13.497-0.151-27.007-1.288-40.478-0.891c-14.673,0.432-29.073-1.479-43.335-3.972c-19.109-3.34-37.99-3.267-57.375,0.283
	c1.095,3.468,2.286,6.862,3.233,10.322c1.634,5.972,3.005,12.017,4.692,17.973c2.158,7.621,4.522,15.185,6.793,22.774
	c1.535,5.129,2.988,10.284,4.613,15.384c2.305,7.233,4.845,14.375,5.962,21.952c0.952,6.455,2.283,12.862,5.882,19.198
	c-1.627,0.753-3.025,1.669-4.556,2.059c-5.355,1.364-10.807,2.366-16.129,3.843c-7.159,1.987-14.277,4.15-21.329,6.486
	c-9.834,3.258-19.59,6.753-29.385,10.129c-1.467,0.506-2.941,1.028-4.451,1.361c-11.623,2.558-23.249,5.107-34.893,7.569
	c-2.358,0.499-4.833,0.45-7.187,0.964c-1.823,0.398-3.895,1.027-3.746,3.541c0.132,2.235,1.457,3.307,3.763,3.28
	c0.496-0.006,1.001,0.676,1.846,1.294c-1.291,1.095-2.261,1.918-3.403,2.887c1.803,6.907,3.627,13.891,5.616,21.509
	c4.389-0.977,8.407-1.763,12.367-2.775c12.556-3.209,25.216-6.09,37.605-9.856c21.324-6.481,42.215-14.312,63.924-19.628
	c12.603-3.086,25.137-6.318,38-8.135c3.354-0.474,6.672-1.205,10.694-1.944c-8.706-27.94-17.191-55.172-25.912-83.161
	c15.447-2.336,30.924-0.78,46.283-1.434c15.71-0.669,31.457-0.596,47.188-0.617c15.527-0.021,31.053,0.249,46.901,0.393
	c0.373-2.012,0.768-3.664,0.972-5.339c0.44-3.603,0.823-7.213,1.155-10.827c0.41-4.466,0.948-8.933,1.064-13.41
	c0.184-7.09-0.034-14.189,0.093-21.281c0.177-9.85,0.571-19.697,0.767-29.547c0.113-5.661,0.021-11.326,0.021-17.634
	c4.185,0,7.768,0.351,11.256-0.072c7.698-0.934,15.347-2.266,23.019-3.414c1.189-0.178,2.4-0.383,3.591-0.337
	c8.095,0.317,16.188,0.686,24.28,1.062c6.884,0.32,13.765,0.685,20.649,1.005c5.297,0.246,10.613,0.27,15.891,0.724
	c6.014,0.517,11.987,1.498,17.996,2.083c2.73,0.266,5.512-0.058,8.258,0.098c6.127,0.347,12.253,0.75,18.368,1.272
	c8.071,0.688,16.132,1.504,24.195,2.284c1.808,0.175,3.608,0.432,5.429,0.654c0.224-3.681,0.577-6.743,0.564-9.804
	c-0.033-7.775-0.271-15.548-0.341-23.323c-0.031-3.424,0.288-6.855,0.182-10.275c-0.084-2.718-0.851-5.426-0.83-8.135
	c0.065-8.653,0.439-17.304,0.524-25.957c0.045-4.489,0.073-9.026-0.503-13.462c-0.698-5.369-0.722-10.606,0.057-15.977
	c0.756-5.218,0.794-10.541,1.175-16.23c-7.044-0.556-13.519-1.265-20.012-1.532C452.57,77.675,443.206,79.706,433.16,75.895z"/>
<path style="fill:#fff" d="M405.641,70.029c-0.595-1.548-0.875-2.277-1.273-3.31c-1.843,0.346-4.424,2.274-5.435-2.303
	c2.969,2.469,6.649-1.727,9.391,3.178C407.696,68.165,406.889,68.898,405.641,70.029z"/>
<path style="fill:#fff" d="M204.082,352.313c-1.823,3.473-3.194,3.5-5.583,1.057C200.448,353.001,201.749,352.754,204.082,352.313z"/>
<path style="fill:#fff" d="M290.948,14.442c-0.308,0.46-0.612,0.923-0.939,1.369c-0.015,0.02-0.354-0.151-0.348-0.17
	c0.174-0.528,0.373-1.048,0.567-1.57C290.469,14.195,290.709,14.319,290.948,14.442z"/>
<path style="fill:#fff" d="M384.772,65.753c-1.103-0.153-2.206-0.307-3.309-0.46c0.02-0.233,0.041-0.467,0.061-0.7c1.11,0,2.221,0,3.331,0
	C384.828,64.979,384.8,65.366,384.772,65.753z"/>
<path style="fill:#fff" d="M382.807,189.353c1.924-1.486,3.849-2.972,6.172-4.766c0.305,4.495-3.026,4.571-5.345,5.673
	C383.359,189.957,383.083,189.655,382.807,189.353z"/>
<path style="fill:#fff" d="M381.825,179.724c0,1.987,0,3.583,0,5.356c-0.701-0.985-1.273-1.788-1.977-2.777
	C380.297,181.718,380.95,180.865,381.825,179.724z"/>
<path style="fill:#fff" d="M160.984,360.881c0.072,2.802,0.072,2.802-2.837,2.813C159.356,362.495,160.17,361.688,160.984,360.881z"/>
<path style="fill:#fff" d="M169.715,257.868c0.499-0.589,0.975-1.202,1.527-1.738c0.071-0.069,0.532,0.263,0.813,0.41
	c-0.565,0.629-1.13,1.257-1.695,1.886C170.145,258.24,169.93,258.054,169.715,257.868z"/>
</svg>
