<?xml version="1.0" encoding="utf-8"?>
<!-- Generator: Adobe Illustrator 19.0.0, SVG Export Plug-In . SVG Version: 6.00 Build 0)  -->
<svg version="1.1" id="Layer_4" xmlns="http://www.w3.org/2000/svg" xmlns:xlink="http://www.w3.org/1999/xlink" x="0px" y="0px"
	 viewBox="0 0 500 500" enable-background="new 0 0 500 500" xml:space="preserve">
<path style="fill:#fff" d="M174.102,301.814c7.197,27.459,14.188,54.13,21.316,81.327c-1.166,0.644-2.488,1.657-3.992,2.156
	c-7.55,2.502-15.096,5.036-22.744,7.229c-5.767,1.653-11.649,2.988-17.546,4.151c-12.875,2.539-25.105,7.027-37.332,11.476
	c-16.791,6.11-33.666,11.825-51.237,15.597c-9.25,1.986-18.235,5.113-27.357,7.668c-5.724,1.603-5.795,1.198-8.243-4.081
	c-5.244-11.312-8.624-23.214-12.414-34.989c-1.421-4.415-0.646-5.446,3.438-6.811c7.768-2.595,15.575-5.114,23.2-8.068
	c21.156-8.196,42.253-16.538,63.319-24.95c8.174-3.264,16.203-6.869,24.649-10.467c-0.457-1.871-0.725-3.668-1.334-5.35
	c-4.001-11.063-8.224-22.052-12.079-33.161c-3.314-9.55-5.859-19.362-9.442-28.81c-3.125-8.242-7.25-16.125-10.874-24.192
	c-0.991-2.205-1.771-4.499-2.748-7.01c4.622-1.986,8.934-2.268,13.35-1.734c16.133,1.952,32.268,3.894,48.392,5.912
	c10.047,1.258,20.087,2.58,30.113,3.993c12.76,1.799,25.59,3.278,38.224,5.724c10.334,2.001,20.42,5.241,30.631,7.876
	c2.427,0.626,4.913,1.028,7.925,1.647c0.734-7.721,1.569-15.03,2.085-22.361c0.476-6.771,0.37-13.587,0.937-20.347
	c1.705-20.322,3.094-40.612,1.131-61.042c-0.806-8.386-0.428-16.882-0.438-25.327c-0.007-6.057,6.147-10.062,11.128-6.589
	c13.05,9.1,28.94,9.845,43.249,15.143c5.861,2.17,11.872,3.951,17.568,5.828c-0.559,17.264-1.096,33.851-1.638,50.609
	c-9.085,2.487-16.547-2.242-24.459-3.466c-2.351,15.721-4.208,31.121-3.254,46.85c0.596,9.834-0.478,19.768-0.996,29.647
	c-0.592,11.302-1.346,22.596-2.134,33.886c-0.374,5.353-1.105,5.885-6.696,5.091c-19.696-2.797-39.339-6.025-59.09-8.361
	c-14.458-1.711-28.97-3.365-43.629-2.779c-5.021,0.201-10.102-0.873-15.155-1.362C178.29,302.209,176.652,302.056,174.102,301.814z
	 M162.328,299.104c3.64-1.023,5.886-2.114,8.173-2.191c3.565-0.121,7.159,0.444,10.74,0.721c5.058,0.391,10.111,0.854,15.174,1.164
	c14.546,0.891,29.152,1.192,43.631,2.713c17.454,1.833,34.798,4.705,52.199,7.061c2.007,0.272,4.073,0.123,6.608,0.18
	c0.771-13.958,1.726-27.298,2.178-40.657c0.362-10.694-0.184-21.423,0.213-32.114c0.443-11.921,1.482-23.818,2.288-35.724
	c0.668-9.876,0.712-9.791,10.435-6.351c4.828,1.709,9.655,3.918,15.339,3.432c0.159-1.675,0.349-2.888,0.379-4.106
	c0.285-11.488,0.623-22.976,0.7-34.467c0.009-1.289-1.23-2.933-2.374-3.813c-1.625-1.249-3.61-2.235-5.598-2.821
	c-7.88-2.321-15.836-4.393-23.735-6.655c-5.266-1.508-10.542-3.019-15.702-4.834c-3.735-1.314-7.287-3.129-11.259-4.87
	c-0.249,1.343-0.605,2.308-0.579,3.265c0.233,8.431,0.564,16.86,0.807,25.291c0.315,10.904,1.205,21.838,0.725,32.707
	c-0.926,20.993-2.755,41.943-3.935,62.927c-0.262,4.652,0.393,9.25-4.723,11.959c-0.788,0.417-1.204,1.5-1.843,2.342
	c-3.916-1.072-7.547-2.102-11.198-3.057c-10.822-2.831-21.522-6.35-32.507-8.284c-18.279-3.217-36.731-5.489-55.131-8.012
	c-17.363-2.382-34.749-4.601-52.134-6.815c-1.919-0.244-3.903,0.017-6.092,0.047c1.107,3.13,2.962,5.676,2.479,7.672
	c-0.654,2.701,0.068,4.717,0.852,7.001c2.412,7.02,4.741,14.067,7.172,21.081c1.961,5.657,4.041,11.275,6.032,16.923
	c1.168,3.315,2.245,6.659,3.399,9.978c2.642,7.592,5.179,15.222,8.012,22.748c1.587,4.216,2.959,8.412,3.401,12.862
	c-38.679,14.923-77.009,29.711-115.955,44.737c4.932,11.642,6.529,24.296,13.908,34.256c5.25-1.411,9.685-2.692,14.168-3.791
	c16.547-4.054,33.183-7.719,49.284-13.4c16.832-5.939,33.234-12.986,50.789-17.091c13.183-3.082,25.988-7.668,39.14-11.639
	c-1.706-6.963-3.297-13.763-5.043-20.525c-3.715-14.389-7.209-28.842-11.421-43.096
	C169.661,310.232,170.119,303.424,162.328,299.104z"/>
</svg>
