<?xml version="1.0" encoding="utf-8"?>
<!-- Generator: Adobe Illustrator 19.0.0, SVG Export Plug-In . SVG Version: 6.00 Build 0)  -->
<svg version="1.1" id="Layer_6" xmlns="http://www.w3.org/2000/svg" xmlns:xlink="http://www.w3.org/1999/xlink" x="0px" y="0px"
	 viewBox="0 0 500 500" enable-background="new 0 0 500 500" xml:space="preserve">
<path style="fill:#fff" d="M100.739,247.936c3.638-1.47,6.519-1.585,9.857-0.825c5.436,1.238,10.166-2.329,15.739-2.127
	c16.645,0.605,41.519-1.3,57.914,1.601c11.992,2.122,23.753,5,36.11,4.776c1.118-0.02,2.247,0.567,3.556,0.922
	c-0.564,13.083,7.31,29.114,10.816,41.068c1.103,3.761,0.735,6.391-1.976,9.431c-21.191-7.669-44.48-1.363-67.205,0
	c2.347,6.143,2.064,16.926,3.907,21.75c2.229,0.51,3.669,0.839,5.108,1.168c-0.71,1.854-1.419,3.708-2.129,5.562
	c-0.32-0.077-0.641-0.155-0.961-0.232c1.691,9.434,11.224,24.785,12.9,34.222c0.175,0.984,0.307,1.989,0.324,2.986
	c0.075,4.455-2.132,7.759-6.367,8.762c-11.94,2.826-28.933,4.967-40.158,9.717c-4.228,1.789-10.685,3.576-14.842,5.506
	c-7.8,3.622-15.404,4.002-23.147,7.75c-13.88,6.717-27.796,13.228-42.822,17.259c-7.076,1.898-13.656,5.637-20.479,8.496
	c-2.399,1.005-4.794,2.102-7.296,2.757c-3.586,0.938-5.469-0.418-5.269-4.177c0.207-3.912-1.297-7-3.297-10.051
	c-3.734-5.696-7.558-11.337-11.165-17.112c-1.835-2.937-3.282-6.117-5.212-9.769c9.538-4.199,18.53-8.014,27.398-12.099
	c11.062-5.096,22.063-10.329,33.015-15.658c14.859-7.231,29.611-14.691,45.628-19.154c0.193-0.054,0.393-0.096,0.573-0.18
	c10.935-5.083,10.09-1.604,8.294-13.396c-2.188-14.363-11.123-34.501-13.767-48.791c-1.409-7.615-3.286-15.143-4.735-22.752
	C100.589,252.913,100.822,250.348,100.739,247.936z M32.552,421.437c3.172-1.327,5.922-2.484,8.678-3.63
	c4.412-1.836,8.675-4.335,13.269-5.378c17.56-3.989,33.318-12.433,49.203-20.229c9.481-4.653,20.942-5.964,30.735-9.885
	c12.777-5.116,31.182-7.993,44.493-13.744c-2.154-10.594-11.551-27.194-14.429-37.509c-2.935-10.521-4.702-25.764-8.327-35.98
	c2.358-2.379,4.727-2.293,6.447-0.099c1.772,2.26,4.697-2.262,7.095-2.317c2.583-0.06,5.604,0.594,8.185,0.585
	c7.995-0.028,15.096,0.07,23.06,0.587c8.712,0.565,18.474,0.049,27.257,1.078c-0.071-0.552-0.089-1.354-0.284-2.109
	c-2.45-9.481-7.562-23.384-9.959-32.878c-0.641-2.541-2.111-3.428-4.634-3.752c-6.745-0.866-13.464-1.957-20.17-3.099
	c-17.943-3.056-41.068-2.18-59.376-2.804c-7.943-0.271-18.021,2.462-26.682,1.447c1.408,8.55,2.582,16.157,3.927,23.733
	c2.199,12.385,10.64,30.622,13.071,42.962c1.325,6.727-0.412,13.97,3.941,20.321c-1.709,0.962-3.01,1.89-4.451,2.472
	c-5.737,2.32-11.395,4.945-17.308,6.697c-11.966,3.546-23.022,9.126-34.191,14.473c-8.118,3.887-16.041,8.192-24.228,11.922
	c-8.547,3.894-17.335,7.256-25.957,10.99c-3.357,1.454-7.085,2.479-9.408,5.835C19.162,401.189,25.658,411.013,32.552,421.437z"/>
<path style="fill:#fff" d="M208.972,176.489c-5.058-6.879-4.343-9.955,1.775-10.624C210.134,169.537,209.553,173.013,208.972,176.489z"/>
<path style="fill:#fff" d="M188.383,157.14c0.765-0.392,1.997-1.284,2.21-1.085c0.742,0.693,1.131,1.764,1.655,2.691
	c-0.809,0.347-1.631,0.994-2.424,0.961c-0.9-0.037-1.774-0.683-2.66-1.064C187.57,158.143,187.976,157.642,188.383,157.14z"/>
<path style="fill:#fff" d="M121.146,106.105c-1.373,0.845-2.746,1.691-4.521,2.784c-0.721-4.271,2.079-3.407,3.777-3.896
	C120.65,105.363,120.898,105.734,121.146,106.105z"/>
<path style="fill:#fff" d="M127.501,465.913c-1.452,0.956-2.904,1.911-4.356,2.867c-0.277-0.4-0.554-0.799-0.832-1.199
	c1.436-0.993,2.871-1.986,4.307-2.979C126.914,465.039,127.208,465.476,127.501,465.913z"/>
<path style="fill:#fff" d="M266.972,237.961c-0.578-1.765-1.08-2.526-0.964-3.177c0.1-0.562,0.904-0.999,1.397-1.492
	c0.46,0.494,1.211,0.943,1.294,1.494C268.776,235.294,268.138,235.91,266.972,237.961z"/>
<path style="fill:#fff" d="M248.697,222.405c0.457-0.582,0.78-0.994,1.104-1.406c0.409,0.514,0.885,0.996,1.164,1.574
	c0.049,0.102-0.716,0.831-1.121,0.847C249.506,223.433,249.143,222.826,248.697,222.405z"/>
<path style="fill:#fff" d="M163.615,125.82c0.879,0.103,1.764,0.177,2.627,0.354c0.085,0.018,0.084,0.979,0.048,0.984
	c-0.956,0.139-1.921,0.209-2.885,0.291C163.475,126.907,163.545,126.364,163.615,125.82z"/>
</svg>
