<?xml version="1.0" encoding="utf-8"?>
<!-- Generator: Adobe Illustrator 19.0.0, SVG Export Plug-In . SVG Version: 6.00 Build 0)  -->
<svg version="1.1" id="Layer_5" xmlns="http://www.w3.org/2000/svg" xmlns:xlink="http://www.w3.org/1999/xlink" x="0px" y="0px"
	 viewBox="0 0 500 500" enable-background="new 0 0 500 500" xml:space="preserve">
<path style="fill:#fff" d="M267.358,259.093c0.446-15.833,0.886-31.443,1.316-46.686c2.896-2.524,5.367-1.487,7.284,0.317
	c4.609,4.338,8.931,8.978,13.436,13.428c2.656,2.623,5.382,5.183,8.182,7.651c4.01,3.534,8.137,6.936,12.176,10.437
	c1.636,1.418,1.92,3.17,1.634,5.366c-1.992,15.307-3.749,30.645-5.758,45.95c-0.696,5.303-1.922,10.535-2.852,15.809
	c-0.379,2.148-1.7,3.158-3.728,2.994c-2.362-0.192-4.777-0.421-7.036-1.087c-13.409-3.952-27.202-5.445-41.035-6.896
	c-16.965-1.779-33.891-3.922-50.836-5.895c-7.464-0.869-14.932-1.707-22.777-2.602c-0.135,11.057,1.239,21.091,2.774,31.161
	c2.027,13.294,3.554,26.667,5.162,40.022c0.327,2.712,0.058,5.496,0.064,8.15c-0.744,0.509-1.214,1.109-1.699,1.122
	c-10.819,0.291-20.805,4.304-31.016,7.138c-8.77,2.434-17.273,5.826-25.913,8.738c-3.568,1.203-7.17,2.308-10.782,3.372
	c-16.139,4.752-32.398,9.131-48.386,14.344c-8.45,2.755-16.403,7.017-24.639,10.456c-5.115,2.136-10.297,4.132-15.532,5.95
	c-3.644,1.265-4.384,0.629-5.279-3.478c-0.125-0.575-0.112-1.399-0.482-1.668c-3.74-2.713-3.095-7.309-4.75-10.906
	c-1.656-3.602-2.986-7.352-4.475-11.032c-0.52-1.285-0.84-2.75-1.678-3.789c-2.621-3.25-2.876-7.048-3.095-11.36
	c10.997-4.732,21.951-9.726,33.134-14.138c5.486-2.164,11.323-3.648,17.133-4.743c13.929-2.626,27.022-7.731,40.121-12.855
	c2.573-1.007,5.016-2.387,7.432-3.748c2.803-1.579,5.51-2.692,8.969-2.352c4.418,0.434,7.831-2.453,11.033-5.067
	c0.794-0.648,1.037-2.625,0.769-3.82c-3.123-13.92-2.08-28.447-6.583-42.217c-2.075-6.347-2.899-13.172-3.67-19.852
	c-0.582-5.038-0.042-10.196-0.28-15.288c-0.1-2.136-0.679-4.329-1.454-6.337c-2.013-5.221-0.794-8.038,4.586-8.615
	c4.895-0.525,9.886-0.683,14.799-0.396c7.715,0.451,15.399,1.426,23.099,2.153c11.827,1.117,23.666,1.631,35.559,1.815
	c19.675,0.305,39.126,3.233,58.494,6.601c3.903,0.679,7.787,1.474,11.703,2.058C263.793,259.497,265.178,259.204,267.358,259.093z
	 M297.524,308.409c0.54-2.285,0.985-3.601,1.149-4.95c1.386-11.421,2.713-22.848,4.075-34.272c0.728-6.107,1.29-12.244,2.318-18.3
	c0.58-3.419-0.448-5.78-3.046-7.736c-1.109-0.835-2.248-1.633-3.322-2.512c-5.493-4.492-11.706-8.079-15.777-14.297
	c-1.945-2.971-5.214-5.075-8.889-8.513c-0.169,3.999-0.342,6.671-0.385,9.345c-0.198,12.277-0.267,24.558-0.591,36.832
	c-0.096,3.633-2.94,5.261-5.641,3.077c-2.586-2.091-5.365-2.274-8.262-2.732c-5.077-0.803-10.13-1.787-15.228-2.417
	c-14.937-1.845-29.851-4.143-44.85-5.15c-14.998-1.007-30.09-0.125-45.093-2.078c-8.629-1.123-17.379-1.343-26.082-1.85
	c-2.284-0.133-4.594,0.179-7.155,0.3c0.173,1.793,0.147,2.991,0.419,4.117c2.043,8.449,4.236,16.863,6.203,25.329
	c2.159,9.292,3.099,18.679,2.172,28.253c-0.3,3.1,0.232,6.325,0.697,9.447c0.815,5.478,1.783,10.938,2.86,16.371
	c0.684,3.451,1.503,6.897,2.584,10.241c1.155,3.574,0.077,5.875-3.516,5.278c-2.084-0.347-2.655-0.083-3.573,1.473
	c-0.416,0.706-1.588,1.09-2.495,1.365c-12.315,3.732-24.645,7.412-36.965,11.127c-1.896,0.572-3.73,1.364-5.641,1.872
	c-11.095,2.952-22.089,6.464-33.344,8.58c-9.699,1.823-18.77,4.892-27.432,9.368c-2.396,1.238-4.416,3.203-6.99,5.118
	c4.691,10.337,6.783,21.308,12.718,31.632c4.911-2.457,9.366-5.008,14.065-6.977c14.23-5.963,28.335-12.039,43.393-16.068
	c20.05-5.365,39.548-12.763,59.444-18.751c10.751-3.236,21.331-7.401,32.715-8.236c0.489-0.036,0.947-0.51,1.642-0.908
	c-0.176-1.801-0.27-3.573-0.531-5.321c-2.959-19.762-6.021-39.51-8.863-59.289c-0.672-4.678-0.755-9.459-0.817-14.196
	c-0.015-1.138,0.948-2.49,1.843-3.344c0.393-0.375,2.325-0.029,2.563,0.468c1.892,3.943,5.54,3.273,8.781,3.531
	c5.14,0.409,10.315,0.451,15.436,1.01c20.308,2.218,40.61,4.497,60.894,6.925c7.673,0.918,15.31,2.187,22.927,3.507
	C286.973,305.951,291.945,307.202,297.524,308.409z"/>
<path style="fill:#fff" d="M208.749,16.586c-1.233-1.146-2.219-2.063-3.571-3.321c0.716-0.666,1.191-1.489,1.755-1.555
	c1.202-0.141,3.022-0.364,3.569,0.294C211.89,13.673,211.092,15.289,208.749,16.586z"/>
<path style="fill:#fff" d="M268.963,318.177c1.087,1.561,1.939,2.785,2.819,4.049c-0.505,0.223-0.882,0.535-1.06,0.446
	C269.122,321.877,267.607,320.986,268.963,318.177z"/>
<path style="fill:#fff" d="M104.65,302.783c0.201,1.397,0.403,2.793,0.604,4.19c-0.285,0.051-0.569,0.102-0.854,0.153
	c-0.329-1.367-0.659-2.734-0.988-4.101C103.825,302.944,104.238,302.864,104.65,302.783z"/>
<path style="fill:#fff" d="M133.471,237.918c0.104-0.914,0.209-1.828,0.313-2.742c0.291,0.004,0.583,0.009,0.874,0.013
	c0.036,0.924,0.072,1.848,0.107,2.772C134.334,237.946,133.903,237.932,133.471,237.918z"/>
</svg>
