<?xml version="1.0" encoding="utf-8"?>
<!-- Generator: Adobe Illustrator 19.0.0, SVG Export Plug-In . SVG Version: 6.00 Build 0)  -->
<svg version="1.1" id="Layer_9" xmlns="http://www.w3.org/2000/svg" xmlns:xlink="http://www.w3.org/1999/xlink" x="0px" y="0px"
	 viewBox="-499 501 500 500" style="enable-background:new -499 501 500 500;" xml:space="preserve">
<path d="M-152.8,728.9c-2.8,0.8-5.7,0.4-8.1-1.1c0.2-0.4,0.3-0.8,0.3-1.2c0-0.2-1.1-0.9-1.6-0.8c-1.7,0.3-2.7-0.8-3.8-1.7
	c-0.6-0.6-1.2-1.5-2-1.9c-3.1-1.3-5.2-3.7-7-6.4c-0.8-1.1-1.8-2.1-2.8-2.9c-0.6-0.6-1.5-0.7-2.2,0.2c2.2,2.3,4.4,4.5,5.3,7.7
	c-2.3-0.7-4-1.2-5.3-1.7c-0.6,0.2-0.9,0.5-1.2,0.8c-2.5-2.5-4.1-5.7-4.4-9.3c-0.1-1.3-2.1-1.3-2,0c0.2,2.5,1,4.8,2.1,6.9
	c-0.5,0.1-0.9,0.4-1.2,0.9c-0.4,0.7-0.7,1.3-1.1,2.1c-0.8-1-1.4-1.9-2.1-2.6c-1.1-1-2.3-1.6-3.2-2.7c-1.9-2.3-3.7-4.7-6.6-5.8
	c-1.4-0.5-2.8-0.9-4-1.6c-2.5-1.4-4.9-2.2-7.2,0.1c-3.4-6-5.5-7.1-9.7-4.9c0.6-0.2,1.4-0.3,2.2-0.4c0.1,0.1,0.3,0.3,0.4,0.5
	c-0.5,0.8-1,1.7-1.6,2.5c-0.2,0-0.4,0-0.6-0.1c-0.1-0.9-0.2-1.7-0.4-2.5c-2.1,0.2-1.7,2.1-1.7,3.4c-1.6,0.4-2.7,0.8-3.9,1.1
	c-0.4-0.4-0.9-0.9-1.7-1.8c-0.1,0.6-0.2,1.2-0.3,1.7c-2.7-3-6.8-6.4-8.2-2.8c-0.5,1.3-0.1,3.5-0.1,4.9c0,0.2,0,0.5,0,0.7
	c-0.6,0.3-0.6,1.2,0,1.7c0,1.3-0.1,2.6,0,3.8c0.1,2,0.5,4.3,2.8,4.8c0.6,0.1,1.1-0.3,1.2-0.7c2.4,0.4,4.1,1.4,4.7,3.4
	c0.7-0.1,1.3-0.2,2.1-0.3c0.1,1,0.2,1.7,0.2,2.5c-1,0.3-1.9,0.5-2.6,0.7c-0.8,1.7-1.5,3.1-2.3,4.6c1.8,1.6,2.9-0.3,4.1-1
	c4.2,0.8,4.9,0.7,8.4-1.7c0.9-0.7,2-1.1,3.1-1.2c1.4-0.2,2.9,0.1,4.3,0.2c2.3,0.2,4.7,0.1,6.6,1.1c4.6,2.6,9.6,3.9,14.6,4.8
	c4,0.7,7.6,2.2,11.1,4.4c0.5,0.3,1,0.6,1.6,0.9c1.2,0.7,2.4,0.9,3.7-0.1c0.5-0.4,1.7-0.5,2.5-0.2c3.9,1.7,8,1.6,12.1,1.6
	c1.5,0,1.9-0.6,1.6-2.2c-0.1-0.9-0.2-1.9-0.3-3c-2.6-1.4-5.5-2.9-8.8-4.5c1.3-0.3,2.3-0.5,3.1-0.7c3,2.2,6.7,3,10.4,1.9
	C-151.1,730.4-151.6,728.5-152.8,728.9z M-234.8,712c0.6,0,1.1,0,1.7,0c-0.5,0.4-1.1,0.8-1.7,1.1
	C-234.8,712.8-234.8,712.4-234.8,712z M-232.5,719.1c-0.1-0.3-0.3-0.6-0.7-0.7c-1.2-0.3-1.5-2.5-1.6-4.9c0.8,0.4,1.4,0.6,2.1,0.9
	c-0.3,1-0.5,1.7-0.6,2.2c0.6,0.6,1.2,1.1,1.8,1.6C-231.9,718.5-232.2,718.8-232.5,719.1z M-228.6,709.9c-2,0.1-4,0.2-6,0.1
	c0.1-1.3,0.2-2.3,0.2-2.9c0-0.8-0.3-1.7,0.6-1.9c0.5-0.1,1.9,1.2,2.2,1.5C-230.5,707.6-229.5,708.6-228.6,709.9
	C-228.6,709.8-228.6,709.9-228.6,709.9z M-226.8,715.4v-0.5c0.5-0.2,1.2-0.3,1.8-0.5c0.1,0.4,0,0.8,0.1,1.2
	C-225.6,715.5-226.2,715.5-226.8,715.4z M-207.6,708.3c-0.5,0.1-1.1,0-1.6,0c0.1-0.3,0.1-0.5,0.1-0.8c0.6,0.1,1.1,0.1,1.7,0.1
	C-207.5,707.8-207.5,708.3-207.6,708.3z M-200.9,713c0.3-0.8,0.5-1.6,0.8-2.5C-199.1,711.9-199.1,711.9-200.9,713z M-182.3,723.7
	c-1.1-1.3-1.5-2.4-1.3-3.6c0.5,0.6,1.1,1.2,1.7,1.8C-181.9,722.5-182,723.1-182.3,723.7z M-171,726.9c-0.4-0.1-0.9-0.2-1.3-0.3
	c0.1-0.1,0-0.3,0.1-0.4c0.4,0,0.9,0.1,1.3,0C-171,726.5-170.9,726.7-171,726.9z"/>
<path d="M-265.9,721.2c-0.7-1.5-2.1-2-3.4-2.8c-1.7-1-3.7-2.1-3-4.6c1.8-1.5,3.2-3.3,4.7-5.3c0.7-1.1-1-2.1-1.7-1
	c-1.1,1.6-2.2,3.1-3.6,4.3c-0.4,0-1,0.3-1.4,0.4c-0.7,0.4-1.2,0.8-1.7,1.2c-1.3-1.7-2.3-3.3-3.9-5c-2-1.9-3.4,0.9-5.3,1
	c-2.9,0.3-2.6,3-2.7,5.2c-0.8,0.2-1.5,0.3-2.2,0.4c-1.2,0.1-2.6,0.2-3.1-1.3c-0.4-1.3,0.1-2.7,1.4-3.8c0.5-0.4,1.1-0.7,1.6-1.1
	c-1.4-0.4-2.6-0.3-3.8-0.1c-0.8,0.1-1.4,0.2-2.1,0.1c-3.2-0.8-5,2.5-7.9,2.7c-0.7,0.1-1.2,1.1-1.6,1.7c-1.4,2.2-2.9,4-5.4,4.9
	c-0.3-0.2-0.5-0.3-0.8-0.5c-0.8-0.7-1.5-1.5-2.7-0.7c-1,0.7-1.3,1.6-1.3,2.9c0.1,2.4-1.7,4.2-3.9,3.4c-3.1-1.1-5,0.2-6.9,2.4
	c-1.8,2.3-4,4.3-6.9,5c-2,0.5-3,1.6-3.4,3.5c-0.1,0.5-0.4,0.9-0.7,1.5c-1.7-0.7-3-0.1-4.1,1.2c-0.6,0.6-1.3,1-1.9,1.6
	c-2.1,1.8-2.2,2.3-0.9,4.9c1.1,2.4,1.9,2.7,4.2,1.3c0.9-0.5,1.7-1.2,2.7-1.4c3.3-0.6,6.2-1.7,8.9-3.5c0.9-0.7,1.8-1.2,2.8-1.5
	c5.4-1.9,10.6-4,16.1-5.4c8.7-2.2,17.5-3.3,26.4-1.6c2.2,0.4,4.6,0.9,6.7,0.3c1.9-0.5,3.6-0.2,5.3-0.3c0.9,0,1.8,0.5,2.7,0.6
	c1.6,0.2,2.8-0.6,2.7-2.4c-0.1-1.5,0.4-2.7,1.2-4c0.5-0.8,0.8-1.9,1.2-2.7C-264.6,722.1-265.6,721.8-265.9,721.2z M-333.9,734.2
	c-0.1-0.2-0.2-0.4-0.3-0.6c0.5-0.2,0.9-0.5,1.4-0.7c0.2,0.2,0.2,0.4,0.3,0.5C-332.9,733.6-333.4,733.9-333.9,734.2z M-313.2,724.6
	c1-1.1,1.7-1.9,3-0.6C-310.9,725.1-311.7,725.4-313.2,724.6z M-305,722.5c-0.6,0.1-1.6,0.5-1.7,0.3c-0.4-0.5-0.3-1.4-0.5-2
	c0.1-0.1,0.4-0.2,0.6-0.3c0.6,0.4,1.2,0.8,1.8,1.2C-304.9,721.9-304.9,722.2-305,722.5z M-303.5,719.9c-0.1-0.2-0.1-0.6-0.3-0.8
	c0.7-1.1,1.6-1.1,3.5-0.4C-301.7,719.2-302.6,719.6-303.5,719.9z M-298.5,715.6c-1-1.5-0.6-2.1,1.4-2.4
	C-297.7,714.3-298.2,715-298.5,715.6z M-280.5,710.3c0.3,0.5,0.6,1.1,1.1,2.1C-281,712.1-281.4,711.6-280.5,710.3z M-294.3,716.3
	c1.5,0.7,3,1.3,4.9,2.1c-0.5,0.2-0.9,0.5-1.3,0.7c-1.3,0.2-2.5-0.1-3.6-0.5C-295.5,718.1-295.4,717.3-294.3,716.3z M-274.7,724.2
	c0.8-0.3,1.4-0.5,1.9-0.8c0.2,0.4,0.3,0.6,0.3,0.7C-272.9,725.1-273.4,725.9-274.7,724.2z"/>
<path d="M-274.5,767.9c0.2-1.3,0.1-2.7-0.1-4.1c-0.2-1.3-2.1-0.7-1.9,0.5c0,0.3,0.1,0.5,0.1,0.8c-0.3-0.4-0.9-0.7-1.3-1.1
	c-0.4,0.5-0.6,0.6-0.7,0.8c-0.2,0.2-0.3,0.5-0.4,0.8c-2.9,8.2-8.5,13.5-16.8,15.9c-6.3,1.9-12.5,2-18.7-0.7
	c-1.4-0.6-2.8-1.2-4.3-1.7c-4.3-1.4-7.5-4.2-10-7.9c-0.4-0.7-1.1-1.2-1.7-1.8c0-1.5,0.1-3.1,0.4-4.6c0.3-1.3-1.7-1.8-1.9-0.5
	c-1,4.8-0.5,9.4,1.5,13.9c0.5,1.2,2.3,0.2,1.7-1c-0.8-1.7-1.3-3.5-1.6-5.3c1.7,2,3.4,4.2,5.3,6c3.7,3.4,8.7,4.3,13.1,6.1
	c2,0.8,4.2,1.3,6.3,1.5c5.2,0.6,10.2-0.5,14.8-2.6c4.7-2.2,9-5.1,11.4-10c0.5-1.2,1.4-2.2,2.3-3.7c-0.4,1.5-1.1,3-2.1,4.3
	c-0.5,0.6,0,1.2,0.6,1.4c-2.1,5.4-4.9,10.4-8.8,14.8c-1.8,2.1-4.2,3.8-6.6,5.4c-2.9,2-5.9,1.4-8.6-0.6c-1.8-1.3-3.4-3-5.1-4.5
	c-0.8-0.7-1.5-1.6-3.3-0.7c2.8,2.4,5.2,5,8,6.7c3.8,2.3,7.9,2.6,11.9-0.2c5.2-3.6,9.1-8.4,12-13.9c1.8-3.4,3.1-7,4.5-10.5
	C-273.8,770.3-273.4,768.9-274.5,767.9z"/>
<path d="M-264,816.8c1.8,0.1,2.2-2.8,4.3-1.3c-1.2,2-2.5,3.8-3.4,5.8c-1.3,2.9-2.3,5.9-3.5,8.9c-0.2,0.6-0.8,1.4-1.2,1.4
	c-1.2,0.1-1.2-1-1-1.8c0.8-2.6,1.5-5.1,2.6-7.6c0.6-1.4,1-2.6,0.5-4.1c-1.7-5.6-2.1-11.3-2.4-17.1c-0.2-5.4-0.5-10.7-0.4-16.1
	c0-5.5,0.2-10.9,0.8-16.4c0.4-4.2,0.2-8.4-0.1-12.6c-0.4-7.6-0.8-15.2-1.2-22.8c0-1,0.1-2,0.2-2.9c1.5-0.6,2.1,0,2.2,1.1
	c0.1,1.4,0,2.9,0.1,4.3c0.6,10.4,1.2,20.8,1.8,31.2c0.1,2.3,0.1,4.4-0.8,6.7c-0.6,1.6-0.5,3.4-0.6,5.2c-0.5,11.9-0.4,23.7,1.4,35.5
	C-264.6,815.1-264.2,816-264,816.8z"/>
<path d="M-232.6,812.1c2.1-1.2,3,0.6,4.7,1.5c0.1-2.5,0.3-4.6,0.3-6.8c0-7.6,0-15.2-0.2-22.9c-0.2-5.7-0.8-11.3-1-17
	c-0.1-1.2,0.4-2.3,0.6-3.5c0.2-0.9,0.5-1.8,0.5-2.7c0.5-9.7,0.6-19.4-0.8-29c-0.1-1-0.1-2-0.2-3.6c0.8,0.7,1.4,0.9,1.5,1.3
	c1.7,4.5,2.1,9.2,2,14c-0.1,6.7-0.1,13.4-0.7,20c-0.6,6.5-0.1,13,0,19.4c0.2,9.2-0.1,18.3-0.2,27.5c0,1.5-0.7,3.1-1.2,5.1
	c4.3,12.3,4.3,12.3,2.1,14c-0.3-1.1-0.5-2-0.8-2.9C-227.2,821.5-229.1,816.5-232.6,812.1z"/>
<path d="M-230.4,851.4c-2,0.9-4.1,3.2-6.3,5.3c-3.7,3.7-8.2,5.6-13.4,4.6c-2.8-0.5-5.5-1.7-8.1-2.9c-3.3-1.6-6.6-3.4-9.8-5.2
	c-1.5-0.8-2.7-1-4.3,0c-1.6,1-3.6,0.8-4.5-0.3c-0.3-0.4-0.6-1.2-0.4-1.6c0.8-1.6,2.3-2.3,4-2.3c0.9,0,1.8,0.3,2.6,0.7
	c5.3,2.6,10.4,5.3,15.7,7.8c6.1,2.9,11.4,1.7,16.4-3c2.9-2.7,6.2-5.1,9.5-7.4c2.9-2,6.5-1.4,8.9,1.4c0.4,0.5,0.7,1.4,0.5,1.9
	c-0.5,1.3-1.5,2.4-3,2.2C-225,852.4-227.3,851.9-230.4,851.4z"/>
<path d="M-272.5,855.5c-0.7,0-1.3,0.6-2,0.8c-1.5,0.4-3,1-4.5,1.1c-5.7,0.2-7.3-2.3-4.9-7.5c0.1-0.2,0.3-0.5,0.4-0.8
	c0.4-1.3,0.9-2.7,1.3-4.1c-0.1-0.1-0.3-0.2-0.4-0.3c1-0.7,2.1-1.5,3.5-2.4c-1.9-1.1-2.7-1.2-4-0.3c-1,0.7-2,1.6-2.6,2.6
	c-1.7,2.7-3.4,5.4-5.1,8.2c0,0.9-0.2,1.8-0.9,2.8c0,0,0,0.1-0.1,0.1c0,0.5,0.1,0.9,0.1,1.4c0.7,0.4,1.4,0.9,1.9,1.6
	c0.1-0.1,0.1-0.1,0.2-0.2c0.3,0.2,0.7,0.3,0.8,0.5c1.6,2.5,3.7,2.4,6.2,1.5c1-0.3,2-0.3,3-0.5c2.7-0.6,5.4-1.2,8-2
	c0.5-0.1,0.8-1,1.2-1.6C-271.1,856-271.8,855.5-272.5,855.5z"/>
<path d="M-185.7,759.1c-0.2,0.6-0.5,1.3-0.6,1.9c-0.2,2.7-1.9,4.2-4.1,5.3c-3.2,1.6-6.5,1.7-9.8,0.3c-2.8-1.2-3.8-3.2-3.4-6.1
	c0.6-4.2,3.1-6.8,6.9-8.4c0.9-0.4,2.2-0.3,3.3,0c3,0.8,5.5,2.2,6.7,5.3C-186.6,758.1-186,758.6-185.7,759.1z M-194,755.3
	c-1.2,1.7-2.2,2.5-2.5,3.6c-0.3,0.9,0,2.4,0.6,3c0.4,0.5,1.9,0.4,2.8,0.1c1.3-0.4,1.5-1.7,1.1-2.8
	C-192.5,758.1-193.1,757.1-194,755.3z"/>
<path d="M-305.3,770.9c-0.6-0.1-1.7-0.1-2.8-0.4c-4-1-6-4.7-4.9-8.6c0.8-2.6,1.8-5.1,4.3-6.5c2.6-1.5,5.2-1.7,7.9-0.2
	c1.8,1.1,4.7,7.8,4.2,9.8C-297.4,768.1-301.2,770.9-305.3,770.9z M-302.2,762.1c-0.7-0.4-1.4-1.1-2.2-1.4c-1.5-0.7-2.9,0.2-3.1,1.9
	c-0.1,1.6,0,3.3,1.4,4.1c1.3,0.8,2.8,0.3,4-0.6c0.2-0.1,0.3-0.3,0.4-0.5C-301.8,764.5-302,763.3-302.2,762.1z"/>
<path d="M-220.8,760.9c-0.5-0.9-1.1-1.4-1.1-1.9c0-0.8,0.4-1.6,0.8-2.3c2.6-4,5.1-8.2,8.1-12c5.4-6.8,12.9-9.5,21.4-8.4
	c6.7,0.8,12.3,4.2,16,9.9c2.6,4,4.6,8.5,6.9,12.7c0.1,0.3,0.4,0.6,0.3,0.8c-0.1,0.4-0.2,1-0.6,1.3c-0.1,0.1-0.9,0-1-0.3
	c-0.5-0.6-0.9-1.4-1.2-2.1c-1.8-3.5-3.6-7-5.3-10.4c-1.2-2.4-3.1-4-5.3-5.5c-10.7-7.6-23.2-4.1-29.8,4.3c-2.9,3.7-5.3,7.8-7.9,11.8
	C-219.8,759.3-220.1,759.9-220.8,760.9z"/>
<path d="M-330,758.8c0.6-1,1.1-2.1,1.9-2.9c5.9-6,12.7-10.9,20.9-13.2c4.8-1.4,9.7-1.7,14.6,0.1c1.4,0.5,3,0.8,4.4,1.5
	c2.8,1.3,5.3,3.2,7.1,5.7c1.8,2.5,3.9,4.8,5.8,7.2c0.3,0.3,0.6,0.7,0.6,1.1c0,0.6-0.3,1.3-0.4,1.9c-0.6-0.2-1.4-0.3-1.7-0.8
	c-1.9-2.5-3.7-5.2-5.6-7.7c-4.8-6.4-11.6-8.1-19-7.5c-7.8,0.6-14.5,4.4-20.5,9.2c-2,1.6-3.9,3.4-5.8,5c-0.4,0.4-1,0.6-1.5,0.9
	C-329.5,759.2-329.8,759-330,758.8z"/>
<path d="M-212,854.1c0.8-0.9,1.8-1.5,3.3-1.6c0.1-0.6,0.3-1.1,0.8-1.5c0.6-3.3-1.2-7-2.5-10.1c0,0,0,0,0,0c-1.7-2.1-3.9-3.3-6.3-4.3
	c-1.5-0.7-2-0.3-3.2,1.9c2.8,0,4.5,1.8,6.3,3.4c2.3,2.1,2.8,4.3,1.4,7.2c-2,4.2-5.5,6.2-10.1,6.5c-1,0-2.3-0.4-3.1,1.4
	C-220.1,858.1-215.6,857.1-212,854.1C-212,854.1-212,854.1-212,854.1z"/>
<path d="M-232.5,876.8c-0.2-3.5-0.9-7-1.5-10.4c-0.4-2.1-1-4.1-1.5-6.1c-0.7-0.1-1-0.3-1.3-0.3c-3,0-3.3,0.5-2.3,3.4
	c0.4,0.3,0.7,0.6,1,1c1.5,1.1,2.1,3.1,1.9,4.9c0,0.3,0.1,0.6,0,0.9c0.1,0.3,0.3,0.6,0.3,1c1,1.2,1.3,2.8,1.1,4.4
	c0.4,2.1-0.5,4.5-2.5,5.5c-0.5,0.9-1.3,1.7-2.3,2.2c-0.5,0.8-1.1,1.5-1.8,2.1c0,0.1-0.1,0.1-0.1,0.2c1.2-0.3,2.3-0.9,3.5-1.3
	C-234.7,883-232.3,880.1-232.5,876.8z"/>
<path d="M-167.7,763.8c-0.2-1.3-2.1-0.7-1.9,0.5c0,0.2,0,0.3,0.1,0.5c-1.2,1.9-2.3,3.9-3.7,5.6c-1.4,1.6-2.8,3.5-4.6,4.4
	c-3,1.4-6.2,2.3-9.4,3c-3,0.6-6.1,0.8-9.2,0.8c-8.9-0.2-16.7-2.5-20.9-11.4c-0.6-1.1-1.3-2.1-3.2-2.4c0.9,3.7,2.1,7,5,9.3
	c2.7,2,5.5,3.7,8.5,4.9c-5.3-1.1-10-4.4-12.9-9.3c-0.7-1.1-2.4-0.1-1.7,1c0.4,0.6,0.7,1.1,1.1,1.7c-0.1,0-0.1,0.1-0.2,0.1
	c1.3,10,8.9,17.2,16.6,19.7c6.4,2.1,12.9,1.6,19.2,0.2c2.9-0.6,5.9-1.7,7.9-4.2c-5.1,2.8-10.7,3.4-16.4,3.8
	c-9.8,0.7-19.8-5.2-23.3-14.1c-0.2-0.6-0.5-1.3-0.8-1.9c4.5,4,10.6,6.1,16.8,5.5c0.4,0,0.6-0.3,0.8-0.5c6.9,0.8,13.5-0.3,20.1-2.2
	c3.4-1,6.5-2.9,8.6-6.1c0.5-0.8,1.1-1.6,1.6-2.3c-0.1,1.6-0.4,3.2-0.8,4.8c-0.3,1.2,1.6,1.8,1.9,0.5
	C-167.3,771.5-167.1,767.7-167.7,763.8z"/>
<path d="M-345.6,744.2c0.9-3.7,12.9-18.6,16.2-20c-1.6,2.3-3.1,4.6-4.8,6.9c-1.7,2.3-3.3,4.7-5.2,6.9
	C-341.2,740-342.1,743-345.6,744.2z"/>
<path d="M-226.6,875.6c-0.9-1.9-1.9-3.8-2.7-5.7c-1.1-2.6-2.1-5.2-3.1-7.7c-0.5-1.2-1-2.5,0.3-4.1c2.8,5.8,4.4,11.6,6.8,17.1
	C-225.7,875.2-226.1,875.4-226.6,875.6z"/>
<path d="M-265.4,881c-0.5-4.8,0.3-16.2,1.3-19.3c1.3,0.7,1,2.2,1,3.6C-263.4,878.2-263.5,878.5-265.4,881z"/>
<path d="M-238.9,814.3c-0.1,0.7-0.1,1.5-0.2,2.6C-240.6,815.8-240.5,815-238.9,814.3z"/>
<path d="M-153.2,703.2c0.3-0.5,0.5-1,0.8-1.5l0.7,0.3c-0.2,0.6-0.4,1.1-0.6,1.7C-152.6,703.5-152.9,703.3-153.2,703.2z"/>
<path d="M-115.6,726.6c-0.6,0.3-0.9,0.7-1.2,0.7c-0.2,0-0.5-0.5-0.7-0.8c0.4-0.3,0.7-0.6,1.1-0.7
	C-116.4,725.7-116,726.2-115.6,726.6z"/>
<path d="M-307.1,656.3c-0.5-0.6-1.1-1.2-1.6-1.7c0.2-0.2,0.3-0.4,0.5-0.5c0.6,0.5,1.2,1,1.8,1.5C-306.6,655.8-306.8,656-307.1,656.3
	z"/>
<path d="M-290.5,593.1c0.6,0,1.2,0,1.8,0c0,0.1,0,0.1,0,0.2c-0.6,0-1.2,0-1.8,0C-290.5,593.2-290.5,593.2-290.5,593.1z"/>
<path d="M-248.1,776.3c0.2,0.5,0.4,1,0.7,1.5c-0.2,0.1-0.4,0.2-0.6,0.3c-0.2-0.5-0.4-1-0.6-1.5
	C-248.5,776.4-248.3,776.3-248.1,776.3z"/>
<path d="M-46.6,921.4c-0.1-0.2-0.3-0.5-0.4-0.7c0.2-0.1,0.4-0.3,0.5-0.3c0.2,0.1,0.3,0.4,0.5,0.6C-46.2,921.1-46.3,921.2-46.6,921.4
	z"/>
<path d="M-251.4,778.6c-0.4-0.3-0.7-0.5-1-0.8c0,0,0.1-0.3,0.2-0.4c0.4,0.2,0.8,0.4,1.2,0.6C-251.2,778.3-251.3,778.5-251.4,778.6z"
	/>
<path d="M-298.4,695.6c-0.3,0.4-0.5,0.6-0.6,0.8c-0.3-0.2-0.5-0.5-0.8-0.7c0,0,0.2-0.4,0.3-0.4
	C-299.3,695.3-298.9,695.4-298.4,695.6z"/>
<g>
	<path d="M-307.8,900.6c-0.9,1.9,1,3.7-0.2,5.4c-2.7-2.4-3.7-10.2-1.7-13.9c1.8,1.8,0.6,4.3,1.7,6.6c0.8,0,1.8,0,2.8,0
		c6.4-0.2,12.4-1.9,18.1-4.6c4.6-2.2,9.1-4.4,13.6-6.8c2.2-1.2,4.5-1.9,7-1.6c4.3,0.5,8.6,1.1,12.9,1.7c2.8,0.4,5.6,1.2,8.4,1.3
		c2.2,0.1,4.4-0.4,6.5-0.9c2.1-0.5,4.1-1.3,6-2.1c2.5-1.1,4.8-1.1,7.3-0.1c4.5,1.7,9,3.7,13.7,4.8c6.6,1.6,13.3,2.6,20,3.5
		c2.6,0.4,5.2-0.6,7.6-2.2c-0.1-0.9-0.3-1.9-0.5-3.4c1,0.4,2,0.4,2.2,0.9c1.4,2.5,2.7,5,1.6,8c-0.2,0.6-0.7,1.4-1.2,1.4
		c-0.5,0.1-1.1-0.6-1.6-1c-0.2-0.2-0.3-0.7-0.5-1.2c-7.8,1.4-15.6,1.5-23.4,1.2c-5-0.2-9.9-0.3-14.8,0.6c-4.9,0.9-9.7,2.1-14.6,2.9
		c-6.2,1-12.3,0.6-18.4-0.6c-4.1-0.8-8.2-1.7-12.3-1.9c-3.8-0.1-7.6,0.7-11.4,1.2c-4.8,0.7-9.6,1.4-14.4,2.1
		c-1.6,0.2-3.2,0.3-4.8,0.6c-1.6,0.2-3.2,0.5-4.4-1.2c-0.3-0.4-1.2-0.5-1.9-0.6C-305.4,900.7-306.5,900.7-307.8,900.6z
		 M-290.8,898.5c0,0.2,0.1,0.3,0.1,0.5c0.4,0.1,0.7,0.2,1.1,0.1c3.2-0.5,6.4-0.9,9.6-1.5c4.7-0.8,9.3-2,14.2-1.3
		c4.3,0.6,8.6,1.4,12.9,2.1c4.4,0.8,8.9,1,13.3,0.4c1.4-0.2,3.2,0.1,3.5-2.1c0-0.3,0.8-0.6,1.2-0.7c1.1-0.2,2.2-0.4,3.3-0.4
		c3.6-0.1,7.2-0.1,10.8-0.2c3.3-0.1,6.7-0.2,10-0.4c1,0,2.1-0.2,3.7-0.3c-6-2.1-11.5-3.9-16.8-6.1c-3.2-1.3-6-1.2-9.1,0
		c-2.7,1.1-5.5,2.1-8.4,2.5c-4.6,0.6-9-0.8-13.5-1.6c-3.6-0.7-7.2-1.1-10.8-1.5c-2.4-0.3-4.5,0.5-6.7,1.6c-3.9,2-7.8,3.8-11.7,5.7
		C-286.3,896.4-288.5,897.4-290.8,898.5z"/>
	<path d="M-238.2,915.9c11.1,2.7,13,3.3,14.4,5.3c-1.2-0.1-2-0.2-2.8-0.3c-4.6-0.7-9.2-1.4-13.8-2c-5-0.6-9.9,0.1-14.7,1.5
		c-1.2,0.3-2.3,0.7-3.5,1c-1.4,0.3-2.2-0.2-2.3-2.1c2-0.9,4.2-1.8,7.1-3c-4-1.5-7.4-2.7-10.8-4.1c-3.4-1.4-6.8-2.9-10.3-4.4
		c0.9-1.7,2.1-1.4,3.1-1.1c2.1,0.7,4.2,1.5,6.3,2.3c2.5,1,5,2.1,7.5,3.2c7.8,3.5,15.5,2.7,23-0.6c3.5-1.5,6.7-3.7,10.1-5.6
		c0.7-0.4,1.5-1,2.1-0.1c0.3,0.5,0,1.6-0.5,2c-2.6,2.6-5.8,4.3-9.3,5.7C-234.5,914.5-236.3,915.2-238.2,915.9z"/>
</g>
<path d="M-278.4,752.4c-17.8-0.1-35.4,1.9-52.6,6.2c-1.2,0.3-0.7,2.2,0.5,1.9c17.1-4.2,34.5-6.3,52.1-6.2
	C-277.2,754.5-277.2,752.5-278.4,752.4z"/>
<path d="M-170.9,755.8c-14.5-4-29.4-5.8-44.6-5.4c-1.1,0-1.2,2-0.1,2c15-0.4,29.8,1.4,44.1,5.4
	C-170.4,758.1-169.9,756.1-170.9,755.8z"/>
<path d="M-267.5,862.5v7.5c0,1.3,2,1.3,2,0v-7.5C-265.5,861.2-267.5,861.2-267.5,862.5z"/>
<path d="M-314.5,893.5v5c0,1.3,2,1.3,2,0v-5C-312.5,892.2-314.5,892.2-314.5,893.5z"/>
<path d="M-337.4,727c-3.2,5.1-7.3,9.5-12.1,13.1c-1,0.8,0,2.5,1,1.7c5.1-3.8,9.4-8.4,12.9-13.8C-335,726.9-336.7,725.9-337.4,727z"
	/>
<path d="M-123,746.9c-0.2-4.2-0.7-8.4-1.1-12.6c-0.5-6.2-1.4-12.3-3.5-18.2c-1.9-5-5-7-10.1-6c-0.3,0-0.6-0.1-1-0.1
	c-0.9-1.7-1.1-3.5-0.8-5.4c0.1-0.6,0.3-1.2,0.2-1.8c-0.8-5,0.7-10.2-0.7-15.2c-0.1-0.3-0.1-0.6-0.1-0.9c0-3.3,0.1-6.6,0.1-10
	c1.6-0.4,3.1-1.6,3.2-3.7c0.1-2,0.2-4,0.3-6c0.5-0.7,0.9-1.7,0.9-2.8c0.4-8.4,0.3-16.8-0.2-25.1c0.4-3.7,0.8-7.3,1.2-11
	c0.1-1.1-1.7-1.3-2-0.3c-0.1,0.3-0.2,0.6-0.2,0.9c-0.5-4-1-8-1.7-12.1c0.1-2.4,0.2-4.9,0.3-7.3c0.1-0.3,0.1-0.6,0.1-0.9
	c0-0.5,0-1,0.1-1.6c0.7-7.9,1.9-15.8,4.2-23.5c0.5,0.8,1.8,0.7,1.9-0.4c0.1-2,0.1-3.9,0.2-5.9c0-1-1.1-1.2-1.7-0.7
	c-3.2-9.5-10.2-18.1-16.6-25.4c-3.4-3.9-7.3-9.3-12.1-11.6c-5-2.3-10.4,1.4-15.2-0.8c-0.9-1-1.9-1.8-3.2-2.5
	c-2.2-2.3-3.9-4.9-7.4-5.4c-5.3-0.8-9.8,3.6-14.2,5.7c-6.4,3-13.7,2.3-20.4,4c-3.4,0.9-9.9,4.8-14.8,5.3c-1.3-0.7-2.8-1.1-4.3-1.2
	c-0.2-0.2-0.5-0.4-0.7-0.6c-0.5-0.7-0.9-1.5-1.1-2.6c-0.1-0.4-0.5-0.8-1-0.7c-2.3,0.2-3.9,0.7-5.8,2.1c-0.3,0.2-0.5,0.6-0.5,0.9
	c-0.5,0.1-1.1,0.3-1.6,0.5c-5.7,1.2-11.5,1.6-17.4,1.1c-2.7-0.3-5.6-1-8.1,0.3c-0.6,0.3-1,0.8-1.6,1.2c-0.2,0.1-0.4,0.3-0.6,0.4
	c-3.3,0.4-6.5,0.8-9.8,1.1c-0.3,0-0.5,0.1-0.7,0.1c-4.4-1-7.9-1.5-12.6,0.5c-5.7,2.6-10.5,5.9-16.3,8c-1.7-0.2-3.5-0.1-5.3,0.4
	c-2.6,0.7-6.4,2.2-7.2,4.9c-0.8,0.7-1.6,1.5-2.3,2.4c-3.1,4.1-4.2,9.2-6.1,13.9c-0.6,1.4-1.2,2.8-2,4c-0.9,0.6-1.7,1.1-2.3,1.7
	c-1.4,1.2-2.6,2.6-3.8,4c-1.2,0.7-2.3,1.4-3.1,2.6c-2.7,3.9-0.3,8.6,1,12.5c0.1,0.4,0.2,0.8,0.3,1.2c-0.1,0.1-0.1,0.2-0.2,0.3
	c-2.5,0.2-4.7,1.4-5.2,4c-0.4,1.8-0.9,3.6-1.3,5.4c-0.1,0.3,0,0.9-0.3,1.1c-2.5,1.6-2.1,4-1.6,6.3c-2.6,2.1-3.1,4.9-2.7,7.9
	c0.3,1.8,0.5,3.5,0.7,5.2c0.1,0.5,0.1,1,0.3,1.4c0.1,0.8,0.3,1.5,0.7,2.3c-1.5-0.2-2.8-0.4-3.4,1.3c-0.2,0.7-0.3,1.6,0,2.1
	c0.3,0.4,0.6,0.8,1.1,1.2c-0.3,0.1-0.5,0.3-0.6,0.3c-1.1,0.8-1.2,1.2-1.4,2.4c-0.1,0.8,0.4,1.4,1.2,1.2c0.4-0.1,0.7-0.1,1-0.1
	c-0.3,0.9-0.6,1.9-0.7,2.9c-0.9,0.8-1.2,1.9-1.4,3.2c-0.3,1.7,0.8,2.5,2.2,3.1c0.1,0.2,0.2,0.4,0.3,0.6c-0.5,1.6-1,3.2-1.6,4.7
	c-0.6,1.6-0.7,3.1-0.3,4.8c0.6,2.6,0.8,5.3,1,7.9c0.1,0.8-0.4,1.5-0.7,2.3c-0.2,0.6-0.3,1.1-0.6,1.9c0.9,0.1,1.5,0.4,1.8,0.8
	c-0.2,0.4-0.3,0.8-0.5,1.2c-0.3,1.1-0.1,2.2,0.5,3.2c-0.1,0.8-0.1,1.6-0.2,2.5c-3.6,2-3.9,6.1-0.2,8.8c-0.7,3.6-1.3,7-1.2,10.7
	c-0.2,1.1-0.1,2.3,0,3.4c0.4,2.5,0.8,5.1,1.2,7.6c0.1,0.7,0.2,1.4,0.1,2.1c-0.3,1.7-0.8,3.5-1.2,5.5c-0.4,0.1-0.9,0.4-1.5,0.5
	c-5.1,1-9.7,7.2-9.2,12.5c0.2,1.9,0.1,3.7,0.1,5.6c0.1,8.1-0.3,16.2,1.9,24c1.4,5.1,1.2,10.1,0.8,15.3c-0.1,1-0.2,2.1,0,3.1
	c0.6,3.3,0.4,6.6-0.6,9.8c-0.8,2.6-0.8,5.3,0.5,7.8c1.4,2.6,2.9,5.2,4.8,7.5c2.2,2.6,4.2,5.2,4.1,8.9c0,1.7,0.6,3.4,1,5.1
	c0.5,2.2,1.6,3.8,4.2,3.5c0.2,0,0.3,0.2,0.8,0.6c0.5,3.6,1.2,7.4,1.5,11.3c0.7,10.8,2.2,21.5,3.9,32.2c0.2,1.5,0.3,3.1,0.5,4.6
	c0.4,3.3,0.4,6.8,1.1,10.1c1.5,7.1,1.9,14.3,2.6,21.5c0.4,4.7,1.9,8.7,4.5,12.3c0.9,1.2,2.1,2.3,3.3,3.2c7.9,5.6,15.5,9,23.3,14.7
	c3.8,2.7,33.5,14.1,37.5,18.1c4.6,4.5,16.2,11.8,22.6,12.7c8.7,1.2,17.4,0.8,26.1-0.9c6.9-1.3,11.2-5.9,15.1-11
	c3.3-4.4,37.9-27.9,42.8-32.9c3-3.1,15.2-16.1,18.5-18.9c4.1-3.5,5.5-8,5.5-13.2c0-1.9,0.2-3.8-0.2-5.6c-0.9-4.5-0.1-9.1,0.4-13.5
	c1.2-10.8,2.1-21.6,2.4-32.4c0-0.8,0.1-1.5,0.2-2.2c0.3-3.7,0.8-7.5-0.4-11.4c0.8-0.1,1.3-0.3,1.9-0.4c4.2-0.5,5.7-1.8,6.8-5.9
	c0.6-2,0.9-4.1,1.6-6c1.4-3.7,2.1-7.6,1.9-11.5c-0.4-5.9,0.1-11.7,2.3-17.3c0.2-0.5,0.2-1,0.3-1.5c1.2-5.4,2.2-10.9,4.3-16.1
	C-123.4,761.1-122.7,754.1-123,746.9z M-154.2,581.8c0.4,1.6,0.7,3.2,0.8,4.9c-0.5-0.5-1-0.9-1.6-1.3
	C-154.6,584.3-154.3,583-154.2,581.8z M-156.9,593.7c-0.6,2.8-1.2,3.5-4,3.8c-1.6,0.2-1.9,0.3-3.2-0.8c-0.8-0.7-1.6-1.5-2.3-2.3
	c2.4-0.6,4.8-1.9,6.7-3.2c0.6-0.4,1.2-0.9,1.7-1.4C-156.6,590.6-156.4,591.3-156.9,593.7z M-173.9,567.4c0.4,0.6,0.9,1.1,1.6,1.6
	c-1.2,0.5-2.4,1.2-3.4,2.1c-1.4-0.2-2.8-0.4-4.3-0.6c0.9-0.9,1.7-2,2.3-3.3c0.2,0,0.5,0,0.7,0C-176,567.2-174.9,567.3-173.9,567.4z
	 M-181.9,561.8c0.1,0.2,0.2,0.4,0.3,0.5c-2.3,0.2-4.6,0.8-6.2,2.2c0-0.1,0-0.1,0-0.2c0-0.8-0.3-1.5-0.7-2c0-0.3,0-0.7,0-1
	C-186.4,561.7-184.2,561.8-181.9,561.8z M-185.1,556.8c-1.1-0.1-2.3-0.2-3.3-0.4c0-0.4,0-0.9,0-1.3c0.6,0.1,1.3,0.2,1.9,0.3
	C-186.1,555.7-185.6,556.2-185.1,556.8z M-204,568.8c-1.2,0-2.8,0.1-4.4-0.1c2.1-0.6,4.2-0.9,6-1c0.2,0,0.4,0,0.6,0
	c0.1,0.3,0.3,0.6,0.4,0.9C-202.2,568.7-203.1,568.8-204,568.8z M-163,587.4C-163,587.4-163,587.4-163,587.4
	c-0.1,0.1-0.2,0.2-0.3,0.2c-0.8,0.6-1.6,1-2.5,1.3c-1,0.9-1.6,0.7-1.6-0.7C-169.4,585.5-164.3,587-163,587.4z M-159.5,578.7
	c0.6,1.7,0.6,3.2,0.1,4.5c-1.6-0.6-3.3-1-5-1.1c1.7-1.5,3.5-2.8,4.8-3.5C-159.6,578.6-159.5,578.6-159.5,578.7z M-171.3,560.7
	c1,0.6,2,1.2,3,1.9c-0.5-0.1-1-0.1-1.4-0.1c-1.8-1-4.3-0.4-6.1-1.1C-174.3,561.2-172.7,561-171.3,560.7z M-207.9,557.2
	c2.8-0.2,6,1.5,8.4,3c-0.8,0.4-1.4,0.9-1.9,1.5c-2.5-0.7-4.9-0.9-7.2-0.8c-0.3-1.1-1.5-2-2.7-2C-210.4,558-209.2,557.3-207.9,557.2z
	 M-211.9,577.2c1.6-0.3,3.3-0.4,5-0.3c-0.1,0.2-0.3,0.5-0.4,0.7c-0.1,0-0.2,0.1-0.3,0.1c-2.1,0.9-4.3,1.5-6.6,1.9
	C-213,579.1-212.3,578.2-211.9,577.2z M-226.2,552.7c0.2-0.1,0.6,0.4,0.9,0.6c-0.3,0.4-0.7,0.9-1.1,1.1c-0.2,0.1-0.6-0.3-1.3-0.6
	C-227,553.3-226.6,552.9-226.2,552.7z M-227.4,564.8c0.5-0.8,1.1-1.5,1.7-2.1c0.6,0.1,1.2,0.2,1.8,0.3c1.4,0.3,3.2,0.7,5,1.3
	c-1.9,1-3.8,2.1-5.6,3.2c-3.3-0.7-7.3-1.7-10.5-0.7c-0.1,0-0.2,0.1-0.3,0.1c0-0.4-0.2-0.9-0.5-1.4
	C-233.2,564.7-230.2,564.4-227.4,564.8z M-260.5,563.4c0,2.2-1.5,2.6-3.8,2.7c-0.2-2.2,0-3.7,2.3-3.8
	C-261.5,562.3-260.5,563-260.5,563.4z M-264.2,553.4c0.3,0.2,0.7,0.5,1,0.8c-0.6,0.6-1.1,1.2-1.5,1.8c-0.3-0.1-0.5-0.3-0.8-0.5
	C-265.1,554.8-264.6,554.1-264.2,553.4z M-273,582.6c0.3,2.6-1,3.7-2.7,4.6c-0.3-0.2-0.6-0.5-0.9-0.8
	C-275.4,585.1-274.2,583.9-273,582.6z M-285.1,564.7c0.9-1.1,2.1-2.4,3.6-3.5c1,0.3,1.9,0.6,2.4,1c-0.2,0.6-0.5,1.3-1,1.9
	c-1.5,1.9-4,2.4-6.4,2.4C-286,565.9-285.5,565.3-285.1,564.7z M-289.8,553c0.2,0.6,0.3,1.3,0.5,1.9c-0.4,0.1-0.7,0.1-1,0.2
	c-0.1-0.6-0.3-1.2-0.3-1.9C-290.6,553.1-289.8,553-289.8,553z M-293.5,560.3c0,0.1,0.1,0.1,0.1,0.2c1.4,1.3,1.8,3.2,1.6,5
	c-0.1,0.1-0.2,0.3-0.3,0.4c-2-0.3-4.9-0.8-5.6-1.8c-0.1-1-0.2-2.1-0.4-3.1C-296.6,560.7-295,560.5-293.5,560.3z M-296.3,573.4
	c0.2,0.2,0.4,0.3,0.6,0.5c-0.5,0.7-1,1.5-1.5,2.2c-0.3-0.3-0.7-0.5-1-0.8C-297.5,574.7-296.9,574-296.3,573.4z M-301.7,595.4
	c0.2-0.2,0.4-0.3,0.6-0.5c0.6-0.5,1-1.2,1.2-1.8c0.9,0.7,1.9,1.2,3,1.4c-2.5,1-4.6,2.8-5.4,5.9c-0.5-0.5-1-0.8-1.5-1.1
	C-302.6,598.2-301.9,596.8-301.7,595.4z M-312.8,556.4c0.2-0.1,0.4-0.2,0.6-0.3c0,0.1-0.1,0.2-0.1,0.2c-0.3,0.2-0.5,0.3-0.8,0.5
	c-0.2,0-0.4,0-0.6,0C-313.4,556.7-313.1,556.6-312.8,556.4z M-315.6,568.2c0.1,0.8,0.3,1.5,0.5,2.2c0,0,0,0,0,0
	c-1-0.2-1.9-0.5-2.8-0.9C-317.1,569-316.4,568.6-315.6,568.2z M-321.7,565.9c-0.4,0.2-0.7,0.4-1.1,0.6c-0.3-0.2-0.7-0.5-1-0.7
	C-323.1,565.8-322.4,565.9-321.7,565.9z M-321.9,585.2c0.1,0,0.1,0,0.2,0.1c-1.6,0.7-3.3,1.4-5,2.1c-0.3-1-0.5-2-0.7-3
	C-325.6,584.4-323.7,584.6-321.9,585.2z M-358,623.1c0.1,0.1,0.2,0.3,0.2,0.4c0,0.1-0.1,0.2-0.2,0.4c-0.4,1-0.6,2-0.9,3.1
	c0,0-0.1,0-0.1,0C-359.9,625.4-359.1,624.3-358,623.1z M-358.7,825c-0.5-1-1-1.7-1.1-2.6c-0.4-1.7-0.8-3.5-0.9-5.2
	c-0.2-3.3-1.5-5.9-3.8-8.2c-2.4-2.4-4.1-5.2-5.3-8.3c-0.8-1.8-1-3.5-0.5-5.4c1-3.8,1.4-7.6,0.8-11.6c-0.2-1.6-0.1-3.3,0.1-4.9
	c0.7-5.1,0.2-10.1-1.1-15c-1.9-6.9-1.3-13.9-1.5-20.9c-0.1-2.7,0.1-5.5,0.1-8.3c0-3.9,2.6-6.4,5.4-8.5c2-1.4,4.5,0,4.6,2.5
	c0.1,4.5,0,8.9,0,13.5c0.8,0.3,1.4,0.4,2,0.6c1.5,5.9,0.2,11.7-0.6,17.6c-0.6,4.7-1.3,9.4-1.6,14.1c-0.4,5.3-0.4,10.7-0.6,16
	c-0.1,3.6,0.5,7,2,10.2c1,2.1,1.6,4.2,1.8,6.5c0.3,3.7,0.7,7.3,1.1,11c0.2,1.2,0.4,2.4,0.6,3.6C-357,823.1-356.9,823.1-358.7,825z
	 M-147.3,815.5c-1.1,9-1.2,18.1-1,27.2c0.1,5.4,0.1,10.8-0.3,16.1c-0.7,9.2-1.7,18.3-2.6,27.4c-0.1,0.9-0.2,1.9,0.1,2.7
	c1.9,4.8,0.6,9-2.4,12.6c-2.8,3.3-6,6.2-9.1,9.2c-2.8,2.8-5.9,5.2-8.4,8.2c-6.6,7.7-47.8,37.7-48.9,39.4c-2.4,3.8-6,5.9-10.2,7
	c-7.9,1.9-15.9,2.4-24,1.8c-5.8-0.5-11-2.4-14.9-7.1c-1.4-1.6-56-31.8-58-32.9c-2.9-1.6-5.7-3.3-8.7-4.7c-5.5-2.5-7.9-7.1-8.6-12.7
	c-0.9-7-1.1-14.1-2.7-21.1c-0.4-1.9-0.8-3.9-1-5.8c-1.2-10.1-2.6-20.3-3.6-30.4c-0.9-8.1-1.3-16.3-1.9-24.4
	c-0.5-6.1-0.9-12.1-1.3-18.2v-2c5,6.3,10.1,12.5,15.1,18.8c0.8,1,2.2-0.4,1.4-1.4l-9.2-11.4c0.2,0.1,0.4,0.1,0.7,0.1
	c-0.4-1-0.5-1.6-0.8-2c-1.5-1.8-2.9-3.5-4.4-5.2c-1.8-2.1-3.7-4.2-5.5-6.3c-2.4-2.9-3-6.2-3.2-9.8c-0.3-6.7,1.2-13.3,1.1-20
	c-0.1-7.9,1.2-15.8,2.3-23.7c1.2-8.9,1.4-17.8,0.3-26.8c-0.2-1.1,0-2.2,0.3-3.3c1.2-5.2,1.9-10.5,1.2-15.9c-0.4-2.6-0.7-5.3,0.6-7.9
	c0.3-0.6,0.3-1.4,0.3-2.1c0-1.6,0-3.2-0.1-4.8c1.5-0.6,2.6-2,2.6-3.7c0-1.2-0.1-2.4-0.1-3.6c0-0.2,0-0.4-0.1-0.5
	c0.9-0.7,1.6-1.8,1.6-3.4c0-2.1,0-4.2,0-6.3c1.1-1.6,1.1-3.9,0-5.4c0-0.4,0-0.7,0-1.1c1.9-1,2.4-2.7,2-4.3c1.4-2.6,2.5-5.3,3.3-8.1
	c1.6-1.7,2.5-3.9,1.8-6.3c-0.2-0.9-0.4-1.7-0.5-2.5c0.2-0.3,0.3-0.5,0.5-0.8l1.3-2.1c6-2.6,8.4-9.7,10.7-15.7
	c2.2-5.6,5.5-9.9,9.9-13.9c1.4-1.3,3.4-3.2,5.6-4.8c3.1-1.4,6.2-2.5,9.5-3.4c0,0,0.1,0,0.1,0c1.4,0.4,2.6,1.3,3.7,3.1
	c0.4,0.6,1.4,0.7,1.7,0c1.7-3,3.8-5.2,6.8-6.9c0.4-0.3,0.6-0.7,0.5-1c0.6-0.1,1.2-0.1,1.8-0.2c0.9,0.5,2,0.9,3.1,0.8
	c1.6-0.1,3.2-0.3,4.6-0.6c2.1,0.1,4.1,0.2,5.7-0.1c1.2-0.2,2.4-0.5,3.6-0.8c0.9-0.2,1.8-0.4,2.7-0.8c0.7-0.3,1.3-0.6,1.9-1
	c2.5-1.2,4.8-2.7,6.9-4.6c5.1,0.9,10.8,1.2,14.8-1.7c1.1-0.8,2-2.3,2.1-3.5c2.6-0.3,5.1-0.2,7.6,0c2.5,0.9,5,2.2,7.3,3.7
	c-0.1,0.2-0.2,0.4-0.2,0.5c0.3,0.3,0.6,0.6,0.9,0.9c1.4,1.7,3.8,2.4,6.3,2.3c0.3-0.1,0.5-0.3,0.7-0.5c0.4-0.1,0.9-0.3,1.3-0.4
	c0.9-0.2,1.9-0.4,2.8-0.6c0.5-0.4,1-0.8,1.4-1.3c2.3-2.9,6.7-3.1,10-1.7c1.1-0.3,2.3-0.7,3.4-1.1c1.6,0.5,3.2,0.8,4.8,0.9
	c2.9,0.4,6,0.2,8,0.3c1.6,0,3.4,0.1,5.2,0.2c2.6,1.1,5.2,2.3,7.7,3.4c0.5,2.7,2.4,5.2,5.8,5.6c0.5,0.8,1,1.6,1.7,2.4
	c2.2,2.5,6,3.4,7.2,6.8c0.3,0.7,1.1,1,1.7,0.4c0.4-0.3,0.7-0.6,1.1-0.9c-0.3,0.9-0.5,1.6-0.6,2.1c0.9,1.8,1.7,3.4,2.5,5.1
	c0.5,0.1,1.3,0.2,2.2,0.3c1,3.1,2.1,6.2,3,9.2c0.1,0.5,0.1,1.2,0,1.8c-0.6,3,0.3,5.5,1.8,8c0.4,0.7,0.9,1.5,0.9,2.2
	c-0.1,3.1,0.6,6.1,1.3,9.1c0.2,4.3,1,8.6,1.1,12.9c0,0.8,0,1.6-0.1,2.4c-0.1,1.1-0.3,2.2,0,3.2c0,2,0.5,3.2,2.6,4
	c0.2,1.7,0.5,3.4,0.3,5.1c-1.1,9,0,18.1-0.4,27.1c0,0.2,0.2,0.3,0.3,0.5c0.7,0.2,1.4,0.5,2.2,0.8c-0.4,2.7-0.9,5.2-1.1,7.8
	c-0.3,3.4-0.7,6.8-0.5,10.2c0.3,6,1.3,12,1.5,18.1c0.2,7.4,0,14.8,1.2,22.2c1.1,6.3,1.4,12.8,2.1,19.2c0.4,3.5,0.9,7.1,1.4,10.7
	c0.4,3.2-0.3,6.2-2,8.9c-2.1,3.3-4,6.5-6,9.8c-2.2,3.7-4.1,7.6-5,11.9c-0.1,0.7,0,1.4,0,2.8c-1.2,2.9-2.7,5.7-4.4,8.4
	c-0.7,1.1,1,2.1,1.7,1c3-4.7,5.3-9.8,6.9-15.1c0.1-0.3,0-0.5-0.1-0.7c0.4-0.8,0.9-1.6,1.6-2.2C-147.3,812.8-147.1,814.1-147.3,815.5
	z M-129.3,767c-2.3,5.8-3.3,11.9-4.8,17.9c-0.4,1.5-0.9,3-1.2,4.5c-0.5,2.7-1.2,5.5-1.1,8.2c0.2,6.1-0.1,12-2.2,17.7
	c-0.6,1.6-0.8,3.4-1.3,5.1c-0.9,3.3-2,3.9-5.9,2.9c0.3-3.6,0.5-7,0.9-10.5c0.3-2.9,0.4-5.8,1-8.6c0.4-1.9,1.4-3.7,2.6-5.2
	c3.7-4.7,4.2-9.8,3.4-15.5c-1.4-10-2.6-20.1-3.8-30.1c-0.1-0.7-0.2-1.5,0.1-2.1c2.3-4.4,2.2-9.1,1.9-13.9c0-1.1,0.1-2.3,0.1-3.4
	c0.1-3.1,0.2-6.2,0.2-9.3v-9.6c0-2.2,1.6-2.9,3.2-3.7c1.6-0.8,2.4,0.3,3.4,1.3c2.3,2.3,2.8,5.3,3.4,8.2c1.1,5.5,1.8,11,2.5,16.5
	c0.4,3.3,0.5,6.6,0.7,9.9C-125.8,754.1-126.9,760.7-129.3,767z"/>
</svg>
