<?xml version="1.0" encoding="utf-8"?>
<!-- Generator: Adobe Illustrator 19.0.0, SVG Export Plug-In . SVG Version: 6.00 Build 0)  -->
<svg version="1.1" id="Layer_9" xmlns="http://www.w3.org/2000/svg" xmlns:xlink="http://www.w3.org/1999/xlink" x="0px" y="0px"
	 viewBox="-499 501 500 500" style="enable-background:new -499 501 500 500;" xml:space="preserve">
<path d="M-137.8,586.3c3.2-7.4,3-8.3-0.5-15.1c-1.2-2.4-1.9-5-2.8-7.5c-1.2-3.4-2.1-7.4-5.8-8.7c-3.1-1.1-4.6-3-5.7-5.8
	c-0.9-2.2-2-4.4-3.1-6.5c-1.6-3.1-2.1-3.2-5.6-2.9c-1.1,0.1-2.3-0.3-3.5-0.2c-2,0.1-4.2,0.1-6.1,0.7c-3.9,1.2-7.8,0.1-9.9-3.5
	c-1.8-3.1-4.6-4.2-7.9-4.3c-4.3-0.1-8.2,1.4-11.7,4c-1.9,1.4-4,2.6-6.2,3.4c-2.6,0.9-5.3,1.3-8.1,1.9c-2.1-3.7-3.3-3.9-6.9-0.9
	c-0.4,0.4-0.8,0.9-1.3,1.2c-0.9,0.5-1.8,1-2.8,1.3c-2.6,0.6-5.2,1.1-8.2,1.8c-0.3-0.3-1-0.8-1.7-1.4c-4.3-3.4-8.4-3.9-12.9-1
	c-3.8,2.4-7.7,1.7-11.6,1.1c-3.4-0.5-6.8-1.1-10.2-1.7c-2.3-0.3-4.2,0.4-5.5,2.3c-1.5,2.3-3.3,2.7-5.8,1.7c-3.1-1.3-6.1-0.9-9,0.9
	c-1.1,0.6-2.6,1-3.8,0.9c-3.2-0.3-5.8,1-8.3,2.8c-1.3,1-2.8,1.9-4.3,2.3c-4.5,1.1-9.1,2-12.8,5.1c-0.7,0.5-1.7,0.5-2.6,0.7
	c-6.1,1.7-12.4,3.2-13.7,11c-0.1,0.5-0.6,1-0.9,1.5c-1.6,2.9-3.5,5.7-4.7,8.7c-1,2.7-2.4,4.4-5.2,5c-1.7,0.3-3,1.2-3,3.3
	c0,0.5-0.2,1.2-0.6,1.5c-3.6,2.4-2.6,6.2-1.7,9c1.1,3.3,1.2,6.4,1.3,9.7c0,1.8,0.3,3.6,0.2,5.4c-0.1,1.8-0.4,3.5-0.8,5.2
	c-1,4.1-2.2,8.3-3.1,12.5c-0.5,2-0.3,4.1-0.6,6.2c-0.4,2.6-1.2,5.3,2,7.3c-3,2.4-3.2,5.5-3.1,8.7c0,4.2,0,8.4,0.2,12.6
	c0.1,1.2,0.2,2.1-0.9,3.1c-2.2,2-1.5,7,1,9.4c1.9-1.2,1.9-3.2,2.2-5.1c0.3-2.4,0.3-4.9,1.3-7c3.6-7.4,5.4-15.3,6.5-23.3
	c0.4-2.6,1.3-4.3,3.2-6.1c2.2-2.1,4.5-4.4,6-7.1c2.3-4,4.1-8.3,5.9-12.6c1.1-2.7,2.3-4.9,5.5-5.9c2.2-0.7,4.2-2.8,6-4.6
	c2.4-2.4,4.6-5.1,7.2-8c1.2,0.3,2.4,0.9,3.6,1.1c2.6,0.2,5.1-0.2,6.7-2.7c2.5-3.9,6-4.8,10.4-4.1c4.2,0.7,8.4,0.5,12.4-1.3
	c3.1-1.4,6.4-2.6,9.5-4.1c2-1,3.8-1.3,6-0.9c3.8,0.8,7.3,0.1,10.4-2.7c1.8-1.7,4-2.6,6.5-2.1c3.9,0.3,7.7,0.4,11.5,0.6
	c0.5,0.7,0.9,1.3,1.4,1.9c4.2,5.1,8.1,6.1,13.8,2.8c2.9-1.7,5.3-4.2,8.1-6.5c1.9,3.4,4.6,5.6,9,5c4.1-0.6,7.1-2.9,10.2-5.4
	c1.3,0.4,2.6,0.7,4,1.2c-1,0.7-1.6,2-0.9,3.3c1.9,3.6,3.5,7.9,6,11.1c1.6,2.1,3.5,2.4,6.1,2.5c2.6,0.1,5.4,0.4,8.3,0.6
	c0.4,0.8,0.7,1.6,0.8,2.7c3.7,1.8,6.4-2,10.1-1.2c1.5,3.5,1.7,8,5.9,10c0.2,0.1,0.3,0.5,0.3,0.8c-0.3,2.5,1.7,3.3,3.2,4.2
	c0.1,1.8-0.4,3.9,0.4,5c2.6,3.5,1.2,7.2,1.4,10.8c0.2,3.8,0.2,7.5-0.9,11.2c-0.7,2.3-1.1,4.5,2,5.6c0.6,0.2,0.9,1.5,1,2.3
	c0.2,2.5,0.6,4.9-0.5,7.5c-0.7,1.6-0.8,4.6,0.2,5.5c1.9,1.7,3,3.8,3.8,6.1c2.4-0.2,2.8-1.7,2.4-3.2c-0.7-2.9,0.2-5.6,0.8-8.4
	c0.5-2.3,0.3-4.7,0.5-7.1c0.1-3,0-6,0.6-8.9c0.8-3.9,1.1-7.6-0.2-11.5c-1.2-3.8-0.8-8.2-3.7-11.4c0.6-5.5,0.2-11.4,2-16.4
	c1.4-3.8,2.2-7.4,2.9-11.2C-135.7,589.6-135.7,587.6-137.8,586.3z M-349.8,650.3c-0.5-0.1-0.9-0.2-1.3-0.3l0.9-3
	c0.3,0,0.7,0.1,1,0.2C-349.4,648.2-349.6,649.3-349.8,650.3z M-349.1,595.4c-0.5-4.3,0.9-6.6,4.4-8.9
	C-345.1,590.5-347.2,592.4-349.1,595.4z M-339.6,620.5c-0.1,0.5-0.5,0.9-0.8,1.3c-0.2-0.1-0.5-0.1-0.7-0.2c0.1-0.9,0.2-1.8,0.3-2.8
	h0.8C-339.8,619.4-339.5,620-339.6,620.5z M-314.6,562c-1.7-2.5-1.7-2.5,1.5-4C-313.6,559.3-314,560.3-314.6,562z M-308.6,593.4
	c-0.2-0.7-0.5-1-0.4-1.2c0.5-1.3,1.4-1.7,3.1-0.4C-306.9,592.4-307.7,592.9-308.6,593.4z M-297.5,552c0.3,0.4,0.6,0.8,0.9,1.3
	c-0.3,0.2-0.7,0.7-0.9,0.6c-0.4-0.2-0.7-0.7-1.1-1C-298.3,552.7-298,552.4-297.5,552z M-297.7,575.9c-0.3-0.3-0.7-0.5-1-0.8
	c0.7-0.6,1.3-1.3,1.9-1.9c0.2,0.2,0.4,0.3,0.6,0.5C-296.7,574.4-297.2,575.2-297.7,575.9z M-290.8,554.9c-0.1-0.6-0.3-1.2-0.3-1.9
	c0-0.1,0.8-0.2,0.8-0.2c0.2,0.6,0.3,1.3,0.5,1.9C-290.2,554.8-290.5,554.8-290.8,554.9z M-265.2,555.8c-0.3-0.1-0.5-0.3-0.8-0.5
	c0.4-0.7,0.9-1.4,1.3-2.1c0.3,0.2,0.7,0.5,1,0.8C-264.3,554.6-264.8,555.2-265.2,555.8z M-264.8,565.9c-0.2-2.2,0-3.7,2.3-3.8
	c0.5,0,1.5,0.7,1.5,1.1C-261,565.4-262.5,565.8-264.8,565.9z M-226.7,552.5c0.2-0.1,0.6,0.4,0.9,0.6c-0.3,0.4-0.7,0.9-1.1,1.1
	c-0.2,0.1-0.6-0.3-1.3-0.6C-227.5,553.1-227.1,552.7-226.7,552.5z M-227.2,585.5c-0.6-0.2-1-0.9-1.5-1.4c0.7-0.5,1.2-1.2,1.9-1.3
	c0.8-0.1,1.6,0.4,2.8,0.7C-224.7,585.7-225.9,585.8-227.2,585.5z M-221.1,552.6c-1.8-1.9-2.9-3.1-4.4-4.8
	C-221.6,547.9-220.9,548.6-221.1,552.6z M-219.4,542.5c0.2,1.3,0.4,2.3,0.7,4.2C-221.8,544.6-221.8,544.6-219.4,542.5z
	 M-172.3,594.2c-0.2-0.3-0.4-0.5-0.6-0.8c-0.2-0.3-0.3-0.6-0.4-0.9c0.1-0.5,0.1-1,0-1.6c0.2-0.4,0.5-0.7,1.1-1
	c1.5-0.7,3.1-1.1,4.6-1.6c0.7,2.1,0.2,4.8-0.8,6.1C-169.7,594.4-171,594.3-172.3,594.2z M-156.7,585.3c-0.2,3.3-0.9,5.2-4.1,6.2
	C-160.3,588.7-160.1,586.5-156.7,585.3z M-164.6,544.8c-1.5-1.1-2.5-1.8-3.6-2.7C-164.4,540.9-164.1,541.1-164.6,544.8z
	 M-170.2,582.2c0.9,2.8,0,3.8-1.3,4.5c-0.4-0.2-0.7-0.4-1.1-0.6C-172,585.1-171.3,584-170.2,582.2z M-173,577.4
	c0.2,2.5-1.7,5.1-4.9,6.6c-0.3-0.5-0.5-1-0.7-1.6C-178.5,580.9-177.1,579.8-173,577.4z M-175.2,565.1c0,0.5-0.8,1-1.2,1.5
	c-0.7-0.8-1.4-1.7-2.4-2.9C-176.2,562.8-175.2,563.3-175.2,565.1z M-181.7,541.8c-2.2,1.8-2.2,1.8-4.6,0.9
	C-185.1,540.7-183.7,540.4-181.7,541.8z M-194.7,542.2v-1.1c0.7,0,1.4-0.1,2.2-0.2c0,0.3,0.1,0.5,0.1,0.8
	C-193.2,541.9-193.9,542-194.7,542.2z M-192.5,534.8c0.1,0.3,0.1,0.7,0.2,1c-0.9,0.3-1.8,0.5-2.8,0.8c0-0.3-0.1-0.5-0.2-0.8
	C-194.3,535.5-193.4,535.1-192.5,534.8z M-206.5,547c-1.8-0.3-2.7-0.5-3.8-0.8C-208.4,544.6-208.4,544.6-206.5,547z M-208.1,550.5
	c-1.1,0.9-2.1,1.9-3.1,2.8C-211.7,550.8-211,549.5-208.1,550.5z M-193.3,571.2v-2.5c0.2-0.1,0.5-0.1,0.7-0.1
	c0.1,0.9,0.2,1.7,0.3,2.5C-192.6,571.1-193,571.2-193.3,571.2z M-189.3,577.1c0.7-1,1.8-1.6,2.7-2.4c0.2,0.5,0.5,1,0.7,1.5
	c-0.3,0.8-0.6,1.7-0.9,2.4c-0.3,0.5-1.2,0.5-1.8,0.7C-188.9,578.5-189.6,577.5-189.3,577.1z M-147.2,576.9c-0.2-0.3-0.5-0.6-0.7-0.9
	c2-1.3,2.4-4.6,6.4-4.5C-143.7,573.6-145.5,575.3-147.2,576.9z"/>
<path d="M-121.6,748.6c-0.2-4.2-0.7-8.4-1.1-12.6c-0.5-6.2-1.4-12.3-3.5-18.2c-1.9-5-5-7-10.1-6c-0.3,0-0.6-0.1-1-0.1
	c-0.9-1.7-1.1-3.5-0.8-5.4c0.1-0.6,0.3-1.2,0.2-1.8c-0.8-5,0.7-10.2-0.7-15.2c-0.1-0.3-0.1-0.6-0.1-0.9c0.1-6.7,0.2-13.4,0.2-20.1
	c0-1.6,0.3-3.4-0.3-4.9c-1.1-2.9-1-5.8-1.2-8.8c-0.1-2.7-0.6-5.3-1.9-7.7c-0.6-1.2-1.2-2.7-1.2-4.1c0-6.1-1.8-11.9-2-18
	c0-0.6-0.5-1.1-0.7-1.7c-0.6-2.2-2.7-4.3-0.6-6.8c0.2-0.3,0.2-1,0.1-1.5c-0.3-2.5-0.5-5.1-1-7.6c-0.2-1-0.9-1.9-1.5-2.7
	c-0.9-1.3-2.1-1.7-3.5-0.7c-1.3,1-2.6,0.9-4.1,0.7c-1.2-0.2-2.5,0.1-3.5,0.1c-0.5,1.6-0.8,2.7-1,3.4c0.9,1.8,1.7,3.4,2.5,5.1
	c0.5,0.1,1.3,0.2,2.2,0.3c1,3.1,2.1,6.2,3,9.2c0.1,0.5,0.1,1.2,0,1.8c-0.6,3,0.3,5.5,1.8,8c0.4,0.7,0.9,1.5,0.9,2.2
	c-0.1,3.7,0.9,7.2,1.6,10.7c0.9,4.5,0.9,9,0.7,13.6c-0.1,1.9-0.8,4.2,2,5.1c0.2,0.1,0.4,0.5,0.4,0.8c0.2,2.1,0.7,4.3,0.5,6.4
	c-1.1,9,0,18.1-0.4,27.1c0,0.2,0.2,0.3,0.3,0.5c0.7,0.2,1.4,0.5,2.2,0.8c-0.4,2.7-0.9,5.2-1.1,7.8c-0.3,3.4-0.7,6.8-0.5,10.2
	c0.3,6,1.3,12,1.5,18.1c0.2,7.4,0,14.8,1.2,22.2c1.1,6.3,1.4,12.8,2.1,19.2c0.4,3.5,0.9,7.1,1.4,10.7c0.4,3.2-0.3,6.2-2,8.9
	c-2.1,3.3-4,6.5-6,9.8c-2.2,3.7-4.1,7.6-5,11.9c-0.1,0.7,0,1.5,0,3c0.2-0.1,0.3-0.2,0.5-0.3c-0.3,0.6-0.5,1.1-0.7,1.7
	c-0.5,1.2,1.5,1.7,1.9,0.5c1.1-2.7,2.5-5.2,4.1-7.5c0,0.5,0,0.9-0.1,1.4c-1.1,9-1.2,18.1-1,27.2c0.1,5.4,0.1,10.8-0.3,16.1
	c-0.7,9.2-1.7,18.3-2.6,27.4c-0.1,0.9-0.2,1.9,0.1,2.7c1.9,4.8,0.6,9-2.4,12.6c-2.8,3.3-6,6.2-9.1,9.2c-2.8,2.8-5.9,5.2-8.4,8.2
	c-6.6,7.7-45.8,41.7-46.9,43.4c-2.4,3.8-6,5.9-10.2,7c-7.9,1.9-15.9,2.4-24,1.8c-5.8-0.5-11-2.4-14.9-7.1c-1.4-1.6-58-35.8-60-36.9
	c-2.9-1.6-5.7-3.3-8.7-4.7c-5.5-2.5-7.9-7.1-8.6-12.7c-0.9-7-1.1-14.1-2.7-21.1c-0.4-1.9-0.8-3.9-1-5.8c-1.2-10.1-2.6-20.3-3.6-30.4
	c-0.9-8.1-1.3-16.3-1.9-24.4c-0.5-6.1-0.9-12.1-1.3-18.2v-2.4c2.4,3,5,5.8,7.7,8.5c0.9,0.9,2.3-0.5,1.4-1.4
	c-0.5-0.5-0.9-0.9-1.4-1.4c-0.2-0.5-0.3-0.9-0.5-1.1c-1.5-1.8-2.9-3.5-4.4-5.2c-1.8-2.1-3.7-4.2-5.5-6.3c-2.4-2.9-3-6.2-3.2-9.8
	c-0.3-6.7,1.2-13.3,1.1-20c-0.1-7.9,1.2-15.8,2.3-23.7c1.2-8.9,1.4-17.8,0.3-26.8c-0.2-1.1,0-2.2,0.3-3.3c1.2-5.2,1.9-10.5,1.2-15.9
	c-0.4-2.6-0.7-5.3,0.6-7.9c0.3-0.6,0.3-1.4,0.3-2.1c0-4.9-0.1-9.7-1.1-14.5c-0.3-1.1,0-2.4,0.2-3.6c0.7-4.6,2.3-9.1,1.6-14
	c-0.4-2.2-0.1-4.5-0.1-6.7c0-0.9,0-1.8-0.2-2.7c-0.6-3.3,0.2-6.4,1.5-9.3c1.7-3.8,3.8-7.5,5.8-11.2c0.6-1.1,1.4-2,2.1-3
	c0.9-1.2,2-2.2,2.8-3.5c1.2-2.2,2.1-4.5,3.4-6.6c2.4-3.7,4.8-7.5,10.1-7.4c1,0,2.1-0.5,3.1-0.7c-1.9-0.6-2.8-2-3.2-3.8
	c-1,0.1-1.8,0.3-2.6,0.3c-0.9,0.1-1.7,0.2-2.5,0c-1.3-0.3-2.7-0.5-3.8-1.1c-2.8-1.6-5.3-1.6-7.9,0.5c-1,0.8-1.9,1-3.3,0.8
	c-3.2-0.4-6.3,0.7-7,4c-0.4,1.8-0.9,3.6-1.3,5.4c-0.1,0.3,0,0.9-0.3,1.1c-2.5,1.6-2.1,4-1.6,6.3c-2.6,2.1-3.1,4.9-2.7,7.9
	c0.3,1.8,0.5,3.5,0.7,5.2c0.1,0.9,0.2,1.8,1.3,2.2c0.4,0.1,0.5,0.8,0.9,1.6c-2-0.1-3.9-1-4.6,1.2c-0.2,0.7-0.3,1.6,0,2.1
	c0.6,0.9,1.6,1.7,2.6,2.6c-0.2,1.7,0.3,3.8-1.4,5c-1.4,0.9-1.7,2.1-1.9,3.6c-0.3,1.9,1,2.6,2.6,3.3c-0.6,1.8-1.1,3.5-1.7,5.1
	c-0.6,1.6-0.7,3.1-0.3,4.8c0.6,2.6,0.8,5.3,1,7.9c0.1,0.8-0.4,1.5-0.7,2.3c-0.2,0.6-0.3,1.1-0.6,1.9c2.2,0.3,2.5,1.5,2.1,3.3
	c-0.3,1.4-0.3,2.8-0.5,4.3c-3.6,2-3.9,6.1-0.2,8.8c-0.7,3.6-1.3,7-1.2,10.7c-0.2,1.1-0.1,2.3,0,3.4c0.4,2.5,0.8,5.1,1.2,7.6
	c0.1,0.7,0.2,1.4,0.1,2.1c-0.3,1.7-0.8,3.5-1.2,5.5c-0.4,0.1-0.9,0.4-1.5,0.5c-5.1,1-9.7,7.2-9.2,12.5c0.2,1.9,0.1,3.7,0.1,5.6
	c0.1,8.1-0.3,16.2,1.9,24c1.4,5.1,1.2,10.1,0.8,15.3c-0.1,1-0.2,2.1,0,3.1c0.6,3.3,0.4,6.6-0.6,9.8c-0.8,2.6-0.8,5.3,0.5,7.8
	c1.4,2.6,2.9,5.2,4.8,7.5c2.2,2.6,4.2,5.2,4.1,8.9c0,1.7,0.6,3.4,1,5.1c0.5,2.2,1.6,3.8,4.2,3.5c0.2,0,0.3,0.2,0.8,0.6
	c0.5,3.6,1.2,7.4,1.5,11.3c0.7,10.8,2.2,21.5,3.9,32.2c0.2,1.5,0.3,3.1,0.5,4.6c0.4,3.3,0.4,6.8,1.1,10.1c1.5,7.1,1.9,14.3,2.6,21.5
	c0.4,4.7,1.9,8.7,4.5,12.3c0.9,1.2,2.1,2.3,3.3,3.2c7.9,5.6,15.5,9,23.3,14.7c3.8,2.7,35.5,18.1,39.5,22.1
	c4.6,4.5,16.2,11.8,22.6,12.7c8.7,1.2,17.4,0.8,26.1-0.9c6.9-1.3,11.2-5.9,15.1-11c3.3-4.4,45.1-41.7,50-46.7c3.1-3.1,6-6.3,9.3-9.1
	c4.1-3.5,5.5-8,5.5-13.2c0-1.9,0.2-3.8-0.2-5.6c-0.9-4.5-0.1-9.1,0.4-13.5c1.2-10.8,2.1-21.6,2.4-32.4c0-0.8,0.1-1.5,0.2-2.2
	c0.3-3.7,0.8-7.5-0.4-11.4c0.8-0.1,1.3-0.3,1.9-0.4c4.2-0.5,5.7-1.8,6.8-5.9c0.6-2,0.9-4.1,1.6-6c1.4-3.7,2.1-7.6,1.9-11.5
	c-0.4-5.9,0.1-11.7,2.3-17.3c0.2-0.5,0.2-1,0.3-1.5c1.2-5.4,2.2-10.9,4.3-16.1C-122,762.8-121.3,755.8-121.6,748.6z M-150.7,607.7
	c-0.3-0.6-0.5-1.1-0.8-1.7c0.1-0.1,0.3-0.2,0.4-0.3c0.2,0.2,0.5,0.4,0.8,0.8C-150.2,606.8-150.3,607.2-150.7,607.7z M-357.5,628.7
	c-1-1.6-0.2-2.7,0.9-3.9C-355.1,627.5-355.2,627.7-357.5,628.7z M-357.3,826.7c-0.5-1-1-1.7-1.1-2.6c-0.4-1.7-0.8-3.5-0.9-5.2
	c-0.2-3.3-1.5-5.9-3.8-8.2c-2.4-2.4-4.1-5.2-5.3-8.3c-0.8-1.8-1-3.5-0.5-5.4c1-3.8,1.4-7.6,0.8-11.6c-0.2-1.6-0.1-3.3,0.1-4.9
	c0.7-5.1,0.2-10.1-1.1-15c-1.9-6.9-1.3-13.9-1.5-20.9c-0.1-2.7,0.1-5.5,0.1-8.3c0-3.9,2.6-6.4,5.4-8.5c2-1.4,4.5,0,4.6,2.5
	c0.1,4.5,0,8.9,0,13.5c0.8,0.3,1.4,0.4,2,0.6c1.5,5.9,0.2,11.7-0.6,17.6c-0.6,4.7-1.3,9.4-1.6,14.1c-0.4,5.3-0.4,10.7-0.6,16
	c-0.1,3.6,0.5,7,2,10.2c1,2.1,1.6,4.2,1.8,6.5c0.3,3.7,0.7,7.3,1.1,11c0.2,1.2,0.4,2.4,0.6,3.6
	C-355.6,824.8-355.5,824.8-357.3,826.7z M-127.9,768.7c-2.3,5.8-3.3,11.9-4.8,17.9c-0.4,1.5-0.9,3-1.2,4.5c-0.5,2.7-1.2,5.5-1.1,8.2
	c0.2,6.1-0.1,12-2.2,17.7c-0.6,1.6-0.8,3.4-1.3,5.1c-0.9,3.3-2,3.9-5.9,2.9c0.3-3.6,0.5-7,0.9-10.5c0.1-0.6,0.1-1.2,0.2-1.9
	c0.1-0.1,0.1-0.2,0.2-0.3c0.4-0.5,0.3-1.1-0.1-1.4c0.1-1.7,0.3-3.4,0.7-5c0.4-1.9,1.4-3.7,2.6-5.2c3.7-4.7,4.2-9.8,3.4-15.5
	c-1.4-10-2.6-20.1-3.8-30.1c-0.1-0.7-0.2-1.5,0.1-2.1c2.3-4.4,2.2-9.1,1.9-13.9c0-1.1,0.1-2.3,0.1-3.4c0.1-3.1,0.2-6.2,0.2-9.3v-9.6
	c0-2.2,1.6-2.9,3.2-3.7c1.6-0.8,2.4,0.3,3.4,1.3c2.3,2.3,2.8,5.3,3.4,8.2c1.1,5.5,1.8,11,2.5,16.5c0.4,3.3,0.5,6.6,0.7,9.9
	C-124.4,755.8-125.5,762.4-127.9,768.7z"/>
<path d="M-275,770.3c-1.1,1.8-2.1,3-2.7,4.3c-2.4,4.9-6.7,7.8-11.4,10c-4.6,2.1-9.6,3.2-14.8,2.6c-2.1-0.2-4.3-0.7-6.3-1.5
	c-4.4-1.8-9.4-2.7-13.1-6.1c-2-1.9-3.7-4.1-5.5-6.2c-0.4-0.5-0.4-1.2-0.6-1.9c0.2-0.1,0.4-0.3,0.5-0.4c0.6,0.6,1.3,1.1,1.7,1.8
	c2.5,3.7,5.7,6.5,10,7.9c1.5,0.5,2.9,1.1,4.3,1.7c6.2,2.7,12.4,2.6,18.7,0.7c8.3-2.4,13.9-7.7,16.8-15.9c0.1-0.3,0.2-0.6,0.4-0.8
	c0.1-0.2,0.3-0.3,0.7-0.8c0.5,0.5,1.3,0.9,1.5,1.5c0.3,0.9,0.6,1.6,1.5,2.2c1.4,1,0.9,2.5,0.4,3.7c-1.4,3.5-2.7,7.1-4.5,10.5
	c-2.9,5.5-6.8,10.3-12,13.9c-4,2.8-8.1,2.5-11.9,0.2c-2.8-1.7-5.2-4.3-8-6.7c1.8-0.9,2.5,0,3.3,0.7c1.7,1.5,3.3,3.2,5.1,4.5
	c2.7,2,5.7,2.6,8.6,0.6c2.4-1.6,4.8-3.3,6.6-5.4c4.9-5.6,8.1-12.1,10.4-19.2C-274.9,771.8-275,771.3-275,770.3z"/>
<path d="M-262.6,818.5c1.8,0.1,2.2-2.8,4.3-1.3c-1.2,2-2.5,3.8-3.4,5.8c-1.3,2.9-2.3,5.9-3.5,8.9c-0.2,0.6-0.8,1.4-1.2,1.4
	c-1.2,0.1-1.2-1-1-1.8c0.8-2.6,1.5-5.1,2.6-7.6c0.6-1.4,1-2.6,0.5-4.1c-1.7-5.6-2.1-11.3-2.4-17.1c-0.2-5.4-0.5-10.7-0.4-16.1
	c0-5.5,0.2-10.9,0.8-16.4c0.4-4.2,0.2-8.4-0.1-12.6c-0.4-7.6-0.8-15.2-1.2-22.8c0-1,0.1-2,0.2-2.9c1.5-0.6,2.1,0,2.2,1.1
	c0.1,1.4,0,2.9,0.1,4.3c0.6,10.4,1.2,20.8,1.8,31.2c0.1,2.3,0.1,4.4-0.8,6.7c-0.6,1.6-0.5,3.4-0.6,5.2c-0.5,11.9-0.4,23.7,1.4,35.5
	C-263.2,816.8-262.8,817.7-262.6,818.5z"/>
<path d="M-231.2,813.8c2.1-1.2,3,0.6,4.7,1.5c0.1-2.5,0.3-4.6,0.3-6.8c0-7.6,0-15.2-0.2-22.9c-0.2-5.7-0.8-11.3-1-17
	c-0.1-1.2,0.4-2.3,0.6-3.5c0.2-0.9,0.5-1.8,0.5-2.7c0.5-9.7,0.6-19.4-0.8-29c-0.1-1-0.1-2-0.2-3.6c0.8,0.7,1.4,0.9,1.5,1.3
	c1.7,4.5,2.1,9.2,2,14c-0.1,6.7-0.1,13.4-0.7,20c-0.6,6.5-0.1,13,0,19.4c0.2,9.2-0.1,18.3-0.2,27.5c0,1.5-0.7,3.1-1.2,5.1
	c4.3,12.3,4.3,12.3,2.1,14c-0.3-1.1-0.5-2-0.8-2.9C-225.8,823.2-227.7,818.2-231.2,813.8z"/>
<path d="M-229,853.1c-2,0.9-4.1,3.2-6.3,5.3c-3.7,3.7-8.2,5.6-13.4,4.6c-2.8-0.5-5.5-1.7-8.1-2.9c-3.3-1.6-6.6-3.4-9.8-5.2
	c-1.5-0.8-2.7-1-4.3,0s-3.6,0.8-4.5-0.3c-0.3-0.4-0.6-1.2-0.4-1.6c0.8-1.6,2.3-2.3,4-2.3c0.9,0,1.8,0.3,2.6,0.7
	c5.3,2.6,10.4,5.3,15.7,7.8c6.1,2.9,11.4,1.7,16.4-3c2.9-2.7,6.2-5.1,9.5-7.4c2.9-2,6.5-1.4,8.9,1.4c0.4,0.5,0.7,1.4,0.5,1.9
	c-0.5,1.3-1.5,2.4-3,2.2C-223.6,854.1-225.9,853.6-229,853.1z"/>
<path d="M-271.1,857.2c-0.7,0-1.3,0.6-2,0.8c-1.5,0.4-3,1-4.5,1.1c-5.7,0.2-7.3-2.3-4.9-7.5c0.1-0.2,0.3-0.5,0.4-0.8
	c0.4-1.3,0.9-2.7,1.3-4.1c-0.1-0.1-0.3-0.2-0.4-0.3c1-0.7,2.1-1.5,3.5-2.4c-1.9-1.1-2.7-1.2-4-0.3c-1,0.7-2,1.6-2.6,2.6
	c-3.4,5.5-6.8,11-10.2,16.5c0,0.5,0,1.1-0.2,1.6c-0.6,2-1.2,4.5-1,6.4c2.4-3.5,4.3-7.6,7.5-10.6c0.3,0.2,0.7,0.3,0.8,0.5
	c1.6,2.5,3.7,2.4,6.2,1.5c1-0.3,2-0.3,3-0.5c2.7-0.6,5.4-1.2,8-2c0.5-0.1,0.8-1,1.2-1.6C-269.7,857.7-270.4,857.2-271.1,857.2z"/>
<path d="M-184.3,760.8c-0.2,0.6-0.5,1.3-0.6,1.9c-0.2,2.7-1.9,4.2-4.1,5.3c-3.2,1.6-6.5,1.7-9.8,0.3c-2.8-1.2-3.8-3.2-3.4-6.1
	c0.6-4.2,3.1-6.8,6.9-8.4c0.9-0.4,2.2-0.3,3.3,0c3,0.8,5.5,2.2,6.7,5.3C-185.2,759.8-184.6,760.3-184.3,760.8z M-192.6,757
	c-1.2,1.7-2.2,2.5-2.5,3.6c-0.3,0.9,0,2.4,0.6,3c0.4,0.5,1.9,0.4,2.8,0.1c1.3-0.4,1.5-1.7,1.1-2.8
	C-191.1,759.8-191.7,758.8-192.6,757z"/>
<path d="M-303.9,772.6c-0.6-0.1-1.7-0.1-2.8-0.4c-4-1-6-4.7-4.9-8.6c0.8-2.6,1.8-5.1,4.3-6.5c2.6-1.5,5.2-1.7,7.9-0.2
	c1.8,1.1,4.7,7.8,4.2,9.8C-296,769.8-299.8,772.6-303.9,772.6z M-300.8,763.8c-0.7-0.4-1.4-1.1-2.2-1.4c-1.5-0.7-2.9,0.2-3.1,1.9
	c-0.1,1.6,0,3.3,1.4,4.1c1.3,0.8,2.8,0.3,4-0.6c0.2-0.1,0.3-0.3,0.4-0.5C-300.4,766.2-300.6,765-300.8,763.8z"/>
<path d="M-219.4,762.6c-0.5-0.9-1.1-1.4-1.1-1.9c0-0.8,0.4-1.6,0.8-2.3c2.6-4,5.1-8.2,8.1-12c5.4-6.8,12.9-9.5,21.4-8.4
	c6.7,0.8,12.3,4.2,16,9.9c2.6,4,4.6,8.5,6.9,12.7c0.1,0.3,0.4,0.6,0.3,0.8c-0.1,0.4-0.2,1-0.6,1.3c-0.1,0.1-0.9,0-1-0.3
	c-0.5-0.6-0.9-1.4-1.2-2.1c-1.8-3.5-3.6-7-5.3-10.4c-1.2-2.4-3.1-4-5.3-5.5c-10.7-7.6-23.2-4.1-29.8,4.3c-2.9,3.7-5.3,7.8-7.9,11.8
	C-218.4,761-218.7,761.6-219.4,762.6z"/>
<path d="M-165,767c-0.1-1.3-2.1-1.3-2,0c0,0,0,0.1,0,0.1c-0.3-0.2-0.6-0.4-1.1-0.7c-1.2,1.9-2.3,3.9-3.7,5.6
	c-1.4,1.6-2.8,3.5-4.6,4.4c-3,1.4-6.2,2.3-9.4,3c-3,0.6-6.1,0.8-9.2,0.8c-8.9-0.2-16.7-2.5-20.9-11.4c-0.6-1.1-1.3-2.1-3.2-2.4
	c0.9,3.7,2.1,7,5,9.3c4.4,3.2,9,5.8,14.5,6.6c7.3,1.1,14.4,0,21.4-2.1c3.4-1,6.5-2.9,8.6-6.1c0.9-1.4,1.8-2.7,2.6-4
	c0,2.7-0.4,5.4-1,8.1c-0.3,1.3,1.6,1.8,1.9,0.5C-165.1,774.9-164.8,771-165,767z"/>
<path d="M-328.6,760.5c0.6-1,1.1-2.1,1.9-2.9c5.9-6,12.7-10.9,20.9-13.2c4.8-1.4,9.7-1.7,14.6,0.1c1.4,0.5,3,0.8,4.4,1.5
	c2.8,1.3,5.3,3.2,7.1,5.7c1.8,2.5,3.9,4.8,5.8,7.2c0.3,0.3,0.6,0.7,0.6,1.1c0,0.6-0.3,1.3-0.4,1.9c-0.6-0.2-1.4-0.3-1.7-0.8
	c-1.9-2.5-3.7-5.2-5.6-7.7c-4.8-6.4-11.6-8.1-19-7.5c-7.8,0.6-14.5,4.4-20.5,9.2c-2,1.6-3.9,3.4-5.8,5c-0.4,0.4-1,0.6-1.5,0.9
	C-328.1,760.9-328.4,760.7-328.6,760.5z"/>
<path d="M-200.3,853.7c-0.7-1.4-1.6-2.6-2.6-3.8c-2-2.5-4.1-4.8-6.1-7.3c-1.7-2.1-3.9-3.3-6.3-4.3c-1.5-0.7-2-0.3-3.2,1.9
	c2.8,0,4.5,1.8,6.3,3.4c2.3,2.1,2.8,4.3,1.4,7.2c-2,4.2-5.5,6.2-10.1,6.5c-1,0-2.3-0.4-3.1,1.4c5.3,1.1,9.8,0.1,13.4-2.9
	c0.7,0.7,1.3,1.1,1.8,1.6c0.6-0.5,1.1-0.8,1.7-1.2c-0.3-1.7-0.7-3.4,2-4.1c1.3,1.3,2.7,2.6,4.3,4.1
	C-200.8,855.3-200.7,854.5-200.3,853.7z"/>
<path d="M-234.1,862c0.5,2,1.1,4,1.5,6.1c0.6,3.4,1.3,6.9,1.5,10.4c0.2,3.3-2.2,6.2-5.5,7.3c-1.3,0.4-2.5,1.1-3.8,1.4
	c-2.4,0.6-4.8,0.5-6.8-1.2c0-0.2,0.1-0.5,0.1-0.7c0.8,0.1,1.6,0.2,2.5,0.4c4.4,0.9,6.7-0.5,8.4-4.8c1.2-3,0.8-5.9,0.3-8.8
	c-0.4-2.3-1-4.6-1.8-6.9c-1-3-0.7-3.5,2.3-3.5C-235.1,861.7-234.8,861.9-234.1,862z"/>
<path d="M-194.8,796.9c-9.8-0.1-19.4-6.7-22.1-15.9c-0.1-0.4-0.2-0.8-0.4-1.1c0.2,0.2,0.4,0.4,0.7,0.6c1,0.8,2-1,1-1.7
	c-2.6-2-3.9-5.2-3.5-8.4c0.2-1.3-1.7-1.8-1.9-0.5c-0.3,2-0.1,3.9,0.6,5.6c0,0-0.1,0-0.1,0.1c0.6,10,7.5,17.8,15,20.9
	c6.2,2.6,12.7,2.6,19.1,1.7c3-0.4,6-1.2,8.2-3.6C-183.4,796.9-189.1,797-194.8,796.9z"/>
<path d="M-344.2,745.9c0.9-3.7,12.9-18.6,16.2-20c-1.6,2.3-3.1,4.6-4.8,6.9c-1.7,2.3-3.3,4.7-5.2,6.9
	C-339.8,741.7-340.7,744.7-344.2,745.9z"/>
<path d="M-225.2,877.3c-0.9-1.9-1.9-3.8-2.7-5.7c-1.1-2.6-2.1-5.2-3.1-7.7c-0.5-1.2-1-2.5,0.3-4.1c2.8,5.8,4.4,11.6,6.8,17.1
	C-224.3,876.9-224.7,877.1-225.2,877.3z"/>
<path d="M-260.7,865.4c-0.9,1.9-1.6,8.1-1.4,12c-0.1,0.2-0.2,0.3-0.2,0.6v4c0,1.3,2,1.3,2,0v-4c0-0.3-0.1-0.5-0.2-0.6
	c0.6-1.3,0.7-3.5,0.9-9.4C-259.7,867-259.4,865.9-260.7,865.4z"/>
<path d="M-325.4,594.9c2.6,0,5.3,0,7.9,0l0,0C-320.1,595-322.7,595-325.4,594.9C-325.4,595-325.4,594.9-325.4,594.9z"/>
<path d="M-237.5,816c-0.1,0.7-0.1,1.5-0.2,2.6C-239.2,817.5-239.1,816.7-237.5,816z"/>
<path d="M-151.8,704.9c0.3-0.5,0.5-1,0.8-1.5l0.7,0.3c-0.2,0.6-0.4,1.1-0.6,1.7C-151.2,705.2-151.5,705-151.8,704.9z"/>
<path d="M-114.2,728.3c-0.6,0.3-0.9,0.7-1.2,0.7c-0.2,0-0.5-0.5-0.7-0.8c0.4-0.3,0.7-0.6,1.1-0.7
	C-115,727.4-114.6,727.9-114.2,728.3z"/>
<path d="M-305.7,658c-0.5-0.6-1.1-1.2-1.6-1.7c0.2-0.2,0.3-0.4,0.5-0.5c0.6,0.5,1.2,1,1.8,1.5C-305.2,657.5-305.4,657.7-305.7,658z"
	/>
<path d="M-289.1,594.8c0.6,0,1.2,0,1.8,0c0,0.1,0,0.1,0,0.2c-0.6,0-1.2,0-1.8,0C-289.1,594.9-289.1,594.9-289.1,594.8z"/>
<path d="M-246.7,778c0.2,0.5,0.4,1,0.7,1.5c-0.2,0.1-0.4,0.2-0.6,0.3c-0.2-0.5-0.4-1-0.6-1.5C-247.1,778.1-246.9,778-246.7,778z"/>
<path d="M-45.2,923.1c-0.1-0.2-0.3-0.5-0.4-0.7c0.2-0.1,0.4-0.3,0.5-0.3c0.2,0.1,0.3,0.4,0.5,0.6C-44.8,922.8-44.9,922.9-45.2,923.1
	z"/>
<path d="M-250,780.3c-0.4-0.3-0.7-0.5-1-0.8c0,0,0.1-0.3,0.2-0.4c0.4,0.2,0.8,0.4,1.2,0.6C-249.8,780-249.9,780.2-250,780.3z"/>
<path d="M-297,697.3c-0.3,0.4-0.5,0.6-0.6,0.8c-0.3-0.2-0.5-0.5-0.8-0.7c0,0,0.2-0.4,0.3-0.4C-297.9,697-297.5,697.1-297,697.3z"/>
<path d="M-184.8,892.8c-0.4-0.8-0.6-1.3-0.9-2.1c0.9-0.6,1.9-1.2,3-1.9c0.8,2.5,1,5,2.3,6.7c1.2,1.6,3.5,2.4,5.5,3.8
	c-2.7,1.1-4.9,0-7.3-1.2c-1,0.7-2.3,1.2-3.1,2.1c-3.2,3.3-6.9,5.9-10.5,8.6c-3.5,2.6-7,5.2-10.1,8.2c-5,4.7-10.8,8.1-16.9,11
	c-3.4,1.6-7,3-10.5,4.4c-2,0.8-4.1,1.2-6.3,0.9c-3.2-0.5-6.4-1-9.6-1.6c-2.5-0.5-5.1-1.2-7.6-1.6c-4.7-0.7-9.1-2.5-13.6-4.1
	c-5.3-1.8-10.2-4.3-15.2-6.9c-2.9-1.5-5.2-3.6-7-6.4c-2.1-3.2-3.9-7.1-8-8.7c-0.4,0.5-0.9,1-1.3,1.5c-2-0.3-1-2.1-1.9-3
	c-1.6,0.6-1.7,3.4-4.2,3.1c0.1-0.7,0.1-1.3,0.4-1.9c1.2-2.7,2.4-5.4,3.6-8.1c0.3-0.7,0.7-1.4,1.6-1.2c1.1,0.2,1.2,0.9,1.2,1.9
	c-0.1,0.8-0.1,1.6-0.2,2.8c1.2-0.1,2.2-0.1,3.1-0.3c3.7-0.9,7.4-1.8,11-3c4.6-1.6,9.1-3.2,13.4-5.3c3.9-1.9,7.8-2.6,12.1-1.8
	c6.6,1.2,13.3,1.5,19.9,0.4c2.7-0.4,5.3-1.5,7.9-2.5c2.3-0.8,4.5-0.9,6.8-0.2c8.6,2.6,17.3,4.9,26.2,6.2c4.3,0.6,8.7,0.7,13,0.9
	C-187,893.6-186,893.1-184.8,892.8z M-201.1,895.4c-1.5-0.4-2.6-0.7-3.8-1c-7.1-1.7-14.2-3.4-21.3-5.2c-2.5-0.7-4.8-0.9-7.3,0.1
	c-7.6,3.1-15.5,3.3-23.5,2.3c-2.7-0.3-5.3-0.8-8-1c-1.3-0.1-2.8,0.1-4,0.6c-4.7,1.8-9.3,3.8-13.9,5.7c-1.2,0.5-2.3,1-3.5,1.6
	c0.1,0.2,0.1,0.4,0.2,0.6c2-0.3,4-0.7,6-0.9c5.4-0.7,10.8-1.3,16.3-0.4c4.4,0.7,8.9,1.3,13.3,1.1c4.8-0.3,9.5-1.4,14.2-2.5
	c3.7-0.8,7.3-1.2,11-1c3.9,0.2,7.8,0.2,11.7,0.2C-209.7,895.4-205.6,895.4-201.1,895.4z M-201.4,909.9c-3.2,0.5-5.8,2.1-8.3,3.8
	c-7.8,5.4-16.1,9.5-25.4,11.4c-6.3,1.3-12.4,1.1-18.6-0.9c-5.5-1.8-11.2-3.3-16.9-4.6c-5.8-1.4-11.5-2.9-16.6-6.1
	c-0.4-0.3-0.9-0.4-1.8-0.7c1.5,2.3,3.1,3.7,5,4.7c5.6,2.9,11.3,5.6,17.3,7.6c2.1,0.7,4.2,1.7,6.3,2.1c6.3,1.3,12.6,3.1,19.1,3.8
	c2.7,0.3,5.2,0.2,7.6-0.8c1.8-0.7,3.7-1.4,5.4-2.2c4.8-2.4,9.8-4.5,14.3-7.4c4.2-2.7,7.8-6.2,11.7-9.4
	C-202.1,910.8-201.8,910.3-201.4,909.9z M-244.1,900.7c0.3,2.6,0.6,4.8,1,6.9c0.2,1,0.8,2,2,1.9c2.5-0.2,5-0.3,7.4-0.6
	c1.8-0.2,2.8-1.5,3-3.2c0.3-2.5,0.2-4.9-0.8-7.6C-235.7,898.4-239.5,900.1-244.1,900.7z M-258.9,900.9c-0.1,2.7-0.3,5-0.1,7.3
	c0.1,1,0.8,2.1,1.6,2.7c1.9,1.2,4.1,1.7,6.4,1.2c0.6-0.1,1.4-0.6,1.5-1c0.6-3.1,1.4-6.3,0.3-9.5
	C-252.4,901.4-255.4,901.2-258.9,900.9z M-264,900.3c-4.1-1.7-7.9-0.4-11.7-0.2c-0.5,0-1.2,0.8-1.4,1.4c-0.3,0.9-0.2,1.8-0.2,2.7
	c0.1,2.6,0.7,3.3,3.4,3.3c2.9,0,5.9-0.2,8.8-0.3C-264.4,904.9-263.6,902.8-264,900.3z M-217.9,898.2c-3.1-0.1-5.8-0.3-8.5-0.4
	c-0.6,2.2-0.4,4,0.1,5.7c0.2,0.6,0.6,1.2,1.1,1.5c1.9,1.2,5.6,0,6.4-2.1C-218.3,901.5-218.2,899.9-217.9,898.2z M-234.4,911.9
	c1.7,2.2,3.8,3.4,6,4.4c2.2,1,2.9,0.5,3.2-2.2c-1.1-0.7-2.3-1.3-3.2-2.2C-230.3,910.3-232.2,910.4-234.4,911.9z M-243.7,911.9
	c0.4,0.6,0.6,1.1,0.9,1.4c0.6,0.5,1.4,0.9,2.1,1.3c1.8,0.9,3.6,1.9,5.4,2.7c1,0.4,1.9,0.3,2.6-0.9c-1-0.8-2-1.5-2.8-2.3
	C-237.6,911.6-240.2,911-243.7,911.9z M-290.8,901.9c0.2,2.6,0.3,2.8,1.9,3.1c1.1,0.2,2.2,0.3,3.3,0.4c1.8,0.1,2.2-0.3,2.3-1.9
	c0-1.8-0.5-2.6-2.2-2.4C-287.2,901.1-289,901.5-290.8,901.9z M-213.5,902.6c2.9-1.8,6.2-1.1,8.1-4.3c-3.2-0.8-6.1-0.5-9.3,0.1
	C-214.3,899.8-214,900.9-213.5,902.6z M-231.9,919.3c-1.2,0.1-2.5,0.2-3.8,0.4c-2,0.3-2.2,0.7-1.8,3.4c1.8-0.5,3.6-0.8,5.3-1.4
	C-231.1,921.3-231,920.3-231.9,919.3z M-227.5,906.9c-1.8,2.4-1.1,3.6,2.6,4.4C-224.1,908.2-224.4,907.7-227.5,906.9z M-240.2,920.8
	c0.4-0.9,0.7-1.7,1-2.6c-1.4-0.9-2.6-1.7-3.8-2.5C-244,919.3-243.9,919.5-240.2,920.8z M-258.7,915.1c-0.2,0.1-0.4,0.3-0.6,0.4
	c0.4,1.2,0.8,2.5,1.2,3.8c1.2-0.3,2.1-0.6,3.6-1C-256.2,917.1-257.5,916.1-258.7,915.1z M-248.3,923.3c2.3,0.1,4,0.8,5.8-0.4
	C-244.8,921.3-245.8,921.4-248.3,923.3z M-255.5,914.3c1.6,2.1,2.2,2.2,4.4,1.3C-252.6,914.3-252.6,914.3-255.5,914.3z
	 M-280.3,900.4c-1,1.7-0.9,3.8,0.2,5.1C-280.4,903.9-279.4,902.2-280.3,900.4z M-251.8,919c0.1,1.2,0.1,2.1,0.2,3.1
	C-249.3,920.4-249.3,920.4-251.8,919z M-248.8,914.3c1.2,0.7,1.8,1.1,2.8,1.7c-0.1-1.2-0.1-1.9-0.1-2.8
	C-247,913.5-247.6,913.7-248.8,914.3z M-249.4,916.8c-0.1,0.1-0.2,0.3-0.3,0.4c0.8,0.7,1.6,1.4,2.4,2c0.2,0.1,0.8-0.2,1.7-0.4
	C-247.2,917.9-248.3,917.4-249.4,916.8z M-275,911.4c0.8-1,0.1-1.5-0.7-1.9c-0.2-0.1-0.8,0.1-0.9,0.3c-0.4,0.9,0.3,1.3,1,1.6
	C-275.4,911.5-275.2,911.4-275,911.4z M-284.4,908.5c-0.1,0.2-0.3,0.3-0.4,0.5c0.3,0.4,0.4,1,0.8,1.2s0.9,0,1.4-0.1
	c-0.2-0.4-0.3-1-0.6-1.3C-283.5,908.6-284,908.6-284.4,908.5z M-216,907.8c1.5,0.6,2,0.1,2.2-0.8c0-0.2-0.4-0.5-0.6-0.8
	C-215,906.7-215.5,907.2-216,907.8z M-225,919.2c-3.3-0.6-3.3-0.6-3.2,1.3C-227.2,920.1-226.3,919.7-225,919.2z M-212,909.9
	c0.5-0.1,0.9,0,1.2-0.1c0.3-0.2,0.6-0.6,1-1.1C-211.3,908-211.8,908.5-212,909.9z M-266.7,912.9c-0.2-1.8-0.8-2.1-2.5-1.7
	C-268.2,911.9-267.7,912.2-266.7,912.9z M-270,913.9c-0.2,0.2-0.3,0.4-0.5,0.7c0.3,0.9,0.9,1.2,2.4,0.7
	C-268.9,914.6-269.4,914.3-270,913.9z M-218.1,914.3c-0.5-0.3-0.9-0.5-1.1-0.5s-0.4,0.4-0.6,0.7c0.3,0.2,0.5,0.5,0.8,0.6
	C-218.8,915.1-218.6,914.7-218.1,914.3z M-197.9,900.2c-0.1,0.2-0.2,0.5-0.3,0.7c0.4,0.2,0.8,0.4,1.2,0.6c0.1-0.2,0.3-0.6,0.3-0.6
	C-197.1,900.6-197.5,900.4-197.9,900.2z M-276.7,914.4c0.1-0.2,0.2-0.4,0.3-0.5c-0.5-0.2-1.1-0.4-1.6-0.7c0,0.6,0.1,0.8,0.3,1
	C-277.4,914.3-277.1,914.3-276.7,914.4z M-279.8,911.6c-0.4-0.2-0.6-0.5-0.8-0.4c-0.2,0.1-0.4,0.3-0.5,0.5c0,0.2,0.3,0.4,0.4,0.6
	C-280.4,912.1-280.2,911.9-279.8,911.6z M-272.3,912.2c-0.3,0.2-0.7,0.4-0.7,0.5c0,0.3,0.3,0.6,0.4,0.8c0.2-0.2,0.5-0.3,0.5-0.6
	C-272,912.7-272.2,912.5-272.3,912.2z"/>
<path d="M-324.7,908.6c-0.1-1-0.4-1.8-0.3-2.5c0.6-2.9,1.2-5.8,2.1-8.6c0.3-0.9,1.1-1.6,1.8-2.4c0.1-0.2,0.8-0.1,1,0.1
	c0.2,0.2,0.5,0.7,0.3,0.9c-2.2,3.6-2.6,7.8-3.9,11.7C-323.8,908.1-324.2,908.2-324.7,908.6z"/>
<path d="M-167.4,897.9c-0.5-1.7-0.9-3.4-1.5-5c-0.7-1.7-1.6-3.2-2.5-5.1c2.5,0.3,2.9,2.2,3.7,3.6
	C-166.6,893.4-165.8,895.5-167.4,897.9z"/>
<path d="M-285.4,749.5c-12-0.1-23.9,1.9-35.5,6c-0.8,0.3-0.5,2.2,0.4,1.9c11.5-4.1,23.3-6.1,35.2-5.9
	C-284.5,751.4-284.5,749.5-285.4,749.5z"/>
<path d="M-176.3,749.3c-10.1-2.8-20.6-3.9-31.2-3.4c-0.8,0-0.9,1.6-0.1,1.5c10.6-0.6,20.9,0.5,30.9,3.3
	C-175.9,751-175.5,749.5-176.3,749.3z"/>
<path d="M-213.7,694.2c4.6-1.4,6.4,0,8.6,6.7c2.7-1.8,4.9-0.5,7.1,1.3c1.1,0.9,2.4,1.6,3.6,2.4c2.7,1.7,4,4.3,5.5,7
	c0.7,1.2,1.8,2.1,2.7,3.2c0.6,0.8,1,1.8,1.5,2.9c0.5-0.7,0.9-1.3,1.5-1.9c0.7-0.7,1.6-0.9,2.5-0.2c0.7,0.6,0.8,1.2,0.4,2.2
	c-0.6,1.1-0.5,2.5,0.5,4.1c1.2-1.4,0.6-3.7,3.1-4.2c1.2,0.7,2.8,1.5,4.9,2.7c-0.3-3.3-2-5.9-3.7-8.5c0.9-0.8,1.7-0.4,2.2,0.2
	c0.8,1,1.7,2.1,2.2,3.3c1.3,3,2.9,5.7,5.6,7.6c0.7,0.5,1.1,1.5,1.6,2.3c0.9,1.1,1.7,2.3,3.4,2.3c0.5,0,1.5,1,1.4,1.1
	c-0.2,0.7-0.8,1.6-1.3,1.8c-1.1,0.3-2.4,0.2-4.3,0.3c3,2.2,5.4,4.2,7.9,6.1c-0.1,1.1-0.2,2.1-0.2,3c-0.1,1.6-0.5,2.1-2,1.9
	c-4-0.7-8.1-1.5-11.6-3.8c-0.7-0.4-1.9-0.6-2.5-0.3c-1.5,0.7-2.6,0.2-3.7-0.7c-0.5-0.4-1-0.8-1.4-1.2c-2.9-2.8-6.3-4.9-10-6.4
	c-4.7-1.9-9.3-4.1-13.4-7.4c-1.7-1.3-4.1-1.7-6.3-2.3c-1.4-0.4-2.8-0.9-4.2-1c-1.1-0.1-2.3,0.1-3.3,0.6c-3.9,1.6-4.6,1.7-8.6,0.2
	c-1.4,0.5-2.7,2.1-4.2,0.3c1-1.3,2.1-2.6,3.1-4.1c0.7-0.1,1.6,0,2.7-0.1c0.1-0.8,0.2-1.5,0.3-2.5c-0.8,0-1.4-0.1-2.1-0.1
	c-0.3-2.3-1.9-3.6-4.5-4.5c0.7-0.4,1.1-0.7,1.7-0.9c-0.5-0.7-1-1.2-1.5-2c0.2-0.5,0.5-1.1,1-2.1c-0.7-0.4-1.4-0.9-2.3-1.5
	c2.4-0.3,4-2.8,6.5-0.4c0.7-2,1.4-3.6,2.2-5.8c0.6,1,1,1.6,1.3,2.1c1.2-0.1,2.4-0.3,4-0.4C-215.7,696-215.8,694-213.7,694.2
	c0.1,0.8-0.1,1.6,0,2.5c0.2,0.1,0.4,0.2,0.6,0.2c0.7-0.7,1.4-1.5,2-2.2c-0.1-0.2-0.2-0.4-0.3-0.6
	C-212.2,694.2-213,694.2-213.7,694.2z M-196.2,707.8c2-0.8,2-0.8,1.2-2.3C-195.4,706.5-195.8,707.1-196.2,707.8z M-220.3,706
	c0-0.4,0.1-0.8,0.1-1.2c-0.6,0.1-1.3,0.1-1.9,0.2l-0.1,0.5C-221.4,705.7-220.8,705.7-220.3,706z M-203.2,701
	c-0.1,0.3-0.1,0.5-0.2,0.8c0.5,0.1,1.1,0.3,1.6,0.4c0.1,0,0.2-0.5,0.3-0.7C-202.1,701.3-202.6,701.1-203.2,701z M-170.5,726.2
	c-0.1,0.1-0.1,0.3-0.2,0.4c0.4,0.2,0.8,0.4,1.2,0.5c0.1-0.2,0.1-0.4,0.2-0.7C-169.6,726.4-170,726.3-170.5,726.2z"/>
<path d="M-275.1,704.4c0.4-0.5,0.7-1,1.4-1.5c0.3-0.4,1.1-0.9,1.5-0.8c0.4,0,1.1,0.8,0.9,1.4c-0.2,2.9,2.1,3.5,4,4.1
	c1.4,0.5,2.9,0.5,4,1.9c0.4,0.4,1.4,0.6,2.6,0.9c-0.1,0.9-0.2,2.1-0.4,2.9c-0.5,1.4-0.7,2.7-0.2,4.2c0.6,1.6-0.3,2.8-2,3
	c-0.9,0.1-1.9-0.1-2.8,0.2c-1.6,0.5-3.3,0.7-5,1.6c-1.8,1.1-4.4,1.2-6.6,1.3c-9,0.5-17.3,3.8-25.1,8.1c-5,2.8-9.5,6.1-14.3,9.2
	c-0.9,0.6-1.6,1.3-2.3,2.1c-2.2,2.4-4.7,4.2-7.8,5.6c-0.8,0.4-1.5,1.3-2.3,2c-1.9,1.8-2.7,1.9-4.4-0.2c-1.9-2.2-2-2.7-0.3-5
	c0.5-0.7,1-1.3,1.4-2c0.8-1.5,1.9-2.5,3.7-2.1c0.2-0.7,0.3-1.1,0.3-1.6c-0.1-1.9,0.7-3.3,2.4-4.3c2.6-1.4,4.2-4,5.5-6.6
	c1.3-2.5,2.8-4.3,6.1-4c2.3,0.2,3.6-1.9,2.9-4.2c-0.3-1.3-0.2-2.2,0.6-3.1c0.9-1.1,1.8-0.5,2.8-0.1c0.3,0,0.6,0.2,1,0.2
	c2.3-1.5,3.2-3.7,4.1-6.1c0.3-0.8,0.5-1.8,1.1-2c2.8-1,3.7-4.6,6.9-4.5c0.7,0,1.3-0.3,1.9-0.6c1-0.5,2.3-0.9,3.7-0.9
	c-0.4,0.5-0.9,1-1.3,1.4c-1,1.4-1.1,2.8-0.4,4c0.8,1.4,2.2,0.9,3.3,0.6c0.7-0.2,1.3-0.5,2.1-0.9c-0.4-2.2-1.4-4.7,1.4-5.7
	c1.7-0.6,2.5-3.7,4.9-2.2C-278,701.8-276.7,703.1-275.1,704.4z M-291.9,711.7c-0.8,1.3-0.7,2,0.6,2.1c1.6,0.1,3.3,0.2,5-1.4
	C-288.4,712.2-290.2,712-291.9,711.7z M-300.8,720.3c0-0.3,0-0.6,0-0.8c-0.8-0.3-1.3-0.6-2-0.7c-0.2,0.1-0.3,0.4-0.4,0.4
	c0.3,0.6,0.4,1.3,1,1.9C-302.1,721.2-301.2,720.6-300.8,720.3z M-308.2,724.4c1.6,0.4,2.3-0.1,2.7-1.4
	C-307.1,722.2-307.5,723-308.2,724.4z M-300.5,716.8c0.2,0.2,0.3,0.5,0.5,0.7c0.8-0.5,1.5-1.1,2.8-1.9
	C-299.1,715.2-300.1,715.5-300.5,716.8z M-296.2,712.1c0.2-0.7,0.5-1.4,0.8-2.7C-297.3,710.2-297.5,710.8-296.2,712.1z
	 M-270.9,714.5c1.6,1.3,1.9,0.4,2-0.5c0-0.1-0.2-0.3-0.4-0.5C-269.8,713.7-270.3,714-270.9,714.5z M-280.1,702.4
	c-0.6,1.5,0,1.9,1.6,1.8C-279.2,703.4-279.6,702.9-280.1,702.4z M-324.7,737.7c-0.1-0.1-0.2-0.3-0.4-0.3c-0.3,0.4-0.8,0.7-1.1,1.1
	c0.1,0.2,0.3,0.2,0.4,0.4C-325.4,738.4-325.1,738-324.7,737.7z"/>
<path d="M-325.8,781.3c-3.2-3.4-4.6-7.7-4.1-12.3c0.1-1.3-1.9-1.3-2,0c-0.5,5.1,1.2,10,4.7,13.7
	C-326.3,783.7-324.9,782.3-325.8,781.3z"/>
</svg>
