<?xml version="1.0" encoding="utf-8"?>
<!-- Generator: Adobe Illustrator 19.0.0, SVG Export Plug-In . SVG Version: 6.00 Build 0)  -->
<svg version="1.1" id="Layer_9" xmlns="http://www.w3.org/2000/svg" xmlns:xlink="http://www.w3.org/1999/xlink" x="0px" y="0px"
	 viewBox="-499 501 500 500" style="enable-background:new -499 501 500 500;" xml:space="preserve">
<g>
	<path d="M-311.7,599.5c-2.6,2.9-4.8,5.6-7.2,8c-1.8,1.8-3.8,3.9-6,4.6c-3.2,1-4.4,3.2-5.5,5.9c-1.8,4.3-3.6,8.6-5.9,12.6
		c-1.5,2.7-3.8,5-6,7.1c-1.9,1.8-2.8,3.5-3.2,6.1c-1.1,8-2.9,15.9-6.5,23.3c-1,2.1-1,4.6-1.3,7c-0.3,1.9-0.3,3.9-2.2,5.1
		c-2.5-2.4-3.2-7.4-1-9.4c1.1-1,1-1.9,0.9-3.1c-0.2-4.2-0.2-8.4-0.2-12.6c-0.1-3.2,0.1-6.3,3.1-8.7c-3.2-2-2.4-4.7-2-7.3
		c0.3-2.1,0.1-4.2,0.6-6.2c0.9-4.2,2.1-8.4,3.1-12.5c0.4-1.7,0.7-3.4,0.8-5.2c0.1-1.8-0.2-3.6-0.2-5.4c-0.1-3.3-0.2-6.4-1.3-9.7
		c-0.9-2.8-1.9-6.6,1.7-9c0.4-0.3,0.6-1,0.6-1.5c0-2.1,1.3-3,3-3.3c2.8-0.6,4.2-2.3,5.2-5c1.2-3,3.1-5.8,4.7-8.7
		c0.3-0.5,0.8-1,0.9-1.5c1.3-7.8,7.6-9.3,13.7-11c0.9-0.2,1.9-0.2,2.6-0.7c3.7-3.1,8.3-4,12.8-5.1c1.5-0.4,3-1.3,4.3-2.3
		c2.5-1.8,5.1-3.1,8.3-2.8c1.2,0.1,2.7-0.3,3.8-0.9c2.9-1.8,5.9-2.2,9-0.9c2.5,1,4.3,0.6,5.8-1.7c1.3-1.9,3.2-2.6,5.5-2.3
		c3.4,0.6,6.8,1.2,10.2,1.7c3.9,0.6,7.8,1.3,11.6-1.1c4.5-2.9,8.6-2.4,12.9,1c0.7,0.6,1.4,1.1,1.7,1.4c3-0.7,5.6-1.2,8.2-1.8
		c1-0.3,1.9-0.8,2.8-1.3c0.5-0.3,0.9-0.8,1.3-1.2c3.6-3,4.8-2.8,6.9,0.9c2.8-0.6,5.5-1,8.1-1.9c2.2-0.8,4.3-2,6.2-3.4
		c3.5-2.6,7.4-4.1,11.7-4c3.3,0.1,6.1,1.2,7.9,4.3c2.1,3.6,6,4.7,9.9,3.5c1.9-0.6,4.1-0.6,6.1-0.7c1.2-0.1,2.4,0.3,3.5,0.2
		c3.5-0.3,4-0.2,5.6,2.9c1.1,2.1,2.2,4.3,3.1,6.5c1.1,2.8,2.6,4.7,5.7,5.8c3.7,1.3,4.6,5.3,5.8,8.7c0.9,2.5,1.6,5.1,2.8,7.5
		c3.5,6.8,3.7,7.7,0.5,15.1c2.1,1.3,2.1,3.3,1.6,5.7c-0.7,3.8-1.5,7.4-2.9,11.2c-1.8,5-1.4,10.9-2,16.4c2.9,3.2,2.5,7.6,3.7,11.4
		c1.3,3.9,1,7.6,0.2,11.5c-0.6,2.9-0.5,5.9-0.6,8.9c-0.2,2.4,0,4.8-0.5,7.1c-0.6,2.8-1.5,5.5-0.8,8.4c0.4,1.5,0,3-2.4,3.2
		c-0.8-2.3-1.9-4.4-3.8-6.1c-1-0.9-0.9-3.9-0.2-5.5c1.1-2.6,0.7-5,0.5-7.5c-0.1-0.8-0.4-2.1-1-2.3c-3.1-1.1-2.7-3.3-2-5.6
		c1.1-3.7,1.1-7.4,0.9-11.2c-0.2-3.6,1.2-7.3-1.4-10.8c-0.8-1.1-0.3-3.2-0.4-5c-1.5-0.9-3.5-1.7-3.2-4.2c0-0.3-0.1-0.7-0.3-0.8
		c-4.2-2-4.4-6.5-5.9-10c-3.7-0.8-6.4,3-10.1,1.2c-0.3-3-2-4.6-5-5.8c-1.9-0.8-3-3.4-4.2-5.4c-4.3-1.6-8.8-3.1-9.7-8.6
		c-1.9-0.6-3.6-1.1-5.4-1.6c-3.1,2.5-6.1,4.8-10.2,5.4c-4.4,0.6-7.1-1.6-9-5c-2.8,2.3-5.2,4.8-8.1,6.5c-5.7,3.3-9.6,2.3-13.8-2.8
		c-0.5-0.6-0.9-1.2-1.4-1.9c-3.8-0.2-7.6-0.3-11.5-0.6c-2.5-0.5-4.7,0.4-6.5,2.1c-3.1,2.8-6.6,3.5-10.4,2.7c-2.2-0.4-4-0.1-6,0.9
		c-3.1,1.5-6.4,2.7-9.5,4.1c-4,1.8-8.2,2-12.4,1.3c-4.4-0.7-7.9,0.2-10.4,4.1c-1.6,2.5-4.1,2.9-6.7,2.7
		C-309.3,600.4-310.5,599.8-311.7,599.5z M-167.1,588.6c-1.5,0.5-3.1,0.9-4.6,1.6c-1.6,0.7-1.5,2.2-0.7,3.4c0.8,1.3,1.9,2.5,3.7,1.7
		C-167.1,594.6-166.3,591.2-167.1,588.6z M-178,584.5c3.6-1.5,5.7-4.2,5.5-6.9C-178,580.8-178.6,581.7-178,584.5z M-344.2,586.7
		c-3.5,2.3-4.9,4.6-4.4,8.9C-346.7,592.6-344.6,590.7-344.2,586.7z M-156.2,585.5c-3.4,1.2-3.6,3.4-4.1,6.2
		C-157.1,590.7-156.4,588.8-156.2,585.5z M-220.6,552.8c0.2-4-0.5-4.7-4.4-4.8C-223.5,549.7-222.4,550.9-220.6,552.8z M-185.2,575.7
		c-0.3-0.3-0.6-0.6-0.9-0.8c-0.9,0.8-2,1.4-2.7,2.4c-0.3,0.4,0.4,1.4,0.6,2.2c0.6-0.2,1.5-0.2,1.8-0.7
		C-185.9,577.9-185.6,576.8-185.2,575.7z M-147.4,576.2c0.2,0.3,0.5,0.6,0.7,0.9c1.7-1.6,3.5-3.3,5.7-5.4
		C-145,571.6-145.4,574.9-147.4,576.2z M-264.3,566.1c2.3-0.1,3.8-0.5,3.8-2.7c0-0.4-1-1.1-1.5-1.1
		C-264.3,562.4-264.5,563.9-264.3,566.1z M-223.5,583.7c-1.2-0.3-2-0.8-2.8-0.7c-0.7,0.1-1.2,0.8-1.9,1.3c0.5,0.5,0.9,1.2,1.5,1.4
		C-225.4,586-224.2,585.9-223.5,583.7z M-181.2,542c-2-1.4-3.4-1.1-4.6,0.9C-183.4,543.8-183.4,543.8-181.2,542z M-178.3,563.9
		c1,1.2,1.7,2.1,2.4,2.9c0.4-0.5,1.2-1,1.2-1.5C-174.7,563.5-175.7,563-178.3,563.9z M-164.1,545c0.5-3.7,0.2-3.9-3.6-2.7
		C-166.6,543.2-165.6,543.9-164.1,545z M-276.6,586.4c0.3,0.3,0.6,0.6,0.9,0.8c1.7-0.9,3-2,2.7-4.6
		C-274.2,583.9-275.4,585.1-276.6,586.4z M-207.6,550.7c-2.9-1-3.6,0.3-3.1,2.8C-209.7,552.6-208.7,551.6-207.6,550.7z
		 M-218.2,546.9c-0.3-1.9-0.5-2.9-0.7-4.2C-221.3,544.8-221.3,544.8-218.2,546.9z M-314.1,562.2c0.6-1.7,1-2.7,1.5-4
		C-315.8,559.7-315.8,559.7-314.1,562.2z M-206,547.2c-1.9-2.4-1.9-2.4-3.8-0.8C-208.7,546.7-207.8,546.9-206,547.2z M-172.1,586.3
		c0.4,0.2,0.7,0.4,1.1,0.6c1.3-0.7,2.2-1.7,1.3-4.5C-170.8,584.2-171.5,585.3-172.1,586.3z M-162.3,596.8c-2.2-0.3-3,0.5-2.2,2.8
		C-163.5,598.4-162.9,597.6-162.3,596.8z M-340.6,621.8c0.2,0.1,0.5,0.1,0.7,0.2c0.3-0.4,0.7-0.8,0.8-1.3s-0.2-1.1-0.4-1.7
		c-0.3,0-0.5,0-0.8,0C-340.4,620-340.5,620.9-340.6,621.8z M-305.4,592c-1.7-1.3-2.6-0.9-3.1,0.4c-0.1,0.2,0.2,0.5,0.4,1.2
		C-307.2,593.1-306.4,592.6-305.4,592z M-348.7,647.4c-0.3-0.1-0.7-0.2-1-0.2c-0.3,1-0.6,2-0.9,3c0.4,0.1,0.8,0.2,1.3,0.3
		C-349.1,649.5-348.9,648.4-348.7,647.4z M-191.8,536c-0.1-0.3-0.1-0.7-0.2-1c-0.9,0.3-1.8,0.7-2.8,1c0.1,0.3,0.2,0.5,0.2,0.8
		C-193.6,536.5-192.7,536.3-191.8,536z M-192.8,571.4c0.3,0,0.7-0.1,1-0.1c-0.1-0.8-0.2-1.6-0.3-2.5c-0.2,0-0.5,0-0.7,0.1
		C-192.8,569.8-192.8,570.6-192.8,571.4z M-263.2,554.2c-0.3-0.3-0.7-0.6-1-0.8c-0.4,0.7-0.9,1.4-1.3,2.1c0.3,0.2,0.5,0.4,0.8,0.5
		C-264.3,555.4-263.8,554.8-263.2,554.2z M-194.2,541.3c0,0.4,0,0.7,0,1.1c0.8-0.2,1.5-0.3,2.3-0.5c0-0.3-0.1-0.5-0.1-0.8
		C-192.8,541.2-193.5,541.3-194.2,541.3z M-227.7,553.8c0.7,0.3,1.1,0.7,1.3,0.6c0.4-0.2,0.8-0.7,1.1-1.1c-0.3-0.2-0.7-0.7-0.9-0.6
		C-226.6,552.9-227,553.3-227.7,553.8z M-298.2,575.3c0.3,0.3,0.7,0.5,1,0.8c0.5-0.7,1-1.5,1.5-2.2c-0.2-0.2-0.4-0.3-0.6-0.5
		C-296.9,574-297.5,574.7-298.2,575.3z M-297,552.2c-0.5,0.4-0.8,0.7-1.1,0.9c0.4,0.3,0.7,0.8,1.1,1c0.2,0.1,0.6-0.4,0.9-0.6
		C-296.4,553-296.7,552.6-297,552.2z M-290.3,555.1c0.3-0.1,0.6-0.1,1-0.2c-0.2-0.6-0.3-1.3-0.5-1.9c0,0-0.8,0.1-0.8,0.2
		C-290.6,553.9-290.4,554.5-290.3,555.1z"/>
	<path d="M-121.1,748.8c-0.2-4.2-0.7-8.4-1.1-12.6c-0.5-6.2-1.4-12.3-3.5-18.2c-1.9-5-5-7-10.1-6c-0.3,0-0.6-0.1-1-0.1
		c-0.9-1.7-1.1-3.5-0.8-5.4c0.1-0.6,0.3-1.2,0.2-1.8c-0.8-5,0.7-10.2-0.7-15.2c-0.1-0.3-0.1-0.6-0.1-0.9c0.1-6.7,0.2-13.4,0.2-20.1
		c0-1.6,0.3-3.4-0.3-4.9c-1.1-2.9-1-5.8-1.2-8.8c-0.1-2.7-0.6-5.3-1.9-7.7c-0.6-1.2-1.2-2.7-1.2-4.1c0-6.1-1.8-11.9-2-18
		c0-0.6-0.5-1.1-0.7-1.7c-0.6-2.2-2.7-4.3-0.6-6.8c0.2-0.3,0.2-1,0.1-1.5c-0.3-2.5-0.5-5.1-1-7.6c-0.2-1-0.9-1.9-1.5-2.7
		c-0.9-1.3-2.1-1.7-3.5-0.7c-1.3,1-2.6,0.9-4.1,0.7c-1.2-0.2-2.5,0.1-3.5,0.1c-0.5,1.6-0.8,2.7-1,3.4c0.9,1.8,1.7,3.4,2.5,5.1
		c0.5,0.1,1.3,0.2,2.2,0.3c1,3.1,2.1,6.2,3,9.2c0.1,0.5,0.1,1.2,0,1.8c-0.6,3,0.3,5.5,1.8,8c0.4,0.7,0.9,1.5,0.9,2.2
		c-0.1,3.7,0.9,7.2,1.6,10.7c0.9,4.5,0.9,9,0.7,13.6c-0.1,1.9-0.8,4.2,2,5.1c0.2,0.1,0.4,0.5,0.4,0.8c0.2,2.1,0.7,4.3,0.5,6.4
		c-1.1,9,0,18.1-0.4,27.1c0,0.2,0.2,0.3,0.3,0.5c0.7,0.2,1.4,0.5,2.2,0.8c-0.4,2.7-0.9,5.2-1.1,7.8c-0.3,3.4-0.7,6.8-0.5,10.2
		c0.3,6,1.3,12,1.5,18.1c0.2,7.4,0,14.8,1.2,22.2c1.1,6.3,1.4,12.8,2.1,19.2c0.4,3.5,0.9,7.1,1.4,10.7c0.4,3.2-0.3,6.2-2,8.9
		c-2.1,3.3-4,6.5-6,9.8c-2.2,3.7-4.1,7.6-5,11.9c0,0.2,0,0.5,0,0.8c-0.9,1.9-1.6,3.9-2.1,5.9c-0.3,1.2,1.6,1.8,1.9,0.5
		c0.5-2.1,1.3-4,2.1-5.9c0.6-0.8,1-1.7,1.3-2.6c0.7-1.3,1.6-2.6,2.5-3.8c0,1.5,0.2,2.7,0,3.9c-1.1,9-1.2,18.1-1,27.2
		c0.1,5.4,0.1,10.8-0.3,16.1c-0.7,9.2-1.7,18.3-2.6,27.4c-0.1,0.9-0.2,1.9,0.1,2.7c1.9,4.8,0.6,9-2.4,12.6c-2.8,3.3-6,6.2-9.1,9.2
		c-2.8,2.8-5.9,5.2-8.4,8.2c-4.7,5.4-26.5,22-39.4,31.8l2.3-3.2c0.8-1-1-2-1.7-1c-2.1,2.9-4.2,5.7-6.4,8.6c-2.2,1.7-3.5,2.8-3.7,3.1
		c-2.4,3.8-6,5.9-10.2,7c-7.9,1.9-15.9,2.4-24,1.8c-5.8-0.5-11-2.4-14.9-7.1c-1.4-1.6-56-31.8-58-32.9c-2.9-1.6-5.7-3.3-8.7-4.7
		c-5.5-2.5-7.9-7.1-8.6-12.7c-0.9-7-1.1-14.1-2.7-21.1c-0.4-1.9-0.8-3.9-1-5.8c-1.2-10.1-2.6-20.3-3.6-30.4
		c-0.9-8.1-1.3-16.3-1.9-24.4c-0.5-6.1-0.9-12.1-1.3-18.2v-1.1c2.8,2.7,5.1,5.9,6.7,9.6c0.5,1.2,2.2,0.2,1.7-1
		c-0.6-1.3-1.2-2.6-2-3.8c0.4,0.3,1,0.5,1.7,0.5c-0.4-1-0.5-1.6-0.8-2c-1.5-1.8-2.9-3.5-4.4-5.2c-1.8-2.1-3.7-4.2-5.5-6.3
		c-2.4-2.9-3-6.2-3.2-9.8c-0.3-6.7,1.2-13.3,1.1-20c-0.1-7.9,1.2-15.8,2.3-23.7c1.2-8.9,1.4-17.8,0.3-26.8c-0.2-1.1,0-2.2,0.3-3.3
		c1.2-5.2,1.9-10.5,1.2-15.9c-0.4-2.6-0.7-5.3,0.6-7.9c0.3-0.6,0.3-1.4,0.3-2.1c0-4.9-0.1-9.7-1.1-14.5c-0.3-1.1,0-2.4,0.2-3.6
		c0.7-4.6,2.3-9.1,1.6-14c-0.4-2.2-0.1-4.5-0.1-6.7c0-0.9,0-1.8-0.2-2.7c-0.6-3.3,0.2-6.4,1.5-9.3c1.7-3.8,3.8-7.5,5.8-11.2
		c0.6-1.1,1.4-2,2.1-3c0.9-1.2,2-2.2,2.8-3.5c1.2-2.2,2.1-4.5,3.4-6.6c2.4-3.7,4.8-7.5,10.1-7.4c1,0,2.1-0.5,3.1-0.7
		c-1.9-0.6-2.8-2-3.2-3.8c-1,0.1-1.8,0.3-2.6,0.3c-0.9,0.1-1.7,0.2-2.5,0c-1.3-0.3-2.7-0.5-3.8-1.1c-2.8-1.6-5.3-1.6-7.9,0.5
		c-1,0.8-1.9,1-3.3,0.8c-3.2-0.4-6.3,0.7-7,4c-0.4,1.8-0.9,3.6-1.3,5.4c-0.1,0.3,0,0.9-0.3,1.1c-2.5,1.6-2.1,4-1.6,6.3
		c-2.6,2.1-3.1,4.9-2.7,7.9c0.3,1.8,0.5,3.5,0.7,5.2c0.1,0.9,0.2,1.8,1.3,2.2c0.4,0.1,0.5,0.8,0.9,1.6c-2-0.1-3.9-1-4.6,1.2
		c-0.2,0.7-0.3,1.6,0,2.1c0.6,0.9,1.6,1.7,2.6,2.6c-0.2,1.7,0.3,3.8-1.4,5c-1.4,0.9-1.7,2.1-1.9,3.6c-0.3,1.9,1,2.6,2.6,3.3
		c-0.6,1.8-1.1,3.5-1.7,5.1c-0.6,1.6-0.7,3.1-0.3,4.8c0.6,2.6,0.8,5.3,1,7.9c0.1,0.8-0.4,1.5-0.7,2.3c-0.2,0.6-0.3,1.1-0.6,1.9
		c2.2,0.3,2.5,1.5,2.1,3.3c-0.3,1.4-0.3,2.8-0.5,4.3c-3.6,2-3.9,6.1-0.2,8.8c-0.7,3.6-1.3,7-1.2,10.7c-0.2,1.1-0.1,2.3,0,3.4
		c0.4,2.5,0.8,5.1,1.2,7.6c0.1,0.7,0.2,1.4,0.1,2.1c-0.3,1.7-0.8,3.5-1.2,5.5c-0.4,0.1-0.9,0.4-1.5,0.5c-5.1,1-9.7,7.2-9.2,12.5
		c0.2,1.9,0.1,3.7,0.1,5.6c0.1,8.1-0.3,16.2,1.9,24c1.4,5.1,1.2,10.1,0.8,15.3c-0.1,1-0.2,2.1,0,3.1c0.6,3.3,0.4,6.6-0.6,9.8
		c-0.8,2.6-0.8,5.3,0.5,7.8c1.4,2.6,2.9,5.2,4.8,7.5c2.2,2.6,4.2,5.2,4.1,8.9c0,1.7,0.6,3.4,1,5.1c0.5,2.2,1.6,3.8,4.2,3.5
		c0.2,0,0.3,0.2,0.8,0.6c0.5,3.6,1.2,7.4,1.5,11.3c0.7,10.8,2.2,21.5,3.9,32.2c0.2,1.5,0.3,3.1,0.5,4.6c0.4,3.3,0.4,6.8,1.1,10.1
		c1.5,7.1,1.9,14.3,2.6,21.5c0.4,4.7,1.9,8.7,4.5,12.3c0.9,1.2,2.1,2.3,3.3,3.2c7.9,5.6,15.5,9,23.3,14.7
		c3.8,2.7,33.5,14.1,37.5,18.1c4.6,4.5,16.2,11.8,22.6,12.7c8.7,1.2,17.4,0.8,26.1-0.9c6.9-1.3,11.2-5.9,15.1-11
		c3.3-4.4,37.9-27.9,42.8-32.9c3-3.1,15.2-16.1,18.5-18.9c4.1-3.5,5.5-8,5.5-13.2c0-1.9,0.2-3.8-0.2-5.6c-0.9-4.5-0.1-9.1,0.4-13.5
		c1.2-10.8,2.1-21.6,2.4-32.4c0-0.8,0.1-1.5,0.2-2.2c0.3-3.7,0.8-7.5-0.4-11.4c0.8-0.1,1.3-0.3,1.9-0.4c4.2-0.5,5.7-1.8,6.8-5.9
		c0.6-2,0.9-4.1,1.6-6c1.4-3.7,2.1-7.6,1.9-11.5c-0.4-5.9,0.1-11.7,2.3-17.3c0.2-0.5,0.2-1,0.3-1.5c1.2-5.4,2.2-10.9,4.3-16.1
		C-121.5,763-120.8,756-121.1,748.8z M-150.2,607.9c-0.3-0.6-0.5-1.1-0.8-1.7c0.1-0.1,0.3-0.2,0.4-0.3c0.2,0.2,0.5,0.4,0.8,0.8
		C-149.7,607-149.8,607.4-150.2,607.9z M-357,628.9c-1-1.6-0.2-2.7,0.9-3.9C-354.6,627.7-354.7,627.9-357,628.9z M-356.8,826.9
		c-0.5-1-1-1.7-1.1-2.6c-0.4-1.7-0.8-3.5-0.9-5.2c-0.2-3.3-1.5-5.9-3.8-8.2c-2.4-2.4-4.1-5.2-5.3-8.3c-0.8-1.8-1-3.5-0.5-5.4
		c1-3.8,1.4-7.6,0.8-11.6c-0.2-1.6-0.1-3.3,0.1-4.9c0.7-5.1,0.2-10.1-1.1-15c-1.9-6.9-1.3-13.9-1.5-20.9c-0.1-2.7,0.1-5.5,0.1-8.3
		c0-3.9,2.6-6.4,5.4-8.5c2-1.4,4.5,0,4.6,2.5c0.1,4.5,0,8.9,0,13.5c0.8,0.3,1.4,0.4,2,0.6c1.5,5.9,0.2,11.7-0.6,17.6
		c-0.6,4.7-1.3,9.4-1.6,14.1c-0.4,5.3-0.4,10.7-0.6,16c-0.1,3.6,0.5,7,2,10.2c1,2.1,1.6,4.2,1.8,6.5c0.3,3.7,0.7,7.3,1.1,11
		c0.2,1.2,0.4,2.4,0.6,3.6C-355.1,825-355,825-356.8,826.9z M-127.4,768.9c-2.3,5.8-3.3,11.9-4.8,17.9c-0.4,1.5-0.9,3-1.2,4.5
		c-0.5,2.7-1.2,5.5-1.1,8.2c0.2,6.1-0.1,12-2.2,17.7c-0.6,1.6-0.8,3.4-1.3,5.1c-0.9,3.3-2,3.9-5.9,2.9c0.3-3.6,0.5-7,0.9-10.5
		c0.3-2.9,0.4-5.8,1-8.6c0.4-1.9,1.4-3.7,2.6-5.2c3.7-4.7,4.2-9.8,3.4-15.5c-1.4-10-2.6-20.1-3.8-30.1c-0.1-0.7-0.2-1.5,0.1-2.1
		c2.3-4.4,2.2-9.1,1.9-13.9c0-1.1,0.1-2.3,0.1-3.4c0.1-3.1,0.2-6.2,0.2-9.3V717c0-2.2,1.6-2.9,3.2-3.7c1.6-0.8,2.4,0.3,3.4,1.3
		c2.3,2.3,2.8,5.3,3.4,8.2c1.1,5.5,1.8,11,2.5,16.5c0.4,3.3,0.5,6.6,0.7,9.9C-123.9,756-125,762.6-127.4,768.9z"/>
	<path d="M-270.2,779.7c-0.9-4.3-1.3-8.6-1.3-13c0-1-1.3-1.3-1.9-0.5c-0.3,0.5-0.6,0.9-0.9,1.3c0,0,0-0.1,0-0.1
		c-0.2-0.6-1-1-1.5-1.5c-0.4,0.5-0.6,0.6-0.7,0.8c-0.2,0.2-0.3,0.5-0.4,0.8c-0.7,1.9-1.5,3.7-2.5,5.2c-1.1,0.9-2.3,1.7-3.6,2.4
		c-0.9,0.5-0.4,1.7,0.4,1.8c-2.9,3-6.6,5.1-11.1,6.4c-6.3,1.9-12.5,2-18.7-0.7c-1.4-0.6-2.8-1.2-4.3-1.7c-4.3-1.4-7.5-4.2-10-7.9
		c-0.4-0.7-1.1-1.2-1.7-1.8c-0.1,0.1-0.3,0.3-0.5,0.4c0.2,0.7,0.2,1.4,0.6,1.9c1.8,2.1,3.5,4.3,5.5,6.2c3.7,3.4,8.7,4.3,13.1,6.1
		c2,0.8,4.2,1.3,6.3,1.5c5.2,0.6,10.2-0.5,14.8-2.6c4.7-2.2,9-5.1,11.4-10c0.4-0.9,1.1-1.8,1.8-2.9c0.3-0.3,0.6-0.6,0.9-0.9
		c0,0.7,0,1.1-0.3,1.5c-2.3,7.1-5.5,13.6-10.4,19.2c-1.8,2.1-4.2,3.8-6.6,5.4c-2.9,2-5.9,1.4-8.6-0.6c-1.8-1.3-3.4-3-5.1-4.5
		c-0.8-0.7-1.5-1.6-3.3-0.7c2.8,2.4,5.2,5,8,6.7c3.8,2.3,7.9,2.6,11.9-0.2c5.2-3.6,9.1-8.4,12-13.9c1.5-2.9,2.7-5.9,3.9-8.9
		c0.2,1.8,0.5,3.6,0.9,5.3C-271.9,781.5-269.9,780.9-270.2,779.7z"/>
	<path d="M-228.5,853.3c-2,0.9-4.1,3.2-6.3,5.3c-3.7,3.7-8.2,5.6-13.4,4.6c-2.8-0.5-5.5-1.7-8.1-2.9c-3.3-1.6-6.6-3.4-9.8-5.2
		c-1.5-0.8-2.7-1-4.3,0s-3.6,0.8-4.5-0.3c-0.3-0.4-0.6-1.2-0.4-1.6c0.8-1.6,2.3-2.3,4-2.3c0.9,0,1.8,0.3,2.6,0.7
		c5.3,2.6,10.4,5.3,15.7,7.8c6.1,2.9,11.4,1.7,16.4-3c2.9-2.7,6.2-5.1,9.5-7.4c2.9-2,6.5-1.4,8.9,1.4c0.4,0.5,0.7,1.4,0.5,1.9
		c-0.5,1.3-1.5,2.4-3,2.2C-223.1,854.3-225.4,853.8-228.5,853.3z"/>
	<path d="M-270.6,857.4c-0.7,0-1.3,0.6-2,0.8c-1.5,0.4-3,1-4.5,1.1c-5.7,0.2-7.3-2.3-4.9-7.5c0.1-0.2,0.3-0.5,0.4-0.8
		c0.4-1.3,0.9-2.7,1.3-4.1c-0.1-0.1-0.3-0.2-0.4-0.3c1-0.7,2.1-1.5,3.5-2.4c-1.9-1.1-2.7-1.2-4-0.3c-1,0.7-2,1.6-2.6,2.6
		c-1.8,2.8-3.5,5.6-5.2,8.4c0,0.3,0,0.7,0,1.1c-0.1,0.6-0.1,1.3,0,1.9c0.6,0.7,1,1.5,1.2,2.5c0,0,0.1-0.1,0.1-0.1
		c0.3,0.2,0.7,0.3,0.8,0.5c1.6,2.5,3.7,2.4,6.2,1.5c1-0.3,2-0.3,3-0.5c2.7-0.6,5.4-1.2,8-2c0.5-0.1,0.8-1,1.2-1.6
		C-269.2,857.9-269.9,857.4-270.6,857.4z"/>
	<path d="M-183.8,761c-0.2,0.6-0.5,1.3-0.6,1.9c-0.2,2.7-1.9,4.2-4.1,5.3c-3.2,1.6-6.5,1.7-9.8,0.3c-2.8-1.2-3.8-3.2-3.4-6.1
		c0.6-4.2,3.1-6.8,6.9-8.4c0.9-0.4,2.2-0.3,3.3,0c3,0.8,5.5,2.2,6.7,5.3C-184.7,760-184.1,760.5-183.8,761z M-192.1,757.2
		c-1.2,1.7-2.2,2.5-2.5,3.6c-0.3,0.9,0,2.4,0.6,3c0.4,0.5,1.9,0.4,2.8,0.1c1.3-0.4,1.5-1.7,1.1-2.8
		C-190.6,760-191.2,759-192.1,757.2z"/>
	<path d="M-303.4,772.8c-0.6-0.1-1.7-0.1-2.8-0.4c-4-1-6-4.7-4.9-8.6c0.8-2.6,1.8-5.1,4.3-6.5c2.6-1.5,5.2-1.7,7.9-0.2
		c1.8,1.1,4.7,7.8,4.2,9.8C-295.5,770-299.3,772.8-303.4,772.8z M-300.3,764c-0.7-0.4-1.4-1.1-2.2-1.4c-1.5-0.7-2.9,0.2-3.1,1.9
		c-0.1,1.6,0,3.3,1.4,4.1c1.3,0.8,2.8,0.3,4-0.6c0.2-0.1,0.3-0.3,0.4-0.5C-299.9,766.4-300.1,765.2-300.3,764z"/>
	<path d="M-328.1,760.7c0.6-1,1.1-2.1,1.9-2.9c5.9-6,12.7-10.9,20.9-13.2c4.8-1.4,9.7-1.7,14.6,0.1c1.4,0.5,3,0.8,4.4,1.5
		c2.8,1.3,5.3,3.2,7.1,5.7c1.8,2.5,3.9,4.8,5.8,7.2c0.3,0.3,0.6,0.7,0.6,1.1c0,0.6-0.3,1.3-0.4,1.9c-0.6-0.2-1.4-0.3-1.7-0.8
		c-1.9-2.5-3.7-5.2-5.6-7.7c-4.8-6.4-11.6-8.1-19-7.5c-7.8,0.6-14.5,4.4-20.5,9.2c-2,1.6-3.9,3.4-5.8,5c-0.4,0.4-1,0.6-1.5,0.9
		C-327.6,761.1-327.9,760.9-328.1,760.7z"/>
	<path d="M-206.5,845.2c-0.7-0.8-1.3-1.6-2-2.4c-1.7-2.1-3.9-3.3-6.3-4.3c-1.5-0.7-2-0.3-3.2,1.9c2.8,0,4.5,1.8,6.3,3.4
		c2.3,2.1,2.8,4.3,1.4,7.2c-2,4.2-5.5,6.2-10.1,6.5c-1,0-2.3-0.4-3.1,1.4c4.6,0.9,8.5,0.3,11.8-1.8c0.4-1.7,1.6-3.1,3.6-3.5
		C-207.6,850.8-206.9,848-206.5,845.2z"/>
	<path d="M-233.6,862.2c0.5,2,1.1,4,1.5,6.1c0.6,3.4,1.3,6.9,1.5,10.4c0.2,3.3-2.2,6.2-5.5,7.3c-1.3,0.4-2.5,1.1-3.8,1.4
		c-2.4,0.6-4.8,0.5-6.8-1.2c0-0.2,0.1-0.5,0.1-0.7c0.8,0.1,1.6,0.2,2.5,0.4c4.4,0.9,6.7-0.5,8.4-4.8c1.2-3,0.8-5.9,0.3-8.8
		c-0.4-2.3-1-4.6-1.8-6.9c-1-3-0.7-3.5,2.3-3.5C-234.6,861.9-234.3,862.1-233.6,862.2z"/>
	<path d="M-164.8,765.8c-0.3-1.3-2.2-0.7-1.9,0.5c0.1,0.3,0.1,0.6,0.2,0.9c-0.3-0.2-0.6-0.4-1-0.6c-1.2,1.9-2.3,3.9-3.7,5.6
		c-1.4,1.6-2.8,3.5-4.6,4.4c-3,1.4-6.2,2.3-9.4,3c-3,0.6-6.1,0.8-9.2,0.8c-8.9-0.2-16.7-2.5-20.9-11.4c-0.5-0.9-1-1.7-2.2-2.1
		c0-1.1,0.1-2.3,0.1-3.4c0-0.8-0.7-1.1-1.3-0.9c0.6-0.9,0.9-1.4,1.2-1.9c2.6-4,5-8.1,7.9-11.8c6.6-8.4,19.1-11.9,29.8-4.3
		c2.2,1.5,4.1,3.1,5.3,5.5c1.7,3.4,3.5,6.9,5.3,10.4c0.3,0.7,0.7,1.5,1.2,2.1c0.1,0.3,0.9,0.4,1,0.3c0.4-0.3,0.5-0.9,0.6-1.3
		c0.1-0.2-0.2-0.5-0.3-0.8c-2.3-4.2-4.3-8.7-6.9-12.7c-3.7-5.7-9.3-9.1-16-9.9c-8.5-1.1-16,1.6-21.4,8.4c-3,3.8-5.5,8-8.1,12
		c-0.4,0.7-0.8,1.5-0.8,2.3c0,0.5,0.5,1,1,1.8c-0.3,0.1-0.5,0.4-0.5,0.8c0,2.8-0.3,5.9-0.2,8.8c-0.3-0.2-0.7-0.3-1.3,0
		c-1.1,10,4.5,18.8,11.4,23.1c5.7,3.6,12.1,4.6,18.6,4.8c3,0.1,6.1-0.2,8.7-2.2c-5.6,1.5-11.2,0.7-16.8-0.3
		c-9.7-1.7-18-9.8-19.2-19.3c-0.1-0.7-0.2-1.4-0.3-2.2c0.8,0.8,2,1,2.7,2.3c0.6,1.1,2.3,0.1,1.7-1c-0.3-0.5-0.6-0.9-1-1.3
		c-1.3-1.1-2-0.9-2.2-3.1c-0.1-1.1-0.2-2.2-0.2-3.3c0.8,2.4,2,4.5,4.1,6.1c4.4,3.2,9,5.8,14.5,6.6c7.3,1.1,14.4,0,21.4-2.1
		c3.4-1,6.5-2.9,8.6-6.1c0.9-1.4,1.8-2.7,2.7-4.1c-0.2,4.8-2.4,9.2-6.4,12.2c-1,0.8,0,2.5,1,1.7C-166,779.9-163.3,772.9-164.8,765.8
		z"/>
	<path d="M-343.7,746.1c0.9-3.7,12.9-18.6,16.2-20c-1.6,2.3-3.1,4.6-4.8,6.9c-1.7,2.3-3.3,4.7-5.2,6.9
		C-339.3,741.9-340.2,744.9-343.7,746.1z"/>
	<path d="M-224.7,877.5c-0.9-1.9-1.9-3.8-2.7-5.7c-1.1-2.6-2.1-5.2-3.1-7.7c-0.5-1.2-1-2.5,0.3-4.1c2.8,5.8,4.4,11.6,6.8,17.1
		C-223.8,877.1-224.2,877.3-224.7,877.5z"/>
	<path d="M-258.9,864.9c-0.1-1.3-2.1-1.3-2,0c0.7,6.6-4.4,12.1-4.7,18.7c-0.1,1.3,1.9,1.3,2,0c0.1-2.6,1-5.1,2-7.5
		c0,1.3,0,2.5,0.1,3.3c1.8-1.7,2-2,2.3-10C-258.9,867.9-258.8,866.5-258.9,864.9z"/>
	<path d="M-324.9,595.1c2.6,0,5.3,0,7.9,0l0,0C-319.6,595.2-322.2,595.2-324.9,595.1C-324.9,595.2-324.9,595.1-324.9,595.1z"/>
	<path d="M-237,816.2c-0.1,0.7-0.1,1.5-0.2,2.6C-238.7,817.7-238.6,816.9-237,816.2z"/>
	<path d="M-151.3,705.1c0.3-0.5,0.5-1,0.8-1.5l0.7,0.3c-0.2,0.6-0.4,1.1-0.6,1.7C-150.7,705.4-151,705.2-151.3,705.1z"/>
	<path d="M-113.7,728.5c-0.6,0.3-0.9,0.7-1.2,0.7c-0.2,0-0.5-0.5-0.7-0.8c0.4-0.3,0.7-0.6,1.1-0.7
		C-114.5,727.6-114.1,728.1-113.7,728.5z"/>
	<path d="M-305.2,658.2c-0.5-0.6-1.1-1.2-1.6-1.7c0.2-0.2,0.3-0.4,0.5-0.5c0.6,0.5,1.2,1,1.8,1.5
		C-304.7,657.7-304.9,657.9-305.2,658.2z"/>
	<path d="M-288.6,595c0.6,0,1.2,0,1.8,0c0,0.1,0,0.1,0,0.2c-0.6,0-1.2,0-1.8,0C-288.6,595.1-288.6,595.1-288.6,595z"/>
	<path d="M-246.2,778.2c0.2,0.5,0.4,1,0.7,1.5c-0.2,0.1-0.4,0.2-0.6,0.3c-0.2-0.5-0.4-1-0.6-1.5
		C-246.6,778.3-246.4,778.2-246.2,778.2z"/>
	<path d="M-44.7,923.3c-0.1-0.2-0.3-0.5-0.4-0.7c0.2-0.1,0.4-0.3,0.5-0.3c0.2,0.1,0.3,0.4,0.5,0.6C-44.3,923-44.4,923.1-44.7,923.3z
		"/>
	<path d="M-249.5,780.5c-0.4-0.3-0.7-0.5-1-0.8c0,0,0.1-0.3,0.2-0.4c0.4,0.2,0.8,0.4,1.2,0.6C-249.3,780.2-249.4,780.4-249.5,780.5z
		"/>
	<path d="M-296.5,697.5c-0.3,0.4-0.5,0.6-0.6,0.8c-0.3-0.2-0.5-0.5-0.8-0.7c0,0,0.2-0.4,0.3-0.4C-297.4,697.2-297,697.3-296.5,697.5
		z"/>
	<g>
		<path d="M-306.8,915.5c-1.4-3.2-2-6.2-0.9-9.4c0.3-1,0.8-1.9,2.4-1.4c-0.2,1.3-0.4,2.6-0.6,4.3c1-0.2,1.8-0.3,2.5-0.6
			c4.9-2.1,9.8-4.2,14.7-6.4c1.2-0.5,2.3-1.1,3.5-1.6c2.7-1.1,5.3-2.4,7.6-4.4c1.9-1.7,4.5-2.5,6.5-4c2.7-2.1,5.5-2,8.6-1.5
			c1.6,0.2,3.2-0.3,4.9-0.5c1-0.1,2-0.3,2.9-0.1c2.8,0.7,5.5,1.5,8.2,2.5c1.5,0.5,2.8,0.4,4.3-0.2c3.4-1.3,6.9-2.5,10.4-3.9
			c2.4-0.9,4.4-0.6,6.6,0.8c4.4,2.8,8.9,5.6,13.4,8.3c4.6,2.8,9.7,4.1,14.9,4.7c3.7,0.4,7.5,0.2,11.3,0.2c0.7,0,1.4-0.3,1.6-0.4
			c0.6-1.1,0.8-2.1,1.4-2.5c0.8-0.5,2,0.5,2.4,1.8c0.7,2.5-0.1,4.8-1.1,6.9c-0.4,0.8-1.4,0.8-2.3,0.1c0.2-1.2,0.4-2.4,0.7-4.1
			c-1.2,0-2.3-0.3-3.1,0.1c-2.7,1.2-5.6,0.5-8.3,1.4c-4.7,1.5-9.3,0.9-13.9-0.3c-5.9-1.5-11.7-3.1-17.6-4.6
			c-6.3-1.6-12.4-1.7-18.8,0c-7.8,2.1-15.9,2.2-23.8,0.2c-2.5-0.6-4.8-0.6-7.3,0.1c-4.8,1.3-9.4,3.1-13.9,5.3
			c-4.2,2-8.7,3.7-13.1,5.3c-1.7,0.6-3.1,1.2-3,3.3C-305.9,914.8-306.3,915-306.8,915.5z M-272.5,897.9c2.6,0.6,4.5,1.2,6.5,1.5
			c7.2,1,14.3,0.3,21.4-1.3c2.9-0.7,5.9-1.5,8.7-1.2c5.2,0.5,10.3,1.7,15.5,2.9c5.5,1.2,10.9,2.7,16.4,4c0.3,0.1,0.8-0.1,1.1-0.1
			c-0.4-0.5-0.8-0.6-1.3-0.7c-4.2-1-7.9-3-11.5-5.3c-3.6-2.2-7.2-4.4-10.8-6.6c-1.2-0.7-2.4-0.8-3.6-0.1c-1.6,0.9-3.3,1.7-4.9,2.5
			c-4.5,2.4-9.2,3.1-14.2,1.8c-1.7-0.5-3.4-0.8-5.1-1.2C-258.7,893.1-268.1,894.9-272.5,897.9z"/>
		<path d="M-242.5,913.5c2.3,1,4.4,1,6.5,0.8c1.2-0.1,1.2-0.1,2.4,1.2c-1.8,0.6-3.5,0.9-5.1,0.7c-6.7-0.7-13.2,0.3-19.7,2
			c-1.1,0.3-2.3,0.9-3.5-0.7c2-0.8,3.9-1.6,5.7-2.4c-3.3-1.3-6.7-1.3-10-1.5c-3.4-0.3-6.6-1.1-9.5-2.7c0-0.2,0.1-0.5,0.1-0.7
			c0.7,0,1.4-0.1,2,0.1c4.4,1.5,9.1,1.4,13.7,1.9c1.5,0.2,2.9,0.2,4.4,0.4c5.9,0.6,11.3-0.7,16.7-2.9c2-0.8,4.1-1.5,6.3-2.2
			c0.7-0.2,1.5,0.1,2.2,0.2c0,0.2,0,0.4,0.1,0.6c-2,0.9-3.9,1.8-5.9,2.7C-238.1,911.7-240.1,912.5-242.5,913.5z"/>
	</g>
	<path d="M-154.8,739c-0.1-0.9-0.2-1.9-0.3-3c-2.6-1.4-5.5-2.9-8.8-4.5c1.9-0.5,3.2-0.6,4.2-1.1c0.6-0.3,0.9-1.3,1-2
		c0-0.2-1.1-0.9-1.6-0.8c-1.7,0.3-2.7-0.8-3.8-1.7c-0.6-0.6-1.2-1.5-2-1.9c-3.1-1.3-5.2-3.7-7-6.4c-0.8-1.1-1.8-2.1-2.8-2.9
		c-0.6-0.6-1.5-0.7-2.2,0.2c2.2,2.3,4.4,4.5,5.3,7.7c-2.3-0.7-4-1.2-5.3-1.7c-2.5,1-1.4,3.1-2.3,4.7c-1.2-1.4-1.6-2.6-1.2-3.9
		c0.2-1.1,0.1-1.7-0.8-2.1c-1-0.6-1.8-0.2-2.4,0.6c-0.4,0.7-0.7,1.3-1.1,2.1c-0.8-1-1.4-1.9-2.1-2.6c-1.1-1-2.3-1.6-3.2-2.7
		c-1.9-2.3-3.7-4.7-6.6-5.8c-1.4-0.5-2.8-0.9-4-1.6c-2.5-1.4-4.9-2.2-7.2,0.1c-3.4-6-5.5-7.1-9.7-4.9c0.6-0.2,1.4-0.3,2.2-0.4
		c0.1,0.1,0.3,0.3,0.4,0.5c-0.5,0.8-1,1.7-1.6,2.5c-0.2,0-0.4,0-0.6-0.1c-0.1-0.9-0.2-1.7-0.4-2.5c-2.1,0.2-1.7,2.1-1.7,3.4
		c-1.6,0.4-2.7,0.8-3.9,1.1c-0.4-0.4-0.9-0.9-1.7-1.8c-0.4,2.3-0.7,4-1,6.1c-2.9-2-4,0.9-6.3,1.6c1,0.5,1.7,0.8,2.5,1.1
		c-0.3,1-0.5,1.7-0.6,2.2c0.6,0.6,1.2,1.1,1.8,1.6c-0.5,0.4-0.9,0.8-1.5,1.3c2.1,0.2,3.6,0.9,4.5,2.1l-1.8,0c-0.9,0-1.2,1-0.8,1.6
		l-0.9,0.9c-0.4,0-0.8,0-1.2,0c-1,0-1.2,1.2-0.6,1.7c-0.4,0.4-0.8,0.8-1.2,1.2c-0.2,0.1-0.4,0.3-0.6,0.4c-0.3,0.2-0.4,0.4-0.5,0.7
		c-0.1,0.1-0.2,0.2-0.4,0.4c-0.8,0.8,0.1,1.8,1,1.7c1-0.2,2.1-0.4,3.1-0.6c-0.2,0.5-0.3,1-0.3,1.6c-0.1,1.3,1.9,1.3,2,0
		c0.1-1,0.5-1.7,1.2-2.3c-0.3,0.5-0.6,1.1-0.9,1.6c0.7,0.6,1.3,0.7,1.8,0.5c0,0.2,0,0.4,0.1,0.7c1.4,9.6,1.3,19.3,0.8,29
		c0,0.9-0.3,1.8-0.5,2.7c-0.2,1.2-0.7,2.3-0.6,3.5c0.2,5.7,0.8,11.3,1,17c0.2,7.7,0.2,15.3,0.2,22.9c0,2.2-0.2,4.3-0.3,6.8
		c-1.7-0.9-2.6-2.7-4.7-1.5c3.5,4.4,5.4,9.4,6.6,14.4c0.3,0.9,0.5,1.8,0.8,2.9c2.2-1.7,2.2-1.7-2.1-14c0.5-2,1.2-3.6,1.2-5.1
		c0.1-9.2,0.4-18.3,0.2-27.5c-0.1-6.4-0.6-12.9,0-19.4c0.6-6.6,0.6-13.3,0.7-20c0.1-4.6-0.3-9.1-1.8-13.4c0.2-0.2,0.5-0.4,0.7-0.5
		c4.2,0.8,4.9,0.7,8.4-1.7c0.9-0.7,2-1.1,3.1-1.2c1.4-0.2,2.9,0.1,4.3,0.2c2.3,0.2,4.7,0.1,6.6,1.1c4.6,2.6,9.6,3.9,14.6,4.8
		c4,0.7,7.6,2.2,11.1,4.4c0.5,0.3,1,0.6,1.6,0.9c1.2,0.7,2.4,0.9,3.7-0.1c0.5-0.4,1.7-0.5,2.5-0.2c3.9,1.7,8,1.6,12.1,1.6
		C-154.9,741.2-154.5,740.6-154.8,739z M-224.9,716.8c0.5-0.2,1.2-0.3,1.8-0.5c0.1,0.4,0,0.8,0.1,1.2c-0.7-0.1-1.3-0.1-1.9-0.2
		V716.8z M-205.7,710.2c-0.5,0.1-1.1,0-1.6,0c0.1-0.3,0.1-0.5,0.1-0.8c0.6,0.1,1.1,0.1,1.7,0.1
		C-205.6,709.7-205.6,710.2-205.7,710.2z M-199,714.9c0.3-0.8,0.5-1.6,0.8-2.5C-197.2,713.8-197.2,713.8-199,714.9z M-169.1,728.8
		c-0.4-0.1-0.9-0.2-1.3-0.3c0.1-0.1,0-0.3,0.1-0.4c0.4,0,0.9,0.1,1.3,0C-169.1,728.4-169,728.6-169.1,728.8z"/>
	<path d="M-254.2,732.3c-2.7-0.2-5.4-0.3-8.1,0c-0.1,0-0.2,0-0.3,0c0-0.1,0-0.1,0-0.2c0-0.5-0.3-0.8-0.7-1c-0.3-0.1-0.6-0.2-0.8-0.3
		c0-1.3,0.5-2.4,1.2-3.6c0.5-0.8,0.8-1.9,1.2-2.7c-0.6-0.4-1.2-0.6-1.6-0.9c0.7-0.2,1.5-0.3,2.2-0.4l-0.3,3.7c-0.1,1.3,1.9,1.3,2,0
		c0.1-1.6,0.2-3.3,0.4-4.9c0-0.5-0.5-1.1-1-1c-1.6,0.2-3.2,0.5-4.7,0.9c-0.7-0.7-1.7-1.1-2.6-1.7c-0.1-0.1-0.2-0.1-0.3-0.2
		c0.4-1.3,0.5-2.6,0.4-4c-0.1-1.1-1.6-1.3-2-0.3c-0.3,0.7-0.7,1.2-1.2,1.6c-0.2-0.6-0.2-1.3,0.1-2.2c0.2-0.5-0.2-1.4-0.6-1.6
		c-0.4-0.2-1.1,0.2-1.6,0.4c-0.7,0.4-1.2,0.8-1.7,1.2c-1.3-1.7-2.3-3.3-3.9-5c-2-1.9-3.4,0.9-5.3,1c-2.9,0.3-2.6,3-2.7,5.2
		c-0.8,0.2-1.5,0.3-2.2,0.4c-1.2,0.1-2.6,0.2-3.1-1.3c-0.4-1.3,0.1-2.7,1.4-3.8c0.5-0.4,1.1-0.7,1.6-1.1c-1.4-0.4-2.6-0.3-3.8-0.1
		c-0.8,0.1-1.4,0.2-2.1,0.1c-3.2-0.8-5,2.5-7.9,2.7c-0.7,0.1-1.2,1.1-1.6,1.7c-1.4,2.2-2.9,4-5.4,4.9c-0.3-0.2-0.5-0.3-0.8-0.5
		c-0.8-0.7-1.5-1.5-2.7-0.7c-1,0.7-1.3,1.6-1.3,2.9c0.1,2.4-1.7,4.2-3.9,3.4c-3.1-1.1-5,0.2-6.9,2.4c-1.8,2.3-4,4.3-6.9,5
		c-2,0.5-3,1.6-3.4,3.5c-0.1,0.5-0.4,0.9-0.7,1.5c-1.7-0.7-3-0.1-4.1,1.2c-0.6,0.6-1.3,1-1.9,1.6c-2.1,1.8-2.2,2.3-0.9,4.9
		c1.1,2.4,1.9,2.7,4.2,1.3c0.9-0.5,1.7-1.2,2.7-1.4c3.3-0.6,6.2-1.7,8.9-3.5c0.9-0.7,1.8-1.2,2.8-1.5c5.4-1.9,10.6-4,16.1-5.4
		c8.7-2.2,17.5-3.3,26.4-1.6c2.2,0.4,4.6,0.9,6.7,0.3c0.6-0.2,1.2-0.2,1.7-0.3c1,1.2,2.4,1.8,4.1,2c0.6,0.1,1.3,0,1.9,0
		c0.4,7.6,0.8,15.2,1.2,22.7c0.3,4.2,0.5,8.4,0.1,12.6c-0.6,5.5-0.8,10.9-0.8,16.4c-0.1,5.4,0.2,10.7,0.4,16.1
		c0.3,5.8,0.7,11.5,2.4,17.1c0.5,1.5,0.1,2.7-0.5,4.1c-1.1,2.5-1.8,5-2.6,7.6c-0.2,0.8-0.2,1.9,1,1.8c0.4,0,1-0.8,1.2-1.4
		c1.2-3,2.2-6,3.5-8.9c0.9-2,2.2-3.8,3.4-5.8c-2.1-1.5-2.5,1.4-4.3,1.3c-0.2-0.8-0.6-1.7-0.7-2.6c-1.8-11.8-1.9-23.6-1.4-35.5
		c0.1-1.8,0-3.6,0.6-5.2c0.9-2.3,0.9-4.4,0.8-6.7c-0.6-10.4-1.2-20.8-1.8-31.2c-0.1-0.9,0-1.9-0.1-2.8c0,0,0.1,0,0.1,0
		c0,0.1,0,0.2,0,0.3c0,1.3,2,1.3,2,0c0-0.2,0-0.4,0-0.6c0.8-0.1,1.5-0.2,2.2-0.2c0.2,0.2,0.4,0.4,0.8,0.4c1.8-0.1,3.6-0.2,5.3-0.3
		C-252.9,734.2-252.9,732.4-254.2,732.3z M-332,736.1c-0.1-0.2-0.2-0.4-0.3-0.6c0.5-0.2,0.9-0.5,1.4-0.7c0.2,0.2,0.2,0.4,0.3,0.5
		C-331,735.5-331.5,735.8-332,736.1z M-311.3,726.5c1-1.1,1.7-1.9,3-0.6C-309,727-309.8,727.3-311.3,726.5z M-303.1,724.4
		c-0.6,0.1-1.6,0.5-1.7,0.3c-0.4-0.5-0.3-1.4-0.5-2c0.1-0.1,0.4-0.2,0.6-0.3c0.6,0.4,1.2,0.8,1.8,1.2
		C-303,723.8-303,724.1-303.1,724.4z M-301.6,721.8c-0.1-0.2-0.1-0.6-0.3-0.8c0.7-1.1,1.6-1.1,3.5-0.4
		C-299.8,721.1-300.7,721.5-301.6,721.8z M-296.6,717.5c-1-1.5-0.6-2.1,1.4-2.4C-295.8,716.2-296.3,716.9-296.6,717.5z
		 M-292.4,720.5c-1.2-0.5-1.1-1.3,0-2.3c1.6,0.7,3.2,1.4,5.2,2.2C-289.2,721.5-290.9,721-292.4,720.5z M-278.6,712.2
		c0.3,0.5,0.6,1.1,1.1,2.1C-279.1,714-279.5,713.5-278.6,712.2z M-270.6,725.9C-270.6,725.9-270.6,726-270.6,725.9
		c-0.3,1-0.8,1.7-1.8,0.7C-271.8,726.4-271.2,726.1-270.6,725.9z"/>
	<path d="M-276.5,754.3c-17.8-0.1-35.4,1.9-52.6,6.2c-1.2,0.3-0.7,2.2,0.5,1.9c17.1-4.2,34.5-6.3,52.1-6.2
		C-275.3,756.4-275.3,754.4-276.5,754.3z"/>
	<path d="M-169,757.7c-14.5-4-29.4-5.8-44.6-5.4c-1.1,0-1.2,2-0.1,2c15-0.4,29.8,1.4,44.1,5.4C-168.5,760-168,758-169,757.7z"/>
</g>
<path d="M-322.5,783.1c-5.1-3.3-7.8-9.3-6.8-15.3c0.2-1.3-1.7-1.8-1.9-0.5c-1.1,6.9,1.8,13.7,7.7,17.5
	C-322.4,785.5-321.4,783.8-322.5,783.1z"/>
<path d="M-313.4,902.7c-0.9,3.2-1.3,6.4-1.1,9.8c0.1,1.3,2.1,1.3,2,0c-0.2-3.1,0.1-6.2,1-9.2C-311.1,902-313.1,901.5-313.4,902.7z"
	/>
<path d="M-158.2,747.6c-1-1.7-2-3.3-3.1-5c-0.7-1.1-2.4-0.1-1.7,1c1,1.7,2,3.3,3.1,5C-159.3,749.7-157.6,748.7-158.2,747.6z"/>
<path d="M-328,715l-10,9.9c-2.4,2.4-6.3,4.9-7,8.4c-0.3,1.3,1.7,1.8,1.9,0.5c0.4-2,2.8-3.7,4.2-5.1c1.4-1.4,2.9-2.8,4.3-4.3
	c2.7-2.7,5.4-5.4,8.1-8C-325.7,715.5-327.1,714.1-328,715z"/>
<path d="M-166.8,710.3c-3.5-3.3-7.9-5.2-12.7-5.4c-1.3-0.1-1.3,1.9,0,2c4.3,0.2,8.2,1.9,11.3,4.9
	C-167.3,712.6-165.9,711.2-166.8,710.3z"/>
</svg>
