<?xml version="1.0" encoding="utf-8"?>
<!-- Generator: Adobe Illustrator 19.0.0, SVG Export Plug-In . SVG Version: 6.00 Build 0)  -->
<svg version="1.1" id="Layer_9" xmlns="http://www.w3.org/2000/svg" xmlns:xlink="http://www.w3.org/1999/xlink" x="0px" y="0px"
	 viewBox="-499 501 500 500" style="enable-background:new -499 501 500 500;" xml:space="preserve">
<path d="M-232.5,954.3c2.1,0.1,4.3,0.1,6.4,0.4c1.4,0.2,3,0.5,2.6,2.6c-5.7,0-11.3,0-17,0c-5.3,0-10.5,0.4-15.2,3.2
	c-1.5,0.9-2.3,0.4-2.6-1.6c2.4-1.2,4.7-2.3,7.5-3.7c-1-0.4-1.6-0.7-2.3-0.8c-3.1-0.6-5.9-1.5-8.6-3.1c-5-3-10-5.7-14.6-9.3
	c-3.1-2.4-6.2-4.7-8.6-7.8c-1.2-1.6-2.2-3.5-3.3-5.2c-2.9-4.2-5.9-8.4-8.8-12.7c-1.6-2.4-2.9-5-4.4-7.5c-0.7,0.3-1.3,0.9-1.8,0.8
	c-0.6-0.1-1.2-0.8-1.5-1.3c-1.1-1.9-2.2-3.8-3-5.8c-0.3-0.9-0.2-2,0-3c0.4-1.5,1-2.9,1.5-4.4c0.4-1.2,1.2-1.6,2.6-1
	c-0.2,1.4-0.4,2.9-0.6,4.5c2.6,0.5,4.9-0.2,7-1c7.7-2.8,15.5-5.7,23.1-8.9c3.3-1.4,6.4-3.4,9.4-5.3c1.6-1,2.9-0.9,4.5,0.1
	c4.9,3.2,10.6,4.6,16.2,5.7c6.2,1.2,11.7-0.9,16.5-4.5c2.6-1.9,5.1-1.8,7.9-1.2c4.6,1.1,9,2.9,13.2,5.3c6.7,3.7,14,5.4,21.6,5.8
	c0.5,0,1,0,1.5-0.1c0.4-0.1,0.8-0.2,1.4-0.4c-0.3-1.6-0.5-3.1-0.7-4.7c0.4,0,0.5-0.1,0.6,0c4,3.8,3.9,10.3-0.2,13.7
	c-0.8,0.6-1.8,1.4-2.7,1.3c-1.6-0.2-2.2,0.8-3,1.7c-5.5,6.9-11,13.9-16.6,20.8c-1.6,1.9-3.3,3.7-5,5.5c-1.3,1.3-2.8,2.5-3.2,4.4
	c-0.1,0.4-0.5,0.9-1,1.2c-5,3.2-8.9,7.7-13.4,11.4c-1.9,1.6-4,2.8-6,4.2C-232.7,953.8-232.6,954-232.5,954.3z M-244.1,920.6
	c-7.6-1.4-13.9-5.2-20.5-8.9c0.7-0.4,1.4-0.7,1.9-0.5c1.4,0.4,2.8,0.9,4,1.5c4.6,2.3,9.1,4.7,14.1,6c2.1-2.9,1.9-3.6-1.2-4.6
	c-1.7-0.5-3.4-1-5-1.6c-1.6-0.6-3.4-1-3.7-3.2c0-0.4-0.9-0.9-1.4-1c-3-0.6-6.1-0.8-8.5-3.3c-1.2,2.4-1.5,4.6-1.7,6.8
	c-0.3,2.7,0.6,4.4,3.2,5.6c5.4,2.6,10.6,5.5,15.9,8.3c0.9,0.5,1.8,1,1.4,2.7c-0.8-0.3-1.6-0.4-2.3-0.8c-4.5-2.4-8.9-4.8-13.3-7.2
	c-1.2-0.6-2.5-1.1-4-1.8c-0.2,2.1-0.3,3.5,1.3,4.5c6,3.9,12,7.9,18,11.9c0.2,0.1,0.4,0.1,0.6,0.2c1.4,0.8,2.8,1.7,4.4,2.6
	c0.8-2.6,3.2-3.1,5.7-3.3c1.9-0.2,3.6,0,5.4,0.9s2.3,0.6,3.3-2c-4.9-1.9-9.4-4.8-14.6-6.8c-0.1,1.9-0.1,3.3-0.3,4.7
	c-0.3,2.3-0.5,2.5-3.4,2.3C-242.7,929.4-244.5,925.1-244.1,920.6z M-286.3,927.6c1.1,2.6,2.3,4.9,4.4,6.7c1.7,1.4,3.3,2.8,4.7,4.4
	c2.8,3.2,6.2,5.4,9.9,7.3c3,1.6,5.9,3.7,9,4.6c4.3,1.3,8.8,2.1,13.3,2.6c4.9,0.5,9.4-1.1,13.7-3.7c5.2-3.2,8.6-8.2,13.2-12
	c3.7-3,6.8-6.8,10.2-10.3c0.8-0.8,1.4-1.8,2.1-2.7c-0.2-0.2-0.4-0.3-0.6-0.5c-1.9,1.7-4,3.2-5.7,5.1c-3.6,3.9-7.4,7.4-11.6,10.6
	c-5.8,4.3-12.1,7.4-19.4,8.1c-3.9,0.4-7.9,0.1-11.5-1.6c-5.4-2.5-10.7-5.2-16.1-7.7c-4.8-2.2-9-5.4-12.8-9.1
	C-284,928.5-284.7,927.5-286.3,927.6z M-203,893.7c-0.6-0.8-0.8-1.2-1.1-1.4c-4.5-2.8-9.2-5.1-14.3-6.4c-2.6-0.6-5.1-0.6-7.3,1.3
	c-0.6,0.5-1.4,0.9-2.1,1.3c-4.7,2.6-9.8,4-15.2,2.9c-5.8-1.2-11.7-2.6-16.8-5.8c-1.1-0.7-2-0.8-3.1-0.1c-7.1,4.3-14.7,7.3-22.5,10
	c-1.2,0.4-2.7,0.7-3.8,2.4c1.3-0.3,2.1-0.4,2.9-0.6c5.8-1.6,11.5-3.3,17.3-4.8c1.7-0.4,3.5-0.8,5.2-0.5c3.5,0.6,7.1,1.3,10.5,2.4
	c3.8,1.3,7.6,2.1,11.5,1.4c5.9-1.1,11.7-2.3,17.6-3.6c2.9-0.6,5.8-1.3,8.9-0.7c3.1,0.6,6.3,1,9.5,1.5
	C-205.3,893.3-204.4,893.5-203,893.7z M-240.9,916.3c-0.2,2,1.5,2.3,2.6,2.9c3.1,1.6,6.3,3,9.5,4.5c0.5,0.3,0.9,0.8,1.4,1.2
	c-2.8,0.8-4.8-0.8-7-1.7c-2.4-0.9-4.4-2.7-7-2.9c-0.7,2.6-0.6,3.5,1,4.3c3.6,1.8,7.2,3.6,10.8,5.3c1,0.5,2.1,0.7,3.2,1.1
	c0.3-0.6,0.5-1,0.5-1.4c0.4-4.1,0.8-8.2,1.2-12.3c0.1-1.4-0.7-2.2-1.8-2.9c-3.8-2.3-8.4-2.8-12-5.4c-0.2-0.2-0.6-0.1-0.9,0
	c-2.6,0.4-5.1-0.1-7.2-1.3c-1.4,0.7-2.6,1.3-3.8,1.9c3.6,0.9,6.5,4,10.5,2.9c0.6-0.2,1.4,0.1,2.1,0.4c3.3,1.3,6.5,2.6,9.7,4
	c0.7,0.3,1.2,0.9,1.9,1.5c-1.3,1-2.3,0.4-3.2,0.1c-2-0.7-4.1-1.5-6-2.4C-237.4,915.1-239.2,915-240.9,916.3z M-245.8,899.3
	c0,1.3,0,2.4,0,3.5c-0.1,2.9,0.9,4.2,4.5,3.8c2.5-0.3,5-1,7.5-1.6c0.7-0.2,1.6-0.7,1.9-1.4c0.9-2,1.3-4.1,0.7-6.2
	c-0.4-0.1-0.7-0.3-1-0.3C-236.6,897.8-240.9,898.5-245.8,899.3z M-259.8,905.7c3.1,0.4,5.5,0.8,7.9,1.1c1.1,0.1,2-0.4,2.1-1.7
	c0.2-2.1,0.5-4.2,0.7-6.6c-3.2-0.9-5.7-3.2-9.6-2.5C-259.1,899.1-259.4,902.1-259.8,905.7z M-261.5,895.2c-0.9-0.4-1.3-0.6-1.7-0.7
	c-4.1-0.9-7.6,1-11.3,2.1c-1.2,0.4-1,1.9-0.9,3s0.8,1.6,1.8,1.8c2.5,0.5,5,1,7.6,1.4c1.5,0.3,2.4-0.3,2.9-1.7
	C-262.6,899.3-262.1,897.3-261.5,895.2z M-243.4,945c0.5-2.1-0.2-3.8-0.7-5.6c-0.5-1.5-1.3-2.2-2.9-2.1c-2.8,0.2-5.7,0.2-8.8,0.4
	c-0.1,1.3-0.4,2.6-0.2,3.8c0.1,0.8,0.6,1.9,1.3,2.2C-251.2,945.2-247.4,946.1-243.4,945z M-227.1,899.3c0,2.8,0.4,3.9,2.1,3.7
	c2.8-0.3,5.7-0.9,8.4-1.7c1.6-0.5,2.1-2.9,1.5-5.1c-0.4-1.5-1.2-2.1-3.3-2c-1.8,0.1-3.7,0.5-5.4,0.9
	C-227,895.9-227.1,896.1-227.1,899.3z M-228.8,938.9c-0.8-0.7-1.4-1.3-2.1-1.8c-2.1-1.3-4.2-0.7-6.2,0c-1.6,0.5-1.5,2-1.8,3.3
	c-0.2,0.7-0.9,1.3-1.2,2c-0.2,0.4-0.3,1.1-0.1,1.4c0.2,0.3,0.9,0.6,1.3,0.5c2.9-1.1,5.7-2.2,8.5-3.5
	C-229.8,940.6-229.5,939.8-228.8,938.9z M-250.4,934.7c-2.5-2.6-9.9-6.8-12.4-7.1c0.8,4,4.6,5.6,6.5,8.7c1.1-0.3,2-0.6,2.9-0.8
	C-252.5,935.2-251.7,935-250.4,934.7z M-225.4,912.5c0.4-4.7-0.6-7.2-2.6-8c-2,1.4-3.9,2.7-6,4.3
	C-231.1,910-228.4,911.2-225.4,912.5z M-259.5,941.1c1.3-2.1,1-3.8-0.1-5.4c-0.9-1.4-2.5-1.5-3.9-1.2c-0.9,0.2-2.1,0.9-2.3,1.6
	c-0.2,0.7,0.6,2,1.3,2.5C-263,939.6-261.2,940.2-259.5,941.1z M-200.8,896.8c-2.9-0.6-5.5-1.2-8.1-1.6c-1.8-0.3-2.6,0.3-2.7,1.7
	c-0.1,1.4,0.5,2.2,2.2,2.3c1.7,0.1,3.5,0.1,5.2,0C-202.8,899.1-201.6,898.6-200.8,896.8z M-282.4,922.7c-2-0.8-3.7-1.5-5.5-2.2
	c-0.2-0.1-0.4,0.1-0.6,0.1c1.1,2.3,2.3,3.4,4.9,4.6C-283.2,924.5-282.8,923.7-282.4,922.7z M-186.5,899.4c-1.4-0.3-2.2-0.6-3.1-0.7
	c-1.2-0.1-1.9,0.8-2,1.9c-0.1,0.5,0.3,1.4,0.5,1.5c0.8,0.2,1.9,0.2,2.5-0.1C-187.8,901.5-187.4,900.5-186.5,899.4z M-214.4,924.2
	c2.1,1.9,2.8,1.6,5.2-2.2c-1-0.6-2.1-1.1-3.1-1.6c-0.1-0.1-0.4,0.3-0.7,0.5c0.4,0.8,0.8,1.5,1.3,2.4
	C-212.7,923.6-213.5,923.9-214.4,924.2z M-270.8,935.9c0.9-1.7,0.3-2.8-0.8-3.5s-2.3-0.5-3.7,0.8
	C-273.7,934.2-272.3,935-270.8,935.9z M-280.3,905c1.7-2.1,3.1-3.7,2.4-6.2c-0.2-0.8-0.6-1.3-1.1-1
	C-279.5,900.2-279.8,902.3-280.3,905z M-206.4,919c0.2,0.2,0.4,0.4,0.6,0.5c1.4-1.2,2.8-2.4,4.6-3.9c-1.3-0.3-2-0.4-2.4-0.5
	C-204.7,916.5-205.5,917.7-206.4,919z M-197.7,912.5c-1.5-0.5-2.5-1-3.5-1.2c-0.2-0.1-0.8,0.3-0.9,0.6c-0.1,0.3,0,0.9,0.2,1
	C-200.7,913.6-199.4,914.1-197.7,912.5z M-281.6,899.3c-0.2-0.2-0.5-0.4-0.7-0.6c-1,0.3-1.9,0.5-3.2,0.9c1.1,1.4,2.1,2,3.2,1.5
	C-281.9,901-281.8,899.9-281.6,899.3z M-271.9,927.5c0.2,1.1,0.4,1.9,0.6,2.7c1.5,0.3,2-0.5,1.9-1.5
	C-269.6,927.5-270.4,927.2-271.9,927.5z M-292.9,911.6c-1.3-0.5-2.1-0.8-2.9-1c-0.1,0.2-0.2,0.4-0.4,0.5c0.5,0.8,1,1.6,1.7,2.6
	C-294,913-293.6,912.5-292.9,911.6z M-194,898.9c-1.5-1.3-1.5-1.3-3.1-0.3C-195.4,900.2-195.4,900.2-194,898.9z M-291.5,909.1
	c-1.1-2.5-1.4-2.5-3.1-0.9C-293.6,908.4-292.8,908.7-291.5,909.1z M-281.7,916.1c1.3,1.1,1.3,1.1,2.3,0.1
	C-280.2,915.6-280.9,915.2-281.7,916.1z M-210.8,918.3c1.4,0.6,1.9-0.1,2.2-1c0-0.2-0.2-0.6-0.4-0.7
	C-210.2,916.3-210.6,917.1-210.8,918.3z M-214.1,927.1c-2.6-0.4-2.6-0.4-2.6,2.1C-215.9,928.5-215.2,928-214.1,927.1z M-210.2,903.5
	c-0.3-0.7-0.5-1.4-0.7-2c-0.4,0.2-1,0.4-1.1,0.7C-212.3,903.3-211.7,903.7-210.2,903.5z M-211.8,915.1c-1.8-0.9-2.3-0.3-2.6,0.5
	c-0.1,0.2,0.4,0.7,0.4,0.7C-213.4,916.1-212.9,915.7-211.8,915.1z M-281.9,911c-0.7-0.4-1.1-0.8-1.5-0.8c-0.3,0-0.6,0.4-0.9,0.6
	c0.3,0.3,0.5,0.9,0.9,1C-283.1,911.8-282.7,911.4-281.9,911z M-288.1,908.2c-0.4,0.5-1,0.9-0.9,1.2c0.1,0.4,0.6,0.9,1,0.9
	c0.3,0,0.7-0.5,1-0.8C-287.3,909.1-287.6,908.7-288.1,908.2z M-221.5,926.7c1.1,1.1,1.9,1.2,2.3-0.1c0.1-0.2,0-0.6,0-1.1
	C-219.9,925.9-220.5,926.2-221.5,926.7z M-218,914.7c1.6-0.7,2.2-1.1,1.3-2.7C-217.1,913-217.4,913.5-218,914.7z M-279.3,928.8
	c1.2,1.9,1.2,1.9,2.6,0.7C-277.7,929.3-278.5,929.1-279.3,928.8z M-290.2,912.4c-0.1,1.5,0.4,1.9,1.9,1.2
	C-289.1,913.1-289.6,912.7-290.2,912.4z M-213.2,905.5c-0.3,0.5-0.6,0.9-0.5,1.1c0.1,0.3,0.5,0.5,0.7,0.8c0.3-0.4,0.6-0.7,0.7-1.1
	C-212.2,906.2-212.8,905.9-213.2,905.5z M-278.8,911.3c-0.4,0.5-0.8,0.8-0.8,1.1c0.1,0.3,0.5,0.7,0.8,0.7c0.3,0,0.6-0.4,0.9-0.6
	C-278.2,912.2-278.4,911.9-278.8,911.3z M-288.3,901.7c-0.8-1.5-1.4-1.9-2.8-0.9C-290.1,901.1-289.4,901.3-288.3,901.7z
	 M-195.4,902.8c-0.7-0.4-1-0.8-1.4-0.9c-0.1,0-0.7,0.5-0.6,0.7c0.1,0.3,0.5,0.7,0.8,0.7C-196.4,903.5-196.1,903.2-195.4,902.8z
	 M-272.9,914.2c-0.6-0.9-1.1-1.5-2.3-0.5C-274.6,914.5-274.1,915.1-272.9,914.2z M-275.5,916.2c-0.8,1-1,1.3-1.2,1.6
	c0.3,0.3,0.7,0.6,1.1,0.7c0.2,0,0.7-0.4,0.7-0.7C-275,917.4-275.2,917-275.5,916.2z M-270.3,919.2c-0.5-0.4-0.8-0.8-1-0.8
	c-0.3,0-0.8,0.4-0.9,0.6c-0.1,0.3,0.3,0.6,0.4,1C-271.3,919.8-270.9,919.6-270.3,919.2z M-299.3,901.4c-1,0.4-1.5,0.6-2,0.8
	c0.2,0.4,0.3,0.8,0.7,1.6C-300.2,902.9-299.9,902.5-299.3,901.4z M-278.1,925c-0.4-0.5-0.6-1-0.9-1c-0.3-0.1-0.7,0.1-1.1,0.2
	c0.2,0.4,0.4,0.8,0.7,1.1C-279.2,925.4-278.7,925.2-278.1,925z M-273.7,926.2c-0.6-0.3-1-0.6-1.2-0.6c-0.3,0.1-0.5,0.5-0.7,0.8
	c0.3,0.2,0.6,0.6,0.9,0.6C-274.5,927-274.3,926.6-273.7,926.2z M-270.9,905.9c-0.2,0.1-0.5,0.3-0.7,0.4c-0.2,0.3-0.5,0.7-0.4,0.9
	c0.1,0.3,0.6,0.6,0.9,0.7c0.2,0,0.8-0.4,0.8-0.6C-270.4,906.8-270.7,906.4-270.9,905.9z M-200.7,908.7c0.6,0.3,1,0.7,1.2,0.6
	c0.4-0.2,0.6-0.6,0.9-0.9c-0.3-0.2-0.6-0.7-0.8-0.6C-199.8,907.9-200.1,908.3-200.7,908.7z M-205.4,911.7c0.3-0.6,0.6-0.9,0.6-1.2
	c0-0.2-0.5-0.4-0.7-0.6c-0.2,0.3-0.6,0.6-0.6,0.8C-206.2,910.9-205.8,911.2-205.4,911.7z M-192.8,904.1c-0.1,0.3-0.1,0.5-0.2,0.8
	c0.5,0.1,1.1,0.2,1.6,0.3c0.1-0.2,0.1-0.4,0.2-0.5C-191.8,904.5-192.3,904.3-192.8,904.1z M-274.5,905.5c-0.7-0.3-1.1-0.6-1.6-0.6
	c-0.1,0-0.4,0.4-0.6,0.6c0.3,0.3,0.6,0.7,1,0.9C-275.5,906.4-275.1,905.9-274.5,905.5z M-268.3,931.9c0.1,0.1,0.3,0.1,0.4,0.2
	c0.3-0.6,0.6-1.1,0.8-1.7c-0.1-0.1-0.3-0.1-0.4-0.2C-267.7,930.8-268,931.3-268.3,931.9z M-209.6,909.8c0.5-0.5,0.9-0.8,0.9-1.1
	s-0.4-0.5-0.6-0.8c-0.2,0.2-0.6,0.3-0.6,0.6S-209.7,909.1-209.6,909.8z M-284.2,914.8c-0.4-0.2-0.8-0.4-1.1-0.4
	c-0.2,0-0.4,0.3-0.6,0.5c0.4,0.2,0.7,0.5,1.1,0.7C-284.7,915.6-284.5,915.2-284.2,914.8z M-202.8,907.1c-0.2-0.3-0.5-0.7-0.5-0.7
	c-0.3,0.1-0.6,0.4-0.8,0.6c0.2,0.2,0.4,0.5,0.6,0.5C-203.4,907.5-203.1,907.2-202.8,907.1z"/>
<path d="M-210.4,691.8c4.5-1.4,6.4,0,8.7,6.6c2.7-1.8,4.9-0.6,7.1,1.2c1.1,0.9,2.4,1.6,3.6,2.3c2.7,1.6,4,4.3,5.5,6.9
	c0.7,1.2,1.8,2.1,2.7,3.2c0.6,0.8,1,1.8,1.6,2.9c0.5-0.7,0.9-1.3,1.5-1.9c0.7-0.7,1.6-0.9,2.5-0.2c0.8,0.6,0.8,1.2,0.4,2.2
	c-0.6,1.2-0.5,2.5,0.5,4.1c1.2-1.4,0.5-3.7,3.1-4.2c1.2,0.7,2.8,1.5,4.9,2.6c-0.3-3.3-2.1-5.9-3.8-8.5c0.9-0.8,1.7-0.5,2.2,0.2
	c0.8,1,1.7,2.1,2.2,3.3c1.3,3,2.9,5.7,5.7,7.5c0.7,0.5,1.1,1.5,1.6,2.2c0.9,1.1,1.7,2.3,3.4,2.3c0.5,0,1.5,0.9,1.4,1.1
	c-0.2,0.7-0.7,1.6-1.3,1.8c-1.1,0.3-2.4,0.2-4.3,0.3c3,2.2,5.5,4.2,7.9,6c-0.1,1.1-0.2,2.1-0.2,3c0,1.6-0.5,2.1-2,1.9
	c-4-0.7-8.1-1.4-11.6-3.7c-0.7-0.4-1.9-0.6-2.5-0.3c-1.5,0.7-2.6,0.3-3.7-0.6c-0.5-0.4-1-0.8-1.4-1.2c-3-2.8-6.3-4.9-10.1-6.3
	c-4.8-1.8-9.4-4-13.5-7.3c-1.7-1.3-4.1-1.7-6.3-2.3c-1.4-0.4-2.8-0.9-4.2-1c-1.1-0.1-2.3,0.1-3.3,0.6c-3.9,1.7-4.6,1.7-8.6,0.2
	c-1.3,0.5-2.7,2.2-4.2,0.3c1-1.3,2-2.6,3.1-4.1c0.7-0.1,1.6-0.1,2.7-0.2c0.1-0.8,0.2-1.5,0.3-2.5c-0.8,0-1.4-0.1-2.1-0.1
	c-0.3-2.3-1.9-3.6-4.5-4.4c0.7-0.4,1.1-0.7,1.7-1c-0.5-0.6-1-1.2-1.5-1.9c0.2-0.5,0.5-1.1,1-2.1c-0.7-0.4-1.4-0.9-2.3-1.5
	c2.4-0.3,4-2.9,6.5-0.4c0.7-2,1.3-3.6,2.1-5.8c0.6,1,1,1.6,1.3,2.1c1.2-0.1,2.4-0.3,4-0.4C-212.4,693.5-212.5,691.6-210.4,691.8
	c0.1,0.8,0,1.6,0,2.5c0.2,0.1,0.4,0.2,0.6,0.2c0.7-0.7,1.4-1.5,2-2.2c-0.1-0.2-0.2-0.4-0.3-0.6
	C-208.9,691.7-209.7,691.7-210.4,691.8z M-192.8,705.2c2-0.8,2-0.8,1.2-2.3C-192,703.8-192.4,704.5-192.8,705.2z M-216.9,703.5
	c0-0.4,0.1-0.8,0.1-1.2c-0.6,0.1-1.3,0.1-1.9,0.2l-0.1,0.5C-218.1,703.2-217.5,703.3-216.9,703.5z M-199.9,698.4
	c-0.1,0.3-0.1,0.5-0.2,0.8c0.5,0.1,1.1,0.3,1.6,0.3c0.1,0,0.2-0.5,0.3-0.7C-198.8,698.7-199.3,698.6-199.9,698.4z M-166.9,723.4
	c-0.1,0.1-0.1,0.3-0.2,0.4c0.4,0.2,0.8,0.4,1.2,0.5c0.1-0.2,0.1-0.4,0.2-0.7C-166.1,723.6-166.5,723.5-166.9,723.4z"/>
<path d="M-272.8,703.4c0.4-0.5,0.8-1,1.4-1.5c0.4-0.3,1.1-0.8,1.5-0.7c0.4,0.1,1,0.9,0.9,1.4c-0.4,2.9,1.9,3.6,3.8,4.3
	c1.4,0.5,2.9,0.7,3.9,2.1c0.4,0.5,1.4,0.6,2.5,1c-0.2,0.9-0.3,2-0.6,2.9c-0.5,1.4-0.8,2.7-0.4,4.2c0.5,1.7-0.5,2.8-2.2,2.9
	c-0.9,0.1-1.9-0.2-2.8,0c-1.7,0.4-3.4,0.5-5.1,1.4c-1.9,1-4.4,1-6.6,1c-9.1,0.1-17.5,3-25.5,6.9c-5.1,2.5-9.8,5.6-14.7,8.5
	c-0.9,0.5-1.7,1.2-2.4,2c-2.3,2.3-4.9,4-8,5.2c-0.9,0.4-1.6,1.2-2.4,1.9c-2,1.8-2.8,1.7-4.4-0.4c-1.8-2.3-1.8-2.8-0.1-5
	c0.5-0.7,1.1-1.2,1.5-1.9c0.8-1.5,2-2.4,3.8-2c0.2-0.7,0.4-1.1,0.4-1.6c0-1.9,0.8-3.2,2.6-4.1c2.7-1.3,4.4-3.7,5.8-6.3
	c1.4-2.5,3-4.2,6.3-3.7c2.3,0.3,3.7-1.8,3.1-4.1c-0.3-1.3-0.1-2.2,0.7-3.1c1-1,1.9-0.4,2.8,0.1c0.3,0.1,0.6,0.2,0.9,0.3
	c2.3-1.4,3.4-3.5,4.3-5.9c0.3-0.7,0.6-1.8,1.2-2c2.8-0.8,3.9-4.4,7.2-4.2c0.7,0,1.3-0.3,2-0.5c1.1-0.4,2.3-0.8,3.7-0.7
	c-0.4,0.5-0.9,0.9-1.3,1.4c-1.1,1.3-1.3,2.8-0.6,4c0.8,1.4,2.1,1,3.3,0.7c0.7-0.2,1.3-0.5,2.1-0.8c-0.3-2.2-1.2-4.8,1.6-5.6
	c1.8-0.5,2.7-3.5,5-2C-275.7,700.6-274.4,702-272.8,703.4z M-290,709.9c-0.9,1.2-0.8,2,0.5,2.2c1.6,0.2,3.3,0.3,5.1-1.1
	C-286.6,710.6-288.3,710.3-290,709.9z M-299.3,718.1c0-0.3,0-0.6,0-0.8c-0.7-0.3-1.3-0.6-2-0.8c-0.2,0.1-0.4,0.3-0.5,0.4
	c0.3,0.6,0.4,1.4,0.9,1.9C-300.7,718.9-299.8,718.3-299.3,718.1z M-306.9,721.8c1.6,0.5,2.3,0,2.8-1.2
	C-305.6,719.6-306.1,720.5-306.9,721.8z M-298.8,714.6c0.2,0.2,0.3,0.5,0.5,0.7c0.8-0.5,1.6-1,2.9-1.8
	C-297.4,713.1-298.3,713.3-298.8,714.6z M-294.3,710.1c0.2-0.7,0.5-1.4,0.9-2.6C-295.3,708.1-295.6,708.8-294.3,710.1z
	 M-269.2,713.7c1.6,1.4,1.9,0.5,2.1-0.5c0-0.1-0.2-0.3-0.4-0.6C-268,712.9-268.5,713.2-269.2,713.7z M-277.7,701.2
	c-0.6,1.5-0.1,1.9,1.5,1.8C-276.9,702.2-277.3,701.7-277.7,701.2z M-324,734.3c-0.1-0.1-0.2-0.3-0.4-0.4c-0.4,0.3-0.8,0.7-1.2,1
	c0.1,0.2,0.3,0.3,0.4,0.5C-324.8,735-324.4,734.6-324,734.3z"/>
<path d="M-273.6,770.1c-1.1,1.8-2.1,3-2.7,4.3c-2.4,4.9-6.7,7.8-11.4,10c-4.6,2.1-9.6,3.2-14.8,2.6c-2.1-0.2-4.3-0.7-6.3-1.5
	c-4.4-1.8-9.4-2.7-13.1-6.1c-2-1.9-3.7-4.1-5.5-6.2c-0.4-0.5-0.4-1.2-0.6-1.9c0.2-0.1,0.4-0.3,0.5-0.4c0.6,0.6,1.3,1.1,1.7,1.8
	c2.5,3.7,5.7,6.5,10,7.9c1.5,0.5,2.9,1.1,4.3,1.7c6.2,2.7,12.4,2.6,18.7,0.7c8.3-2.4,13.9-7.7,16.8-15.9c0.1-0.3,0.2-0.6,0.4-0.8
	c0.1-0.2,0.3-0.3,0.7-0.8c0.5,0.5,1.3,0.9,1.5,1.5c0.3,0.9,0.6,1.6,1.5,2.2c1.4,1,0.9,2.5,0.4,3.7c-1.4,3.5-2.7,7.1-4.5,10.5
	c-2.9,5.5-6.8,10.3-12,13.9c-4,2.8-8.1,2.5-11.9,0.2c-2.8-1.7-5.2-4.3-8-6.7c1.8-0.9,2.5,0,3.3,0.7c1.7,1.5,3.3,3.2,5.1,4.5
	c2.7,2,5.7,2.6,8.6,0.6c2.4-1.6,4.8-3.3,6.6-5.4c4.9-5.6,8.1-12.1,10.4-19.2C-273.5,771.6-273.6,771.1-273.6,770.1z"/>
<path d="M-261.2,818.3c1.8,0.1,2.2-2.8,4.3-1.3c-1.2,2-2.5,3.8-3.4,5.8c-1.3,2.9-2.3,5.9-3.5,8.9c-0.2,0.6-0.8,1.4-1.2,1.4
	c-1.2,0.1-1.2-1-1-1.8c0.8-2.6,1.5-5.1,2.6-7.6c0.6-1.4,1-2.6,0.5-4.1c-1.7-5.6-2.1-11.3-2.4-17.1c-0.2-5.4-0.5-10.7-0.4-16.1
	c0-5.5,0.2-10.9,0.8-16.4c0.4-4.2,0.2-8.4-0.1-12.6c-0.4-7.6-0.8-15.2-1.2-22.8c0-1,0.1-2,0.2-2.9c1.5-0.6,2.1,0,2.2,1.1
	c0.1,1.4,0,2.9,0.1,4.3c0.6,10.4,1.2,20.8,1.8,31.2c0.1,2.3,0.1,4.4-0.8,6.7c-0.6,1.6-0.5,3.4-0.6,5.2c-0.5,11.9-0.4,23.7,1.4,35.5
	C-261.8,816.6-261.4,817.5-261.2,818.3z"/>
<path d="M-229.8,813.6c2.1-1.2,3,0.6,4.7,1.5c0.1-2.5,0.3-4.6,0.3-6.8c0-7.6,0-15.2-0.2-22.9c-0.2-5.7-0.8-11.3-1-17
	c-0.1-1.2,0.4-2.3,0.6-3.5c0.2-0.9,0.5-1.8,0.5-2.7c0.5-9.7,0.6-19.4-0.8-29c-0.1-1-0.1-2-0.2-3.6c0.8,0.7,1.4,0.9,1.5,1.3
	c1.7,4.5,2.1,9.2,2,14c-0.1,6.7-0.1,13.4-0.7,20c-0.6,6.5-0.1,13,0,19.4c0.2,9.2-0.1,18.3-0.2,27.5c0,1.5-0.7,3.1-1.2,5.1
	c4.3,12.3,4.3,12.3,2.1,14c-0.3-1.1-0.5-2-0.8-2.9C-224.4,823-226.3,818-229.8,813.6z"/>
<path d="M-227.6,852.9c-2,0.9-4.1,3.2-6.3,5.3c-3.7,3.7-8.2,5.6-13.4,4.6c-2.8-0.5-5.5-1.7-8.1-2.9c-3.3-1.6-6.6-3.4-9.8-5.2
	c-1.5-0.8-2.7-1-4.3,0s-3.6,0.8-4.5-0.3c-0.3-0.4-0.6-1.2-0.4-1.6c0.8-1.6,2.3-2.3,4-2.3c0.9,0,1.8,0.3,2.6,0.7
	c5.3,2.6,10.4,5.3,15.7,7.8c6.1,2.9,11.4,1.7,16.4-3c2.9-2.7,6.2-5.1,9.5-7.4c2.9-2,6.5-1.4,8.9,1.4c0.4,0.5,0.7,1.4,0.5,1.9
	c-0.5,1.3-1.5,2.4-3,2.2C-222.2,853.9-224.5,853.4-227.6,852.9z"/>
<path d="M-276.3,843.8c-1.4,0.9-2.5,1.7-3.5,2.4c0.1,0.1,0.3,0.2,0.4,0.3c-0.4,1.4-0.9,2.8-1.3,4.1c-0.1,0.3-0.3,0.6-0.4,0.8
	c-2.4,5.2-0.8,7.7,4.9,7.5c1.5-0.1,3-0.7,4.5-1.1c0.7-0.2,1.3-0.8,2-0.8c0.7,0,1.4,0.5,2.1,0.8c-0.4,0.6-0.7,1.5-1.2,1.6
	c-2.6,0.8-5.3,1.4-8,2c-1,0.2-2,0.2-3,0.5c-2.5,0.9-4.6,1-6.2-1.5c-0.1-0.2-0.5-0.3-0.8-0.5c-3.8,3.6-5.7,8.6-8.9,12.5
	c-0.3-0.1-0.5-0.2-0.8-0.4c0-0.6-0.2-1.3-0.1-1.9c0.5-2.7,1.9-5,3.3-7.2c3.5-5.6,6.9-11.2,10.4-16.8c0.6-1,1.6-1.9,2.6-2.6
	C-279,842.6-278.2,842.7-276.3,843.8z"/>
<path d="M-182.9,760.6c-0.2,0.6-0.5,1.3-0.6,1.9c-0.2,2.7-1.9,4.2-4.1,5.3c-3.2,1.6-6.5,1.7-9.8,0.3c-2.8-1.2-3.8-3.2-3.4-6.1
	c0.6-4.2,3.1-6.8,6.9-8.4c0.9-0.4,2.2-0.3,3.3,0c3,0.8,5.5,2.2,6.7,5.3C-183.8,759.6-183.2,760.1-182.9,760.6z M-191.2,756.8
	c-1.2,1.7-2.2,2.5-2.5,3.6c-0.3,0.9,0,2.4,0.6,3c0.4,0.5,1.9,0.4,2.8,0.1c1.3-0.4,1.5-1.7,1.1-2.8
	C-189.7,759.6-190.3,758.6-191.2,756.8z"/>
<path d="M-302.5,772.4c-0.6-0.1-1.7-0.1-2.8-0.4c-4-1-6-4.7-4.9-8.6c0.8-2.6,1.8-5.1,4.3-6.5c2.6-1.5,5.2-1.7,7.9-0.2
	c1.8,1.1,4.7,7.8,4.2,9.8C-294.6,769.6-298.4,772.4-302.5,772.4z M-299.4,763.6c-0.7-0.4-1.4-1.1-2.2-1.4c-1.5-0.7-2.9,0.2-3.1,1.9
	c-0.1,1.6,0,3.3,1.4,4.1c1.3,0.8,2.8,0.3,4-0.6c0.2-0.1,0.3-0.3,0.4-0.5C-299,766-299.2,764.8-299.4,763.6z"/>
<path d="M-218,762.4c-0.5-0.9-1.1-1.4-1.1-1.9c0-0.8,0.4-1.6,0.8-2.3c2.6-4,5.1-8.2,8.1-12c5.4-6.8,12.9-9.5,21.4-8.4
	c6.7,0.8,12.3,4.2,16,9.9c2.6,4,4.6,8.5,6.9,12.7c0.1,0.3,0.4,0.6,0.3,0.8c-0.1,0.4-0.2,1-0.6,1.3c-0.1,0.1-0.9,0-1-0.3
	c-0.5-0.6-0.9-1.4-1.2-2.1c-1.8-3.5-3.6-7-5.3-10.4c-1.2-2.4-3.1-4-5.3-5.5c-10.7-7.6-23.2-4.1-29.8,4.3c-2.9,3.7-5.3,7.8-7.9,11.8
	C-217,760.8-217.3,761.4-218,762.4z"/>
<path d="M-217.7,766.2c1.9,0.3,2.6,1.3,3.2,2.4c4.2,8.9,12,11.2,20.9,11.4c3.1,0,6.2-0.2,9.2-0.8c3.2-0.7,6.4-1.6,9.4-3
	c1.8-0.9,3.2-2.8,4.6-4.4c1.4-1.7,2.5-3.7,3.7-5.6c2.4,1.4,2.4,1.6,1.4,3.3c-0.9,1.5-1.9,2.9-2.9,4.4c-2.1,3.2-5.2,5.1-8.6,6.1
	c-7,2.1-14.1,3.2-21.4,2.1c-5.5-0.8-10.1-3.4-14.5-6.6C-215.6,773.2-216.8,769.9-217.7,766.2z"/>
<path d="M-327.2,760.3c0.6-1,1.1-2.1,1.9-2.9c5.9-6,12.7-10.9,20.9-13.2c4.8-1.4,9.7-1.7,14.6,0.1c1.4,0.5,3,0.8,4.4,1.5
	c2.8,1.3,5.3,3.2,7.1,5.7c1.8,2.5,3.9,4.8,5.8,7.2c0.3,0.3,0.6,0.7,0.6,1.1c0,0.6-0.3,1.3-0.4,1.9c-0.6-0.2-1.4-0.3-1.7-0.8
	c-1.9-2.5-3.7-5.2-5.6-7.7c-4.8-6.4-11.6-8.1-19-7.5c-7.8,0.6-14.5,4.4-20.5,9.2c-2,1.6-3.9,3.4-5.8,5c-0.4,0.4-1,0.6-1.5,0.9
	C-326.7,760.7-327,760.5-327.2,760.3z"/>
<path d="M-222.6,858.5c0.8-1.8,2.1-1.4,3.1-1.4c4.6-0.3,8.1-2.3,10.1-6.5c1.4-2.9,0.9-5.1-1.4-7.2c-1.8-1.6-3.5-3.4-6.3-3.4
	c1.2-2.2,1.7-2.6,3.2-1.9c2.4,1,4.6,2.2,6.3,4.3c2,2.5,4.1,4.8,6.1,7.3c1.8,2.2,3.4,4.5,3.8,7.9c-2.3-2.2-4.2-4-6-5.7
	c-2.7,0.7-2.3,2.4-2,4.1c-0.6,0.4-1.1,0.7-1.7,1.2c-0.5-0.5-1.1-0.9-1.8-1.6C-212.8,858.6-217.3,859.6-222.6,858.5z"/>
<path d="M-232.7,861.8c0.5,2,1.1,4,1.5,6.1c0.6,3.4,1.3,6.9,1.5,10.4c0.2,3.3-2.2,6.2-5.5,7.3c-1.3,0.4-2.5,1.1-3.8,1.4
	c-2.4,0.6-4.8,0.5-6.8-1.2c0-0.2,0.1-0.5,0.1-0.7c0.8,0.1,1.6,0.2,2.5,0.4c4.4,0.9,6.7-0.5,8.4-4.8c1.2-3,0.8-5.9,0.3-8.8
	c-0.4-2.3-1-4.6-1.8-6.9c-1-3-0.7-3.5,2.3-3.5C-233.7,861.5-233.4,861.7-232.7,861.8z"/>
<path d="M-220.1,771.9c1.4-0.5,1.8,0.4,2,1.5c0.2,1.5,0.5,3.1,0.7,4.6c1.2,9.5,9.5,17.6,19.2,19.3c5.6,1,11.2,1.8,16.8,0.3
	c-2.6,2-5.7,2.3-8.7,2.2c-6.5-0.2-12.9-1.2-18.6-4.8C-215.6,790.7-221.2,781.9-220.1,771.9z"/>
<path d="M-342.8,745.7c0.9-3.7,12.9-18.6,16.2-20c-1.6,2.3-3.1,4.6-4.8,6.9c-1.7,2.3-3.3,4.7-5.2,6.9
	C-338.4,741.5-339.3,744.5-342.8,745.7z"/>
<path d="M-165.3,903.6c0.3-3.5,0.7-6.3,0.6-9c-0.1-2.6-0.8-5.2-1.2-8c1-0.7,2-0.2,2.3,0.8c1.8,4.8,2.1,9.6,0.3,14.4
	C-163.5,902.4-164.2,902.7-165.3,903.6z"/>
<path d="M-319.1,892.7c-0.1,3.8-0.4,7.1-0.2,10.3c0.2,3.1,0.9,6.1,1.3,9.2c-0.2,0.1-0.4,0.1-0.6,0.2c-0.4-0.6-0.9-1.2-1.1-1.9
	c-1.5-4.4-2.1-9-1.8-13.6c0.1-1.1,0.4-2.2,0.9-3.2C-320.6,893.2-319.8,893.1-319.1,892.7z"/>
<path d="M-223.8,877.1c-0.9-1.9-1.9-3.8-2.7-5.7c-1.1-2.6-2.1-5.2-3.1-7.7c-0.5-1.2-1-2.5,0.3-4.1c2.8,5.8,4.4,11.6,6.8,17.1
	C-222.9,876.7-223.3,876.9-223.8,877.1z"/>
<path d="M-260.6,879c-0.5-3.4,0.3-11.6,1.3-13.8c1.3,0.5,1,1.6,1,2.6C-258.6,877-258.7,877.2-260.6,879z"/>
<path d="M-324,594.7c2.6,0,5.3,0,7.9,0l0,0C-318.7,594.8-321.3,594.8-324,594.7C-324,594.8-324,594.7-324,594.7z"/>
<path d="M-312,918.5c-0.7-0.4-1.4-0.8-2.2-1.3C-312.3,916-312.3,916-312,918.5z"/>
<path d="M-236.1,815.8c-0.1,0.7-0.1,1.5-0.2,2.6C-237.8,817.3-237.7,816.5-236.1,815.8z"/>
<path d="M-150.4,704.7c0.3-0.5,0.5-1,0.8-1.5l0.7,0.3c-0.2,0.6-0.4,1.1-0.6,1.7C-149.8,705-150.1,704.8-150.4,704.7z"/>
<path d="M-147.4,970.2c-0.5,0.4-0.8,0.9-1.1,0.9c-0.5-0.1-0.9-0.4-1.3-0.7c0.3-0.4,0.5-1,0.8-1
	C-148.5,969.4-148.1,969.8-147.4,970.2z"/>
<path d="M-112.8,728.1c-0.6,0.3-0.9,0.7-1.2,0.7c-0.2,0-0.5-0.5-0.7-0.8c0.4-0.3,0.7-0.6,1.1-0.7
	C-113.6,727.2-113.2,727.7-112.8,728.1z"/>
<path d="M-304.3,657.8c-0.5-0.6-1.1-1.2-1.6-1.7c0.2-0.2,0.3-0.4,0.5-0.5c0.6,0.5,1.2,1,1.8,1.5C-303.8,657.3-304,657.5-304.3,657.8
	z"/>
<path d="M-287.7,594.6c0.6,0,1.2,0,1.8,0c0,0.1,0,0.1,0,0.2c-0.6,0-1.2,0-1.8,0C-287.7,594.7-287.7,594.7-287.7,594.6z"/>
<path d="M-245.3,777.8c0.2,0.5,0.4,1,0.7,1.5c-0.2,0.1-0.4,0.2-0.6,0.3c-0.2-0.5-0.4-1-0.6-1.5
	C-245.7,777.9-245.5,777.8-245.3,777.8z"/>
<path d="M-43.8,922.9c-0.1-0.2-0.3-0.5-0.4-0.7c0.2-0.1,0.4-0.3,0.5-0.3c0.2,0.1,0.3,0.4,0.5,0.6C-43.4,922.6-43.5,922.7-43.8,922.9
	z"/>
<path d="M-248.6,780.1c-0.4-0.3-0.7-0.5-1-0.8c0,0,0.1-0.3,0.2-0.4c0.4,0.2,0.8,0.4,1.2,0.6C-248.4,779.8-248.5,780-248.6,780.1z"/>
<path d="M-295.6,697.1c-0.3,0.4-0.5,0.6-0.6,0.8c-0.3-0.2-0.5-0.5-0.8-0.7c0,0,0.2-0.4,0.3-0.4
	C-296.5,696.8-296.1,696.9-295.6,697.1z"/>
<path d="M-161.6,765.8c-0.3-1.3-2.2-0.7-1.9,0.5c0.4,2,0.2,3.9-0.7,5.8c-0.6,1.1,1.2,2.2,1.7,1
	C-161.4,770.8-161.1,768.3-161.6,765.8z"/>
<path d="M-328.8,773.8c-0.9-2.6-1.1-5.3-0.6-8c0.2-1.3-1.7-1.8-1.9-0.5c-0.6,3.1-0.4,6.1,0.6,9.1
	C-330.3,775.6-328.4,775.1-328.8,773.8z"/>
<path d="M-120.3,748.5c-0.2-4.2-0.7-8.4-1.1-12.6c-0.5-6.2-1.4-12.3-3.5-18.2c-1.9-5-5-7-10.1-6c-0.3,0-0.6-0.1-1-0.1
	c-0.9-1.7-1.1-3.5-0.8-5.4c0.1-0.6,0.3-1.2,0.2-1.8c-0.8-5,0.7-10.2-0.7-15.2c-0.1-0.3-0.1-0.6-0.1-0.9c0.1-4.5,0.1-9,0.2-13.5
	c0.3-0.5,0.5-1.1,0.5-1.8c0.1-2,0.2-4,0.3-6c0.5-0.7,0.9-1.7,0.9-2.8c0.4-8.4,0.3-16.8-0.2-25.1c0.4-3.7,0.8-7.3,1.2-11
	c0.1-1.1-1.7-1.3-2-0.3c-0.1,0.3-0.2,0.6-0.2,0.9c-0.5-4-1-8-1.7-12.1c0.1-2.4,0.2-4.9,0.3-7.3c0.1-0.3,0.1-0.6,0.1-0.9
	c0-0.5,0-1,0.1-1.6c0.7-7.9,1.9-15.8,4.2-23.5c0.5,0.8,1.8,0.7,1.9-0.4c0.1-2,0.1-3.9,0.2-5.9c0-1-1.1-1.2-1.7-0.7
	c-3.2-9.5-10.2-18.1-16.6-25.4c-3.4-3.9-7.3-9.3-12.1-11.6c-5-2.3-10.4,1.4-15.2-0.8c-0.9-1-1.9-1.8-3.2-2.5
	c-2.2-2.3-3.9-4.9-7.4-5.4c-5.3-0.8-9.8,3.6-14.2,5.7c-6.4,3-13.7,2.3-20.4,4c-3.4,0.9-9.9,4.8-14.8,5.3c-1.3-0.7-2.8-1.1-4.3-1.2
	c-0.2-0.2-0.5-0.4-0.7-0.6c-0.5-0.7-0.9-1.5-1.1-2.6c-0.1-0.4-0.5-0.8-1-0.7c-2.3,0.2-3.9,0.7-5.8,2.1c-0.3,0.2-0.5,0.6-0.5,0.9
	c-0.5,0.1-1.1,0.3-1.6,0.5c-5.7,1.2-11.5,1.6-17.4,1.1c-2.7-0.3-5.6-1-8.1,0.3c-0.6,0.3-1,0.8-1.6,1.2c-0.2,0.1-0.4,0.3-0.6,0.4
	c-3.3,0.4-6.5,0.8-9.8,1.1c-0.3,0-0.5,0.1-0.7,0.1c-4.4-1-7.9-1.5-12.6,0.5c-5.7,2.6-10.5,5.9-16.3,8c-1.7-0.2-3.5-0.1-5.3,0.4
	c-2.6,0.7-6.4,2.2-7.2,4.9c-0.8,0.7-1.6,1.5-2.3,2.4c-3.1,4.1-4.2,9.2-6.1,13.9c-0.6,1.4-1.2,2.8-2,4c-0.9,0.6-1.7,1.1-2.3,1.7
	c-1.4,1.2-2.6,2.6-3.8,4c-1.2,0.7-2.3,1.4-3.1,2.6c-2.7,3.9-0.3,8.6,1,12.5c0.1,0.4,0.2,0.8,0.3,1.2c-0.7,1.1-1.2,2.3-1.5,3.6
	c-0.5,0.6-0.9,1.3-1.1,2.3c-0.4,1.8-0.9,3.6-1.3,5.4c-0.1,0.3,0,0.9-0.3,1.1c-1.7,1.1-2,2.5-2,4c-0.6,1.1-1.2,2.2-1.6,3.4
	c-1,2.8-1.5,5.7-1.6,8.7c-1.5,2.2-1,4.7,0.4,6.6c0,0.1,0,0.2,0.1,0.4c-0.6,0.1-1.1,0.5-1.3,1.4c-0.1,0.3-0.2,0.7-0.2,1.1
	c-1,0.5-2,0.9-2.2,1c-1.1,0.8-1.2,1.2-1.4,2.4c-0.1,0.8,0.4,1.4,1.2,1.2c0.4-0.1,0.7-0.1,1-0.1c-1,2.8-1.2,5.8-0.2,8.6
	c0.7,1.8,1.8,3,3,3.7c-0.4,1.3-0.8,2.5-1.2,3.7c-0.6,1.6-0.7,3.1-0.3,4.8c0.6,2.5,0.8,5.2,1,7.7c0,0.1,0,0.2,0,0.2
	c0,0.3,0,0.6-0.1,0.9c-1.2,0.9-2.2,2.2-2.6,3.7c-0.6,2,0.7,4.5,2.8,4.9c0.1,0,0.3,0,0.4,0.1c0,0,0.1,0.1,0.1,0.1
	c-0.1,0.7-0.1,1.4-0.2,2.1c-3.6,2-3.9,6.1-0.2,8.8c-0.7,3.6-1.3,7-1.2,10.8c-0.2,1.1-0.1,2.3,0,3.4c0.4,2.5,0.8,5.1,1.2,7.6
	c0.1,0.7,0.2,1.4,0.1,2.1c-0.3,1.7-0.8,3.5-1.2,5.5c-0.4,0.1-0.9,0.4-1.5,0.5c-5.1,1-9.7,7.2-9.2,12.5c0.2,1.9,0.1,3.7,0.1,5.6
	c0.1,8.1-0.3,16.2,1.9,24c1.4,5.1,1.2,10.1,0.8,15.3c-0.1,1-0.2,2.1,0,3.1c0.6,3.3,0.4,6.6-0.6,9.8c-0.8,2.6-0.8,5.3,0.5,7.8
	c1.4,2.6,2.9,5.2,4.8,7.5c2.2,2.6,4.2,5.2,4.1,8.9c0,1.7,0.6,3.4,1,5.1c0.5,2.2,1.6,3.8,4.2,3.5c0.2,0,0.3,0.2,0.8,0.6
	c0.5,3.6,1.2,7.4,1.5,11.3c0.7,10.8,2.2,21.5,3.9,32.2c0.2,1.5,0.3,3.1,0.5,4.6c0.4,3.3,0.4,6.8,1.1,10.1c1.5,7.1,1.9,14.3,2.6,21.5
	c0.4,4.7,1.9,8.7,4.5,12.3c0.9,1.2,2.1,2.3,3.3,3.2c7.8,5.7,15.8,11.2,23.6,16.9c3.7,2.7,7.2,5.7,10.8,8.7
	c4.5,3.8,8.9,7.6,13.4,11.4c3,2.5,5.9,5.1,9.2,7.2c4.8,3,9,6.8,13,10.8c4.7,4.6,10,7.7,16.4,8.6c8.7,1.2,17.4,0.8,26.1-0.9
	c6.9-1.3,11.2-5.9,15.1-11c3.3-4.4,5.8-9.5,9.3-13.8c7.3-9.1,15-18,22.6-27c0.2-0.3,0.6-0.8,0.9-0.8c1.8-0.1,2.3-1.6,3-2.8
	c3.6-6.1,8.2-11.4,13.1-16.4c3.1-3.1,6-6.3,9.3-9.1c4.1-3.5,5.5-8,5.5-13.2c0-1.9,0.2-3.8-0.2-5.6c-0.9-4.5-0.1-9.1,0.4-13.5
	c1.2-10.8,2.1-21.6,2.4-32.4c0-0.8,0.1-1.5,0.2-2.2c0.3-3.7,0.8-7.5-0.4-11.4c0.8-0.1,1.3-0.3,1.9-0.4c4.2-0.5,5.7-1.8,6.8-5.9
	c0.6-2,0.9-4.1,1.6-6c1.4-3.7,2.1-7.6,1.9-11.5c-0.4-5.9,0.1-11.7,2.3-17.3c0.2-0.5,0.2-1,0.3-1.5c1.2-5.4,2.2-10.9,4.3-16.1
	C-120.7,762.7-120,755.7-120.3,748.5z M-154.2,581.8c0.4,1.6,0.7,3.2,0.8,4.9c-0.5-0.5-1-0.9-1.6-1.3
	C-154.6,584.3-154.3,583-154.2,581.8z M-156.9,593.7c-0.6,2.8-1.2,3.5-4,3.8c-1.6,0.2-1.9,0.3-3.2-0.8c-0.8-0.7-1.6-1.5-2.3-2.3
	c2.4-0.6,4.8-1.9,6.7-3.2c0.6-0.4,1.2-0.9,1.7-1.4C-156.6,590.6-156.4,591.3-156.9,593.7z M-159.6,578.5c0,0,0,0.1,0.1,0.1
	c0.6,1.7,0.6,3.2,0.1,4.5c-1.6-0.6-3.3-1-5-1.1C-162.7,580.5-160.9,579.3-159.6,578.5z M-163,587.4C-163,587.4-163,587.4-163,587.4
	c-0.1,0.1-0.2,0.2-0.3,0.2c-0.8,0.6-1.6,1-2.5,1.3c-1,0.9-1.6,0.7-1.6-0.7C-169.4,585.5-164.3,587-163,587.4z M-166.6,573.1
	c-0.7,0.7-1.5,1.4-2.1,1.9c-0.7,0.6-2.8,2.1-4.4,3c-0.4-0.1-0.9-0.2-1.4-0.3c0.2-0.3,0.4-0.6,0.6-0.9c0.3,0,0.7-0.1,1-0.1
	c1.6-0.2,2.6-1.7,2.4-3.1c0.9-0.4,1.9-0.6,3-0.6C-167.2,573-166.9,573.1-166.6,573.1z M-175.8,561.4c1.6-0.2,3.1-0.4,4.6-0.7
	c1,0.6,2,1.2,3,1.9c-2.8-0.3-5.7-0.3-7.7-0.4C-175.9,562-175.9,561.7-175.8,561.4z M-177.7,567.2c0.2,0,0.5,0,0.7,0
	c2.9,0.1,5.8,0.3,8.6,0.7c0.3,0,0.6,0.1,0.9,0.1c-3,0-6,1-8.3,3c-1.4-0.2-2.8-0.4-4.3-0.6C-179.1,569.6-178.3,568.5-177.7,567.2z
	 M-183.1,555.9c0.8,0.2,1.6,0.4,2.4,0.7c0,0.1,0,0.1,0.1,0.2c-2.7,0.1-5.4,0-7.8-0.5c0-0.4,0-0.9,0-1.3
	C-186.7,555.2-184.9,555.5-183.1,555.9z M-188.5,561.3c2.4,0.4,4.9,0.5,7.4,0.5c0,0.2-0.1,0.3-0.1,0.5c-2.4,0.2-5,0.8-6.6,2.2
	c0-0.1,0-0.1,0-0.2c0-0.8-0.3-1.5-0.7-2C-188.5,562-188.5,561.7-188.5,561.3z M-191.2,576c2.6,0.7,5.4,1,8.2,1.1
	c0.5,0.6,0.6,1.5,0.2,2.7c-0.9,0.2-1.8,0.3-2.7,0.5c-1.7,0.2-3.5,0.2-5.2,0.1c0,0-1.2-0.1-2.6-0.3c0.5-0.9,0.4-1.9-0.4-2.9
	c-0.1-0.1-0.3-0.3-0.4-0.4C-193.2,576.4-192.2,576.2-191.2,576z M-207.9,557.2c2.8-0.2,6,1.5,8.4,3c-0.8,0.4-1.4,0.9-1.9,1.5
	c-2.5-0.7-4.9-0.9-7.2-0.8c-0.3-1.1-1.5-2-2.7-2C-210.4,558-209.2,557.3-207.9,557.2z M-201.3,568.7c-0.9,0.1-1.8,0.1-2.6,0.1
	c-1.2,0-2.8,0.1-4.4-0.1c2.1-0.6,4.2-0.9,6-1c0.2,0,0.4,0,0.6,0C-201.6,568-201.5,568.3-201.3,568.7z M-211.9,577.2
	c1.6-0.3,3.3-0.4,5-0.3c-0.1,0.2-0.3,0.5-0.4,0.7c-0.1,0-0.2,0.1-0.3,0.1c-2.1,0.9-4.3,1.5-6.6,1.9
	C-213,579.1-212.3,578.2-211.9,577.2z M-226.2,552.7c0.2-0.1,0.6,0.4,0.9,0.6c-0.3,0.4-0.7,0.9-1.1,1.1c-0.2,0.1-0.6-0.3-1.3-0.6
	C-227,553.3-226.6,552.9-226.2,552.7z M-227.4,564.8c0.5-0.8,1.1-1.5,1.7-2.1c0.6,0.1,1.2,0.2,1.8,0.3c1.4,0.3,3.2,0.7,5,1.3
	c-1.9,1-3.8,2.1-5.6,3.2c-3.3-0.7-7.3-1.7-10.5-0.7c-0.1,0-0.2,0.1-0.3,0.1c0-0.4-0.2-0.9-0.5-1.4
	C-233.2,564.7-230.2,564.4-227.4,564.8z M-260.5,563.4c0,2.2-1.5,2.6-3.8,2.7c-0.2-2.2,0-3.7,2.3-3.8
	C-261.5,562.3-260.5,563-260.5,563.4z M-264.2,553.4c0.3,0.2,0.7,0.5,1,0.8c-0.6,0.6-1.1,1.2-1.5,1.8c-0.3-0.1-0.5-0.3-0.8-0.5
	C-265.1,554.8-264.6,554.1-264.2,553.4z M-273,582.6c0.3,2.6-1,3.7-2.7,4.6c-0.3-0.2-0.6-0.5-0.9-0.8
	C-275.4,585.1-274.2,583.9-273,582.6z M-285.1,564.7c0.9-1.1,2.1-2.4,3.6-3.5c1,0.3,1.9,0.6,2.4,1c-0.2,0.6-0.5,1.3-1,1.9
	c-1.5,1.9-4,2.4-6.4,2.4C-286,565.9-285.5,565.3-285.1,564.7z M-289.8,553c0.2,0.6,0.3,1.3,0.5,1.9c-0.4,0.1-0.7,0.1-1,0.2
	c-0.1-0.6-0.3-1.2-0.3-1.9C-290.6,553.1-289.8,553-289.8,553z M-291.9,562.9c0.2,0.8,0.3,1.7,0.1,2.6c-0.1,0.1-0.2,0.3-0.3,0.4
	c-1.6-0.2-3.9-0.6-5-1.3C-295.1,564.2-293.3,563.6-291.9,562.9z M-296.3,573.4c0.2,0.2,0.4,0.3,0.6,0.5c-0.5,0.7-1,1.5-1.5,2.2
	c-0.3-0.3-0.7-0.5-1-0.8C-297.5,574.7-296.9,574-296.3,573.4z M-299.9,593.1c0.9,0.7,1.9,1.2,3,1.4c-1.3,0.5-2.4,1.2-3.4,2.2
	c0-0.8-0.1-1.6-0.2-2.5C-300.2,593.9-300,593.5-299.9,593.1z M-312.8,556.4c0.2-0.1,0.4-0.2,0.6-0.3c0,0.1-0.1,0.2-0.1,0.2
	c-0.3,0.2-0.5,0.3-0.8,0.5c-0.2,0-0.4,0-0.6,0C-313.4,556.7-313.1,556.6-312.8,556.4z M-315.9,568.3c0.1,0.1,0.2,0.1,0.2,0.2
	c0,0.6,0.1,1.2,0.2,1.8c-0.9-0.2-1.7-0.5-2.5-0.8C-317.2,569.1-316.5,568.7-315.9,568.3z M-327.3,584.3c0.6,0,1.2,0.1,1.8,0.1
	c-0.4,0.3-0.8,0.6-1.1,1c-0.2,0.1-0.3,0.2-0.5,0.3C-327.3,585.3-327.4,584.8-327.3,584.3C-327.4,584.3-327.4,584.3-327.3,584.3z
	 M-340.6,586.4c0.2,0.5,0.6,1,0.9,1.5c-1.2,0-2.4,0.2-3.5,0.5C-342.3,587.8-341.4,587.1-340.6,586.4z M-355.9,826.5
	c-0.5-1-1-1.7-1.1-2.6c-0.4-1.7-0.8-3.5-0.9-5.2c-0.2-3.3-1.5-5.9-3.8-8.2c-2.4-2.4-4.1-5.2-5.3-8.3c-0.8-1.8-1-3.5-0.5-5.4
	c1-3.8,1.4-7.6,0.8-11.6c-0.2-1.6-0.1-3.3,0.1-4.9c0.7-5.1,0.2-10.1-1.1-15c-1.9-6.9-1.3-13.9-1.5-20.9c-0.1-2.7,0.1-5.5,0.1-8.3
	c0-3.9,2.6-6.4,5.4-8.5c2-1.4,4.5,0,4.6,2.5c0.1,4.5,0,8.9,0,13.5c0.8,0.3,1.4,0.4,2,0.6c1.5,5.9,0.2,11.7-0.6,17.6
	c-0.6,4.7-1.3,9.4-1.6,14.1c-0.4,5.3-0.4,10.7-0.6,16c-0.1,3.6,0.5,7,2,10.2c1,2.1,1.6,4.2,1.8,6.5c0.3,3.7,0.7,7.3,1.1,11
	c0.2,1.2,0.4,2.4,0.6,3.6C-354.2,824.6-354.1,824.6-355.9,826.5z M-144.6,817.1c-1.1,9-1.2,18.1-1,27.2c0.1,5.4,0.1,10.8-0.3,16.1
	c-0.7,9.2-1.7,18.3-2.6,27.4c-0.1,0.9-0.2,1.9,0.1,2.7c1.9,4.8,0.6,9-2.4,12.6c-2.8,3.3-6,6.2-9.1,9.2c-2.8,2.8-5.9,5.2-8.4,8.2
	c-6.5,7.7-13,15.4-19.2,23.4c-6,7.7-12.9,14.7-18.2,23c-1.4,2.2-3.5,4-5.1,6.1c-1.2,1.6-2.2,3.2-3.3,4.9c-2.4,3.8-6,5.9-10.2,7
	c-7.9,1.9-15.9,2.4-24,1.8c-5.8-0.5-11-2.4-14.9-7.1c-1.4-1.7-3.1-3.1-4.8-4.4c-4.1-3.3-8.3-6.4-12.4-9.7c-8-6.6-16-13.3-24-20
	c-4.3-3.6-8.7-7.2-13.1-10.8c-0.6-0.5-1.5-0.9-1.8-1.6c-0.9-2.3-2.9-3.4-4.9-4.5c-2.9-1.6-5.7-3.3-8.7-4.7
	c-5.5-2.5-7.9-7.1-8.6-12.7c-0.9-7-1.1-14.1-2.7-21.1c-0.4-1.9-0.8-3.9-1-5.8c-1.2-10.1-2.6-20.3-3.6-30.4
	c-0.9-8.1-1.3-16.3-1.9-24.4c-0.5-6.1-0.9-12.1-1.3-18.2v-2.6c1.7,1.6,2.8,2.8,4,3.9c1.2,1,1.8,2.7,4.1,2.9c-0.4-1-0.5-1.6-0.8-2
	c-1.5-1.8-2.9-3.5-4.4-5.2c-1.8-2.1-3.7-4.2-5.5-6.3c-2.4-2.9-3-6.2-3.2-9.8c-0.3-6.7,1.2-13.3,1.1-20c-0.1-7.9,1.2-15.8,2.3-23.7
	c1.2-8.9,1.4-17.8,0.3-26.8c-0.2-1.1,0-2.2,0.3-3.3c1.2-5.2,1.9-10.5,1.2-15.9c-0.4-2.6-0.7-5.3,0.6-7.9c0.3-0.6,0.3-1.4,0.3-2.1
	c0-3.1,0-6.2-0.3-9.3c0-0.2,0.1-0.5,0.1-0.7c0-1.2-0.1-2.4-0.1-3.6c0-0.2,0-0.4-0.1-0.5c0.9-0.7,1.6-1.8,1.6-3.4c0-2.1,0-4.2,0-6.3
	c1.1-1.6,1.1-3.9,0-5.4c0-0.4,0-0.7,0-1.1c1.9-1,2.4-2.7,2-4.3c1.4-2.6,2.5-5.3,3.3-8.1c1.6-1.7,2.5-3.9,1.8-6.3
	c-0.2-0.9-0.4-1.7-0.5-2.5c0.2-0.3,0.3-0.5,0.5-0.8l1.3-2.1c6-2.6,8.4-9.7,10.7-15.7c2.2-5.6,5.5-9.9,9.9-13.9
	c1.4-1.3,3.4-3.2,5.6-4.8c3.1-1.4,6.2-2.5,9.5-3.4c0,0,0.1,0,0.1,0c0.2,0.1,0.5,0.2,0.7,0.3c0,1.3,1.4,2.5,2.7,2.4
	c0.1,0.1,0.2,0.3,0.3,0.5c0.4,0.6,1.4,0.7,1.7,0c0.3-0.5,0.6-1,0.9-1.5c3.6-1.5,6.8-3.5,9.6-6c0.5,0.1,1.1,0.2,1.7,0.2
	c1.6-0.1,3.2-0.3,4.6-0.6c2.1,0.1,4.1,0.2,5.7-0.1c1.2-0.2,2.4-0.5,3.6-0.8c0.9-0.2,1.8-0.4,2.7-0.8c0.7-0.3,1.3-0.6,1.9-1
	c2.5-1.2,4.8-2.7,6.9-4.6c5.1,0.9,10.8,1.2,14.8-1.7c1.1-0.8,2-2.3,2.1-3.5c2.6-0.3,5.1-0.2,7.6,0c2.5,0.9,5,2.2,7.3,3.7
	c-0.1,0.2-0.2,0.4-0.2,0.5c0.3,0.3,0.6,0.6,0.9,0.9c1.4,1.7,3.8,2.4,6.3,2.3c0.3-0.1,0.5-0.3,0.7-0.5c0.4-0.1,0.9-0.3,1.3-0.4
	c0.9-0.2,1.9-0.4,2.8-0.6c0.5-0.4,1-0.8,1.4-1.3c2.3-2.9,6.7-3.1,10-1.7c1.1-0.3,2.3-0.7,3.4-1.1c1.6,0.5,3.2,0.8,4.8,0.9
	c2.9,0.4,6,0.2,8,0.3c1.6,0,3.4,0.1,5.2,0.2c2.6,1.1,5.2,2.3,7.7,3.4c0.5,2.7,2.4,5.2,5.8,5.6c0.5,0.8,1,1.6,1.7,2.4
	c2.2,2.5,6,3.4,7.2,6.8c0.3,0.7,1.1,1,1.7,0.4c0.4-0.4,0.9-0.8,1.3-1.2c0.1,1.2,0.8,2.3,2.3,2.3c-0.2,0.7-0.4,1.3-0.5,1.7
	c0.1,0.1,0.1,0.2,0.2,0.3c-0.1,0.4,0.1,0.8,0.5,1c0,0,0.1,0.1,0.1,0.1c0.6,1.2,1.2,2.4,1.8,3.7c0.1,0,0.2,0,0.4,0.1
	c0.5,1,1,2.1,1.4,3.2c1,3,1.6,6,1.8,9.2c0.1,2,1,3.5,2.2,4.6c0.1,0.7,0.3,1.4,0.4,2.1c0.3,1.4,0.8,2.7,1.3,4.1
	c-0.6,0.4-1.1,1.1-1.2,2c-0.3,6.5,1.4,12.6,1.2,19c-0.1,4.1-0.6,6.3,3,7.4c0.3,0.3,0.6,0.4,1,0.5c0,0.1,0.1,0.3,0.1,0.4
	c0.2,0.6,0.5,1.2,0.9,1.6c0,1.9-0.1,3.9-0.3,5.8c-0.1,0.8,0.1,1.4,0.4,2c-0.5,7.7,0.3,15.5-0.1,23.2c0,0.2,0.2,0.3,0.3,0.5
	c0.7,0.2,1.4,0.5,2.2,0.8c-0.4,2.7-0.9,5.2-1.1,7.8c-0.3,3.4-0.7,6.8-0.5,10.2c0.3,6,1.3,12,1.5,18.1c0.2,7.4,0,14.8,1.2,22.2
	c1.1,6.3,1.4,12.8,2.1,19.2c0.4,3.5,0.9,7.1,1.4,10.7c0.4,3.2-0.3,6.2-2,8.9c-2.1,3.3-4,6.5-6,9.8c-2.2,3.7-4.1,7.6-5,11.9
	c-0.1,0.7,0,1.5,0,3c3.7-2.1,3-6.3,5.7-8.8C-144.6,814.4-144.4,815.7-144.6,817.1z M-126.5,768.5c-2.3,5.8-3.3,11.9-4.8,17.9
	c-0.4,1.5-0.9,3-1.2,4.5c-0.5,2.7-1.2,5.5-1.1,8.2c0.2,6.1-0.1,12-2.2,17.7c-0.6,1.6-0.8,3.4-1.3,5.1c-0.9,3.3-2,3.9-5.9,2.9
	c0.3-3.6,0.5-7,0.9-10.5c0.3-2.9,0.4-5.8,1-8.6c0.4-1.9,1.4-3.7,2.6-5.2c3.7-4.7,4.2-9.8,3.4-15.5c-1.4-10-2.6-20.1-3.8-30.1
	c-0.1-0.7-0.2-1.5,0.1-2.1c2.3-4.4,2.2-9.1,1.9-13.9c0-1.1,0.1-2.3,0.1-3.4c0.1-3.1,0.2-6.2,0.2-9.3v-9.6c0-2.2,1.6-2.9,3.2-3.7
	c1.6-0.8,2.4,0.3,3.4,1.3c2.3,2.3,2.8,5.3,3.4,8.2c1.1,5.5,1.8,11,2.5,16.5c0.4,3.3,0.5,6.6,0.7,9.9
	C-123,755.6-124.1,762.2-126.5,768.5z"/>
</svg>
