<?xml version="1.0" encoding="utf-8"?>
<!-- Generator: Adobe Illustrator 19.0.0, SVG Export Plug-In . SVG Version: 6.00 Build 0)  -->
<svg version="1.1" id="Layer_9" xmlns="http://www.w3.org/2000/svg" xmlns:xlink="http://www.w3.org/1999/xlink" x="0px" y="0px"
	 viewBox="-499 501 500 500" style="enable-background:new -499 501 500 500;" xml:space="preserve">
<path d="M-537,1409.5c-0.1-0.2-0.3-0.5-0.4-0.7c0.2-0.1,0.4-0.3,0.5-0.3c0.2,0.1,0.3,0.4,0.5,0.6
	C-536.6,1409.2-536.7,1409.3-537,1409.5z"/>
<path d="M-271.4,766.3C-271.4,766.3-271.4,766.3-271.4,766.3c0-0.1,0-0.1,0-0.1c0.5-1.2-1.2-2.2-1.7-1c-0.3,0.7-0.7,1.4-1,2.1
	c-0.3-0.4-0.9-0.7-1.3-1.1c-0.4,0.5-0.6,0.6-0.7,0.8c-0.2,0.2-0.3,0.5-0.4,0.8c-2.9,8.2-8.5,13.5-16.8,15.9
	c-6.3,1.9-12.5,2-18.7-0.7c-1.4-0.6-2.8-1.2-4.3-1.7c-4.3-1.4-7.5-4.2-10-7.9c-0.3-0.6-0.9-1-1.4-1.5c-0.1-1.8,0-3.6,0.4-5.4
	c0.2-1.3-1.7-1.8-1.9-0.5c-1.2,6.3-0.2,12.4,3.1,17.9c0.7,1.1,2.4,0.1,1.7-1c-1.6-2.7-2.6-5.5-3-8.4c1.6,1.9,3.2,4,5.1,5.7
	c3.7,3.4,8.7,4.3,13.1,6.1c2,0.8,4.2,1.3,6.3,1.5c5.2,0.6,10.2-0.5,14.8-2.6c2.5-1.2,4.9-2.6,7-4.4c0.4,0.5,1.3,0.3,1.6-0.2
	c1.3-1.9,2.5-3.8,3.7-5.7c0.4-0.4,0.8-0.7,1.1-1c-2.3,6.7-5.4,12.8-10,18.1c-1.8,2.1-4.2,3.8-6.6,5.4c-2.9,2-5.9,1.4-8.6-0.6
	c-1.8-1.3-3.4-3-5.1-4.5c-0.8-0.7-1.5-1.6-3.3-0.7c2.8,2.4,5.2,5,8,6.7c3.8,2.3,7.9,2.6,11.9-0.2c5.2-3.6,9.1-8.4,12-13.9
	c1.4-2.6,2.4-5.3,3.5-7.9c-0.1,1.5-0.2,3-0.4,4.4c-0.2,1.3,1.8,1.3,2,0C-270.8,775.8-270.8,771-271.4,766.3z"/>
<path d="M-261.7,818.9c1.8,0.1,2.2-2.8,4.3-1.3c-1.2,2-2.5,3.8-3.4,5.8c-1.3,2.9-2.3,5.9-3.5,8.9c-0.2,0.6-0.8,1.4-1.2,1.4
	c-1.2,0.1-1.2-1-1-1.8c0.8-2.6,1.5-5.1,2.6-7.6c0.6-1.4,1-2.6,0.5-4.1c-1.7-5.6-2.1-11.3-2.4-17.1c-0.2-5.4-0.5-10.7-0.4-16.1
	c0-5.5,0.2-10.9,0.8-16.4c0.4-4.2,0.2-8.4-0.1-12.6c-0.4-7.6-0.8-15.2-1.2-22.8c0-1,0.1-2,0.2-2.9c1.5-0.6,2.1,0,2.2,1.1
	c0.1,1.4,0,2.9,0.1,4.3c0.6,10.4,1.2,20.8,1.8,31.2c0.1,2.3,0.1,4.4-0.8,6.7c-0.6,1.6-0.5,3.4-0.6,5.2c-0.5,11.9-0.4,23.7,1.4,35.5
	C-262.3,817.2-261.9,818.1-261.7,818.9z"/>
<path d="M-230.3,814.2c2.1-1.2,3,0.6,4.7,1.5c0.1-2.5,0.3-4.6,0.3-6.8c0-7.6,0-15.2-0.2-22.9c-0.2-5.7-0.8-11.3-1-17
	c-0.1-1.2,0.4-2.3,0.6-3.5c0.2-0.9,0.5-1.8,0.5-2.7c0.5-9.7,0.6-19.4-0.8-29c-0.1-1-0.1-2-0.2-3.6c0.8,0.7,1.4,0.9,1.5,1.3
	c1.7,4.5,2.1,9.2,2,14c-0.1,6.7-0.1,13.4-0.7,20c-0.6,6.5-0.1,13,0,19.4c0.2,9.2-0.1,18.3-0.2,27.5c0,1.5-0.7,3.1-1.2,5.1
	c4.3,12.3,4.3,12.3,2.1,14c-0.3-1.1-0.5-2-0.8-2.9C-224.9,823.6-226.8,818.6-230.3,814.2z"/>
<path d="M-228.1,853.5c-2,0.9-4.1,3.2-6.3,5.3c-3.7,3.7-8.2,5.6-13.4,4.6c-2.8-0.5-5.5-1.7-8.1-2.9c-3.3-1.6-6.6-3.4-9.8-5.2
	c-1.5-0.8-2.7-1-4.3,0s-3.6,0.8-4.5-0.3c-0.3-0.4-0.6-1.2-0.4-1.6c0.8-1.6,2.3-2.3,4-2.3c0.9,0,1.8,0.3,2.6,0.7
	c5.3,2.6,10.4,5.3,15.7,7.8c6.1,2.9,11.4,1.7,16.4-3c2.9-2.7,6.2-5.1,9.5-7.4c2.9-2,6.5-1.4,8.9,1.4c0.4,0.5,0.7,1.4,0.5,1.9
	c-0.5,1.3-1.5,2.4-3,2.2C-222.7,854.5-225,854-228.1,853.5z"/>
<path d="M-270.2,857.6c-0.7,0-1.3,0.6-2,0.8c-1.5,0.4-3,1-4.5,1.1c-5.7,0.2-7.3-2.3-4.9-7.5c0.1-0.2,0.3-0.5,0.4-0.8
	c0.4-1.3,0.9-2.7,1.3-4.1c-0.1-0.1-0.3-0.2-0.4-0.3c1-0.7,2.1-1.5,3.5-2.4c-1.9-1.1-2.7-1.2-4-0.3c-1,0.7-2,1.6-2.6,2.6
	c-2.5,4-4.9,8-7.4,11.9c-0.3,0.9-0.7,1.9-0.7,2.9c0,0.8-0.2,1.5-0.5,2.1c-0.1,1.1-0.2,2.3-0.2,3.4c1.4-2.3,2.9-4.6,4.9-6.5
	c0.3,0.2,0.7,0.3,0.8,0.5c1.6,2.5,3.7,2.4,6.2,1.5c1-0.3,2-0.3,3-0.5c2.7-0.6,5.4-1.2,8-2c0.5-0.1,0.8-1,1.2-1.6
	C-268.8,858.1-269.5,857.6-270.2,857.6z"/>
<path d="M-183.4,761.2c-0.2,0.6-0.5,1.3-0.6,1.9c-0.2,2.7-1.9,4.2-4.1,5.3c-3.2,1.6-6.5,1.7-9.8,0.3c-2.8-1.2-3.8-3.2-3.4-6.1
	c0.6-4.2,3.1-6.8,6.9-8.4c0.9-0.4,2.2-0.3,3.3,0c3,0.8,5.5,2.2,6.7,5.3C-184.3,760.2-183.7,760.7-183.4,761.2z M-191.7,757.4
	c-1.2,1.7-2.2,2.5-2.5,3.6c-0.3,0.9,0,2.4,0.6,3c0.4,0.5,1.9,0.4,2.8,0.1c1.3-0.4,1.5-1.7,1.1-2.8
	C-190.2,760.2-190.8,759.2-191.7,757.4z"/>
<path d="M-303,773c-0.6-0.1-1.7-0.1-2.8-0.4c-4-1-6-4.7-4.9-8.6c0.8-2.6,1.8-5.1,4.3-6.5c2.6-1.5,5.2-1.7,7.9-0.2
	c1.8,1.1,4.7,7.8,4.2,9.8C-295.1,770.2-298.9,773-303,773z M-299.9,764.2c-0.7-0.4-1.4-1.1-2.2-1.4c-1.5-0.7-2.9,0.2-3.1,1.9
	c-0.1,1.6,0,3.3,1.4,4.1c1.3,0.8,2.8,0.3,4-0.6c0.2-0.1,0.3-0.3,0.4-0.5C-299.5,766.6-299.7,765.4-299.9,764.2z"/>
<path d="M-327.7,760.9c0.6-1,1.1-2.1,1.9-2.9c5.9-6,12.7-10.9,20.9-13.2c4.8-1.4,9.7-1.7,14.6,0.1c1.4,0.5,3,0.8,4.4,1.5
	c2.8,1.3,5.3,3.2,7.1,5.7c1.8,2.5,3.9,4.8,5.8,7.2c0.3,0.3,0.6,0.7,0.6,1.1c0,0.6-0.3,1.3-0.4,1.9c-0.6-0.2-1.4-0.3-1.7-0.8
	c-1.9-2.5-3.7-5.2-5.6-7.7c-4.8-6.4-11.6-8.1-19-7.5c-7.8,0.6-14.5,4.4-20.5,9.2c-2,1.6-3.9,3.4-5.8,5c-0.4,0.4-1,0.6-1.5,0.9
	C-327.2,761.3-327.5,761.1-327.7,760.9z"/>
<path d="M-199.8,853.6c0-0.1,0-0.1,0-0.2c-0.6-1.1-1.4-2.1-2.2-3.1c-2-2.5-4.1-4.8-6.1-7.3c-1.7-2.1-3.9-3.3-6.3-4.3
	c-1.5-0.7-2-0.3-3.2,1.9c2.8,0,4.5,1.8,6.3,3.4c2.3,2.1,2.8,4.3,1.4,7.2c-2,4.2-5.5,6.2-10.1,6.5c-1,0-2.3-0.4-3.1,1.4
	c5.3,1.1,9.8,0.1,13.4-2.9c0.7,0.7,1.3,1.1,1.8,1.6c0.6-0.5,1.1-0.8,1.7-1.2c-0.3-1.7-0.7-3.4,2-4.1c1,1,2.1,2,3.2,3
	C-200.6,854.9-200.2,854.2-199.8,853.6z"/>
<path d="M-233.2,862.4c0.5,2,1.1,4,1.5,6.1c0.6,3.4,1.3,6.9,1.5,10.4c0.2,3.3-2.2,6.2-5.5,7.3c-1.3,0.4-2.5,1.1-3.8,1.4
	c-2.4,0.6-4.8,0.5-6.8-1.2c0-0.2,0.1-0.5,0.1-0.7c0.8,0.1,1.6,0.2,2.5,0.4c4.4,0.9,6.7-0.5,8.4-4.8c1.2-3,0.8-5.9,0.3-8.8
	c-0.4-2.3-1-4.6-1.8-6.9c-1-3-0.7-3.5,2.3-3.5C-234.2,862.1-233.9,862.3-233.2,862.4z"/>
<path d="M-167.2,766.8c-1.2,1.9-2.3,3.9-3.7,5.6c-1.4,1.6-2.8,3.5-4.6,4.4c-3,1.4-6.2,2.3-9.4,3c-3,0.6-6.1,0.8-9.2,0.8
	c-8.9-0.2-16.7-2.5-20.9-11.4c-0.5-1-1.1-1.8-2.5-2.2c0-1.7,0-3.3,0-5c0-0.2,0-0.3-0.1-0.4c0.1-0.2,0.3-0.5,0.4-0.7
	c2.6-4,5-8.1,7.9-11.8c6.6-8.4,19.1-11.9,29.8-4.3c2.2,1.5,4.1,3.1,5.3,5.5c1.7,3.4,3.5,6.9,5.3,10.4c0.3,0.7,0.7,1.5,1.2,2.1
	c0.1,0.3,0.9,0.4,1,0.3c0.4-0.3,0.5-0.9,0.6-1.3c0.1-0.2-0.2-0.5-0.3-0.8c-2.3-4.2-4.3-8.7-6.9-12.7c-3.7-5.7-9.3-9.1-16-9.9
	c-8.5-1.1-16,1.6-21.4,8.4c-3,3.8-5.5,8-8.1,12c-0.4,0.7-0.8,1.5-0.8,2.3c0,0.2,0.1,0.3,0.2,0.5c0,0.1-0.1,0.2-0.1,0.4
	c0,2.2,0,4.5,0,6.7c-0.4,1.2-0.6,2.5-0.5,3.7c-0.2,0-0.4,0-0.6,0.1c-1.1,10,4.5,18.8,11.4,23.1c5.7,3.6,12.1,4.6,18.6,4.8
	c3,0.1,6.1-0.2,8.7-2.2c-5.6,1.5-11.2,0.7-16.8-0.3c-9.7-1.7-18-9.8-19.2-19.3c0-0.1,0-0.3-0.1-0.4c0.9,1.2,2,2.1,3.4,2.9
	c1.1,0.6,2.1-1.1,1-1.7c-1.9-1-3.2-2.6-3.9-4.4c0-1.9,0-3.7,0-5.6c0.9,2.7,2.1,5,4.3,6.8c4.4,3.2,9,5.8,14.5,6.6
	c7.3,1.1,14.4,0,21.4-2.1c3.4-1,6.5-2.9,8.6-6.1c1-1.5,2-2.9,2.9-4.4C-164.8,768.4-164.8,768.2-167.2,766.8z"/>
<path d="M-343.3,746.3c0.9-3.7,12.9-18.6,16.2-20c-1.6,2.3-3.1,4.6-4.8,6.9c-1.7,2.3-3.3,4.7-5.2,6.9
	C-338.9,742.1-339.8,745.1-343.3,746.3z"/>
<path d="M-224.3,877.7c-0.9-1.9-1.9-3.8-2.7-5.7c-1.1-2.6-2.1-5.2-3.1-7.7c-0.5-1.2-1-2.5,0.3-4.1c2.8,5.8,4.4,11.6,6.8,17.1
	C-223.4,877.3-223.8,877.5-224.3,877.7z"/>
<path d="M-259.8,865.8c-0.5,1-0.9,3.4-1.2,5.9c-0.3,0.2-0.5,0.4-0.5,0.8c-0.2,3.2-0.4,6.3-0.6,9.5c-0.1,1.3,1.9,1.3,2,0
	c0.1-1.3,0.2-2.6,0.2-3.8c0.7-1.3,0.8-3.3,1-9.8C-258.8,867.4-258.5,866.3-259.8,865.8z"/>
<path d="M-324.5,595.3c2.6,0,5.3,0,7.9,0l0,0C-319.2,595.4-321.8,595.4-324.5,595.3C-324.5,595.4-324.5,595.3-324.5,595.3z"/>
<path d="M-236.6,816.4c-0.1,0.7-0.1,1.5-0.2,2.6C-238.3,817.9-238.2,817.1-236.6,816.4z"/>
<path d="M-150.9,705.3c0.3-0.5,0.5-1,0.8-1.5l0.7,0.3c-0.2,0.6-0.4,1.1-0.6,1.7C-150.3,705.6-150.6,705.4-150.9,705.3z"/>
<path d="M-113.3,728.7c-0.6,0.3-0.9,0.7-1.2,0.7c-0.2,0-0.5-0.5-0.7-0.8c0.4-0.3,0.7-0.6,1.1-0.7
	C-114.1,727.8-113.7,728.3-113.3,728.7z"/>
<path d="M-304.8,658.4c-0.5-0.6-1.1-1.2-1.6-1.7c0.2-0.2,0.3-0.4,0.5-0.5c0.6,0.5,1.2,1,1.8,1.5
	C-304.3,657.9-304.5,658.1-304.8,658.4z"/>
<path d="M-288.2,595.2c0.6,0,1.2,0,1.8,0c0,0.1,0,0.1,0,0.2c-0.6,0-1.2,0-1.8,0C-288.2,595.3-288.2,595.3-288.2,595.2z"/>
<path d="M-245.8,778.4c0.2,0.5,0.4,1,0.7,1.5c-0.2,0.1-0.4,0.2-0.6,0.3c-0.2-0.5-0.4-1-0.6-1.5C-246.2,778.5-246,778.4-245.8,778.4z
	"/>
<path d="M-249.1,780.7c-0.4-0.3-0.7-0.5-1-0.8c0,0,0.1-0.3,0.2-0.4c0.4,0.2,0.8,0.4,1.2,0.6C-248.9,780.4-249,780.6-249.1,780.7z"/>
<path d="M-296.1,697.7c-0.3,0.4-0.5,0.6-0.6,0.8c-0.3-0.2-0.5-0.5-0.8-0.7c0,0,0.2-0.4,0.3-0.4C-297,697.4-296.6,697.5-296.1,697.7z
	"/>
<path d="M-178.7,894.5c-0.2-0.1-0.5,0.1-0.7,0.1c0.1,0.7,0.2,1.4,0.3,2c-2.3,1-3.7,1.2-6.2,0.9c-3.9-0.5-7.9-0.9-11.8-1.6
	c-4.6-0.8-9.2-1.8-13.5-3.8c-4.5-2.1-9.1-4-13.6-6c-1.2-0.6-2.2-0.4-3.2,0.5c-1.1,0.9-2.4,1.8-3.7,2.2c-4.4,1.5-8.9,2.4-13.6,2.3
	c-1.2,0-2.5-0.2-3.7-0.6c-3.7-1.2-7.5-2.3-11.1-3.7c-3.6-1.4-6.8-1-10.1,0.8c-6.6,3.6-13.2,7-19.9,10.5c-4.7,2.5-9.7,4-14.8,5.3
	c-1.1,0.3-2.2,0.3-3.6,0.4c0.4-1.7,0.6-2.8,0.9-4.3c-1,0-1.8-0.2-2.6-0.1c-0.4,0-1.1,0.6-1.1,0.9c-0.1,2.3-0.2,4.7-0.1,7
	c0.1,1.1,0.8,2,1.9,2c1.3,0,1.1-1.2,1.3-2c0.1-0.1,0.3-0.2,0.4-0.3c1.3,0.5,2.8,0.7,4,1.5c2.4,1.6,5,2.4,7.7,3.2
	c5.8,1.7,11.5,3.8,17.4,5.2c5.1,1.3,10.4,2.1,15.7,2.9c2.4,0.4,4.8,0.8,7.2,1.1c-1.1,0.1-2.2,0.2-3.3,0.3c-1.3,0.1-1.3,2.1,0,2
	c10.9-1.2,21.6-0.5,32.3,2c1.3,0.3,1.8-1.6,0.5-1.9c-4-0.9-8-1.6-12-2.1c3.7-0.3,7.4-0.9,11.1-2c2.8-0.9,5.7-1.8,8.5-2.7
	c5-1.5,10-3,15-4.6c2-0.7,3.7-1.9,5.7-2.5c3.9-1.3,7.7-3,11.1-5.5c1.8-1.3,3.9-1.7,6.6-2c-1.2,1.6-2.1,2.9-3,4.1
	c1.5,1.5,1.5,1.5,2.6,0.4c2-1.8,3.1-4.2,4.1-6.6C-175.3,898-176.8,895.3-178.7,894.5z M-285.5,898.7c2-1.1,4.1-2,6-3.2
	c4.4-2.8,9.2-4.7,13.8-6.9c1.5-0.7,2.9-0.8,4.5-0.2c3.6,1.3,7.3,2.3,10.8,3.7c5.4,2.2,10.8,1.6,16.2,0.2c2.8-0.8,5.8-1.3,8.1-3.5
	c0.7-0.7,1.6-0.6,2.5-0.2c2.6,1.1,5.3,2,7.8,3.2c3,1.4,5.9,2.9,8.9,4.4c0,0.1-0.1,0.2-0.1,0.3c-4.6-0.4-9.2-0.6-13.8-1.2
	c-3.2-0.5-6.1,0.3-9,1.3c-5.7,1.9-11.5,2.4-17.4,1.5c-4.2-0.6-8.5-1.2-12.8-2c-5.4-1-10.5,0-15.4,2c-4.2,1.7-8.7,1.6-13,3
	c-0.1-0.2-0.2-0.5-0.3-0.7C-287.7,899.8-286.6,899.3-285.5,898.7z M-206.1,900.9c-0.8-0.1-1.3-0.1-1.7-0.1c0.1-0.4,0.2-0.8,0.3-1.6
	C-207,899.9-206.7,900.2-206.1,900.9z M-211,904c-2.3,1.4-3,1.6-5.9,1C-215,903.2-213.1,903.8-211,904z M-216.9,898.1
	c2,0.2,3.7,0.3,5.8,0.6c-1.2,1.7-2.7,2-4.1,2.3C-216.4,901.3-216.7,900.8-216.9,898.1z M-221,901.9c-1.5,0.5-2.9,1-4.4,1.4
	c-1.3,0.3-1.8-0.1-1.9-1.5c-0.2-3.1,1-4.3,4.4-4.2c2.6,0.1,2.9,0.4,3.2,2.3C-219.6,901-220,901.6-221,901.9z M-220.9,906
	c-5.9,1.7-5.9,1.7-7.3,0.7C-225.9,905.1-223.5,905.5-220.9,906z M-235.3,904.2c-1.7,0.6-3.3,0.9-5,1.3c-2.4,0.6-3.2,0-3-2.5
	c0.1-0.6,0.2-1.1,0.4-1.8c4.3-0.4,8.4-0.8,12.7-1.2c0.4,1.2-0.1,2.1-1.1,2.6C-232.6,903.2-233.9,903.8-235.3,904.2z M-232.5,907.3
	c-2.6,1.2-6.9,1.9-9.6,1.7C-240.7,907.5-235.3,906.4-232.5,907.3z M-248.1,905.6c-1.9,0.3-3.9,0.6-5.8,0.6c-1.7-0.1-2.1-0.7-2-2.3
	c0.1-1.4,0.4-2.8,0.7-4.7c2.7,0.5,4.9,0.8,7.1,1.4c1.4,0.3,1.4,1.4,1.4,2.5C-246.8,904.2-246.7,905.4-248.1,905.6z M-247.1,909.1
	c-2.5,1-4.7,0.7-7,0C-248.2,908.1-248.9,907.4-247.1,909.1z M-260.4,905.6c-0.1,0-0.1-0.1-0.1-0.2c0.4-0.1,0.8-0.3,1.3-0.5
	c0,0.1,0.1,0.3,0.1,0.4C-259.5,905.4-260,905.5-260.4,905.6z M-259.1,908.1c0.1,1.1-0.8,1.2-1.5,1.1c-2.7-0.2-5.3-0.5-8-0.7v-0.6
	c0.3-0.1,0.7-0.3,0.9-0.3c2.3-0.2,4.7-0.3,7-0.4C-259.9,907.1-259.1,907.1-259.1,908.1z M-260.4,903.2c-3,1.1-6.1,1.2-9.5,0.8
	c-0.2-0.6-0.3-0.9-0.4-1.4c-0.6-3.7,0-4.5,3.8-4.6c2.6,0,5.2-0.4,7.9,0.9c-0.1,1,0,1.9-0.3,2.7C-259.1,902.2-259.8,903-260.4,903.2z
	 M-273,907.8c-3.7,0.3-7.4,0.6-11.1,0.2c-0.3,0-0.6-0.5-0.9-0.7c0.1-0.2,0.1-0.4,0.2-0.6C-280.9,906-276.9,906.5-273,907.8z
	 M-281.5,902.7v-0.6c1.8-0.3,3.6-0.6,5.7-1c0.1,1.1,0.2,1.9,0.3,2.7C-277.9,904.2-279.7,903.6-281.5,902.7z M-285.4,903.6
	c-1.4,0.3-2.4,0.4-3.8,0.7C-287.4,903.1-287.4,903.1-285.4,903.6z M-286.7,906.5c-1,1.6-2.1,0.8-3.2,0.3
	C-288.9,906.7-287.8,906.6-286.7,906.5z M-190.9,903.9c-0.5,0.3-1,0.7-1.6,0.9c-5.7,2.3-11.2,5.1-17.1,6.8
	c-4.4,1.3-8.9,2.6-13.2,4.1c-6.8,2.5-13.9,3.5-21.2,3.9c-8,0.4-15.6-0.9-23.4-2.3c-7-1.3-13.9-2.6-20.6-4.7
	c-4.2-1.4-8.3-2.9-12.5-4.3c-0.5-0.2-0.9-0.5-1.3-0.8c0.1-0.2,0.2-0.4,0.3-0.6c2,0.4,4.1,0.6,5.8,1.6c5.5,1.7,11.1,2.4,16.8,2.5
	c5,0,9.9,0.5,14.9,0.7c6.4,0.3,12.8,0.6,19.2,0.7c2.5,0,5-0.6,7.5-0.9c3.5-0.4,7-0.7,10.5-1.3c5.7-1.1,11.4-1.6,17-3.3
	c4.3-1.3,8.8-2.1,13.2-3.2c1-0.3,2-0.7,3.1-0.9c1.2-0.3,2.4-0.4,3.6-0.6c0.1,0.1,0.1,0.3,0.2,0.5
	C-190.1,903.1-190.4,903.6-190.9,903.9z"/>
<path d="M-323.8,894.5c0.1,0.8,0.2,1.2,0.1,1.6c-0.6,2.6-1.2,5.2-1.8,7.8c-0.2,0.8-0.3,1.8-1.4,1.5c-0.4-0.1-0.9-1.2-0.7-1.7
	c0.8-2.9,1.8-5.8,2.8-8.6C-324.8,894.9-324.4,894.8-323.8,894.5z"/>
<path d="M-165.2,900.3c0.7-4.2,1.2-7.9-2.4-11c0.9-0.1,1.5-0.4,1.9-0.2C-162.3,890.5-161.7,897.5-165.2,900.3z"/>
<path d="M-281.2,749.5c-14.1-0.1-28.1,1.9-41.7,6.2c-1,0.3-0.6,2.2,0.4,1.9c13.5-4.2,27.4-6.3,41.3-6.2
	C-280.1,751.6-280.1,749.6-281.2,749.5z"/>
<path d="M-171.8,750.8c-12.1-3.4-24.5-4.8-37.2-4.4c-0.9,0-1,1.7-0.1,1.7c12.6-0.4,24.9,1.1,36.8,4.4
	C-171.4,752.7-171,751-171.8,750.8z"/>
<path d="M-155.8,742.3c-0.1-0.9-0.1-1.9-0.1-3c-2.6-1.6-5.2-3.4-8.4-5.3c1.9-0.3,3.2-0.3,4.3-0.7c0.5-0.2,1-1.2,1.1-1.9
	c0.1-0.2-1-1-1.5-1c-1.7,0.1-2.6-1-3.6-2c-0.6-0.7-1.1-1.7-1.8-2.1c-2.9-1.6-4.7-4.1-6.3-7c-0.6-1.2-1.6-2.2-2.5-3.1
	c-0.6-0.6-1.4-0.9-2.2,0c1.9,2.4,3.9,4.8,4.5,8.1c-2.2-1-3.8-1.6-5.1-2.2c-2.5,0.8-1.6,3-2.7,4.5c-1.2-1.5-1.4-2.8-0.9-4
	c0.3-1.1,0.2-1.7-0.6-2.2c-1-0.6-1.9-0.4-2.5,0.4c-0.5,0.6-0.9,1.3-1.3,2c-0.6-1-1.1-2-1.8-2.7c-1-1-2.2-1.8-3-2.9
	c-1.7-2.5-3.3-5-6.1-6.4c-1.3-0.6-2.6-1.2-3.8-2c-2.4-1.6-4.7-2.6-7.2-0.6c-2.8-6.4-4.8-7.6-9.2-5.8c0.7-0.1,1.5-0.2,2.2-0.4
	c0.2,0.2,0.3,0.4,0.4,0.6c-0.5,0.8-1.2,1.6-1.8,2.4c-0.2,0.1-0.4,0-0.6-0.1c-0.1-0.9,0-1.7-0.2-2.5c-2.1,0-1.8,1.9-1.9,3.2
	c-1.5,0.3-2.7,0.6-3.9,0.8c-0.4-0.5-0.8-1.1-1.5-2c-0.4,1.7-0.8,3-1.2,4.4c-0.3,0-0.6,0-1,0.1c-0.4,0.1-0.6,0.4-0.7,0.7
	c-1.9-0.6-3.1,1.3-5.1,1.7c0.9,0.5,1.7,1,2.4,1.3c-0.4,1.1-0.6,1.7-0.8,2.2c0.4,0.5,0.8,0.9,1.2,1.3c-1.8,0.3-3.7,0.7-5.5,1.3
	c-1.2,0.4-0.7,2.3,0.5,1.9c2-0.6,4-0.9,6.1-0.9c0.2,0.1,0.4,0.2,0.5,0.3c-2.5,1.4-5,3-7.2,4.9c-0.7,0.6-0.1,1.7,0.7,1.7
	c2.6,0,5.3-0.2,7.9-0.7c-0.9,1.5-1.7,2.9-2.6,4.2c1.7,1.7,2.9-0.1,4.2-0.7c4.1,1.1,4.8,1,8.5-1c0.9-0.6,2.1-0.9,3.2-0.9
	c1.4,0,2.9,0.3,4.3,0.6c2.3,0.4,4.7,0.6,6.5,1.7c4.4,2.9,9.2,4.7,14.1,6.1c3.9,1.1,7.4,2.9,10.6,5.4c0.4,0.4,1,0.7,1.5,1.1
	c1.1,0.8,2.3,1.1,3.7,0.3c0.6-0.3,1.8-0.2,2.5,0.1c3.7,2,7.9,2.4,11.9,2.7C-156.1,744.4-155.7,743.9-155.8,742.3z M-223.4,721.8
	c-0.4,0.5-1.1,0.7-1.9,0.9c0.1-0.2,0.3-0.4,0.4-0.6c0.3-0.1,0.7-0.2,1-0.4C-223.7,721.7-223.5,721.7-223.4,721.8
	C-223.3,721.7-223.4,721.8-223.4,721.8z M-223.9,714.4l0.1-0.5c0.3-0.1,0.6-0.1,0.9-0.2c0,0.3,0,0.5,0,0.8
	C-223.2,714.5-223.5,714.4-223.9,714.4z M-203.9,709.1c-0.5,0-1.1-0.1-1.6-0.2c0-0.3,0-0.5,0.1-0.8c0.6,0.1,1.1,0.2,1.7,0.3
	C-203.7,708.6-203.8,709.1-203.9,709.1z M-197.8,714.2c0.4-0.7,0.7-1.4,1-2.4C-195.9,713.2-195.9,713.2-197.8,714.2z M-170.6,730.5
	c0.1-0.1,0.1-0.3,0.2-0.4c0.5,0,0.9,0.1,1.1,0.1c0,0.3,0,0.5-0.1,0.7C-169.8,730.8-170.2,730.7-170.6,730.5z"/>
<path d="M-259.7,719.6c-3.2-0.4-5.8-1.6-8-3.6c0-0.1,0-0.2,0.1-0.3c0.8-0.8,1.5-1.6,1.9-1.9c0.9-0.6,0.4-2-0.6-1.8
	c0.3-0.6,0.6-1.3,0.9-1.9c0.5-0.8-0.5-2-1.4-1.4c-1.5,1.1-3.1,2.1-4.6,3.2c-0.1-0.3-0.4-0.6-0.6-0.6c-0.4-0.2-1.2,0.2-1.6,0.5
	c-0.5,0.3-0.9,0.7-1.3,1c-0.2,0-0.4-0.1-0.6-0.1c-0.1-0.1-0.1-0.1-0.2-0.2c2-2.2,4-4.4,6.1-6.5c0.8-0.8-0.3-2.3-1.2-1.6
	c-0.8,0.6-3.8,3-7.1,5.5c-0.4-0.5-0.9-0.9-1.4-1.4c-2.1-1.8-3.4,1.1-5.2,1.4c-1.5,0.3-2.1,1.2-2.3,2.3c-2.2,0.7-4.3,1.9-5.5,2.4
	c-0.4-1.3,0-2.6,1.2-3.7c0.5-0.4,1-0.8,1.5-1.2c-1.4-0.2-2.7,0-3.8,0.3c-0.7,0.2-1.3,0.4-2,0.3c-3.2-0.6-4.7,2.8-7.6,3.3
	c-0.6,0.1-1,1.1-1.4,1.8c-1.2,2.2-2.5,4.2-5,5.3c-0.3-0.1-0.6-0.3-0.9-0.4c-0.9-0.6-1.7-1.3-2.8-0.4c-0.9,0.8-1.2,1.7-1.1,3
	c0.3,2.4-1.4,4.3-3.6,3.7c-3.2-0.9-5,0.6-6.7,2.9c-1.7,2.4-3.7,4.6-6.5,5.6c-1.9,0.7-2.9,1.9-3.1,3.8c-0.1,0.5-0.3,0.8-0.6,1.5
	c-1.7-0.6-3,0.1-4,1.5c-0.5,0.6-1.1,1.1-1.7,1.7c-2,2-2,2.5-0.5,5c1.3,2.3,2.1,2.4,4.3,0.9c0.9-0.6,1.7-1.3,2.6-1.6
	c3.3-0.8,6-2.2,8.6-4.2c0.8-0.7,1.6-1.3,2.6-1.7c5.2-2.3,10.2-4.8,15.6-6.7c8.4-2.9,17.1-4.8,26.1-3.8c2.2,0.3,4.7,0.6,6.7-0.2
	c1.8-0.7,3.5-0.6,5.2-0.8c0.9-0.1,1.9,0.3,2.8,0.3c1.7,0.1,2.8-0.9,2.5-2.6c-0.2-1.5,0.2-2.8,0.9-4.1c0.2-0.4,0.3-0.9,0.5-1.3
	c0.9-0.5,1.8-0.9,3-1.3C-258.3,721.2-258.6,719.8-259.7,719.6z M-331,738.8c0-0.2-0.2-0.3-0.3-0.5c0.4-0.3,0.9-0.6,1.3-0.9
	c0.1,0.1,0.2,0.3,0.3,0.4C-330.1,738-330.5,738.4-331,738.8z M-311.2,727.4c0.9-1.2,1.5-2,2.9-0.9
	C-308.9,727.7-309.7,728.1-311.2,727.4z M-303.2,724.6c-0.5,0.2-1.5,0.7-1.6,0.5c-0.5-0.6-0.5-1.4-0.7-2c0.1,0,0.3-0.2,0.5-0.3
	c0.7,0.2,1.2,0.6,1.9,1C-303.1,724-303.2,724.3-303.2,724.6z M-301.9,722c-0.2-0.3-0.2-0.6-0.4-0.8c0.6-1.2,1.6-1.3,3.5-0.6
	C-300.2,721.2-301,721.6-301.9,722z M-297.3,717.3c-1.1-1.5-0.8-2.1,1.2-2.5C-296.6,716-297,716.6-297.3,717.3z M-292.8,719.8
	c-1.2-0.3-1.2-1.1-0.2-2.2c1.6,0.6,3.3,1.1,5.4,1.7C-289.6,720.5-291.2,720.2-292.8,719.8z M-288.7,716
	C-288.8,715.9-288.8,715.9-288.7,716c-0.2-0.2-0.4-0.3-0.5-0.3c0.8-0.4,1.7-0.8,2.6-1c0,0.3,0,0.6,0,0.9
	C-287.4,715.7-288.1,715.9-288.7,716z M-279.8,710.4c0.2,0.3,0.3,0.5,0.5,0.8c-0.3,0.2-0.5,0.4-0.8,0.6
	C-280.2,711.5-280.2,711-279.8,710.4z M-272.8,723.8c0.7-0.4,1.3-0.6,1.8-0.8c0.1,0.3,0.3,0.5,0.3,0.6
	C-271,724.5-271.4,725.4-272.8,723.8z"/>
<path d="M-165.9,772.6c0.5-1.6,1-3.2,1.3-4.8c0.3-1.3-1.7-1.8-1.9-0.5c-1.2,6.1-3.9,11.6-8,16.3c-0.8,1,0.6,2.4,1.4,1.4
	c2.8-3.2,5-6.8,6.6-10.7v0.3c0,1.3,2,1.3,2,0v-1C-164.5,772.7-165.3,772.4-165.9,772.6z"/>
<path d="M-333.2,720.8c-4.8,4.3-8.8,9.3-11.9,15c-0.6,1.1,1.1,2.1,1.7,1c3-5.6,6.9-10.4,11.6-14.6
	C-330.8,721.4-332.2,720-333.2,720.8z"/>
<path d="M-161.5,746c-1.3,0.1-2.4-0.2-3.5-0.9c-1.1-0.7-2.1,1-1,1.7c1.4,0.8,2.9,1.2,4.5,1.2C-160.2,747.9-160.2,745.9-161.5,746z"
	/>
<path d="M-120.7,749c-0.2-4.2-0.7-8.4-1.1-12.6c-0.5-6.2-1.4-12.3-3.5-18.2c-1.9-5-5-7-10.1-6c-0.3,0-0.6-0.1-1-0.1
	c-0.9-1.7-1.1-3.5-0.8-5.4c0.1-0.6,0.3-1.2,0.2-1.8c-0.8-5,0.7-10.2-0.7-15.2c-0.1-0.3-0.1-0.6-0.1-0.9c0.1-4.5,0.1-9,0.2-13.4
	c0.5-0.6,0.8-1.4,0.9-2.4c0.1-2,0.2-4,0.3-6c0.5-0.7,0.9-1.7,0.9-2.8c0.4-8.4,0.3-16.8-0.2-25.1c0.4-3.7,0.8-7.3,1.2-11
	c0.1-1.1-1.7-1.3-2-0.3c-0.1,0.3-0.2,0.6-0.2,0.9c-0.5-4-1-8-1.7-12.1c0.1-2.4,0.2-4.9,0.3-7.3c0.1-0.3,0.1-0.6,0.1-0.9
	c0-0.5,0-1,0.1-1.6c0.7-7.9,1.9-15.8,4.2-23.5c0.5,0.8,1.8,0.7,1.9-0.4c0.1-2,0.1-3.9,0.2-5.9c0-1-1.1-1.2-1.7-0.7
	c-3.2-9.5-10.2-18.1-16.6-25.4c-3.4-3.9-7.3-9.3-12.1-11.6c-5-2.3-10.4,1.4-15.2-0.8c-0.9-1-1.9-1.8-3.2-2.5
	c-2.2-2.3-3.9-4.9-7.4-5.4c-5.3-0.8-9.8,3.6-14.2,5.7c-6.4,3-13.7,2.3-20.4,4c-3.4,0.9-9.9,4.8-14.8,5.3c-1.3-0.7-2.8-1.1-4.3-1.2
	c-0.2-0.2-0.5-0.4-0.7-0.6c-0.5-0.7-0.9-1.5-1.1-2.6c-0.1-0.4-0.5-0.8-1-0.7c-2.3,0.2-3.9,0.7-5.8,2.1c-0.3,0.2-0.5,0.6-0.5,0.9
	c-0.5,0.1-1.1,0.3-1.6,0.5c-5.7,1.2-11.5,1.6-17.4,1.1c-2.7-0.3-5.6-1-8.1,0.3c-0.6,0.3-1,0.8-1.6,1.2c-0.2,0.1-0.4,0.3-0.6,0.4
	c-3.3,0.4-6.5,0.8-9.8,1.1c-0.3,0-0.5,0.1-0.7,0.1c-4.4-1-7.9-1.5-12.6,0.5c-5.7,2.6-10.5,5.9-16.3,8c-1.7-0.2-3.5-0.1-5.3,0.4
	c-2.6,0.7-6.4,2.2-7.2,4.9c-0.8,0.7-1.6,1.5-2.3,2.4c-3.1,4.1-4.2,9.2-6.1,13.9c-0.6,1.4-1.2,2.8-2,4c-0.9,0.6-1.7,1.1-2.3,1.7
	c-1.4,1.2-2.6,2.6-3.8,4c-1.2,0.7-2.3,1.4-3.1,2.6c-2.7,3.9-0.3,8.6,1,12.5c0.1,0.4,0.2,0.8,0.3,1.2c-0.7,1.1-1.2,2.4-1.5,3.7
	c-0.8,0.7-1.3,1.5-1.6,2.7c-0.4,1.8-0.9,3.6-1.3,5.4c-0.1,0.3,0,0.9-0.3,1.1c-1.8,1.1-2.1,2.7-1.9,4.3c-0.4,0.8-0.8,1.6-1.1,2.5
	c-0.2,0.7-0.5,1.4-0.6,2.1c-0.6,1.2-0.7,2.4-0.7,3.8c-0.1,0.9-0.2,1.8-0.3,2.8c-1.5,2.2-1,4.7,0.4,6.6c0.1,0.3,0.1,0.6,0.2,0.9
	c-0.9,0-1.6,0.3-1.9,1.5c-0.1,0.2-0.1,0.5-0.1,0.7c-0.8,0.4-1.6,0.7-1.7,0.8c-1.1,0.8-1.2,1.2-1.4,2.4c-0.1,0.8,0.4,1.4,1.2,1.2
	c0.4-0.1,0.7-0.1,1-0.1c-1,2.8-1.2,5.8-0.2,8.6c0.6,1.6,1.6,2.8,2.8,3.5c-0.5,1.6-1,3.1-1.5,4.5c-0.6,1.6-0.7,3.1-0.3,4.8
	c0.6,2.6,0.8,5.3,1,7.9c0,0.2,0,0.5-0.1,0.7c-1,0.9-1.8,2.1-2.2,3.4c-0.6,2,0.7,4.5,2.8,4.9c0,0,0,0,0,0c-0.1,0.9-0.1,1.8-0.3,2.8
	c-3.6,2-3.9,6.1-0.2,8.8c-0.7,3.6-1.3,7-1.2,10.7c-0.2,1.1-0.1,2.3,0,3.4c0.4,2.5,0.8,5.1,1.2,7.6c0.1,0.7,0.2,1.4,0.1,2.1
	c-0.3,1.7-0.8,3.5-1.2,5.5c-0.4,0.1-0.9,0.4-1.5,0.5c-5.1,1-9.7,7.2-9.2,12.5c0.2,1.9,0.1,3.7,0.1,5.6c0.1,8.1-0.3,16.2,1.9,24
	c1.4,5.1,1.2,10.1,0.8,15.3c-0.1,1-0.2,2.1,0,3.1c0.6,3.3,0.4,6.6-0.6,9.8c-0.8,2.6-0.8,5.3,0.5,7.8c1.4,2.6,2.9,5.2,4.8,7.5
	c2.2,2.6,4.2,5.2,4.1,8.9c0,1.7,0.6,3.4,1,5.1c0.5,2.2,1.6,3.8,4.2,3.5c0.2,0,0.3,0.2,0.8,0.6c0.5,3.6,1.2,7.4,1.5,11.3
	c0.7,10.8,2.2,21.5,3.9,32.2c0.2,1.5,0.3,3.1,0.5,4.6c0.4,3.3,0.4,6.8,1.1,10.1c1.5,7.1,1.9,14.3,2.6,21.5c0.4,4.7,1.9,8.7,4.5,12.3
	c0.9,1.2,2.1,2.3,3.3,3.2c7.9,5.6,15.5,9,23.3,14.7c3.8,2.7,33.5,14.1,37.5,18.1c4.6,4.5,16.2,11.8,22.6,12.7
	c8.7,1.2,17.4,0.8,26.1-0.9c6.9-1.3,11.2-5.9,15.1-11c3.3-4.4,37.9-27.9,42.8-32.9c3-3.1,15.2-16.1,18.5-18.9
	c4.1-3.5,5.5-8,5.5-13.2c0-1.9,0.2-3.8-0.2-5.6c-0.9-4.5-0.1-9.1,0.4-13.5c1.2-10.8,2.1-21.6,2.4-32.4c0-0.8,0.1-1.5,0.2-2.2
	c0.3-3.7,0.8-7.5-0.4-11.4c0.8-0.1,1.3-0.3,1.9-0.4c4.2-0.5,5.7-1.8,6.8-5.9c0.6-2,0.9-4.1,1.6-6c1.4-3.7,2.1-7.6,1.9-11.5
	c-0.4-5.9,0.1-11.7,2.3-17.3c0.2-0.5,0.2-1,0.3-1.5c1.2-5.4,2.2-10.9,4.3-16.1C-121.1,763.2-120.4,756.2-120.7,749z M-154.2,581.8
	c0.4,1.6,0.7,3.2,0.8,4.9c-0.5-0.5-1-0.9-1.6-1.3C-154.6,584.3-154.3,583-154.2,581.8z M-156.9,593.7c-0.6,2.8-1.2,3.5-4,3.8
	c-1.6,0.2-1.9,0.3-3.2-0.8c-0.8-0.7-1.6-1.5-2.3-2.3c2.4-0.6,4.8-1.9,6.7-3.2c0.6-0.4,1.2-0.9,1.7-1.4
	C-156.6,590.6-156.4,591.3-156.9,593.7z M-159.6,578.5c0,0,0,0.1,0.1,0.1c0.6,1.7,0.6,3.2,0.1,4.5c-1.6-0.6-3.3-1-5-1.1
	C-162.7,580.5-160.9,579.3-159.6,578.5z M-163,587.4C-163,587.4-163,587.4-163,587.4c-0.1,0.1-0.2,0.2-0.3,0.2
	c-0.8,0.6-1.6,1-2.5,1.3c-1,0.9-1.6,0.7-1.6-0.7C-169.4,585.5-164.3,587-163,587.4z M-166.6,573.1c-0.7,0.7-1.5,1.4-2.1,1.9
	c-0.7,0.6-2.8,2.1-4.4,3c-0.4-0.1-0.9-0.2-1.4-0.3c0.2-0.3,0.4-0.6,0.6-0.9c0.3,0,0.7-0.1,1-0.1c1.6-0.2,2.6-1.7,2.4-3.1
	c0.9-0.4,1.9-0.6,3-0.6C-167.2,573-166.9,573.1-166.6,573.1z M-175.8,561.4c1.6-0.2,3.1-0.4,4.6-0.7c1,0.6,2,1.2,3,1.9
	c-2.8-0.3-5.7-0.3-7.7-0.4C-175.9,562-175.9,561.7-175.8,561.4z M-177.7,567.2c0.2,0,0.5,0,0.7,0c2.9,0.1,5.8,0.3,8.6,0.7
	c0.3,0,0.6,0.1,0.9,0.1c-3,0-6,1-8.3,3c-1.4-0.2-2.8-0.4-4.3-0.6C-179.1,569.6-178.3,568.5-177.7,567.2z M-183.1,555.9
	c0.8,0.2,1.6,0.4,2.4,0.7c0,0.1,0,0.1,0.1,0.2c-2.7,0.1-5.4,0-7.8-0.5c0-0.4,0-0.9,0-1.3C-186.7,555.2-184.9,555.5-183.1,555.9z
	 M-188.5,561.3c2.4,0.4,4.9,0.5,7.4,0.5c0,0.2-0.1,0.3-0.1,0.5c-2.4,0.2-5,0.8-6.6,2.2c0-0.1,0-0.1,0-0.2c0-0.8-0.3-1.5-0.7-2
	C-188.5,562-188.5,561.7-188.5,561.3z M-191.2,576c2.6,0.7,5.4,1,8.2,1.1c0.5,0.6,0.6,1.5,0.2,2.7c-0.9,0.2-1.8,0.3-2.7,0.5
	c-1.7,0.2-3.5,0.2-5.2,0.1c0,0-1.2-0.1-2.6-0.3c0.5-0.9,0.4-1.9-0.4-2.9c-0.1-0.1-0.3-0.3-0.4-0.4
	C-193.2,576.4-192.2,576.2-191.2,576z M-207.9,557.2c2.8-0.2,6,1.5,8.4,3c-0.8,0.4-1.4,0.9-1.9,1.5c-2.5-0.7-4.9-0.9-7.2-0.8
	c-0.3-1.1-1.5-2-2.7-2C-210.4,558-209.2,557.3-207.9,557.2z M-201.3,568.7c-0.9,0.1-1.8,0.1-2.6,0.1c-1.2,0-2.8,0.1-4.4-0.1
	c2.1-0.6,4.2-0.9,6-1c0.2,0,0.4,0,0.6,0C-201.6,568-201.5,568.3-201.3,568.7z M-211.9,577.2c1.6-0.3,3.3-0.4,5-0.3
	c-0.1,0.2-0.3,0.5-0.4,0.7c-0.1,0-0.2,0.1-0.3,0.1c-2.1,0.9-4.3,1.5-6.6,1.9C-213,579.1-212.3,578.2-211.9,577.2z M-225,562.8
	c0.4,0.1,0.7,0.1,1.1,0.2c1.4,0.3,3.2,0.7,5,1.3c-1.9,1-3.8,2.1-5.6,3.2c-0.1,0-0.3-0.1-0.4-0.1V562.8z M-226.2,552.7
	c0.2-0.1,0.6,0.4,0.9,0.6c-0.3,0.4-0.7,0.9-1.1,1.1c-0.2,0.1-0.6-0.3-1.3-0.6C-227,553.3-226.6,552.9-226.2,552.7z M-230,564.6v1.9
	c-1.8-0.2-3.5-0.2-5.1,0.3c-0.1,0-0.2,0.1-0.3,0.1c0-0.4-0.2-0.9-0.5-1.4C-234,564.9-232,564.6-230,564.6z M-260.5,563.4
	c0,2.2-1.5,2.6-3.8,2.7c-0.2-2.2,0-3.7,2.3-3.8C-261.5,562.3-260.5,563-260.5,563.4z M-264.2,553.4c0.3,0.2,0.7,0.5,1,0.8
	c-0.6,0.6-1.1,1.2-1.5,1.8c-0.3-0.1-0.5-0.3-0.8-0.5C-265.1,554.8-264.6,554.1-264.2,553.4z M-273,582.6c0.3,2.6-1,3.7-2.7,4.6
	c-0.3-0.2-0.6-0.5-0.9-0.8C-275.4,585.1-274.2,583.9-273,582.6z M-289.8,553c0.2,0.6,0.3,1.3,0.5,1.9c-0.4,0.1-0.7,0.1-1,0.2
	c-0.1-0.6-0.3-1.2-0.3-1.9C-290.6,553.1-289.8,553-289.8,553z M-296.3,573.4c0.2,0.2,0.4,0.3,0.6,0.5c-0.5,0.7-1,1.5-1.5,2.2
	c-0.3-0.3-0.7-0.5-1-0.8C-297.5,574.7-296.9,574-296.3,573.4z M-301.9,599.1c-0.2,0.4-0.3,0.8-0.4,1.2c-0.2-0.2-0.4-0.4-0.7-0.6
	C-302.6,599.5-302.2,599.3-301.9,599.1z M-312.8,556.4c0.2-0.1,0.4-0.2,0.6-0.3c0,0.1-0.1,0.2-0.1,0.2c-0.3,0.2-0.5,0.3-0.8,0.5
	c-0.2,0-0.4,0-0.6,0C-313.4,556.7-313.1,556.6-312.8,556.4z M-315.3,569.7c0.1,0.2,0.1,0.5,0.2,0.7c0,0,0,0,0,0
	c-0.6-0.1-1.2-0.3-1.8-0.5C-316.3,569.8-315.8,569.8-315.3,569.7z M-356.4,827.1c-0.5-1-1-1.7-1.1-2.6c-0.4-1.7-0.8-3.5-0.9-5.2
	c-0.2-3.3-1.5-5.9-3.8-8.2c-2.4-2.4-4.1-5.2-5.3-8.3c-0.8-1.8-1-3.5-0.5-5.4c1-3.8,1.4-7.6,0.8-11.6c-0.2-1.6-0.1-3.3,0.1-4.9
	c0.7-5.1,0.2-10.1-1.1-15c-1.9-6.9-1.3-13.9-1.5-20.9c-0.1-2.7,0.1-5.5,0.1-8.3c0-3.9,2.6-6.4,5.4-8.5c2-1.4,4.5,0,4.6,2.5
	c0.1,4.5,0,8.9,0,13.5c0.8,0.3,1.4,0.4,2,0.6c1.5,5.9,0.2,11.7-0.6,17.6c-0.6,4.7-1.3,9.4-1.6,14.1c-0.4,5.3-0.4,10.7-0.6,16
	c-0.1,3.6,0.5,7,2,10.2c1,2.1,1.6,4.2,1.8,6.5c0.3,3.7,0.7,7.3,1.1,11c0.2,1.2,0.4,2.4,0.6,3.6
	C-354.7,825.2-354.6,825.2-356.4,827.1z M-145,817.6c-1.1,9-1.2,18.1-1,27.2c0.1,5.4,0.1,10.8-0.3,16.1c-0.7,9.2-1.7,18.3-2.6,27.4
	c-0.1,0.9-0.2,1.9,0.1,2.7c1.9,4.8,0.6,9-2.4,12.6c-2.8,3.3-6,6.2-9.1,9.2c-2.8,2.8-5.9,5.2-8.4,8.2c-6.6,7.7-47.8,37.7-48.9,39.4
	c-2.4,3.8-6,5.9-10.2,7c-7.9,1.9-15.9,2.4-24,1.8c-5.8-0.5-11-2.4-14.9-7.1c-1.4-1.6-56-31.8-58-32.9c-2.9-1.6-5.7-3.3-8.7-4.7
	c-5.5-2.5-7.9-7.1-8.6-12.7c-0.9-7-1.1-14.1-2.7-21.1c-0.4-1.9-0.8-3.9-1-5.8c-1.2-10.1-2.6-20.3-3.6-30.4
	c-0.9-8.1-1.3-16.3-1.9-24.4c-0.5-6.1-0.9-12.1-1.3-18.2v-2.6c1.3,1.2,2.2,2.1,3.1,3c1.4,2.2,2.7,4.4,3.8,6.8c0.5,1.2,2.2,0.2,1.7-1
	c-0.3-0.7-0.7-1.4-1-2.1c0.2,0,0.4,0.1,0.6,0.1c-0.4-1-0.5-1.6-0.8-2c-1-1.2-2-2.4-3-3.6c-1-1.5-2.2-3-3.4-4.4
	c-0.2-0.3-0.5-0.3-0.7-0.3c-0.9-1.1-1.9-2.1-2.8-3.2c-2.4-2.9-3-6.2-3.2-9.8c-0.3-6.7,1.2-13.3,1.1-20c-0.1-7.9,1.2-15.8,2.3-23.7
	c1.2-8.9,1.4-17.8,0.3-26.8c-0.2-1.1,0-2.2,0.3-3.3c1.2-5.2,1.9-10.5,1.2-15.9c-0.4-2.6-0.7-5.3,0.6-7.9c0.3-0.6,0.3-1.4,0.3-2.1
	c0-2.9,0-5.8-0.3-8.7c0.3-0.6,0.5-1.2,0.5-1.9c0-1.2-0.1-2.4-0.1-3.6c0-0.2,0-0.4-0.1-0.5c0.9-0.7,1.6-1.8,1.6-3.4
	c0-2.1,0-4.2,0-6.3c1.1-1.6,1.1-3.9,0-5.4c0-0.4,0-0.7,0-1.1c1.9-1,2.4-2.7,2-4.3c1.4-2.6,2.5-5.3,3.3-8.1c1.6-1.7,2.5-3.9,1.8-6.3
	c-0.2-0.9-0.4-1.7-0.5-2.5c0.2-0.3,0.3-0.5,0.5-0.8l1.3-2.1c6-2.6,8.4-9.7,10.7-15.7c2.2-5.6,5.5-9.9,9.9-13.9
	c1.4-1.3,3.4-3.2,5.6-4.8c3-1.4,6.1-2.5,9.3-3.3c0.4,0.3,0.9,0.4,1.4,0.3c1,0.5,1.9,1.4,2.6,2.7c0.4,0.6,1.4,0.7,1.7,0
	c1.7-3,3.8-5.2,6.8-6.9c0.4-0.3,0.6-0.7,0.5-1c0.6-0.1,1.2-0.1,1.8-0.2c0.9,0.5,2,0.9,3.1,0.8c1.6-0.1,3.2-0.3,4.6-0.6
	c2.1,0.1,4.1,0.2,5.7-0.1c1.2-0.2,2.4-0.5,3.6-0.8c0.9-0.2,1.8-0.4,2.7-0.8c0.7-0.3,1.3-0.6,1.9-1c2.5-1.2,4.8-2.7,6.9-4.6
	c5.1,0.9,10.8,1.2,14.8-1.7c1.1-0.8,2-2.3,2.1-3.5c2.6-0.3,5.1-0.2,7.6,0c2.5,0.9,5,2.2,7.3,3.7c-0.1,0.2-0.2,0.4-0.2,0.5
	c0.3,0.3,0.6,0.6,0.9,0.9c1.4,1.7,3.8,2.4,6.3,2.3c0.3-0.1,0.5-0.3,0.7-0.5c0.4-0.1,0.9-0.3,1.3-0.4c0.9-0.2,1.9-0.4,2.8-0.6
	c0.5-0.4,1-0.8,1.4-1.3c2.3-2.9,6.7-3.1,10-1.7c1.1-0.3,2.3-0.7,3.4-1.1c1.6,0.5,3.2,0.8,4.8,0.9c2.9,0.4,6,0.2,8,0.3
	c1.6,0,3.4,0.1,5.2,0.2c2.6,1.1,5.2,2.3,7.7,3.4c0.5,2.7,2.4,5.2,5.8,5.6c0.5,0.8,1,1.6,1.7,2.4c2.2,2.5,6,3.4,7.2,6.8
	c0.3,0.7,1.1,1,1.7,0.4c0.4-0.4,0.9-0.8,1.3-1.2c0.1,1.1,0.7,2.1,2,2.3c-0.3,1-0.5,1.7-0.6,2.2c0.9,1.8,1.7,3.4,2.5,5.1
	c0.3,0.1,0.6,0.1,1.1,0.2c0.4,0.9,0.8,1.7,1.1,2.6c1,3,1.6,6,1.8,9.2c0.1,1.5,0.6,2.7,1.4,3.7c0.3,1.1,0.8,2.1,1.3,3.1
	c0.3,1.3,0.7,2.5,1.2,3.8c0,0.1,0,0.2,0,0.3c-0.6,0.4-1.1,1-1.1,2c-0.3,6.5,1.4,12.6,1.2,19c-0.1,4.1-0.6,6.3,3,7.4
	c0.3,0.3,0.6,0.4,1,0.5c0,0.1,0.1,0.3,0.1,0.4c0.2,0.5,0.4,0.9,0.7,1.3c0.1,0.5,0.1,0.9,0.2,1.4c0,1.6-0.1,3.2-0.2,4.8
	c0,0.4,0,0.8,0.1,1.1c-0.6,8.2,0.2,16.4-0.2,24.5c0,0.2,0.2,0.3,0.3,0.5c0.7,0.2,1.4,0.5,2.2,0.8c-0.4,2.7-0.9,5.2-1.1,7.8
	c-0.3,3.4-0.7,6.8-0.5,10.2c0.3,6,1.3,12,1.5,18.1c0.2,7.4,0,14.8,1.2,22.2c1.1,6.3,1.4,12.8,2.1,19.2c0.4,3.5,0.9,7.1,1.4,10.7
	c0.4,3.2-0.3,6.2-2,8.9c-2.1,3.3-4,6.5-6,9.8c-2.2,3.7-4.1,7.6-5,11.9c-0.1,0.4,0,0.9,0,1.5c-1.5,3.4-3.1,6.7-5,9.9
	c-0.6,1.1,1.1,2.1,1.7,1c2.9-4.9,5.3-10.1,7.2-15.4c0-0.1,0-0.2,0-0.2c0.4-1,0.9-1.9,1.7-2.6C-145,814.9-144.8,816.2-145,817.6z
	 M-127,769.1c-2.3,5.8-3.3,11.9-4.8,17.9c-0.4,1.5-0.9,3-1.2,4.5c-0.5,2.7-1.2,5.5-1.1,8.2c0.2,6.1-0.1,12-2.2,17.7
	c-0.6,1.6-0.8,3.4-1.3,5.1c-0.9,3.3-2,3.9-5.9,2.9c0.3-3.6,0.5-7,0.9-10.5c0.3-2.9,0.4-5.8,1-8.6c0.4-1.9,1.4-3.7,2.6-5.2
	c3.7-4.7,4.2-9.8,3.4-15.5c-1.4-10-2.6-20.1-3.8-30.1c-0.1-0.7-0.2-1.5,0.1-2.1c2.3-4.4,2.2-9.1,1.9-13.9c0-1.1,0.1-2.3,0.1-3.4
	c0.1-3.1,0.2-6.2,0.2-9.3v-9.6c0-2.2,1.6-2.9,3.2-3.7c1.6-0.8,2.4,0.3,3.4,1.3c2.3,2.3,2.8,5.3,3.4,8.2c1.1,5.5,1.8,11,2.5,16.5
	c0.4,3.3,0.5,6.6,0.7,9.9C-123.5,756.2-124.6,762.8-127,769.1z"/>
</svg>
