<?xml version="1.0" encoding="utf-8"?>
<!-- Generator: Adobe Illustrator 19.0.0, SVG Export Plug-In . SVG Version: 6.00 Build 0)  -->
<svg version="1.1" id="Layer_9" xmlns="http://www.w3.org/2000/svg" xmlns:xlink="http://www.w3.org/1999/xlink" x="0px" y="0px"
	 viewBox="-249 251 500 500" style="enable-background:new -249 251 500 500;" xml:space="preserve">
<path style="fill:#fff" d="M1038.2,276.2c-0.5,0.2-1,0.3-1.5,0.5c-0.1-0.2-0.1-0.4-0.2-0.5c0.5-0.2,1-0.3,1.5-0.5
	C1038.1,275.8,1038.1,276,1038.2,276.2z"/>
<path style="fill:#fff" d="M904.7,321.1c-0.8-0.8-0.7-1.6,0.5-2.7c0,1.1,0.1,1.8,0.1,2.6C905.1,321,904.9,321,904.7,321.1z"/>
<path style="fill:#fff" d="M-95.9,729.6c-2.7,0.2-6.2,0.5-9.7,0.7c-13.2,1-26.4,2.2-39.7,3c-4.7,0.3-9.6,0.7-14.1-0.4c-13.3-3.1-26.8-2.6-40.3-2.7
	c-8,0-16,0-24.8,0c-4.6-44.2-5.8-87.7-8.9-132c16.1-13,32.6-26.1,49-39.3c2.4-1.9,4.7-4,7-6c4.7-4.1,9.7-6.2,16.3-4.3
	c4.3,1.3,8.9,1.7,13.3,1.8c18.3,0.1,36.5,0.1,54.8-0.2c7.1-0.1,14.1-1.3,21.2-1.5c2.7-0.1,5.6,0.4,8.1,1.5c1.4,0.6,2.8,2.7,3,4.3
	c1.8,14.6,3.5,29.1,5,43.7c2,19.1,3.7,38.2,5.7,57.3c0.4,3.7,2,7.3,2.6,10.9c0.3,1.8-0.2,5-1.3,5.5c-6.3,3.1-9.8,9-14,13.9
	c-9.8,11.2-18.9,23.1-28.1,34.9C-92.9,723.1-94,726-95.9,729.6z M-226.7,606c2.4,19,4.5,37.9,7.1,56.6c2.6,18.8,0.8,37.7,1.2,57.8
	c2.6-2,4.1-3.3,5.8-4.6c7.5-5.8,15-11.5,22.5-17.3c7.5-5.8,14.8-11.7,22.3-17.4c2.9-2.2,4.1-4.9,4-8.6c-0.8-22.5-1.4-45-2.2-67.6
	c-0.1-1.5-0.8-3-1.5-5.2c-7.8,0-15.4,0.6-22.9-0.1C-202.8,598.4-214.3,601.2-226.7,606z M-56.7,666.4c-2.1-18.1-4.9-36.1-6.2-54.2
	c-1.3-18.3-3-36.4-6.5-55c-2,1.5-3.6,2.4-4.9,3.7c-10.4,10.3-20.9,20.6-31.1,31.2c-1.3,1.4-1.7,4.3-1.6,6.5
	c1.2,19.9,2.7,39.7,4.1,59.6c0.3,4.4,1.1,8.8,1.8,13.8C-86.2,670.2-72,668.4-56.7,666.4z M-156.6,675.1c14.6-0.7,28.8-1.4,43-2.1
	c4.9-0.2,5.4-1,4.9-6.2c-0.9-8.7-1.7-17.4-2.4-26.1c-0.9-10.2-1.4-20.3-2.5-30.5c-1.3-12.3-1.5-12.6-13.8-12.3
	c-10.6,0.2-21.1,1.1-31.3,1.7C-158,625-157.3,649.9-156.6,675.1z M-102.4,722.8c-1.2-3.3-2.5-5.6-2.7-8.1
	c-0.8-9.7-1.2-19.4-1.7-29.1c-0.3-5.2-1.3-6.5-6.3-6.4c-13.2,0.4-26.4,1.1-39.6,2c-2.6,0.2-5.5,1.6-7.7,3.1
	c-11.9,8.2-23.7,16.5-35.3,25.1c-5,3.7-10.3,7.3-14.6,13.9c4.1-0.4,6.8-0.8,9.6-0.9c3.3-0.2,6.9-0.9,9.9,0
	c10.5,3.1,21.2,2.7,31.8,1.7c15.4-1.5,30.8-1.6,46.2-0.6C-109.8,723.8-106.3,723.1-102.4,722.8z M-159.9,593.2c3.8,0,6.6,0.1,9.4,0
	c9.7-0.4,19.4-1.3,29.2-1.2c5,0,8.7-1.5,12-4.9c5.8-5.9,11.9-11.6,17.6-17.6c3.7-3.8,7-8,11.5-13.1c-28.3,1.7-55,1.1-82-0.5
	C-163.5,568.4-161.3,580.5-159.9,593.2z M-170.4,556.6c-18.1,13.3-35.7,25.7-50.8,41.6c17.4-7.6,35.7-1.9,54-4.2
	C-168.3,581.6-169.3,569.7-170.4,556.6z M-60.8,674.2c-14.6-0.1-27,2.9-39.5,5c0.5,13.5,1.9,25.8,5.1,39.2
	C-83.5,703.4-72.7,689.5-60.8,674.2z"/>
<path style="fill:#fff" d="M34.6,644.4c-3.2,0-5.6,0-8.3,0C29.5,639.3,31.7,639.2,34.6,644.4z"/>
</svg>
