<?xml version="1.0" encoding="utf-8"?>
<!-- Generator: Adobe Illustrator 19.0.0, SVG Export Plug-In . SVG Version: 6.00 Build 0)  -->
<svg version="1.1" id="Layer_9" xmlns="http://www.w3.org/2000/svg" xmlns:xlink="http://www.w3.org/1999/xlink" x="0px" y="0px"
	 viewBox="-249 251 500 500" style="enable-background:new -249 251 500 500;" xml:space="preserve">
<path style="fill:#fff" d="M1038.2,276.2c-0.5,0.2-1,0.3-1.5,0.5c-0.1-0.2-0.1-0.4-0.2-0.5c0.5-0.2,1-0.3,1.5-0.5
	C1038.1,275.8,1038.1,276,1038.2,276.2z"/>
<path style="fill:#fff" d="M904.7,321.1c-0.8-0.8-0.7-1.6,0.5-2.7c0,1.1,0.1,1.8,0.1,2.6C905.1,321,904.9,321,904.7,321.1z"/>
<path style="fill:#fff" d="M-225.3,724.9c-0.2-3.1-0.4-5.4-0.6-7.8c-1.7-29.2-3.4-58.4-5.2-87.7c-0.6-9.4-1.4-18.9-1.5-28.3
	c-0.1-6.9,1.1-13.1,8.2-17.3c8.4-5.1,16-11.6,24.2-17.1c4.2-2.8,9-4.7,13.4-7.1c7-3.8,13.8-7.8,20.8-11.4c2.4-1.2,5.4-2.1,8.1-2
	c10.3,0.5,20.6,1.9,31,2.3c10.1,0.4,20.2,0.1,30.4-0.3c10.8-0.4,21.6-2,32.3-1.3c6.1,0.4,12-0.7,18.1,0.1c6.5,0.9,13.2,0,19.8-0.2
	c6.4-0.1,12.8-0.4,19.2-0.5c6.4-0.1,12.8-0.3,19.2-0.2c3.7,0,7.5,0.6,11.2,0.5c6.1-0.1,12.2-0.6,18.3-1c1.7-0.1,3.5-0.8,5.2-0.8
	c2.1,0,5.4-0.3,6.2,0.9c2.2,3.2,6.4,4.4,6.7,10c1.5,23.5,2.8,47.1,1.5,70.6c-0.3,6.4-0.5,12.7-0.7,19.1c-0.2,6.6-2.5,12.3-6.3,17.7
	c-6.3,9-12.4,18.2-18.3,27.5c-4.4,7.1-8.3,14.5-12.4,21.7c-1.9,3.5-5.9,5.4-10.8,4.4c-16.6-3.2-33.3-3.5-50-2.1
	c-9,0.8-17.9,2.2-26.8,3.4c-8.7,1.2-17.5,1.7-26,3.7c-11.4,2.8-22.6,1-33.9,1c-2.5,0-5.1,1.3-7.6,1.4c-7.9,0.2-15.8-0.1-23.7,0.2
	c-11.2,0.4-22.4,1-33.6,1.7c-7.9,0.5-15.8,1.6-23.7,2.1c-2.8,0.2-6,1.1-8-2.5C-221,725.1-223.3,725.2-225.3,724.9z M-216.8,714.1
	c19.1-15.1,37.8-30.3,58.7-42.1c-1.1-25.6-2.2-51.2-3.2-76.9c-20.6-0.5-41-2-60.9-0.9C-220.4,634.3-218.7,673.9-216.8,714.1z
	 M-56.1,590.7c-0.1,1.8-0.3,2.9-0.3,4c0.1,11.5,0.2,22.9,0.2,34.4c0.1,7.5,0.1,15,0.2,22.5c0,3.8,0.8,7.2,4,8.7
	c2.1-0.8,3.5-1.7,4.9-1.8c3.7-0.4,7.4-0.4,11.1-0.7c14.8-1.5,29.8-2.1,44.4-5.8c0-21.3,0-42.5,0-63.5c-2.6-0.3-4.6-0.5-6.6-0.8
	c-2.5-0.4-5.1-1.5-7.6-1.4c-6.6,0.2-13.2,0.9-19.7,1.5C-35.5,588.5-45.5,589.6-56.1,590.7z M-152.2,666.2c1.9,0.8,2.4,1.2,3.1,1.3
	c15,1.5,29.9,0.3,44.9-1.2c2.7-0.3,4.3-1.9,4.3-4.9c0-5.3-0.1-10.6,0.4-15.9c1.5-15,0.8-29.8-2.4-44.5c-1.5-6.9-1.7-7.3-8.7-7.3
	c-13,0-26,0.2-39,0.3c-1.4,0-2.9,0.3-5.3,0.6C-154.1,618.7-153.2,642.5-152.2,666.2z M-51.9,664.7c-12.5,16.3-24.3,33.2-34.9,51.5
	c17-2.3,33.3-4.5,49.6-6.7c16.3-2.2,32.7-0.6,49,0.6c-1-17.2-2-33.6-3-50.8C-11.2,661.7-31.1,664.9-51.9,664.7z M-215.1,720.5
	c0.2,0.6,0.5,1.1,0.7,1.7c2.1-0.1,4.3-0.1,6.4-0.3c20.1-1.7,40.1-4.9,60.3-3.5c1.1,0.1,2.2-0.1,3.3-0.1c7.4-0.2,14.8-0.4,22.1-0.5
	c7.4-0.1,14.7,0,23,0c-0.5-15.7-1.1-30.5-1.6-45.5c-1.7-0.1-2.6-0.3-3.4-0.2c-12.2,2.2-24.6,2.1-36.8,1.4
	c-6.3-0.4-10.9,1.1-15.6,5.4c-4.6,4.3-10.6,7-15.9,10.6c-10.7,7.4-21.3,14.9-31.8,22.4C-208.2,714.6-211.6,717.6-215.1,720.5z
	 M51.6,553.4c-2,0.9-3.3,1.2-4.1,2c-8.4,8.4-16.7,16.9-25.2,25.2c-3.7,3.6-5.1,7.8-5.5,12.9c-1.2,12.5-1.1,25.1-0.4,37.6
	c0.4,6.5,1.2,13,1.8,19.8c12.1-1.4,23.6-2.7,35.6-4.1C55.6,615.7,56.6,585.1,51.6,553.4z M-56.8,553.5c0,10.6,0,20.8,0,31.5
	c11.7-1.2,22.7-2.1,33.6-3.4c10.1-1.3,20.1-2,30.2-0.8c4,0.5,7.5-0.1,10.6-3.8c5-6.1,10.7-11.6,16.1-17.5c1.4-1.6,2.6-3.4,4.6-6
	C5.8,553.5-25.4,553.5-56.8,553.5z M-154.6,586.8c11.5,0,21.8,0,32.1,0c2.2,0,4.4-0.2,6.4,0.3c8.2,2.3,13.3,0.9,18.6-5.6
	c6.8-8.4,13.7-16.7,22-23.7c1-0.8,1.6-2.1,2.5-3.3c-14.1,0-27.7,0.2-41.3-0.1c-13.5-0.3-27-1-40.3-1.6
	C-154.6,564.6-154.6,575.5-154.6,586.8z M-93.1,593.9c0,24.1,0,47.1,0,70.4c10.8-1.9,20.9-3.6,31-5.4c0.2-1.3,0.4-2.1,0.4-3
	c0-19.4,0.1-38.7,0-58.1c0-2.1-0.9-4.1-1.3-6C-73.7,592.5-83.7,593.2-93.1,593.9z M-161.1,554.2c-1.9,0.6-3.1,0.8-4.2,1.4
	c-3.8,1.8-7.4,3.9-11.2,5.6c-11.5,5.1-22.4,11.2-33.1,17.8c-3.2,2-6.4,4.2-9.1,8.7c20.2-1.5,38.9,1.4,57.6,0.7
	C-161.1,576.6-161.1,565.7-161.1,554.2z M19.7,700.9c0.4,0.2,0.8,0.4,1.2,0.6c9.9-15.4,19.9-30.8,30.6-47.4
	c-11.8,1.4-22.6,2.7-34,4.1C18.3,673,19,687,19.7,700.9z M-61.5,666.5c-11.7-0.5-21.8,2.2-32.3,4.8c0.9,13-0.5,25.6,2.1,38
	c0.5,0.1,0.9,0.2,1.4,0.2C-80.9,695.5-71.5,681.4-61.5,666.5z M-62.8,556.8c-9.3,4.9-27.5,23.7-30.2,30.8c10.1,0.3,20.2,1,30.2-2.3
	C-62.8,576-62.8,566.8-62.8,556.8z"/>
</svg>
