<?xml version="1.0" encoding="utf-8"?>
<!-- Generator: Adobe Illustrator 19.0.0, SVG Export Plug-In . SVG Version: 6.00 Build 0)  -->
<svg version="1.1" id="Layer_9" xmlns="http://www.w3.org/2000/svg" xmlns:xlink="http://www.w3.org/1999/xlink" x="0px" y="0px"
	 viewBox="-249 251 500 500" style="enable-background:new -249 251 500 500;" xml:space="preserve">
<path style="fill:#fff" d="M-130.1,337.2c4.9-4.6,8.7-8.5,12.9-12c8.9-7.5,17.9-14.8,26.9-22.2c4.1-3.3,8.4-6.4,13.8-7.4c1.2-0.2,2.9-0.9,3.5-0.3
	c3.2,2.7,6.3,1.2,9.6,0.7c3.7-0.6,7.5-1.1,11.3-1.2c15.4-0.3,30.8-0.2,46.2-0.5c5.1-0.1,10.1-0.9,15.1-1.3c1.9-0.1,3.8-0.4,5.7,0
	c1,0.2,2.5,1.3,2.6,2.1c0.8,4.7,1.4,9.4,1.8,14.2c0.9,9.5,1.5,18.9,2.4,28.4c1.3,13.5,2.8,26.9,4.1,40.4c0.8,8,1.2,16,1.9,24
	c0.2,2.1,0.8,4.1,1.2,6.3c6.4-0.8,12.4-1.4,18.4-2.4c19.4-3,38.8-6.2,58.2-9.2c1.8-0.3,3.9-0.2,5.5,0.5c2.9,1.4,5,1.3,8.1-0.1
	c2.8-1.3,6.8,0.2,10.3,0.5c9.7,0.8,19.4,2.3,29,2c8.1-0.2,16.2-2.6,24.4-3.9c9.8-1.5,19.6-2.9,29.5-4.1c2.2-0.3,4.5,0.7,6.7,1.3
	c1.2,0.3,2.1,1.7,3.2,1.8c3,0.3,4.6,1.4,6.2,4.3c1.3,2.5,2.4,4.5,2.5,7.4c0.2,5.5,1,10.9,1.2,16.4c0.2,8.2,0.2,16.5,0.1,24.7
	c-0.3,17.4,1.1,34.6,5.4,51.5c0.9,3.4,1.1,6.9,1.4,10.4c0.1,1.1-0.5,2.5-1.2,3.4c-4.4,6.2-9,12.2-13.3,18.4c-4.1,5.9-8,11.9-12,17.8
	c-2.2,3.3-5.2,5.3-9.3,5.6c-19.4,1.3-38.8,2.4-58.2,4.1c-9.4,0.8-18.7,2.8-28.1,4.4c-4.3,0.7-8.5,2.4-13.1,1c-1.7-0.5-3.9,0.9-6,1.3
	c-3.7,0.7-7.4,1.5-11.1,1.8c-14.8,1-29.5,1.8-44.3,2.6c-0.8,0-1.6,0.3-3.1,0.6c0.6,4.9,1.4,9.6,1.8,14.3c0.7,8.4,1.4,16.8,1.8,25.1
	c0.4,8,0.4,16,0.8,24c0.2,4.2-1.3,7.6-4.1,10.9c-7.7,9.3-15,18.8-22.2,28.4c-5.7,7.6-11,15.5-16.6,23.1c-1,1.3-3,2.5-4.6,2.7
	c-9.9,1-19.8,1.6-29.6,2.4c-1,0.1-2.4,0.5-3.1,0c-5.1-3.7-10.7-1.9-16-1.4c-10.9,1-21.8,3-32.7,3.9c-9.4,0.8-18.9,0.9-28.4,0.8
	c-2.9,0-5.8-1.9-9.1-3.1c1.2-1.6,2.2-2.7,2.8-4c0.6-1.2,1.3-2.7,1.2-4c-0.3-11.2-0.8-22.4-1.2-33.6c-0.4-11.4-0.8-22.8-1.3-34.2
	c-0.3-8-0.8-16-1.1-24c-0.1-2.5,0.5-5,0.8-7.5c0.1-0.4,0.4-0.9,0.3-1.2c-1.8-5.4-0.4-10.4,0.7-15.8c1.1-5.3,0.4-10.9,0.3-16.4
	c-0.4-17.1-0.6-34.3-1.4-51.4c-0.4-9.9-1.8-19.8-2.5-29.7c-0.2-2.7,0.2-5.5,0.4-8.2c0.2-2.4,1.6-4.7-0.7-7.1
	c-0.7-0.8,0.3-3.1,0.4-4.7c0.1-11.4,0.6-22.9,0-34.3c-0.9-17.1-2.8-34.1-4-51.2c-0.8-10.7-1.2-21.5-1.7-32.2
	C-129.8,340.6-130,338.5-130.1,337.2z M-122.6,346.2c0.9,12.4,1.8,24.5,2.7,36.7c0.9,12.2,2.1,24.4,2.6,36.6
	c0.5,12.1,0.4,24.2,0.6,37.1c1.6-1.1,2.3-1.5,2.9-2c7.4-6.9,14.7-13.9,22.4-20.6c5.9-5.1,11.6-11.1,18.5-14.2
	c10.1-4.5,20.9-8.1,32.2-8.7c5.6-0.3,11.3-1.1,16.5-1.6c0-4.5,0.1-8.5,0-12.5c-0.6-14.1-1-28.3-2-42.4c-0.4-5.5-0.9-10.8,1.5-15.7
	c-1.8-2.9-3.9-3.6-7.1-3.1c-8.1,1.3-16.3,2.2-24.5,3.3c-4.5,0.6-8.9,1.3-13.1,1.9c0.6,9.2,1.3,17.6,1.8,26.1
	c0.3,4.4,0.5,8.8,0.8,13.3c0.6,10.1,1.3,20.3,1.9,30.4c0.1,2.1-0.2,3.9-2.7,4.2c-2.6,0.3-3.2-1.7-3.4-3.6c-0.4-3.8-0.5-7.6-0.8-11.4
	c-1-13.5-2.1-26.9-3.2-40.4c-0.5-6-1.3-12-1.9-18C-92.9,339-107.1,344-122.6,346.2z M-111.2,696.2c4.4-3.1,8.2-5.4,11.6-8.2
	c11.4-9.3,22.7-18.9,34.2-28.2c2.4-1.9,2.4-3.9,2.2-6.6c-1.2-17.5-2.2-34.9-3.1-52.4c-0.3-6.3-0.1-12.5-0.1-19
	c-11.8,0-22.9-0.2-34.1,0.1c-3.9,0.1-7.8,1.6-11.7,2.8c-2.7,0.8-4,2.7-3.7,5.8c0.5,5.9,0.7,11.8,1,17.7c0.8,15,1.8,29.9,2.3,44.9
	c0.4,11,0,22,0.1,33C-112.5,689.1-111.7,692.1-111.2,696.2z M-113.5,571.1c5.2-4.2,9.6-7.7,14-11.3c10.1-8.3,20.2-16.7,30.4-24.8
	c3-2.4,4-5.3,4-8.8c0-4.4-0.4-8.9,0.2-13.3c1.8-13.5,0.1-27-0.3-40.5c-0.1-2.9-0.9-5.7-1.3-8.4c-7-0.5-45.5,4.6-49.2,6.3
	c0,9.6-0.3,19.1,0.1,28.5c0.3,8.2,1.6,16.4,1.9,24.6c0.4,9.3,0.2,18.6,0.3,27.9C-113.5,557.6-113.5,563.9-113.5,571.1z M197.5,507.6
	c-3.2-23-2.2-44.9-6-66.3c-19.5,1.9-38.5,2.3-57,5.2c-2,19.7,0.9,61.5,4.7,68.4c9.6-0.4,19.3-0.2,28.9-1.4
	C177.7,512.3,187.3,509.7,197.5,507.6z M90.2,520.3c2-14-2.8-57.6-7.8-71c-16.7,2.9-33.7,5.8-50.4,8.7c1.1,23.2,2.2,46.1,3.3,69
	c0,0.5,0.8,0.9,1.3,1.5c2.1-0.9,4.1-2.1,6.3-2.5c7.1-1.1,14.2-2,21.3-2.9C73,522,81.7,521.2,90.2,520.3z M-14.3,577.4
	c-14.6,0.9-29.4,1.7-44.8,2.6c-0.2,25-0.4,49,3,73.4c16-3.6,31.4-5.7,46.3-9.7C-12.5,621.5-15,600-14.3,577.4z M11.7,310.4
	c-0.6,0-1.1-0.1-1.4,0.1c-8.6,7.5-17.1,15-25.6,22.7c-1,0.9-1.6,2.5-1.7,3.9c-0.5,8.4-1.2,16.8-1.1,25.2c0.1,13.1,0.8,26.2,1.3,39.2
	c0.1,2.4,0.3,4.8,0.5,7.7c13-0.7,25.1-0.1,37.5-2.4C19.6,374.3,13.9,342.5,11.7,310.4z M-18.3,461.4c-13.7,1-27,2-40.8,3
	c2.8,21.4,1.2,43.1,0.2,65.4c14.9-1.5,29-2.9,43.3-4.3c0-1.6,0-2.6,0-3.7c0.4-12.9-1.4-25.7-2.6-38.5
	C-18.8,476.1-18.3,468.7-18.3,461.4z M-9.4,650.6c-12.1,2.1-23.3,3.9-34.5,6.1c-3.9,0.8-8.3,1.5-11.2,3.8
	c-15.1,11.8-29.8,24.2-44.7,36.4c-0.4,0.3-0.4,1-1,2.4c32.1-2.4,63.4-6.5,95.5-9.2C-6.3,676.8-6.2,663.8-9.4,650.6z M30.7,451.1
	c3.4-0.3,6.4-0.3,9.3-0.8c8.5-1.6,17-3.4,25.5-5c3.1-0.6,6.4-1.7,9.3-1.2c4.1,0.7,6.5-1,8.7-3.7c6.2-7.5,12.3-15.1,18.4-22.6
	c3.4-4.2,6.8-8.5,10.8-13.6c-2.6,0.5-4.2,0.9-5.8,1.1c-1.4,0.2-3.3,0.8-4.2,0.2c-2.8-2-5.6-1.2-8.5-0.7c-12.1,2-24.2,4.1-36.3,5.8
	c-7.3,1-14.7,1.4-22.1,2.2c-3.5,0.4-7,1.6-10.4-0.8c-0.7-0.5-2.2,0.2-2.8,0.3c1,2.8,2.2,5.1,2.7,7.5C27.2,429.8,28.9,440,30.7,451.1
	z M126.6,402.9c5.5,12.1,4.3,24.6,6.8,36.5c1.4,0,2.4,0.1,3.5,0c18-2.3,36-4.1,54.2-4.2c1.6,0,3.5-1.4,4.6-2.7c2.6-3,5-6.3,7.2-9.7
	c5.1-7.7,10-15.5,15.6-24.2c-3,0-4.8-0.2-6.6,0c-12.3,1.7-24.6,3.4-36.9,5.5c-10.7,1.8-21.2,3.3-32.1,1.1
	C137.7,404.1,132.4,403.7,126.6,402.9z M107.9,558.4c31.2-8.2,63.2-6.8,94.9-10.5c-1.6-11.2-3.2-22.1-4.7-33
	c-10,1.9-19.4,4.1-28.9,5.5c-9.6,1.4-19.2,0.9-28.5-0.8C132.3,535,117.7,544.5,107.9,558.4z M23.6,459.8
	c-12.3,1.1-23.6,2.1-35.7,3.2c0.4,8.8,0.7,17,1.2,25.2c0.5,8.4,1.2,16.8,1.8,25.2c0.3,3.9,0.6,7.9,0.9,12.1c12.3,0,23.8,0,35.9,0
	C28.9,503.3,26.2,481.7,23.6,459.8z M35.1,639.6c2.2-1.3,2.7-4,2.5-6.8c-1.4-17.2-2.9-34.4-4.4-51.7c-0.3-3.2-1-6.4-1.6-10.2
	c-10.9,3.4-22,2.6-32.2,7.6C0,599.7,0.5,620.9,1.1,643c8.5-1.2,16.1-2.4,23.8-3.3C27.8,639.3,30.9,639.6,35.1,639.6z M231.1,504
	c-1.6-9.3-3.4-18.1-4.5-27.1c-1-8.4-2.3-16.9-1.5-25.2c1.3-14.5-0.5-28.7-1-43c0-0.9-0.6-1.7-1.3-3.3c-2.3,3.2-4.1,5.7-5.9,8.3
	c-4.8,7-9.1,14.2-14.4,20.8c-2.4,3-3,5.5-2.5,9c1.1,9.2,1.9,18.5,2.6,27.7c0.7,8.8,1,17.7,1.6,26.6c0.2,2.5,0.9,4.9,1.4,7.4
	C214.4,504.8,222.7,504.4,231.1,504z M91.9,451.2c3.5,22.6,7.6,44.3,6.7,67c10.6-2.1,20.2-4.1,29.7-6c-0.8-21.2-1.6-42.4-2.4-63.7
	C114.5,448.3,104.1,453.9,91.9,451.2z M-70.9,334.4c5.4-0.4,10.2-0.6,15-1.3c10.7-1.4,21.3-3.2,32-4.5c3.1-0.4,5.5-1.3,7.8-3.4
	c8.4-7.7,17-15.2,25.4-22.9c0.6-0.6,0.9-1.5,1.5-2.5c-5.2,0.3-9.8,0.9-14.4,0.9c-9.5,0.1-19-0.2-28.4-0.2c-7,0-13.9,0-20.9,0.5
	c-6.2,0.5-12.7,0.5-18.9,3.9C-70.6,314.5-72.6,324.1-70.9,334.4z M93,560.9c-0.8-11.8-1.5-23-2.3-33.9c-9,0.8-17.6,1.9-26.2,2.3
	c-9.5,0.4-18.6,2.1-27.9,4.8c0.8,10,1.6,19.7,2.5,30C57.3,563,74.9,561.9,93,560.9z M-12.4,571.1c-0.8-12.7-1.6-25-2.3-37.4
	c-16-0.9-30.5,2.4-45.3,4.1c-0.3,12.5-0.6,24.2,1.2,36.5C-43.4,573.3-28.5,572.3-12.4,571.1z M-60.5,456.6c14,3.4,27.1,0.7,40.7-2.5
	c1.1-13-1-25.6-4.2-38.7c-13.1,1-26.2,0.6-39.1,6.9C-62.2,433.6-61.4,444.9-60.5,456.6z M-112.1,462.2c0.2,0.6,0.4,1.1,0.6,1.7
	c14.5-2.2,29-4.4,44.3-6.7c-1-10.3-1.9-20.7-3-31.9C-86.1,436.2-98.4,450-112.1,462.2z M-109.8,577.4c14.9-0.6,28.8-1.2,43.4-1.8
	c-0.5-10.9-1-21.1-1.5-32.4C-81.8,555.5-97.4,564-109.8,577.4z M-11.6,456.1c11.8-0.2,23.2,0,35-3.7c-1.9-11.3-3.7-22.3-5.7-34.7
	C5.4,429.5-4.1,441.9-11.6,456.1z M-80.3,304.7c-14.6,9.3-40.1,30.9-42,35.8c14.4-3.4,28.5-6.6,43.7-5.7
	C-80.3,324.5-76.4,314.8-80.3,304.7z M125.6,441.5c-0.7-6.3,0.1-12.4-2.3-16.8c-2.9-5.4,0.8-11.4-3.5-16.6c-1.7,1.7-3.4,3.2-4.9,4.9
	c-1.8,2.1-3.3,4.3-5.1,6.4c-6.4,7.9-12.8,15.7-19.1,23.6c-0.7,0.9-0.4,2.4-0.8,4.5C102.2,445.6,113.4,443.6,125.6,441.5z
	 M-7.8,533.4c0.7,13.3,1.4,25.9,2.1,39.1c10.3-13.1,20.2-25.6,30.7-39.1C13.4,533.4,3.1,533.4-7.8,533.4z M100.2,553.8
	c-0.2-0.5-0.4-1-0.6-1.5c6-5,12.2-9.8,17.9-15.1c3.4-3.1,6.2-6.9,9.2-10.5c1.6-1.9,3.2-4.1,1.6-7.7c-9.7,1.2-19.5,3.4-29.6,6.4
	c0,6.2-0.2,12.1,0.1,18C99,546.8,99.7,550.3,100.2,553.8z M1.5,683.6c9.9-13.3,19.1-25.5,28.5-38.2c-10.1,1.4-19.6,2.7-29,4
	C0.8,660.8-1,671.5,1.5,683.6z M11.2,413.7C1.3,414.2-7,414.6-16,415c1.3,9.5,2.4,18,3.6,27.4C-4.4,432.7,2.9,423.8,11.2,413.7z
	 M29.9,540.5c-10.2,9.2-17.4,18.8-25.3,29c12.4-1.1,12.7-1.2,17.6-4.7c3.1,0.2,5.7,0.3,9,0.5C30.8,556.9,30.4,549.4,29.9,540.5z
	 M228.5,511.9c-7.9-0.8-14.8-1-21.8,1.2c0.1,9.3,0.6,18,3.1,28.2C216.4,530.9,222.2,521.8,228.5,511.9z"/>
<path style="fill:#fff" d="M-194,311.8c-0.7,0.1-1.3,0.1-2,0.2c0-0.4,0-0.7,0-1.1c0.7,0,1.3,0,2,0C-194,311.2-194,311.5-194,311.8z"/>
<path style="fill:#fff" d="M40.4,630.1c1-0.8,1.8-1.4,3-2.4C42.9,629.7,42.1,630.3,40.4,630.1z"/>
<path style="fill:#fff" d="M-27.9,316.5c0.6,0,0.9,0,1,0.1c0.3,0.2,0.6,0.5,0.9,0.8c-0.4,0.4-0.7,0.7-1.1,1.1C-27.3,317.9-27.5,317.4-27.9,316.5z"/>
<path style="fill:#fff" d="M-27.9,317.5c-1.5,0.5-2,0.2-2.2-1.2C-29.3,316.7-28.8,317-27.9,317.5z"/>
<path style="fill:#fff" d="M-33.8,356.5c-0.2-0.4-0.5-0.8-0.7-1.2c0.1-0.1,0.2-0.2,0.3-0.2c0.3,0.4,0.6,0.7,0.9,1.1C-33.4,356.3-33.6,356.4-33.8,356.5
	z"/>
<path style="fill:#fff" d="M-200.6,428.1c1,0.5,1.9,0.9,2.9,1.4c-0.3,0.6-0.6,1.1-0.9,1.7c-0.9-0.5-1.8-1-2.8-1.6
	C-201.1,429.1-200.9,428.6-200.6,428.1z"/>
<path style="fill:#fff" d="M126.9,646.5c-1.6,0.4-3.2,0.8-5.2,1.4c0.1-1.5,0-2.7,0.2-2.7c1.5-0.3,3.1-0.5,4.7-0.7C126.7,645.2,126.8,645.9,126.9,646.5
	z"/>
<path style="fill:#fff" d="M98.1,477.6c0.8-1.3,1.7-2.6,2.5-3.8c0.5,0.3,0.9,0.6,1.4,0.8c-0.8,1.4-1.5,2.7-2.3,4.1C99.2,478.3,98.6,477.9,98.1,477.6z"
	/>
<path style="fill:#fff" d="M34.8,360.8c2-1.5,3.2-2.4,4.4-3.3c0.4,0.2,0.8,0.5,1.2,0.7c-0.4,1.3-0.8,2.6-1.2,4C38,361.8,36.9,361.5,34.8,360.8z"/>
<path style="fill:#fff" d="M62.7,659.9c1.7-1.5,2.8-2.6,4.3-3.9C67.9,659.7,66.7,660.7,62.7,659.9z"/>
<path style="fill:#fff" d="M-49.7,654.2c0-0.1,0-0.1,0-0.2c-0.9,0.1-1.8,0.1-2.8,0c-2.2-0.4-4.4-0.4-6.5-0.3c0,0.2,0,0.3,0.1,0.5
	c-13.8,1.8-26.8,3.5-40.1,5.2c-2.6,1.2-5.5,1.5-8.5,1l0,0c-2.2,0.7-4.4,0.7-6.6,0.2c-0.7,0.2-1.6,0.3-2.7,0.3
	c-14.5,0.7-28.9,1.5-43.8,2.2c-0.7-26.5-1.4-52.5-2.2-79.3c10.4-0.6,21.1-1.6,31.9-1.8c5.8-0.1,9-0.1,10.8,1.2l0,0
	c0.8-0.1,1.6-0.2,2.4-0.2h0.1c0.5-1.7,1.2-3.3,2.3-4.7c-1.2-1-2.3-2.2-3.1-3.7c-1.9,0.8-4,1.2-6.4,1.2c-9.9,0-19.8,0.9-29.7,1.3
	c-2.9,0.1-5.7,0-9.6,0c-1.4-13.3-3.6-26-2.3-39.2c25.6,1.6,51,2.2,77.7,0.8c1.2-0.4,2.6-0.6,4.1-0.6c1.3,0,2.5,0.2,3.6,0.5
	c5.8-1.6,12-2.3,17.6-3.3c-0.5-1.4-1.6-2.8-2.7-3.3c-2.5-1.1-5.5-1.7-8.3-1.6c-7.2,0.3-14.4,1.5-21.6,1.6
	c-18.6,0.3-37.2,0.4-55.8,0.2c-4.5,0-9.3-0.5-13.6-1.9c-6.7-2.1-11.8,0.1-16.6,4.5c-2.4,2.1-4.7,4.3-7.1,6.3
	c-16.7,13.9-33.4,27.7-49.9,41.3c3.2,46.4,4.5,80.4,9.2,126.8c8.9,0,17.1,0,25.3,0c12.5,0,25-0.4,37.4,2c1.8-1.1,4-1.7,6.6-1.8
	c18.7-0.2,37.4-2.4,56-3.6c1-0.8,2.1-1.4,3.4-1.9c-0.1-0.3-0.3-0.5-0.3-0.8l0,0c-0.2-0.1-0.4-0.2-0.7-0.3c-1.1-0.4-2-1-2.9-1.6
	c-1.1,0.3-2.2,0.4-3.4,0.4c-0.2,0-0.3,0-0.5,0c-0.1,0-0.3,0-0.4,0s-0.3,0-0.4,0c-2.3,0.3-4.5,0.5-6.7,0.3c-15.7-1.1-31.3-1-47,0.6
	c-10.8,1.1-21.6,1.5-32.4-1.8c-3.1-0.9-6.7-0.1-10.1,0c-2.8,0.1-5.6,0.5-9.8,0.9c4.4-6.9,11.4-7.9,16.5-11.8
	c11.8-9.1,22.2-8.7,34.3-17.4c2.3-1.6,5.1-3.1,7.8-3.3c13.4-1,26.9-1.6,40.4-2.1c2.3-0.1,3.8,0.2,4.7,1c2.8-0.5,5.7-0.9,8.5-0.9
	c0-0.1,0-0.1,0-0.2c12.7-2.2,25.3-5.3,40.2-5.2c-0.3,0.4-0.7,0.9-1,1.3c3.7-1.2,7.6-2,11.5-2.7c0.5-0.3,1.1-0.7,1.6-1
	C-49.9,659.4-49.5,656.1-49.7,654.2z M-174.9,538.9c1.1,13.7,2.2,26.2,3.3,39.3c-18.6,2.4-37.3-3.5-55,4.4
	C-211.3,565.8-193.3,552.9-174.9,538.9z M-172.2,669.6c-7.6,6-19.3,6-26.9,12.1c-7.6,6.1-11,6.5-18.6,12.6c-1.6,1.3-3.3,2.7-5.9,4.8
	c-0.4-21.1,1.3-29.2-1.4-48.9c-2.6-19.7-4.8-39.4-7.2-59.4c12.6-5.1,24.3-8,37-6.7c7.6,0.8,15.4,0.1,23.3,0.1
	c0.7,2.3,1.5,3.9,1.5,5.5c0.8,23.6,1.4,47.3,2.2,70.9C-168,664.5-169.2,667.3-172.2,669.6z"/>
</svg>
