<?xml version="1.0" encoding="utf-8"?>
<!-- Generator: Adobe Illustrator 19.0.0, SVG Export Plug-In . SVG Version: 6.00 Build 0)  -->
<svg version="1.1" id="Layer_9" xmlns="http://www.w3.org/2000/svg" xmlns:xlink="http://www.w3.org/1999/xlink" x="0px" y="0px"
	 viewBox="-249 251 500 500" style="enable-background:new -249 251 500 500;" xml:space="preserve">
<path style="fill:#fff" d="M1038.2,276.2c-0.5,0.2-1,0.3-1.5,0.5c-0.1-0.2-0.1-0.4-0.2-0.5c0.5-0.2,1-0.3,1.5-0.5
	C1038.1,275.8,1038.1,276,1038.2,276.2z"/>
<path style="fill:#fff" d="M904.7,321.1c-0.8-0.8-0.7-1.6,0.5-2.7c0,1.1,0.1,1.8,0.1,2.6C905.1,321,904.9,321,904.7,321.1z"/>
<path style="fill:#fff" d="M-108.6,544.3c1.2-9.8-0.1-18.9-0.7-28.1c-0.9-13.4-1.5-26.9-1.8-40.3c-0.1-4.1,1.4-8.3,1.5-12.4c0.2-17,0.1-34.1,0-51.1
	c-0.2-18.4-0.7-36.8-0.7-55.2c0-4.5-2.1-7-6.3-9.3c3.6-4.2,6.6-8.3,10.3-11.8c10.3-10,20.7-19.9,31.1-29.7c4.2-3.9,9.2-5.4,14.9-3.9
	c1.1,0.3,2.2,0.3,3.3,0.1c24.1-3,48.4-3.5,72.6-2.7c10.7,0.4,21.3,1.8,31.2,6.4c-2.2,7.4-0.3,14.6-0.1,21.8
	c0.8,20.9,0.5,41.8-0.9,62.7c-0.6,8.7,0,17.5,0.4,26.2c0.1,2.7-0.1,4.4-3.1,5.1c1.5,0.1,3.1-0.1,4.6,0.3c2.4,0.5,3.8,1.9,3.8,4.7
	c-0.1,15.3,0.5,30.6-0.1,45.9c-0.9,22-2.1,43.9-0.5,65.9c0.2,2.2-1.1,4.5-1.6,6.8c-0.5,2.4-1.4,5-1,7.3c3.9,19.7,5.2,39.7,6.7,59.6
	c1,13.2,1.3,26.5,2.3,39.7c0.3,4.4-1.7,7.4-4.4,10.1c-6.9,6.9-12,15.1-16.9,23.4c-2.1,3.4-3.6,7.3-4.6,11.1c-0.6,2.6-1.7,4.7-2.9,7
	c-2.9,5.6-7.7,6.3-13,6.1c-8.7-0.4-17.5-1.4-26.2-1.2c-11,0.3-21.9,1.5-32.9,2.4c-5.4,0.4-10.7,1-16.1,1.2c-7,0.2-13.9,0.8-20.6,3
	c-8.7,2.9-17.8,2.5-26.8,3.3c-27.5,2.4-55.3,1.1-82.7,5.6c-9.5,1.6-19,2.9-28.6,4.1c-3,0.4-7,1.3-8.9-0.2c-2.4-1.9-4.1-5.9-4.3-9.1
	c-0.7-10.1-0.6-20.2-0.6-30.3c0-15,0.7-30.1,0.1-45.1c-0.6-15.5-2-30.9-3.8-46.3c-0.5-4.6,0.8-7.3,4.1-9.6
	c11.3-8.1,22.6-16.3,34-24.2c6.8-4.7,14-8.9,21-13.5c2.4-1.6,4.6-2.2,7.5-1.4c2.5,0.7,5.3,0.7,7.9,0.6c6.5-0.4,13-0.9,19.5-1.5
	C-131,546.6-120.1,545.4-108.6,544.3z M-60.1,348.7c-1.8,24.3,4,47,3.6,70.7c18.9-1.4,36.8-2.8,54.2-4.1c3.7-11.5,2.8-22.4,1.7-33.3
	c-0.9-9.3-1.6-18.7-2.3-28c-0.3-3.3,1.6-4.3,4.8-4.1c5.1,20.9,4.2,42.3,5.3,63.8c11.4-0.7,22,1.8,33.1,0c-0.3-3.4-0.7-6.3-0.8-9.2
	c-0.3-5.8-0.6-11.7-0.5-17.5c0.3-15.9,1.1-31.9,1.1-47.8c0-9.1-1.3-18.2-2-28.2c-14.2,9.5-22.4,23.9-36.3,31.7
	c-1.3,0.7-1.7,3-2.6,4.7C-20.5,347.9-40,348.3-60.1,348.7z M-229.1,597.4c0.4,6.1,0.6,11.7,1.2,17.3c1.9,18.1,3.4,36.2,2.4,54.4
	c-0.7,13.2-0.5,26.5-0.5,39.7c0,3.1,0.9,6.2,1.5,10.2c2-1.7,3.1-2.5,4.1-3.3c8.6-7.5,17.2-15.1,25.9-22.5
	c6.2-5.2,12.6-10.1,19.1-14.9c2.7-2,5.7-3.6,8.5-5.3c-1.6-25.9-3.2-52.2-4.8-79.1C-191.2,595.1-209.7,596.2-229.1,597.4z M-59.8,544
	c23.1,5.1,44-2.8,66-2.8c-0.5-12.7-1.1-24.6-1.4-36.4C4.5,493,5,481,2.7,468.2c-0.5-0.2-2.1-1.5-3.6-1.5c-18.1,0.6-36.2,2-54,4.9
	c-0.3,1.2-0.6,1.8-0.6,2.4c-0.1,5.8-0.2,11.6-0.3,17.4c-0.2,8.9,0.2,17.9-0.7,26.8C-57.4,526.6-52.4,535.5-59.8,544z M13.3,589.8
	c-11.7-1.8-23.6-1.4-35.6-0.9c-12,0.5-24,1.3-36.9,2c3.1,21.8,1.7,43.4,5.9,64.4c10.4-1.4,19.9-3.3,29.5-3.7
	c9.6-0.4,19.3,0.8,28.9,1.1c2.6,0.1,5.2-0.1,8.4-0.2C13.4,631.2,13.4,610.5,13.3,589.8z M-94.4,713.9c1.3-0.3,2.4-0.6,3.4-0.8
	c8.3-1.6,16.2-5.4,25-5.3c3.4,0,6.7-0.2,10.1-0.6c17.8-1.8,35.6-5.1,53.6-3.1c2,0.2,4-0.1,6.1-0.3c3.5-0.4,7-0.9,10.6-1.4
	c-0.3-14.5-0.6-29.4-0.9-44.3c-7.2-0.5-13.9-0.8-20.6-1.5c-8.5-0.9-17.1-1.2-25.5,0.6c-8.4,1.7-16.8,3.5-25.2,5.5
	c-1.3,0.3-2.7,1.6-3.6,2.8c-7.3,9.4-14.5,18.9-21.7,28.3c-3.2,4.1-6.5,8-9.6,12.2C-94.3,708-96.4,710.2-94.4,713.9z M-113.1,591.9
	c-16.5,3.2-33.4-0.8-50.3,2.1c0.8,24.6,2.7,48.4,7.4,71.7c15.1-1.3,30.3-2.5,45.9-3.8C-110.5,638.2-106.7,615.3-113.1,591.9z
	 M-66.5,349.5c-12.6,0.3-24.3,0.5-36.4,0.8c0.1,5.2-0.1,10.1,0.4,15c1.5,17.9,2.7,35.9,1.7,53.9c-0.4,6.5-1.4,13-1.3,19.5
	c0.1,6.3,1.3,12.5,2,19.2c13-10.9,24.5-23,37-32.7c-0.2-2.3-0.7-4.4-0.5-6.4c0.7-6.7,1-13.3,0.2-20.1c-1.4-12-2-24.2-2.8-36.3
	C-66.5,358.3-66.4,354.1-66.5,349.5z M-215.2,719.1c0.3,0.4,0.5,0.9,0.8,1.3c2-0.3,3.9-0.5,5.9-0.8c22.2-3.8,44.4-6.5,67-6.8
	c11.6-0.1,23.2-1.3,35.5-2.1c-1.3-14.8,0.1-28.9-3.3-42.9c-11.8,0.6-23.2,1.1-34.6,1.8c-8,0.6-15.1,3.6-21.3,8.6
	c-10.2,8.1-20.6,15.9-30.7,24.1C-202.7,707.7-208.9,713.5-215.2,719.1z M46.7,429.1c-3.8,2.7-5.9,4.2-8,5.8c-3.4,2.6-7.2,4.8-9.9,8
	c-5.9,6.8-11.2,14-16.7,21.1c-0.6,0.8-1.5,2.4-1.2,2.9c2.6,4.2-0.2,8.4,0,12.5c0.5,19.1,0.8,38.2,1.3,57.3c0,1.5,0.4,3,0.8,5.3
	c10.3,0.4,20.3,0.8,30.2,1.1C44.3,505.2,45.5,467.9,46.7,429.1z M-66.4,541.3c3-28,3.9-63.1,1.8-68.7c-13,0.6-25.9,1.2-38.8,1.9
	c-1.1,12.1,1.9,64.4,4.2,70.1C-88.5,544.2-77.5,546.2-66.4,541.3z M-66.4,591.8c-12.1,1.1-23.7,2.2-35.6,3.3
	c0.5,21.6,0.9,42.6,1.4,64.5c11.7-0.7,23-1.2,34.3-2.1c3.9-0.3,5.1-2.4,4.7-6.6c-0.9-10.9-1.8-21.9-2.7-32.8
	C-65.1,609.6-65.7,601.2-66.4,591.8z M-60.1,585.1c24.6-0.9,48-1.8,71.3-2.6c-8.1-10.7-4.5-23.7-6.3-36.5
	c-6.9,0.6-13.4,0.5-19.7,1.8c-10.2,2.1-20.4,2.6-30.8,2.4c-5.3-0.1-10.6,0.2-16.7,0.3C-61.6,562.1-60.9,573.2-60.1,585.1z
	 M-59.6,341.7c8-0.2,14.4-0.3,20.9-0.4c10.7-0.3,21.5-0.6,32.2-1.1c1.5-0.1,3.4-1,4.3-2.2c8.5-11.2,17.7-21.7,30.2-29.4
	c-14.8-3.6-76.7-2.3-86.7,1.8C-59,320.2-59.2,330.2-59.6,341.7z M19.9,651.2c5.6,1.4,10,0.5,14.4,0c4.4-0.5,9.1,0.2,13.3,0.4
	c-0.4-9.2-1.1-17.8-1.1-26.4c-0.1-11.1,0.3-22.3-0.7-33.4c-0.9-9.3-0.9-18.7-1.2-28.1c-0.1-2.9-0.4-5.6-3.7-8.9
	c-1.2,1.8-2.1,3.4-3.1,4.8c-3.9,5-7.8,9.9-11.7,14.8c-4.2,5.2-7.8,10.6-6.2,17.9c0.4,1.7,0.1,3.6,0.1,5.4
	c-0.1,13.2-0.2,26.5-0.3,39.7C19.6,641.9,19.8,646.3,19.9,651.2z M-59.6,425.8c1.7,3.7,3.6,6.1,3.8,8.6c0.6,7.8,0.5,15.6,0.7,23.4
	c0.1,1.9,0.4,3.8,0.6,5.9c19.2-1.6,37.7-3.1,56.2-4.7c0.6,0,1.1-0.7,1.6-1.1c-7.5-11.9-5.1-11.2-5.6-24.1c-0.1-3.7-0.2-7.5-0.3-12
	C-21.9,423.2-40.4,424.4-59.6,425.8z M-164.6,586.3c7.4-0.2,14.1,0.6,20.3-0.7c6.3-1.3,12.5-1,18.7-1.3c6.3-0.3,12.6,0.4,18.2,0.6
	c-0.2-11.1-0.5-21.7-0.7-33.1c-18.7,1.6-36.7,3.1-55.1,4.6C-163.6,566.9-164.1,576.6-164.6,586.3z M-173.2,555.1
	c-18.3,11.3-36.3,21.4-52.7,36.2c18.7-1.4,35.8-2.7,53.4-4C-171.8,576.8-170.9,566.6-173.2,555.1z M-69,310.6
	c-12.5,10.9-24.9,20.3-34.7,33.6c12.6-1,24.8,0.5,36.6-2.6C-64.7,331.3-66.9,321.7-69,310.6z M-63.2,434.5
	c-9.7,5.9-32.2,27.4-34,32.4c11.7,1.4,23-0.9,34.6-2.4C-62.7,454.4-62.9,444.8-63.2,434.5z M-100.7,666.5c-0.5,10.2,2.3,27.3,5.8,33
	c8.4-11.6,16.5-22.8,24.9-34.4C-79,663.4-91.5,664.1-100.7,666.5z M44,659.6c-5.2-4.7-11.1-2.6-16.4-2.9c-6.9-0.4-7.5,0.2-7.3,6.9
	c0.2,11,0.6,21.9,1,32.9c0,1.3,0.4,2.6,0.6,3.7C29.4,686.4,36.7,672.9,44,659.6z M-69.6,558.8c-11.5,11-21.9,21-32.3,30.9
	c0.2,0.5,0.4,0.9,0.7,1.4c10.6-5.9,22.9-1,33.8-5.8C-68.1,576.6-68.8,568.4-69.6,558.8z M7.3,421.6c0.5,9.4,1.1,19.1,1.6,28.7
	c9.3-9.4,19.6-17,26-28.6C23.3,419.8,13.8,419.7,7.3,421.6z M-102,580c8.7-5.8,26.3-23.8,27.7-28.1c-8.7,0.3-17.4-1-26.3,0.8
	c0.1,2.7,0.1,4.9,0.2,7.1c0.2,5.2,2,10.6-1.5,15.6C-102.7,576.3-102,578.2-102,580z M31.9,548.4c-7.3-0.7-13.2-1.2-19.7-1.8
	c-0.8,8.1-3.1,15.7,2.7,23.4C20.5,562.8,25.9,556,31.9,548.4z"/>
<path style="fill:#fff" d="M79.2,525.3c-1.3,0.7-2,1.4-2.6,1.4c-0.4,0-1-1.2-1-1.9c0-0.4,0.9-1.2,1.3-1.1C77.5,523.8,78,524.5,79.2,525.3z"/>
</svg>
