<?xml version="1.0" encoding="utf-8"?>
<!-- Generator: Adobe Illustrator 19.0.0, SVG Export Plug-In . SVG Version: 6.00 Build 0)  -->
<svg version="1.1" id="Layer_9" xmlns="http://www.w3.org/2000/svg" xmlns:xlink="http://www.w3.org/1999/xlink" x="0px" y="0px"
	 viewBox="-249 251 500 500" style="enable-background:new -249 251 500 500;" xml:space="preserve">
<path style="fill:#fff" d="M1038.2,276.2c-0.5,0.2-1,0.3-1.5,0.5c-0.1-0.2-0.1-0.4-0.2-0.5c0.5-0.2,1-0.3,1.5-0.5
	C1038.1,275.8,1038.1,276,1038.2,276.2z"/>
<path style="fill:#fff" d="M904.7,321.1c-0.8-0.8-0.7-1.6,0.5-2.7c0,1.1,0.1,1.8,0.1,2.6C905.1,321,904.9,321,904.7,321.1z"/>
<path style="fill:#fff" d="M41.3,738.4c-1,0.2-2,0.4-2.9,0.6c0-0.4-0.1-1.1-0.1-1.1c1-0.2,2-0.3,3-0.4C41.3,737.8,41.3,738.1,41.3,738.4z"/>
<path style="fill:#fff" d="M29.2,407.5c11-2.9,22.3-3.9,33.7-4.6c2.1-0.1,4.2-0.8,6.3-1.1c9.9-1.6,19.9-3,29.8-4.7c9.7-1.7,19.7-0.9,29.1-3.9
	c4.5-1.4,7.8,1.5,11.4,3.1c0.7,0.3,1.4,2,1.2,2.6c-1.9,4.5,0.4,8.6,0.9,12.9c2.1,16.8,4.3,33.5,6.6,50.2c2,14,4.3,28,6.6,42
	c0.6,3.6,1.6,7-2.5,9.4c-0.7,0.4-1.2,2.1-0.9,2.7c1.7,3.8-1,5.7-3,8.2c-7.1,8.6-14.1,17.3-21.1,26c-1.5,1.8-3,3.6-4.4,5.4
	c-2.5,3.3-5.6,4.5-10,4.3c-4.9-0.2-9.8,0.7-14.7,1.1c-11.1,0.9-22.2,1.7-33.3,2.9c-5.9,0.6-11.7,2-18.3,3.1c5.7,27.6,7,54.9,13.7,82
	c-3.8,4.4-7.9,9.8-12.6,14.6c-7.1,7.2-12.2,15.6-17.2,24.2c-2.2,3.7-4,7.7-9.6,6.4c-0.2,0-0.5-0.1-0.6,0c-4.6,5.4-10.8,1.7-16.1,2.7
	c-6.3,1.1-12.7,2-18.9,3.4c-13.3,2.9-26.8,3-40.2,4.3c-12.8,1.2-25.5,3.1-38.2,4.7c-5.5,0.7-10.9,1.2-16.4,1.8
	c-2.7,0.3-5.5,0.2-8.2,0.8c-18.1,4-36.3,6-54.8,6.5c-4.1,0.1-8.1,0.9-12.2,0.9c-11.3,0.1-22.7-0.1-34,0.1c-3.2,0.1-5.7-2.8-8.9-1.5
	c-1.4-2.4-4.1-4.9-3.9-7.2c1.5-14,0.8-27.9-0.3-41.9c-0.5-6.2-0.2-12.5-0.5-18.8c-0.7-14.6-1.5-29.2-2.3-43.8c0-0.4,0-0.8-0.1-1.3
	c-1.1-9.3,1.7-16.5,10-21.9c10.3-6.8,20.1-14.3,30.1-21.5c6.5-4.7,13.1-9.4,19.6-14.2c3.1-2.3,5.9-3.2,10-1.9
	c3.3,1.1,7.2,0.7,10.8,0.5c11.1-0.7,22.2-1.7,33.3-2.7c1-0.1,2-0.7,3.2-1.1c-1-9.6-2-19.1-2.9-28.7c-0.9-9.1-1.6-18.3-2.4-27.5
	c-0.4-4.4-0.7-8.7-1.1-13.1c-0.1-1.2-0.7-2.7-0.2-3.7c3.4-7.1,0.7-14.3,0.8-21.5c0.1-7.3,0.1-14.7-0.6-21.9
	c-1.1-11.8-2.9-23.6-4.4-35.4c-1.5-11.6-3-23.2-4.5-34.8c-0.4-2.8-0.6-5.7,4-6.6c-2.4-1.6-3.9-2.6-5.4-3.7c0.5-0.8,0.7-1.5,1.1-1.8
	c9-5.7,14.9-14.3,22.6-21.3c2.8-2.6,5.9-4.8,8.8-7.3c3.6-3,8-5.4,10.5-9.1c3.9-5.8,9.6-6.1,15.5-6.7c0.6-0.1,1.3-0.1,1.9,0
	c7.1,1.9,14,0.3,21-0.4c13-1.4,26-2.5,39-3.7c5.9-0.6,11.9-0.9,17.8-1.9c2.1-0.4,3.9-2.5,5.8-3.9c7.2,18,7.7,37.2,9.6,56.2
	c0.5,5,1,10,2,14.9c2,10,4.5,20,6.4,30C28.5,396,28.7,401.8,29.2,407.5c0.5,6.8,0.7,13.7,1.4,20.5c0.6,6.7-1.2,13.7,1.5,20.5
	c5.7-0.6,11-1.1,16.3-1.6c8.7-0.9,17.5-1.8,26.2-2.5c5.1-0.4,10.2-0.7,15.2-0.6c5.6,0.1,10.6-0.1,13.3-6.1c1-2.3,2.7-4.2,4.3-6.2
	c6.6-8.2,13.3-16.3,20-24.5c1.9-2.4,4.4-4.6,2.9-8.5c-5,0.6-10,0.3-13.5,4.7c-1.4,1.8-4.1,2.9-5.6,1c-2-2.8-4.2-2-6.7-1.8
	c-4.7,0.5-9.4,0.8-14.1,1.4c-11.9,1.6-23.7,3.4-35.6,5c-4.9,0.7-9.8,0.8-14.7,1.7C36,411.2,32.2,411,29.2,407.5z M-221.7,706.9
	c19.6-12.3,37.1-26.7,53.9-41c0.3-4.8,0.9-9.1,0.8-13.4c-0.3-16.5-0.8-33-1.3-49.5c-0.1-2.2-0.7-4.3-1.1-6.6
	c-19.2,1.1-37.7,2.1-56.2,3.1c0.8,18.4,0.8,36.1,2.5,53.8C-221.4,671.1-226,688.8-221.7,706.9z M1.2,577.4c-4.5,1.5-7.6,3-10.9,3.5
	c-16.1,2.4-32.1,5.5-48.4,5.8c-3.3,0.1-6.6,1-10.9,1.7c2.8,22,5.5,43.5,8.2,64.6c4.6-0.4,8.8-0.9,13-1.3c12.8-1.2,25.6-2.2,38.3-3.7
	c6.3-0.8,12.4-2.6,19.1-4c-1.8-11.6-3.7-22.4-5.1-33.3C3.2,599.8,2.4,588.9,1.2,577.4z M31.7,454c4.3,24.7,8.3,48,12.4,72.2
	c20.9-4.2,41.5-8.4,62.7-12.7c-3.2-21.7-5-42.8-9.6-63.8C75.3,449.1,54,452.4,31.7,454z M-15.6,458.2c-16.7,1.1-33.5,2.1-50.6,3.2
	c0.7,26.2,0.3,51.5,6.7,76.9c18.2-2.9,35.9-5.7,53.9-8.6C-9,505.8-12.2,482.7-15.6,458.2z M-116.6,455.3c2.2-1.9,3.3-2.7,4.1-3.6
	c8.8-9.4,17.6-18.8,26.5-28.2c1.6-1.6,3.3-3.2,5.3-4.4c3.7-2.2,4.8-5.7,5.1-9.3c0.3-3.3-0.3-6.7-1-9.9c-3.5-16.8-4.8-33.9-6.5-50.9
	c-0.1-1.4-0.7-2.7-1.2-4.3c-14.1,1.8-27.8,3.5-42.1,5.4c1.9,15,4,29.9,5.7,44.8c1.6,13.7,3,27.4,4.1,41.1
	C-116.2,441.9-116.6,447.9-116.6,455.3z M-76.3,343.7c2,23.6,4.4,46.3,8.6,68.7c16.8-1.5,32.9-2.9,49.4-4.3
	c-0.2-2.8-0.1-5.1-0.5-7.3c-2.1-12.3-4.4-24.7-6.5-37c-1.3-8.2-4.1-16.4-2.4-24.9c0.1-0.5-0.4-1.1-0.9-2.4
	C-44.3,338.8-60,341.2-76.3,343.7z M-99.1,705.2c6.6-1.7,11.8-2.8,16.7-4.4c10.8-3.6,21.7-6.6,33-8c14-1.7,28.1-3.3,42.1-5.2
	c5.2-0.7,5.2-0.9,7.8,4.3c3.7-0.5,7.7-0.9,11.4-1.4c1.4-11.5-0.2-32.3-3-40.1c-23.2,5.4-46.8,8-71.6,6.1c-0.4,1-1.1,2.6-1.7,4.2
	c-0.8,2-1.2,4.4-2.6,6c-9,10.9-18.3,21.5-27.4,32.3C-95.8,700.6-96.9,702.3-99.1,705.2z M-116.3,467.8c2.1,25.2,3.2,49.3,7.8,73.8
	c6.5-0.8,12.6-1.6,18.7-2.3c2.3-0.3,5-1.1,7-0.4c5.1,1.9,9.9,0.9,15.1-0.5c-1.5-12.6-3.3-25.2-4.5-37.8c-1.1-12.6,0.6-25.4-1.8-38.6
	C-88.6,464-102.7,466-116.3,467.8z M-215.1,709.8c0.5,0.8,1.1,1.5,1.6,2.3c34.3-1.1,68.4-5.3,102.7-9.1c-0.8-12.6-0.3-24.9-3.2-37.3
	c-2.5,0.3-4.6,0.6-6.7,0.8c-10.7,0.9-21.3,2.2-32,2.5c-5,0.2-9,1.2-12.8,4.4c-14.7,12.8-30.3,24.5-46.7,35.3
	C-212.9,709.2-214.1,709.4-215.1,709.8z M22.9,406.9c-0.8-5-1.2-9.3-2.1-13.5c-2.2-10.6-5.1-21.1-6.8-31.8
	c-2.3-14.6-3.7-29.4-5.6-44c-0.7-5.4-0.8-11-3.8-17c-2.2,2.8-3.9,4.8-5.4,7c-5.2,7.9-9.9,16.1-15.6,23.7c-3.7,4.9-5.6,9.7-4.5,15.6
	c0.3,1.6,0.6,3.3,0.9,4.9c1.7,10.7,3.4,21.4,5.1,32.1c1.3,7.9,2.8,15.8,4,23.1C0.8,406.9,11.4,406.9,22.9,406.9z M-114.2,658.8
	c0-2,0.1-3.3,0-4.5c-1.2-13.1-2.3-26.2-3.9-39.2c-0.9-7.4-2.8-14.6-4.3-22.3c-13.4,1.8-26.1,2-38.5,4.2c0,22,0,43.4,0,65.2
	C-145.4,663.5-130.2,660.1-114.2,658.8z M16,643.3c12.3-1,23.6-1.9,35.4-2.9c-3.8-23.8-7.6-46.9-11.4-70.5c-1.9,0.5-2.9,0.7-3.9,1
	c-6.3,2.1-12.6,4.2-18.9,6.2c-2.7,0.9-5.3,1.6-7.8-1.9c9.2-5.6,19.5-7.6,29.5-11.8c-1.6-9.4-3.1-18.3-4.9-28.3
	c-2.1,2-3.6,3.1-4.7,4.6c-1.6,2.2-3.1,4.5-4.4,6.8c-4.4,7.6-8.7,15.2-13.1,22.7c-1.1,1.9-2.6,3.6-4.3,5.7
	C10.3,597.3,13.1,620,16,643.3z M148.2,508c-1.2-8.6-2-16.3-3.5-23.8c-3.9-20.1-8.2-40-12.2-60.1c-0.5-2.8-1.9-6.1,1.9-8.5
	c0.8-0.5,0.4-2.8,0.7-5.5c-2,1.6-2.8,2.1-3.5,2.8c-8.9,9-16.4,19.2-23.7,29.5c-2.5,3.5-2.7,6.6-2,10.5c1.7,10.1,3.2,20.2,4.7,30.3
	c1.4,9.5,2.8,18.9,4.2,28.5c5.5-1.1,11.2-1.5,16.3-3.5C136.7,506.1,141.8,506.7,148.2,508z M-72.5,544.4c1.4,12.7,2.7,25,4.1,37.2
	c18.1-0.1,57.6-5.8,69.2-9.9c-3.7-0.4-2.6-3.2-2.7-5.3c-0.4-10-0.8-19.9-3-29.7c-1-0.2-1.6-0.4-2.2-0.3c-12.9,1.9-25.8,3.9-38.7,5.8
	C-54.4,543.4-62.8,545.9-72.5,544.4z M-67.9,652.1c-2.7-21.1-5.4-41.3-8-61.7c-12.3-2.1-23.8,2.9-36.6,2.8c-0.1,2.5-0.6,5.1-0.4,7.6
	c0.3,3.7,1.4,7.4,1.8,11.1c1.3,13.5,2.4,27,3.6,40.5c0.1,1.6,0.6,3.2,1,5.1C-93.5,656.5-80.8,655.8-67.9,652.1z M1.7,528.2
	c5.1-0.7,9.3-1.7,13.5-1.8c4.9-0.1,9.7,0.8,14.6,1.1c5.2,0.3,7.4-2.2,6.7-7.3c-0.1-0.4-0.2-0.8-0.3-1.2c-1.9-11.3-3.7-22.6-5.8-33.9
	c-1.8-9.6-4-19.1-6.1-29c-10.5,0.9-20.9,1.9-31.7,2.9c-0.4,3.4,4.9,0.8,5,4.3c-1.3,0.7-2.7,1.6-4.3,2.5
	C-3.9,486.5-1.2,507.1,1.7,528.2z M107.3,520.2c-1.8,0-2.8-0.2-3.8,0c-13.2,2.6-26.4,5.4-39.6,7.7c-7.5,1.3-15,4.5-23.8-0.2
	c2.1,11.6,4,22.1,6,32.7c21.7-2.3,42.7-4.4,64.4-6.7C109.4,542.1,108.4,531.3,107.3,520.2z M-17,415.9c-20-1-50.8,1.9-55.9,5.3
	c2.9,0.3,4.4,1.4,4.5,4.3c0.2,6.7,0.7,13.3,1.1,20c0.2,3,0.5,6,0.8,9.2c1.8,0,2.9,0.1,3.9,0c13-1.5,26-2.1,39.1-1.6
	c4,0.1,8,0.1,11.1,0.1C-13.8,441.2-15.4,428.7-17,415.9z M-77,336.7c1.8,0,2.8,0.1,3.9,0c16.1-2.4,32.2-4.8,48.3-7.3
	c1.3-0.2,2.9-1,3.6-2.1c5.8-8.8,11.3-17.6,17.2-26.8c-1.4-0.1-2.1-0.2-2.7-0.1c-15.2,2.4-30.5,4.4-46,5c-6.2,0.2-12.4,0.8-18.6,1.4
	c-1.9,0.2-3.8,0.6-5.7,1c-2.2,0.5-3.3,1.7-3,4C-78.9,319.9-78,328-77,336.7z M-166.2,553c1.2,12,2.4,23.9,3.6,36.3
	c11.5-1,22.1-1.9,32.7-3c4-0.4,7.9-1.5,12.2-2.4c2.5-11.4,1.7-22.7,1-34.5C-133.3,550.5-149.1,551.7-166.2,553z M-173,555.7
	c-1.2,0.4-1.9,0.4-2.4,0.7c-4.7,3.3-9.3,6.6-13.9,9.9c-10.5,7.5-21.1,14.9-31.6,22.4c-1.2,0.8-2,2.1-3.9,4.2
	c19.2-1.3,37.1-0.9,54.9-3.7C-171,577.7-172,566.8-173,555.7z M-104.1,699.9c12.2-12.7,21.6-25.7,32.6-39.2
	c-12.4,1.4-23.4,2.7-34.8,4C-105.6,676.3-104.9,687.3-104.1,699.9z M-109.2,460c11.6-1.5,23.3-3,35.4-4.6
	c-0.3-10.2,0.6-20.2-1.7-31.5C-88.5,435.2-99.1,447-109.2,460z M-78.8,553.7c-12.4,12-23.7,23-35,34c6.6,0,12.7-1.2,18.8-2
	c6.2-0.8,12.5-1.2,19.4-1.8C-76.7,573.8-77.7,564.5-78.8,553.7z M-7.1,455.1c10.1-1.5,20.5-3.1,31.7-4.8c-3.2-10.2,0.3-20.2-2-30.6
	C11.5,428.2,3,437.6-3,449.1C-4.1,451.2-5.6,453-7.1,455.1z M-87.3,312.2c-13.8,8.2-24,18.8-34.6,31c13.4-2,25.4-3.7,37.6-5.5
	C-85.3,329-86.3,321-87.3,312.2z M19.5,686.7c0.3,0.2,0.7,0.3,1,0.5c0.7-1.4,1.5-2.7,2.1-4.1c0.5-1.3,0.4-2.9,1.1-4.1
	c3-4.6,6.1-9,9.2-13.5c3.9-5.6,7.8-11.2,11.6-16.8c-0.3-0.5-0.5-0.9-0.8-1.4c-8.6,0.7-17.1,1.4-26.1,2.2
	C18.3,662.3,18.9,674.5,19.5,686.7z M117.1,543.3c0.6,0.1,1.1,0.3,1.7,0.4c4.2-5,8.5-9.8,12.4-15c2.4-3.2,4.1-6.8,5.8-10.4
	c0.6-1.2,0-2.9-0.1-4.8c-7.7,1.6-14.5,3.1-21.7,4.7C115.9,526.8,116.5,535.1,117.1,543.3z M-81.4,547.5c-0.3-0.6-0.5-1.3-0.8-1.9
	c-8.7,0.9-17.4,1.7-27,2.7c0.4,8.1,0.8,16,1.2,25.1C-98.5,564.2-90,555.9-81.4,547.5z M-9.2,414.9c-0.9,9.4,0.9,21.5,3,24.6
	c7.4-8,14.9-16.1,22.7-24.6C7.9,414.9-0.5,414.9-9.2,414.9z M2.6,535.4c0.9,8.5,1.8,16.6,2.7,24.7c7-8.4,14-16.5,18.9-26.4
	C14.1,532.1,10.5,532.4,2.6,535.4z M-29.2,696.1c0,0.2,0,0.5,0,0.7c1.6-0.1,3.2-0.2,4.9-0.4c0-0.1,0-0.3,0-0.4
	C-26,696.1-27.6,696.1-29.2,696.1z"/>
</svg>
