<?xml version="1.0" encoding="utf-8"?>
<!-- Generator: Adobe Illustrator 19.0.0, SVG Export Plug-In . SVG Version: 6.00 Build 0)  -->
<svg version="1.1" id="Layer_9" xmlns="http://www.w3.org/2000/svg" xmlns:xlink="http://www.w3.org/1999/xlink" x="0px" y="0px"
	 viewBox="-249 251 500 500" style="enable-background:new -249 251 500 500;" xml:space="preserve">
<path style="fill:#fff" d="M1038.2,276.2c-0.5,0.2-1,0.3-1.5,0.5c-0.1-0.2-0.1-0.4-0.2-0.5c0.5-0.2,1-0.3,1.5-0.5
	C1038.1,275.8,1038.1,276,1038.2,276.2z"/>
<path style="fill:#fff" d="M904.7,321.1c-0.8-0.8-0.7-1.6,0.5-2.7c0,1.1,0.1,1.8,0.1,2.6C905.1,321,904.9,321,904.7,321.1z"/>
<path style="fill:#fff" d="M-108.4,461.1c-3-3.8-3-4.1-0.4-7.1c11.5-13.3,24.8-24.7,37.8-36.3c2.5-2.2,5.1-4.2,5.8-7.8c0.3-1.3,1.5-2.8,2.7-3.5
	c2.5-1.6,4.4-0.4,5,2.7c0.2,0.8,0.1,1.7,0.2,2.8c8.6,1.3,16.9,1.2,25.3,0.5c14.1-1.2,28.3-1.6,42.4-2.4c12.1-0.7,24.3-1.4,37.4-2.1
	c0.5,1.9,1.3,4,1.4,6.2c0.2,4.6-0.3,9.3-0.1,13.9c0.8,13.4,2.3,26.8,2.6,40.3c0.3,17,0.4,34,1.5,51.1c1,15,2.8,29.8,3.8,44.8
	c0.6,8.8,1.2,17.7,1.9,26.5c1.4,17.4,2.8,34.8,4.3,52.1c0,0.4,0.2,0.9,0.1,1.3c-0.3,5.6,0.4,10.7,6.7,14.1c-1.5,2.5-2.5,4.9-4.2,6.8
	c-13.7,14.8-27.6,29.4-41.1,44.4c-3.1,3.4-7.6,2.9-10.8,5.4c-0.5,0.4-2,0.1-2.5-0.4c-3.3-3.1-7.3-2.2-11.2-2.6
	c-17.2-1.7-34,1.3-50.9,3.6c-6.2,0.8-12.5,1.3-18.7,2.3c-7.9,1.3-15.7,2.8-23.6,4.3c-5.8,1.1-11.4,2.7-17,4.5
	c-5.4,1.7-11.5,2.1-17.1,1.5c-10.9-1.2-21.7,0-32.5,0.4c-16.1,0.5-32.3,0.9-48.4,1.6c-4,0.2-7.9,1.1-11.9,1.3
	c-2.3,0.1-5.3,0.4-6.9-0.9c-2.3-1.9-3.9-4.9-5-7.7c-0.8-1.9-0.3-4.4-0.3-6.6c-0.4-26.3-0.8-52.7-1.3-79c-0.2-8.2,0.2-16.6-1.7-24.4
	c-1.8-7.4,0.9-11.6,5.7-16c12.1-11,24.1-22.2,35.9-33.4c5.1-4.9,10.1-9.9,14.6-15.3c2.1-2.5,4-3.1,6.7-2.1c0.7-1.9,0.9-4.2,2.1-5.1
	c1.4-1,3.7-0.9,5.6-0.9c3.7-0.2,7.4-0.1,11.1-0.2c10.6-0.2,21.2-0.4,31.9-0.7c1.7,0,3.4-0.6,5.7-1c0.6-8.5,0.6-16.9,0-25.2
	c-0.4-5.5,0.1-11,0.2-16.5c0-2,0.3-4,0.3-5.9c-0.3-5.4-1.5-11-0.8-16.3C-115.3,468.9-113.1,464-108.4,461.1z M-167.3,676.3
	c0.2-3.3,0.6-6.6,0.5-9.9c-0.5-17.9-1.1-35.9-1.8-53.8c-0.1-3.5-0.6-7-1-10.8c-18.7-1.7-36.7,3.3-55.2,2.7
	c2.4,39.7-0.8,78.8,1.8,118.3c5.4-4.7,9.9-9.8,14.8-14.6c10.6-10.3,21.5-20.4,32.2-30.7c2.8-2.7,5.4-3.7,8.8-1.4
	c0.9,3.1-1.7,4.4-3.3,5.9c-12.4,11.4-24.8,22.6-37.2,34c-2.9,2.6-5.5,5.4-8.3,8.2c0.2,0.4,0.4,0.7,0.6,1.1
	c35.5-2.8,71.1-5.6,107.4-8.5c-1.6-14.6-3.2-29.3-4.8-44.4c-12.8-0.4-24.4,2.5-36.2,3.9c-3.5,0.4-6.9,0.8-10.4,0.9
	C-162,677.2-164.7,676.6-167.3,676.3z M-68.7,543.1c4.8,0.4,6.3-3.1,8-5.9c21.1-0.3,41.9,2.1,62.3-2.2c-0.9-26.7-1.7-52.9-2.5-78.9
	c-19.6,2.5-39,5-58.9,7.6c-0.2,14.2-0.3,27.9-0.6,41.5c-0.2,9.3-0.8,18.6-1.2,27.9c-0.1,3.1-2.2,4.5-4.8,4.3c-3.1-0.1-2.7-2.6-2.6-5
	c0.4-9.7,0.6-19.4,0.8-29.1c0.2-8.4,0.4-16.8,0.6-25.2c0.1-4.5,0-9,0-14.1c-14.5-0.2-27.2,5.6-41,4.9c0,2.2-0.1,3.5,0,4.8
	c0.5,7.3,1.7,14.6,1.3,21.9c-0.7,11.6,0.5,22.9,2.6,34.2c0.5,2.5,0.4,5.1,0.7,8.2c8.9,0.3,17,0.6,25.2,0.7
	C-74.6,538.8-70.3,538-68.7,543.1z M-56.6,660.3c6,0.2,11.5,0.4,16.9,0.5c1.8,0,3.6-0.5,5.3-0.2c11.1,1.5,22.1-0.5,33.1-1.6
	c3.6-0.4,7.2-1.4,10.8-2.1c-1-22.3-1.9-44.1-2.9-66c-23.1-0.8-45.5,2.9-68.3,6.1C-60.5,618.1-61,638.7-56.6,660.3z M41.2,421.9
	c-0.7,0.2-1.2,0.3-1.5,0.5c-11.6,10.2-22.7,21-33,32.5c-1.6,1.8-1.9,3.1-0.7,5.2c0.9,1.6,1.2,3.6,1.3,5.4c0.1,2.4-0.5,4.8-0.4,7.3
	c0.6,17,1.1,34.1,1.9,51.1c0.1,3.5,0.9,6.9,1.4,10.5c7.6,0.7,14.6,0.8,21.6-1c4.2-1.1,8.4-2.7,12.6,1.9c0.8-3.4,1.7-5.7,1.7-8
	c0-6.2-0.5-12.4-0.7-18.6c-0.3-8.2-0.7-16.4-0.8-24.5c-0.1-9.3,0.4-18.6-0.2-27.9C43.8,445,42.4,433.7,41.2,421.9z M17.5,655.3
	c13-1.7,26-1,40-2.9c-6-37.1-4.4-74.2-10.4-112c-4.2,3.7-7.8,6-10.1,9.3c-5.9,8.3-11.4,16.9-16.7,25.6c-3.6,6-6.9,12.2-6.3,19.8
	c0.9,13,1.1,26.1,1.8,39.1C16.2,641,16.9,647.8,17.5,655.3z M-95.3,713.9c18.2-2.5,35.5-4.4,52.6-7.4c17.5-3,35.2-1.3,53.2-2.3
	c-0.5-13.8-1-26.8-1.5-39.9c-2,0-3.3-0.1-4.5,0c-7.9,0.8-15.8,1.9-23.8,2.3c-8.4,0.4-16.8,0.1-25.3,0.1c-4.1,0-7.6,1.1-11,3.8
	c-13.4,10.8-24.1,24.1-35.3,36.9C-92.5,709.1-93.6,711.3-95.3,713.9z M-161.3,601.7c0.6,23.4,1.1,46,1.7,69.5
	c15.3-2.2,30.3-4.3,45.9-6.5c0-2.2,0.1-4.4,0-6.5c-1.3-16.7-2.8-33.4-3.9-50.2c-0.2-2.5,0.7-5.1,1.3-8.3
	C-130.8,600.4-145.8,601-161.3,601.7z M35.6,415.4c-32.7,1.6-64.1,3.2-96,4.8c-0.5,12.4-1.2,24.1,1.4,36c2.3-0.2,3.8-0.4,5.3-0.6
	c7.9-1.1,15.8-2.2,23.6-3.4c10-1.5,20.1-2.9,30-4.7c2.1-0.4,4.3-2,6-3.5c5.8-5.4,11.4-11.1,17.1-16.7
	C26.9,423.6,30.8,420,35.6,415.4z M3,544.2c-1.8-0.3-2.9-0.7-4-0.6c-19.4,1.4-38.5,6-58,4.7c-0.6,0-1.2,0.4-2,0.6
	c0,13.2,0,26.3,0,39.6c22.1-2.4,43.7-4.7,64.9-7c0-6.5,0.1-12.5,0-18.4C3.6,557,3.3,550.8,3,544.2z M-103,599.8
	c-2.7,33.4-3.2,57.1-1.2,63.6c13.1-1.2,26.3-2.4,39.1-3.6c-1.3-21-2.6-41.6-3.9-62c-9,0.9-17.5,1.8-26.1,2.4
	C-97.7,600.5-100.3,600-103,599.8z M-163.3,547c0.7,16.1,1.4,31.3,2.1,47c15,1.7,29.8-1.7,45-0.8c0.9-16.3,1.4-31.8,1.1-47.9
	C-131.4,545.8-146.8,546.4-163.3,547z M-169.7,593.9c1.4-14.4-0.8-28.4-1.3-43c-16.6,15.7-32.6,30.8-48.5,45.8
	c0.2,0.3,0.3,0.7,0.5,1C-202.8,596.5-186.7,595.2-169.7,593.9z M18.6,703c0.5,0.2,1,0.3,1.5,0.5c12.4-13.9,24.9-27.8,37.3-41.7
	c-2.8-3.2-4-4.1-8.6-2.6c-5.5,1.7-10.9,1.1-16.3,1.3c-5.2,0.2-10.5,0.4-15.7,2.9c0.4,10.8,0.7,21.3,1.1,31.9
	C18,697.8,18.4,700.4,18.6,703z M-68.9,667.9c-11.3-0.3-22.4,0.8-33.3,3.2c-1.2,0.3-2.9,2.4-2.8,3.6c0.5,9,1.2,18,2.1,26.9
	c0.3,2.9,1.2,5.7,1.8,8.8c6.9-8,13.7-15.2,19.6-23.1C-77,681.4-70.5,676.6-68.9,667.9z M-100.9,592.5c0.3,0.6,0.7,1.2,1,1.8
	c10.4-1.5,20.8-2.9,30.9-4.4c1.7-10.6,1.4-33.3-0.6-38.2C-80.7,564.9-90.9,578.6-100.9,592.5z M-108.4,591
	c11.6-15.5,22.4-29.8,33.8-45c-10.4,0-19.7,0-29.3,0C-105,560.8-104.7,575.3-108.4,591z M-69.3,427.1
	c-13.1,10.2-25.2,20.5-35.3,34.7c13-0.4,24.4-4.9,36.8-5.7C-68.3,446.5-68.8,437.4-69.3,427.1z M11.8,572.1
	c6.6-10.1,14.1-19.3,20.1-30.5c-7.9,0.6-14.6,1.2-21.5,1.7C10.9,553.4,11.4,562.8,11.8,572.1z"/>
<path style="fill:#fff" d="M-218.9,499c-0.5-1.2-0.9-2.4-1.4-3.6c0.3-0.1,0.5-0.2,0.8-0.3c0.5,1.2,1,2.3,1.5,3.5C-218.3,498.8-218.6,498.9-218.9,499z"
	/>
<path style="fill:#fff" d="M-72.6,491.4c-1.4-1-2.7-1.9-4.5-3.2c1-0.8,1.6-1.6,2.3-1.7c1.2-0.2,2.5-0.2,3.6,0.2C-70.6,486.9-71,488.5-72.6,491.4z"/>
<path style="fill:#fff" d="M-177.8,717.1c-1.8-1-3.1-1.8-5-2.8C-178.9,714-178.9,714-177.8,717.1z"/>
<path style="fill:#fff" d="M-120.8,568.4c-3.1-0.9-4.9-1.5-7.5-2.3c1.5-1.7,2.5-2.9,3.9-4.6C-123.2,563.9-122.4,565.5-120.8,568.4z"/>
</svg>
