<?xml version="1.0" encoding="utf-8"?>
<!-- Generator: Adobe Illustrator 19.0.0, SVG Export Plug-In . SVG Version: 6.00 Build 0)  -->
<svg version="1.1" id="Layer_9" xmlns="http://www.w3.org/2000/svg" xmlns:xlink="http://www.w3.org/1999/xlink" x="0px" y="0px"
	 viewBox="-249 251 500 500" style="enable-background:new -249 251 500 500;" xml:space="preserve">
<path style="fill:#fff" d="M1588,821.9c1.3,1.6,2.1,2.7,3,3.8c-3.8,2.5-3.8,2.5-6.9,0.2C1585.2,824.7,1586.3,823.6,1588,821.9z"/>
<path style="fill:#fff" d="M1689.7,865.1c-2.1-1.7-2.6-3.3-1.9-5.3C1690.9,861.2,1690.9,861.2,1689.7,865.1z"/>
<path style="fill:#fff" d="M189.1,328.8c-0.4,20-0.9,39.6-1.2,59.3c-0.2,12.2-0.8,16.3-1.7,28.4c-1.2,18.3-1.5,36.6-2.2,55c-0.3,7.3-0.4,14.6-0.5,21.9
	c-0.1,9.9-0.1,19.9-0.2,29.8c-0.1,9.7-0.5,19.4-0.5,29.1c0,17.9,0.5,35.8,3.2,53.5c1.5,9.8,0,11.1,1.2,20.9c0.1,0.7-0.1,1.4,0.1,2
	c2.8,8.1,2.1,16.6,2.7,24.9c0.2,4,0.7,7.9,3.5,10.8c-0.4,2.3-2,2.8-3.7,2.9c-6.4,0.3-12.9,6.4-19.3,6.1c-8.9-0.4-15.2,4.2-23.9,5.3
	c-2,0.2-3.8,1.7-6.1,2.7c-1.1-1-2.8-2.1-3.7-3.5c-10.1-15.3-21.2-29.9-32-44.7c-9.3-12.8-17.8-26.1-25.8-39.7
	c-2.6-4.4-6.4-8.2-10-12c-7.2-7.6-14.7-15-22.1-22.5c-0.2-0.2-0.4-0.3-0.5-0.5c-7.5-9.1-16.6-17-24.9-25.5c-1.6-1.6-3.5-3-5-4.7
	c-1.8-2-3.9-3.2-6.5-3.1c-1.4-2.6-2.5-5-3.8-7.3c-1.3-2.4-3.9-2.9-6.8-3c-0.3-5.5-3.6-9.2-7.7-12.4c0.9-4.1,2.2-7.6,5.7-10.3
	c7.8-5.9,13.4-13.7,19.4-21.2c13.5-16.8,27.1-33.6,40.7-50.4c2-2.5,4-4.9,6.1-7.4c10.4-12.1,20.7-24.3,31.3-36.2
	c14.3-16,28.5-32,43.8-47.2c1.8-1.8,3.2-3.8,5-5.6c2.6-2.7,5.3-4.5,9.8-4c7.6,0.8,19.9,5.1,22.6,5.8
	C179,326.7,182.2,324.7,189.1,328.8z M186.1,662.4c-0.1-2.1-0.2-3.1-0.3-4.2c-0.5-6.6-1.6-13.1-2.5-19.7
	c-1.7-12.3-0.4-15.9-1.8-28.2c-1-8.8-2.6-17.5-2.8-26.4c-0.2-8.2-0.6-16.3-0.8-24.5c-0.2-5.7-0.3-11.5-0.2-17.2
	c0.1-9.5,0.5-19,0.7-28.5c0.2-9.3,0.2-18.6,0.4-27.8c0.3-11,0.8-22.1,0.9-33.1c0.1-13,0.8-26.1,1.8-39.1c0.7-9.9,1.1-11.9,1.5-21.8
	c0.3-8.8,0.5-17.7,0.7-26.5c0.3-11,0.5-22.1,0.7-33.1c0-0.2-0.2-0.4-0.4-0.6c-8-1.5-27.3-7.4-35.1-4.1c-1.1,4.5-2.6,9.2-3.4,14
	c-2.6,16.2-5.2,32.4-7.4,48.6c-2.1,16-3.8,32.1-5.4,48.2c-1.2,12.1-2,24.2-3,36.4c0,0.4,0,0.9,0,1.3c0,9.2-0.3,18.5-0.1,27.7
	c0.5,14.8,0.9,29.6,2.1,44.4c1.5,18.7,3.8,37.4,5,56.1c1.3,20.7,3.6,41.4,5.5,62.1c0.1,1.5,0.7,2.9,1.2,4.7
	C158.3,671.1,172,667.5,186.1,662.4z M87.2,462.6c2.7-0.9,4.4-1.5,6.2-2.2c7.7-3,15.3-6.1,22.9-9.1c2.4-1,4.8-2,7.2-3
	c2.5-1,3.5-2.5,3.7-5.1c0.8-9.2,1.8-18.4,2.7-27.6c0.7-6.6,1.5-13.2,2.2-19.7c0.1-1,0.7-2.2-1-3.2c-1.2,0.7-2.7,1.4-3.9,2.3
	c-3.7,2.7-7.3,5.6-11.1,8.4c-7.8,5.8-15.6,11.6-23.6,17.1c-3.2,2.2-4.5,4.9-4.6,8.4c0,3.7-0.1,7.5-0.3,11.2
	c-0.3,6.4-0.7,12.8-1,19.2C86.8,460.1,87,460.9,87.2,462.6z M137.7,664c-0.2-3.5-0.2-5.7-0.4-7.8c-0.2-2.4-0.7-4.8-0.9-7.2
	c-1.2-11.4-2.4-22.8-3.3-34.3c-0.4-5.8-2.6-10.1-7.7-14c-11.8-9-22.9-18.6-34.3-27.9c-1-0.8-2.3-1.2-4.1-2.1c0,2.6-0.2,4.5,0,6.5
	c0.4,5.5,1.2,11,1.2,16.4c0,2.4,0.6,4.2,2,6.1c5.6,7.7,11.2,15.4,16.8,23.1c5.7,7.9,11.3,15.8,17,23.7c3.7,5.1,7.4,10.2,11.2,15.3
	C135.3,662.2,135.9,662.5,137.7,664z M89.8,415.8c1.1-0.3,1.8-0.4,2.3-0.8c4.6-3.2,9.1-6.4,13.6-9.7c7.9-5.7,15.7-11.5,23.7-17
	c2.7-1.9,4.2-3.8,4.6-6.9c2-14.2,3.2-28.6,6.5-42.6c0.1-0.5-0.4-1.1-0.8-2.1c-1.4,1.1-2.6,1.8-3.5,2.7c-3.4,3.4-6.8,6.8-10,10.4
	c-7.9,8.6-15.6,17.2-23.5,25.8c-3.5,3.9-7.1,7.7-10.5,11.7c-1.1,1.3-2.3,3-2.5,4.6C89.1,399.8,89,407.7,89.8,415.8z M86.7,563.4
	c14.4,11.7,28.6,23.2,42.7,34.6c0.3,0.2,0.9,0.1,1.7,0.2c0.8-5.2,0-10.4-0.5-15.6c-0.6-5.3-1.2-10.5-1.9-15.8
	c-0.7-5.2-0.1-10.6-2.1-15.5c-0.9-0.5-1.4-0.9-2.1-1.2c-8.9-3.7-17.9-7.3-26.8-10.9c-2.2-0.9-4.4-1.6-6.7-2.3
	c-1-0.3-2.1-0.2-3.6-0.3C87.1,546,86.9,554.8,86.7,563.4z M125.5,453c-6.9,1-32.1,11.3-38.1,15.6c0,9.1-0.6,18.3-0.2,27.5
	c7.4,1.4,31.3,1.1,37.1-0.5c0.6-13.8,1.2-27.6,1.8-41.5C126.2,453.7,125.8,453.4,125.5,453z M87.4,530.3c6.9,3,12.9,5.7,19,8.1
	c6.3,2.5,12.7,4.9,19.6,7.5c1.3-7.7,0-15-0.5-22.1c-0.5-7.1,0.7-14.4-1.8-21.9c-12.2-0.2-24.2-0.7-36.7,0.4
	C87.2,511.8,87.3,521,87.4,530.3z M83.1,429.1c-1.9,1-2.7,1.2-3.4,1.8c-6.4,4.9-12.8,9.9-19.2,14.8c-2.2,1.7-3.2,3.7-3.2,6.3
	c0.1,5.7,0.1,11.4,0.3,17.1c0.1,1.4-0.7,3.1,1.6,4.7c7.2-3.1,15.1-5.3,22.2-8.7C82,453.2,82.5,441.7,83.1,429.1z M58.9,520.7
	c6.5,3,13.2,5.2,20,7c0.8,0.2,1.8-0.1,2.6-0.2c0.9-12.4,0.6-20.6-1.2-26c-7-1.2-14,0.8-21.4,0.5C58,508.4,58.5,514.4,58.9,520.7z
	 M84.2,397.1c-9.9,9.7-17.3,19.2-24.9,28.4c-3.8,4.6-4,9.1-0.8,15.4c1.8-1.1,3.7-2.1,5.3-3.3c5.8-4.6,11.4-9.4,17.3-13.8
	c2.5-1.9,3.4-4.1,3.4-6.9C84.3,410.8,84.2,404.7,84.2,397.1z M81.9,469.6c-8.6,3.7-16.6,5.6-24,9.9c0.3,5.3,0.5,10.6,0.8,15.8
	c0,0.6,0.6,1.2,0.8,1.6c7.2-0.2,13.8-0.3,20.5-0.5c0.4,0,0.8-0.4,1.8-0.8C82.2,487.6,81.7,479.3,81.9,469.6z M81.6,559.1
	c0.1-9.4,0.9-17.6-0.1-26.3c-7.5-1.7-14.2-5-22.2-6c-0.1,3.1-0.2,5.7-0.3,8.3c-0.1,2.8-0.1,5.7-0.1,8.5
	C66.6,548.3,72.5,554.4,81.6,559.1z M52.3,452.8c-1.9,0.9-3,1.3-3.8,1.9c-2.8,2-5.6,4-8.3,6.2c-11.6,9.6-10.2,6.3-8.3,21.3
	c0,0.4,0.4,0.7,0.6,1.1c6.9-1.8,16-5.3,20-7.8C52.5,468.4,52.4,461.2,52.3,452.8z M60,550.9c-0.1,3-0.3,5.8-0.3,8.6
	c0,1.3,0.1,2.6,0.2,3.9c0.2,2.5,1.5,4.5,3.3,6.4c5.6,5.7,11.1,11.5,16.6,17.3c0.4,0.4,1.1,0.5,2.2,1c-0.3-7.7-0.6-14.9-0.9-22.4
	c-6.2-4.6-12.4-9.4-18.7-14C62,551.2,61.2,551.2,60,550.9z M53,481.4c-7.3,1.6-12.9,4.5-18.8,6.8c-0.8,0.3-1.6,1.7-1.6,2.6
	c0,2.6,0.5,5.1,0.8,7.8c6.8,0.6,13.1-0.3,19.4-1.3C53.9,492.1,53.6,487.2,53,481.4z M53.5,539.2c0.7-6.1,0.6-11-0.5-16.1
	c-6.3-1.6-11.8-4.8-18.2-6c-1.3,2.9-1.4,5.5-0.5,8.2C40.5,529.5,45.7,535,53.5,539.2z M52.3,518.2c1.4-4.4,1.5-9.2,0.3-15
	c-3.9-0.4-15.3,0.2-19.1,1.2c0,1.2-0.1,2.4,0,3.7c0.1,1.3,0.5,2.5,0.7,3.6C40.5,514,46.4,516.1,52.3,518.2z M53,558.9
	c1.7-4.4,1.7-5.9,1.1-9.8c-0.3-2.3-1.3-4.1-3.3-5.6c-4.5-3.3-8.8-6.7-13.2-10.1c-0.6-0.5-1.5-0.6-2.7-1.1c0.3,3.4,0.5,6.2,0.6,8.7
	C41.6,547,46.5,553.5,53,558.9z M31.5,460.9c7.3-4.4,13.8-9.8,20.6-14.9c0-1.7,0.1-3.3,0-4.8c-0.1-1.6,0.4-3.3-0.6-5
	C46.7,440,38.8,449.5,31.5,460.9z M24.8,475c-4.2,2.6-7.2,6.1-10.7,8.9c-3,2.4-3.4,5-1.3,8.5c4.6-2,9.1-4,13.6-6
	C26.4,482.5,27,478.8,24.8,475z M14.6,515.8c-0.4,0.3-0.8,0.6-1.1,0.8c0.3,1.2,0.2,2.7,1,3.6c4.3,4.8,8.2,9.9,14.3,14
	c0-1.7-0.1-2.5-0.1-3.3c0.3-3.4-1.4-5.7-4.5-7.7c-2.1-1.3-3.8-3.3-5.8-4.9C17.3,517.4,15.9,516.7,14.6,515.8z M26.9,491.8
	c-4.9,1.1-9.2,3.4-13.5,5.5c-0.5,0.2-0.9,1.1-0.8,1.5c0.1,0.5,0.9,1.2,1.3,1.2c4.4-0.1,8.8-0.4,13.4-0.7
	C27.7,496.6,28.3,494.4,26.9,491.8z M27.3,504.9c-4.2-1-8.2-0.4-13.2,0.4c5.2,1.4,9.1,3.9,14.3,3.7
	C27.9,507.3,27.6,506.1,27.3,504.9z M27.8,519.5c1.2-4.4,1.2-4.4-2-5.8c-1.9-0.8-3.9-1.5-5.8-2.2c-0.8-0.3-1.7-1-2.3,0.5
	C20.8,514.7,23.7,517.7,27.8,519.5z M5,492.7c-0.1,0.7-0.2,1.3-0.2,1.8c0,0,0.8,0.2,0.9,0.1c0.2-0.3,0.4-0.7,0.3-1.1
	C6,493.3,5.6,493.1,5,492.7z"/>
<path d="M139.4,705.1c-0.5-0.9-1.3-1.8-1.1-2.2c0.3-0.6,1.3-1.1,2-1.2c1.4-0.2,2.8,1,2.2,1.6C141.8,704,140.8,704.3,139.4,705.1z"/>
</svg>
