<?xml version="1.0" encoding="utf-8"?>
<!-- Generator: Adobe Illustrator 19.0.0, SVG Export Plug-In . SVG Version: 6.00 Build 0)  -->
<svg version="1.1" id="Layer_9" xmlns="http://www.w3.org/2000/svg" xmlns:xlink="http://www.w3.org/1999/xlink" x="0px" y="0px"
	 viewBox="-249 251 500 500" style="enable-background:new -249 251 500 500;" xml:space="preserve">
<path style="fill:#fff" d="M1588,821.9c1.3,1.6,2.1,2.7,3,3.8c-3.8,2.5-3.8,2.5-6.9,0.2C1585.2,824.7,1586.3,823.6,1588,821.9z"/>
<path style="fill:#fff" d="M1689.7,865.1c-2.1-1.7-2.6-3.3-1.9-5.3C1690.9,861.2,1690.9,861.2,1689.7,865.1z"/>
<path style="fill:#fff" d="M131.2,311.4c13.2-1.7,25.3,4.7,37.4,3.3c5.2-0.6,10.4-0.9,15.7-1.2c3.9-0.2,5.7,1.3,5.8,5.2c0.3,11.2,0.5,22.4,0.5,33.6
	c0,16.7-0.4,25.4-0.3,42.1c0.2,14.8,0.3,29.7,1.5,44.5c1.9,23.3,1.5,46.6,1.8,69.9c0.2,13.3-0.5,26.5-0.2,39.8
	c0.3,13.7,1.4,27.4,2.1,41.1c0.3,5.7,0.3,11.4,0.6,17.1c0.4,7.1,0.7,14.2,1.5,21.2c1.6,15.7,2.6,27.4,5.5,43
	c0.6,3.1,0.1,6.3,0.1,9.9c-1.3,0.4-2.6,1.2-3.9,1.2c-17.6,0-35.3,5-52.9,4c-1.2-0.1-2.3-0.3-3.7-0.5c-1.7-6.1-6.2-10.3-10.1-14.8
	c-5.9-6.7-10.8-13.9-15.7-21.2c-6.4-9.4-13.1-18.5-19.4-27.9c-11.3-16.9-22.5-33.9-33.7-50.9c-4.7-7.2-9.2-14.4-13.8-21.6
	c-1.6-2.5-3.1-5.1-5.8-6.8c-0.7-0.4-1.2-1.3-1.6-2.1c-3.2-6.8-11.6-18.7-17-23.9c-2.6,0-5,0.1-7.3-0.1c-0.7-0.1-1.8-1-2-1.6
	c-0.3-1.2,0.5-2.1,1.8-2.6c1.2-0.4,2.2-0.3,3.3,0.4c1.1,0.7,2.4,1.2,3.6,1.7c2-3.2,3.8-6.1,5.5-9c0.7-1.2,1.5-2.3,2-3.6
	c4.2-10.5,10.4-20,15.8-29.9c8.1-15,15.9-30.1,23.7-45.2c3.5-6.7,7-13.5,10.4-20.3c2-3.9,3.8-7.9,5.8-11.7
	c5.2-10,10.6-19.9,15.9-29.9c4.3-8.1,8.7-16.3,12.8-24.5c2.2-4.5,3.7-9.4,6-13.9C125.4,321.1,128.5,316.2,131.2,311.4z M197.8,677.4
	c-0.2-1.5-0.3-3.1-0.5-4.6c-1.4-10.6-3-21.2-3.8-32c-1.3-16.9-2.3-29.7-3.3-46.6c-1.3-21-2.2-42-1.9-63c0.1-11,0.4-21.9,0.2-32.9
	c-0.2-14.6,0.4-29.2-1.1-43.8c-1-9.3-1.1-18.7-1.5-28c-0.3-6.4-0.3-12.8-0.6-19.2c-0.9-18.3-0.8-28.5-0.3-46.8c0.4-13,0.3-26,0.3-39
	c0-1-0.5-2.1-0.8-3.2c-3.7,0.2-22.9,0.1-25.9,0.4s-9.3-0.3-13.5-2s-5.9-3.5-8.9-1.3c-0.1,1-0.3,1.9-0.3,2.8
	c-0.4,13.9-0.7,27.9-1.1,41.8c-0.2,6.4-0.5,12.8-0.6,19.2c-0.3,18.5-0.4,37-0.7,55.5c-0.1,9.6-0.7,19.2-0.5,28.8
	c0.2,13.2,0.8,26.5,1.1,39.7c0.4,15.8,0.5,31.5,1.2,47.3c0.8,19.4,2.3,38.8,3.2,58.1c0.9,19.2,2.5,38.3,5.8,57.2
	c0.9,5.4,1.4,10.9,3.3,15.9C154.3,682.9,189.3,678.9,197.8,677.4z M130.8,324.5c-1.8,2.5-2.8,3.7-3.5,5c-1.8,3.5-3.5,7-5.3,10.5
	c-5.8,11.2-11.6,22.5-17.7,33.6c-1.7,3.2-2.4,6.5-2.3,9.8c0.3,10.9,0.9,21.8,1.4,32.7c0.1,1.3,0.4,2.6,0.7,4.2
	c1-0.5,1.7-0.7,2.1-1.1c6.2-6.3,12.3-12.6,18.5-19c3-3.1,4.9-6.5,4.7-11c-0.2-3,0.1-5.9,0.3-8.9c0.4-9.1,0.9-18.2,1.1-27.4
	C131,344.1,130.8,335.2,130.8,324.5z M128,462.2c0.7-18.4,1-35.9,0.8-53.4c0-1.1-0.2-2.3-0.3-3.4c0-0.2-0.2-0.4-0.3-0.6
	c-0.2-0.1-0.4-0.2-1.1-0.5c-2.1,2.2-4.2,4.6-6.4,6.9c-4.3,4.5-8.6,9.2-13.2,13.5c-2.7,2.6-3.8,5.5-3.7,9.2
	c0.4,11.4,0.5,22.8,0.8,34.2c0,1,0.6,2,1.1,3.2C113.3,468.3,120.5,465.3,128,462.2z M139.2,670.8c1.1-2.4,0.7-4.2,0.3-5.9
	c-1.3-5.3-1.9-10.8-2.3-16.2c-0.5-8-1.4-15.9-2.2-23.9c-0.3-2.8-1.1-5.1-3.4-7.2c-7.2-6.6-14.1-13.6-21.2-20.3
	c-0.4-0.4-1.2-0.3-2.4-0.7c0.9,7.2,0.2,14,1.4,20.8c0.7,4.2,1.4,8.5-1.1,12.3c1.5,2.3,2.8,4.2,4.1,6.1c4.9,7,9.7,14.1,14.7,21
	C130.5,661.8,134.9,665.8,139.2,670.8z M130.6,566.5c0.4-1.7,0.6-2.3,0.6-3c-0.4-14.8-0.8-29.7-1.2-44.5c0-0.8-0.6-1.6-1-2.5
	c-6.9,0-13.5,0-20.2,0c-0.7,0-1.3,0.4-2.4,0.7c-0.2,1.7-0.6,3.5-0.7,5.2c0,2,0.2,4.1,0.3,6.2c0.3,7.3,0.7,14.6,1,21.9
	c0.1,1.9,0.2,3.7,2.2,4.7C116.1,558.9,123,562.5,130.6,566.5z M105.3,477.7c0.2,11.2,0.4,22.1,0.7,33c5.3,1.6,16.8,1.4,23.7-0.4
	c0.7-13.7-1.2-27.6-1.3-41.6c-1.6,0-2.9-0.3-3.9,0C118,471,111.7,473.6,105.3,477.7z M107.9,560.9c-0.2,1.9-0.5,3.2-0.4,4.5
	c0.1,5.5,0.5,10.9,0.5,16.4c-0.1,3.9,1.4,7,4.2,9.7c6.4,6.1,12.8,12.2,19.2,18.2c0.4,0.4,1.2,0.5,2.4,1c-0.4-12.8-0.2-25.1-2.3-37.3
	C123.9,568.8,116.5,564.5,107.9,560.9z M74.4,451.6c2.9-2.5,5.7-4.6,8.2-7.1c4.6-4.6,8.9-9.5,13.4-14.2c2.1-2.2,2.8-4.6,2.7-7.5
	c-0.5-10.7-0.9-21.4-1.3-32.1c0-0.5-0.7-0.9-1.3-1.7c-1.4,2.4-2.6,4.3-3.6,6.3c-5.4,10.7-10.3,21.6-16.1,32c-3.4,6-4.2,12-3.2,18.4
	C73.3,447.7,72.4,450,74.4,451.6z M77.7,484.2c4.5,0,7.9-2.4,11.3-4.2c3.7-1.9,8.2-2.5,10.8-5.5c-0.3-7-0.6-13.5-0.8-20.1
	c-0.1-3,0.1-5.9,0.1-8.9c0-1.6-0.3-3.2-0.5-4.7c-0.2-1.4,0.6-3.1-1.3-4.6c-7.2,7.6-14.8,14.4-21.2,22.3c-1.3,1.6-1,3.5-0.8,5.2
	c0.5,5.9,1.1,11.8,1.8,17.7C77.2,482.3,77.4,483.2,77.7,484.2z M78,490.9c0.2,3.3,0.1,6.9,0.5,10.4c0.4,3.5-0.7,7.3,1.7,10.9
	c3.2,0.1,6.5,0.3,9.8,0.1c3.3-0.1,6.6,0.6,10.1-0.7c2-10.1,0.8-20.2-0.3-30.4C94.8,482.3,84.1,487,78,490.9z M79.9,516.8
	c-1,4.9-0.2,9.2,0,13.5c0.3,10.2-0.9,7.6,7.9,12.6c4.2,2.4,8.4,4.9,13.3,7c1.5-5.7,0.2-10.9,0.3-16.1c0.2-5.6-0.1-11.3-1.5-17.1
	C93.2,516.8,86.9,516.8,79.9,516.8z M83.5,571.1c-0.3,0.5-0.8,0.8-0.8,1.2c0,2,0.1,4.1,0.2,6.1c0.1,2,0.4,4.1,0.3,6.1
	c-0.3,4.7,0.7,8.9,3.4,12.9c4.9,7.2,9.7,14.6,14.5,21.8c0.6,0.9,0.9,2.1,3,2c0-1.7,0.1-3.4,0.1-5.1c0-7.7-1.5-15.4-0.8-23.1
	c0.2-2.2-0.6-3.9-2.2-5.5c-5.3-5.2-10.5-10.5-15.8-15.7C84.9,571.4,84.1,571.3,83.5,571.1z M80.8,546.3c0.2,3.5,0.7,6.7,0.6,9.8
	c0,3.5,1.5,6.1,3.9,8.5c4.8,4.8,9.5,9.6,14.3,14.4c0.6,0.6,1.3,1.4,2.8,0.7c0.8-6.6-0.1-13.3-0.4-20.1c-0.1-1.9-1.1-3.4-2.9-4.4
	c-5.4-2.9-10.7-5.9-16.1-8.9C82.8,546.1,82.2,546.3,80.8,546.3z M70.5,464.6c-7.3,7-12.5,13.7-17.5,20.6c-0.4,3.8-0.1,7.5,1.5,11.7
	c6.2-3.1,12-5.9,17.9-8.8C73.4,480.5,72,473.4,70.5,464.6z M55.9,511.9c6.3,0.2,11.9,0.6,17.7-0.6c0.8-5.6,0.4-10.9-0.7-16.2
	c-0.1-0.3-0.7-0.6-1.2-1c-1.4,0.6-2.9,1.1-4.4,1.8c-4,1.9-7.9,3.9-11.9,5.9c-0.1,1.8-0.4,3.4-0.3,5
	C55.1,508.3,55.6,509.8,55.9,511.9z M62.1,548.9c-0.9,2.6-1.6,4.6-2.3,6.7c7.6,13.4,14.1,22.8,17.6,25.9c0.2-0.3,0.6-0.7,0.6-1
	c-0.1-5,0.1-10-0.4-14.9c-0.1-1.6-1.6-3.2-2.8-4.5c-2.7-2.9-5.6-5.6-8.5-8.3C65,551.5,63.7,550.3,62.1,548.9z M56.8,516.7
	c0,1.6,0,2.5,0,3.4c0.2,4.4,1.9,7.7,6.5,9.6c3,1.2,5.8,3.2,8.7,4.7c0.9,0.5,1.9,1.4,3.4,0.1c-0.3-5.6-0.5-11.5-0.8-17.5
	C68.7,515.8,63.1,516.2,56.8,516.7z M68.3,445.5c-2,2.5-15.4,26.3-15.9,28.4c-0.1,0.5,0.3,1.2,0.7,2.3c5.4-6,10.5-11.6,15.5-17.2
	c0.6-0.6,1-1.6,1-2.5c0-3.2-0.1-6.3-0.2-9.5C69.5,446.6,69,446.3,68.3,445.5z M59.8,533.4c-1.4,3-0.3,5.1,1.6,7
	c3.7,3.8,7.4,7.7,11.1,11.4c0.7,0.7,1.8,0.9,3.4,1.7c-0.2-4.4-0.4-8-0.6-11.3C69.9,539.1,64.9,536.3,59.8,533.4z M47.3,533.4
	c0.7,5.7,4.1,9.9,7.5,14.4c0.6-0.9,1.4-1.5,1.3-2c-0.3-2.2-0.6-4.5-2.4-6.2C51.6,537.5,49.4,535.5,47.3,533.4z M49.3,499.9
	c0-4.6,0-4.6-1.7-7.2c-3.9,3.5-4.1,3.5-4.4,5.7c-0.1,0.9,0.4,2,0.8,3.4C45.9,501.1,47.4,500.6,49.3,499.9z M50.3,511.5
	c0.2-2.4,0.3-4.3-1.7-6c-1.4,0.7-2.9,1.2-4.1,2.2c-0.6,0.4-0.9,1.7-0.8,2.4c0.2,0.7,1.1,1.5,1.8,1.6
	C47.1,511.9,48.6,511.6,50.3,511.5z M44.8,516.5c1.1,3.1,1.1,3.1,7.5,5.7c-0.4-2-0.8-3.7-1.2-5.7C48.9,516.5,46.9,516.5,44.8,516.5z
	 M53.4,533.2c0.3-4.1,0.4-4.1-4.2-4.5C50.7,530.3,51.8,531.5,53.4,533.2z M37.7,511.8c0.2,0.1,0.3,0.1,0.5,0.2
	c-0.1-0.2-0.2-0.4-0.3-0.5C37.8,511.5,37.7,511.6,37.7,511.8z"/>
</svg>
