<?xml version="1.0" encoding="utf-8"?>
<!-- Generator: Adobe Illustrator 19.0.0, SVG Export Plug-In . SVG Version: 6.00 Build 0)  -->
<svg version="1.1" id="Layer_9" xmlns="http://www.w3.org/2000/svg" xmlns:xlink="http://www.w3.org/1999/xlink" x="0px" y="0px"
	 viewBox="-249 251 500 500" style="enable-background:new -249 251 500 500;" xml:space="preserve">
<path style="fill:#fff" d="M1588,821.9c1.3,1.6,2.1,2.7,3,3.8c-3.8,2.5-3.8,2.5-6.9,0.2C1585.2,824.7,1586.3,823.6,1588,821.9z"/>
<path style="fill:#fff" d="M1689.7,865.1c-2.1-1.7-2.6-3.3-1.9-5.3C1690.9,861.2,1690.9,861.2,1689.7,865.1z"/>
<path style="fill:#fff" d="M198.8,682.8c-5.8-0.2-46.5,4.2-54.1,6.3c-4.1,1.2-4.1,1.2-8.9-0.5c-3-8.1-6.1-16.1-8.8-24.2c-3.2-9.4-5.9-18.9-9-28.2
	c-3.9-12.1-7.9-24.1-11.9-36.1c-1.9-5.7-4.1-11.3-5.7-17.1c-1.7-6.2-2.9-12.6-4.3-18.8c-1.4-6.3-2.9-12.5-4.2-18.9
	c-2.2-11.6-4.3-23.2-6.4-34.8c-0.6-3.4-1.4-6.7-2.1-10.3c3.6-4.3,5.3-9.6,6.5-15.1c3.5-16.4,7-32.8,10.6-49.1
	c2.6-12,5.3-23.9,7.9-35.9c1.4-6.5,2.5-13.1,3.8-19.6c1.5-7.6,3.2-15.1,4.8-22.7c2.1-10.1,4.1-20.2,6.1-30.3c1-5.3,2.8-10.3,5.1-15
	c3.2-0.9,6.2-0.2,9.1,0.1c1.9,0.2,3.8,0.5,5.7,0.6c10.4,0.4,35,0.3,44.3-0.5c1.5-0.1,2.9-0.2,4.4-0.4c2.5,3.5,3.2,6.9,2.7,11
	c-0.7,6-1,12-1,18c0,17.4,0.1,34.9,0.5,52.3c0.2,7.9,1.4,15.9,1.7,23.8c0.4,10.1,0.4,20.2,0.4,30.3c-0.1,7.1-0.8,14.2-0.8,21.3
	c-0.1,17.4,0,34.9,0,52.3c0,8.8-0.2,17.7,0,26.5c0.3,12,0.9,24.1,1.2,36.1c0.3,11.2,0.3,22.4,0.5,33.5c0.2,9.2,0.6,18.4,0.9,27.7
	c0.2,9.5,1.3,18.9,3.1,28.2C201.4,676.5,200.9,679.4,198.8,682.8z M128.7,329.2c-1.5-0.2-1.7,0.9-1.9,1.9
	c-1.7,8.6-3.4,17.2-5.1,25.9c-0.6,3.4-1.5,6.7-1.6,10.1c-0.2,5.6,0,11.2,0,16.7c0.1,11.2,0.2,22.3,0.3,33.5c0,3.3,0.1,6.7,0.2,10.2
	c0.8-0.4,1.3-0.6,1.4-0.8c1.6-3.2,3.3-6.5,4.8-9.7c1.3-2.7,1.9-5.6,1.9-8.7c-0.1-17.2,0-34.4,0-51.5c0-9.2-0.1-18.5-0.2-27.7
	c0.1-0.6,0.2-1.3,0.3-1.9c-0.3,0-0.5,0-0.8,0C128.3,327.9,128.5,328.5,128.7,329.2z M133.1,317.3c0.5,7.5-0.5,14.3-0.2,21.1
	c0.5,12,0.3,24.1,0.3,36.1c0,13.3-0.2,26.7,0,40c0.3,20.6,0.9,41.3,1.3,61.9c0.1,2.8,0,5.6,0.1,8.4c0.3,6.9,0.7,13.7,1.1,20.6
	c0.1,2.3-0.1,4.6,0.5,6.7c0.9,0.1,1.3,0.2,1.7,0.2c1-0.2,1.8,0.1,2,1c0.1,0.7-0.1,1.9-0.6,2.3c-0.9,0.7-2.2,0.8-3.5,1.3
	c0,5.5,0,11.1,0,16.7c0,4.9,0,9.9,0.2,14.8c0.5,11.2,1.3,22.3,1.9,33.5c0.3,6,0.5,12,0.4,18.1c-0.1,6.2,0.6,12.4,0.3,18.6
	c-0.4,7.7,0.2,15.5,0.4,23.2c0.2,11.6,0.4,23.2,0.6,34.8c0,1.7,0.2,3.3,0.4,5.2c3.7-1.1,7.1-2.3,10.6-3c3.5-0.7,35.8-3.5,43.9-5.3
	c0.8-0.2,1.5-0.6,2.3-1c-0.6-4.2-1.4-8.2-1.6-12.3c-0.8-13.5-1.7-27.1-1.9-40.6c-0.4-23.4-0.6-46.9-1.9-70.3
	c-0.9-15.4-0.1-31-0.2-46.5c0-6.7-0.2-13.3-0.1-20c0.1-9.5-0.3-19,0.5-28.4c1.1-12.1,0.3-24.1,0.4-36.1c0-1.1-0.2-2.1-0.3-3.2
	c-1.1-11.3-2.1-22.7-1.9-34.1c0-1.7,0-3.4-0.1-5.2c-0.7-17.4-1.1-34.8,0.3-52.2c0.1-1.7,0-3.4,0-4.9c-5-1.7-5-1.6-8.3-1.1
	c-4.4,0.6-28,0.5-34.6,0.2C142.8,317.8,138.5,317.5,133.1,317.3z M103,536.9c-0.5,1.6-0.7,2-0.7,2.4c-0.5,12,1.1,24,1.4,36
	c0,1,0.4,2.1,0.7,3.1c4,12.9,8,25.8,12,38.6c0.3,0.8,0.5,1.7,0.9,2.4c0.3,0.6,1,1,1.7,1.7c0.2-0.9,0.4-1.4,0.4-1.8
	c-0.9-10.7-1.3-21.4-1.4-32.1c-0.1-5.1-0.8-10.3-0.8-15.4c0-4-0.8-7.7-2.4-11.2c-3-6.6-6.1-13.2-9.3-19.8
	C104.9,539.8,104.2,538.9,103,536.9z M135.7,672.8c-0.2-6.3-0.5-11.2-0.6-16.1c-0.3-13.7-0.5-27.5-0.6-41.2c0-3.3-0.7-6.2-2.2-9.2
	c-2.2-4.4-3.9-9-5.7-13.6c-0.9-2.2-1.7-4.4-2.6-6.6c-0.2-0.5-0.9-0.7-1.8-1.5c-0.5,16.1,0.2,31.6,3.1,46.9c-1,1.3-1.8,2.5-2.6,3.5
	C126.2,649.2,132.6,668.2,135.7,672.8z M133.2,598.6c0.4-0.1,0.8-0.2,1.2-0.3c-0.3-3.6-0.6-7.2-0.8-10.8
	c-0.5-10.9-0.9-21.9-1.4-32.8c-0.2-3.6-0.5-7.2-0.8-10.9c-2.8-2.7-5.5-5.3-8.3-8c-0.7-0.7-1.3-1.8-2.6-1c-0.1,0.4-0.3,0.8-0.3,1.2
	c0.3,9.9,0.6,19.7,1.1,29.6c0.1,1.9,0.7,3.8,1.3,5.6c3,8.5,6.2,16.9,9.3,25.3C132.3,597.3,132.8,598,133.2,598.6z M114.7,393.2
	c-0.5,2.2-0.8,3.3-1.1,4.5c-2.5,11.1-5.2,22.1-7.5,33.3c-2.3,11.1-4.6,22.3-3.6,33.8c0.1,0.8-0.3,1.8,1,2.2c0.4-0.3,0.9-0.7,1.2-1.2
	c3.3-6.3,6.6-12.5,9.6-18.9c0.9-1.9,1.1-4.1,1.2-6.2c0.3-6.2,0-12.5,0.5-18.7c0.6-8.8-0.6-17.6-0.4-26.3
	C115.5,395.2,115.2,394.7,114.7,393.2z M132,537.6c0-5.1,0-8.9,0-12.7c0-3.8-0.1-7.7-0.3-11.5c-0.2-3.8,0.5-7.6-1.1-11.2
	c-3.3-0.8-6.4-1.3-9.3,0.2c-0.3,0.6-0.7,1-0.7,1.3c-0.3,7.5-0.5,14.9-0.7,22.4c0,0.8,0.3,1.8,0.8,2.3C124,531.5,127,534.7,132,537.6
	z M129,425.9c-0.5-0.1-0.9-0.2-1.4-0.4c-1.9,4.2-3.8,8.4-5.2,12.9c-0.8,2.6-2.1,5.1-2.1,8c0,7.1-0.1,14.2-0.1,21.3
	c0,0.9,0.6,1.8,1.1,3.2c3.2-3.1,6-5.7,8.6-8.2c-0.3-6.3-0.6-12.3-0.7-18.3C129.1,438.3,129,432.1,129,425.9z M121,496.8
	c3.6,0.8,6.5,0.5,9.7-0.4c0-3.3,0.1-6.3,0-9.3c-0.1-3-0.2-6-0.4-9c-0.2-2.9,0.6-5.9-0.9-8.8c-1.7,1.1-3.4,1.7-4.5,2.8
	c-1.7,1.8-4.2,3.3-4.2,6.1C120.8,484.3,119.9,490.3,121,496.8z M103,503.3c-0.2,10.5-0.2,10.5,6.7,16.6c1.1,1,2.2,2,3.4,2.8
	c0.6,0.4,1.4,0.6,2.7,1.1c0-7.6,1.1-14.7-0.9-21.9C110.9,502.5,107.1,502.9,103,503.3z M114.7,455.3c-3.5,7.8-8.2,13.4-10.8,20.2
	c-1.7,4.4-2,5.4-0.4,11.1c0.8-0.4,1.5-0.7,2.1-1.3c2.5-2.2,4.9-4.7,7.6-6.8c2.1-1.7,2.7-3.7,2.6-6.1c-0.1-4.7-0.2-9.4-0.3-14.1
	C115.5,457.8,115.2,457.2,114.7,455.3z M115.5,529.7c-3.6-3.1-6.7-5.8-9.8-8.3c-0.7-0.6-1.7-0.8-2.5-1.2c-1.4,3-0.6,5.4,0.6,7.8
	c3.8,7.9,7.7,15.8,11.6,23.7c0.1,0.2,0.7,0.3,1.2,0.5C117.5,544.6,115.6,537.3,115.5,529.7z M103,498.9c4.4,0.4,8.2-0.8,12-1.6
	c1.8-4.1,0.5-8.3,0.9-12.3c0.1-0.8-0.6-1.8-0.9-2.9c-3.2,2.6-5.8,5.2-8.8,7.2C103,491.6,101.9,494.5,103,498.9z M96.7,522.9
	c-2,6.4-1.2,16.5,1.5,22.2c0-6.3,0.1-12.7-0.1-19C98.1,525.1,97.3,524.2,96.7,522.9z M98.3,471.5c-2.1,4.1-2.6,8.1-3.4,13.2
	C98.8,480.4,99.3,476.3,98.3,471.5z M98.8,509.3c0.6-4.9,0.1-5.4-3.6-4.3C95.1,507.1,96.3,508.4,98.8,509.3z M98.2,488.9
	c-2,1.5-2,1.5-2,3.6C97.9,491.9,99.1,491.1,98.2,488.9z M98.3,498.7c-0.3-0.5-0.6-1.1-0.7-1c-0.5,0.2-1,0.6-1.6,0.9
	c0.2,0.3,0.5,1,0.6,1C97.3,499.3,97.8,499,98.3,498.7z M96.5,514.4c0.5,0.7,0.9,1.3,1.3,1.9c0.1,0.1,0.5,0.2,0.5,0.1
	c0.2-0.4,0.5-0.9,0.4-1.1C98.3,514.7,97.9,513.9,96.5,514.4z"/>
<path d="M21.4,613.6c1.1,1.4,0.9,2.7-0.4,3.8c-0.3,0.2-1.4-0.2-1.5-0.5C18.9,615.1,19.9,614.2,21.4,613.6z"/>
<path d="M175.4,458.8c-0.4-0.5-0.8-0.8-1.1-1.2c0-0.1,0.4-0.7,0.6-0.6c0.3,0.1,0.7,0.3,0.8,0.6C175.8,457.8,175.5,458.2,175.4,458.8
	z"/>
</svg>
