<?xml version="1.0" encoding="utf-8"?>
<!-- Generator: Adobe Illustrator 19.0.0, SVG Export Plug-In . SVG Version: 6.00 Build 0)  -->
<svg version="1.1" id="Layer_9" xmlns="http://www.w3.org/2000/svg" xmlns:xlink="http://www.w3.org/1999/xlink" x="0px" y="0px"
	 viewBox="-249 251 500 500" style="enable-background:new -249 251 500 500;" xml:space="preserve">
<path style="fill:#fff" d="M1588,821.9c1.3,1.6,2.1,2.7,3,3.8c-3.8,2.5-3.8,2.5-6.9,0.2C1585.2,824.7,1586.3,823.6,1588,821.9z"/>
<path style="fill:#fff" d="M1689.7,865.1c-2.1-1.7-2.6-3.3-1.9-5.3C1690.9,861.2,1690.9,861.2,1689.7,865.1z"/>
<path style="fill:#fff" d="M10.8,588.3c-1.7,0.7-3,1.2-4.3,1.7c-0.6-0.8-1.4-1.3-1.4-1.9c-0.4-3.6-2.5-5.7-5.5-7.7c-8.3-5.6-16.2-11.8-24.4-17.7
	c-6.8-4.9-13.7-9.7-20.5-14.4c-1.1-0.8-2.6-1.1-3.8-1.8c-0.8-0.4-1.9-0.9-2.1-1.6c-0.9-2.5-2.9-3.6-4.9-5c-5.4-4-10.7-8.1-16.1-12
	c-2.7-2-5.5-3.7-8.3-5.6c-3-2-5.9-4.1-8.8-6.1c-3.5-2.4-7-5-10.6-7.3c-1.7-1.1-3.1-2.1-3.7-4.1c-0.7-2.4-0.7-3.8,1.3-4.9
	c6.9-3.7,12.2-9.3,18.1-14.1c11.2-9,22.1-18.3,33.1-27.5c0.6-0.5,1.1-1,1.7-1.4c8.6-6.1,16.7-12.7,24.9-19.3
	c8.2-6.6,16.7-12.9,25.3-19c9.6-6.8,19.4-13.2,29.1-19.8c7.3-5,14.7-10,22-14.9c9-6,18-11.9,26.9-17.9c8.1-5.6,16.1-11.3,24-17.1
	c2.7-2,5-4.4,7.6-6.4c5.1-4,10.3-7.8,15.3-11.9c2.4-1.9,4.6-4.2,6.8-6.4c1.4-1.3,2.7-2.7,4.1-4c3.5-3.3,7.3-4.2,11.8-1.9
	c9.9,4.9,20.6,7.8,31.4,10.2c3,0.7,6,1.7,9,2.6c4.6,1.5,7,4.6,7.1,9.3c0,1.2-0.4,2.4-0.4,3.5c-0.1,7.8-0.2,15.6-0.2,23.5
	c0,3.1,0.2,6.2,0.2,9.3c-0.2,19.2-0.5,38.4-0.8,57.7c-0.2,13.5-0.1,27.1-0.4,40.6c-0.2,7.8-1,15.6-1.2,23.5
	c-0.4,14.2-0.5,28.5-0.9,42.7c-0.3,11.6-1,23.2-1.3,34.8c-0.2,7.8-0.2,15.7-0.2,23.5c0,13.1-0.2,26.1,0.4,39.2
	c0.4,5.1,1.3,8,2.3,13.9c0.2,2.1,0.6,4.2,0.7,6.3c0.1,1.8-1.7,3-3.4,2.7c-0.7-0.1-3.8-0.2-7,0.5c-3.2,0.7-7.9,1.9-17.3,4.6
	c-8.8,4.6-14.8,8.6-22.2,9c-5.2,0.3-9.8-1.7-14-4.8c-10.7-8-21.7-15.7-32.5-23.7C84.8,637.7,72,627.9,59,618.6
	C43.7,607.6,28.1,596.9,10.8,588.3z M-60.9,529.2c-1.7-2.5-4.3-3.7-6.9-5c3.7,4,3.7,4,7,4.8c1.3,3.3,4.2,4.5,7.5,6.2
	c-0.1-1.3,0.2-2.6-0.3-3C-55.6,530.4-57.8,528.7-60.9,529.2z M187.9,655.4c0-1.1,0.2-2.1,0.1-3c-2.8-18.8-2.5-19.1-2.2-38.1
	c0.2-13,0.1-26.1,0.4-39.1c0.4-20.4,0.8-40.8,1.3-61.2c0.4-14.9,1.2-29.9,1.7-44.8c0.3-10.9,0.3-21.8,0.4-32.7
	c0.1-11.4,0.1-22.8,0.3-34.2c0.1-8.5,0.4-17.1,0.4-25.6c0-9-0.3-18-0.4-27.1c0-3.3,0.3-6.6,0.4-9.8c-13.6-6-27.5-10.4-41.8-14.7
	c-0.4,2.1-0.9,3.7-1.1,5.3c-0.4,3.8-0.2,7.7-1.1,11.3c-2.7,11.2-2.8,22.6-4,33.9c-2.2,21-3.5,42.1-5.1,63.1
	c-0.9,11.8-1.2,23.7-1.1,35.6c0.1,9.5-0.3,19-0.3,28.5c0,14.5-0.1,29,0.1,43.4c0.1,7.1,0.6,14.2,0.9,21.4c0.1,3-0.7,6.2,1.5,8.9
	c0.4,0.6,0.1,1.8,0,2.7c-0.2,1.2-0.8,2.3-0.8,3.4c0,7.8-0.2,15.7,0.2,23.5c0.4,9,1.4,18,1.8,27c0.5,11.4,0.6,22.8,0.9,34.2
	c0,1.1,0.4,2.3,0.6,3.5c5.4,1.7,7.8-4.5,14.9-6c8.4-3.2,15.7-5.7,19.1-6.8C178.3,656.9,182.5,654.7,187.9,655.4z M130.8,447.5
	c0.3-2,0.6-3.6,0.7-5.2c0.2-4.3,0.3-8.5,0.6-12.8c0.9-11.8,2-23.6,2.9-35.4c0.2-2,1.1-4.2-0.8-6.2c-4.9,1.3-9.1,4.2-13.6,6.4
	c-4.5,2.2-9.1,4.4-13.4,6.9c-4.3,2.5-9.2,3.9-13,7.1c0.1,8,0.2,15.5,0.3,23.1c0.1,7.7-1.3,15.4-0.1,23.1c1.2,0,1.9,0.2,2.6,0
	C108,452.3,119,449.9,130.8,447.5z M135.6,381.4c0.3-0.9,0.7-1.8,0.8-2.7c0.7-6.6,1.3-13.2,2-19.8c0.5-4.5,1.1-8.9,1.5-13.4
	c0.4-4.2,0.8-8.5,1.1-12.8c0.1-1.8,0-3.8-3-5.1c-5.2,7.3-13.1,11.9-20.4,17.2c-7.5,5.4-14.8,11.1-22,16.5
	c-1.3,7.2-1.6,31.2-0.6,39.5C109.2,395.9,121.6,387.1,135.6,381.4z M130.2,454.3c-7.9-0.6-24.7,2.7-35.6,7
	c-1,13.1,0.6,39.8,2.8,45.8c4.9,0.2,9.8,1.8,14.9,0.7c1.1-0.2,2.5-0.1,3.6,0.3c4.4,1.7,8.9,0.7,13.9,0.9c0.3-17.7,0.6-35.2,0.9-52.7
	C130.8,455.6,130.4,455,130.2,454.3z M96.4,511.8c0.8,17.1,1.9,33.4,3.3,49.3c10.8,5.3,24.8,9.6,31.3,9.5c0.5-6.3-0.2-12.7-0.4-19
	c-0.1-6.1-0.1-12.3-0.7-18.4c-0.5-6.3,0.7-12.7-1.1-19C118.4,511.7,108,511.1,96.4,511.8z M91.2,511.4c-12.7,0.5-24.6-0.9-36.4,1
	c-0.8,11.1-0.1,28.3,1.5,33.7c11.4,4,22.8,8.1,34.3,12.2c0.7,0.2,1.4,0.3,2.1,0.3c0.2,0,0.4-0.2,1.1-0.4
	C92.9,543,92.1,527.7,91.2,511.4z M52.6,470.9c-1.3,11.9,0.6,23.8,1.6,35.8c1.9,0.4,3.3,1,4.6,0.8c9.1-1.3,18.2-0.5,27.3-0.4
	c1.4,0,2.7-0.3,4.4-0.5c0.7-5.3,0.2-10.2-0.1-15.1c-0.3-4.7-0.7-9.5-1.1-14.2c-0.4-4.8,0.7-9.9-1.2-14.5
	C79.9,463.4,60.1,467.9,52.6,470.9z M88.5,455.5c0.6-14.8,1.9-29.4,0.5-44c-3.8-0.5-6.4,1.4-9.1,2.8c-7.9,3.9-15.8,8-23.6,12.1
	c-1.4,0.7-2.7,1.8-4.2,2.9c0.1,5.9,0.3,11.5,0.4,17.2c0.1,5.8-1.1,11.6,0.1,17.4C61.7,463,82,458.3,88.5,455.5z M1.9,477.6
	c7.9-1.6,15.3-3.5,22.6-5.9c7.3-2.3,15.2-2.6,22.2-6.1c1.2-11.3,0.6-22.4,0.2-33.9c-5.9,1.3-10.5,4.4-15.4,6.7
	c-5,2.3-10.1,4.5-15.1,6.9c-5,2.3-10.3,4-14.7,6.9C0.5,459.2,0.4,470.1,1.9,477.6z M48.1,506.7c-0.2-4.1-0.3-7.9-0.4-11.6
	c-0.2-3.8-0.2-7.6-0.6-11.3c-0.4-3.7,0.5-7.5-0.6-11.4c-1.3,0-2.2-0.1-3.1,0.1c-13.8,3-27.4,6.5-40.9,10.7
	c-1.2,5.6-1.1,16.5,0.2,23.4C17.7,507.7,32.7,507.7,48.1,506.7z M134.2,626.7c-0.5-4.5-1.1-7.7-1.3-11c-0.4-10.6-0.7-21.3-1.1-31.9
	c-0.2-6-0.5-6.1-6.2-7.8c-7.1-2.1-14.1-4.5-21.2-6.7c-1.3-0.4-2.7-0.7-4.1-1.1c-1.1,6.6-0.7,29.4,0.8,38.3
	C111.6,612.8,122.2,619.3,134.2,626.7z M89.6,403.9c0.1-6.8,0.1-13,0.2-19.1c0-6.3,0.1-12.7,0.1-20.1c-12.7,9.1-25.2,16.9-37.2,25.2
	c-0.2,1-0.5,1.7-0.5,2.4c0.1,9,0.2,18,0.3,27c0,0.8,0.6,1.5,1,2.5C65.6,415.6,77.4,409.9,89.6,403.9z M46.9,394.4
	c-1.4,0.5-2.4,0.5-3.1,1c-14.6,9.9-29.5,19.3-43.7,29.9c0.7,6.9-0.9,13.5,1.4,20.6c15.8-6.6,30.9-13.5,45.8-21.3
	C47.3,414.5,47.8,404.7,46.9,394.4z M93.6,565.8c-0.8-0.5-1.8-1.3-2.9-1.7c-10.8-3.8-21.6-7.7-32.4-11.4c-0.7-0.3-1.7,0.2-2.8,0.3
	c0.7,9.5,1.3,18.7,2,28.3c12.2,6.4,24.1,13.8,36.6,20.6C95,596.5,94.7,578.1,93.6,565.8z M48.4,511.6c-12.5,0-24.4-0.1-36.4-0.1
	c-2.2,0-4.3-0.1-6.5-0.1c-0.7,0-1.4,0.3-2.3,0.6c-0.1,5.9,0.6,11.7,1.7,17.6c14.1,4.5,27.9,8.9,41.8,13.3c0.6,0.2,1.4,0,2.5,0
	C49.7,532.7,49.3,522.7,48.4,511.6z M51.3,577.6c0.3-6.5-1.1-23.4-2.3-27.9c-2.1-0.8-4.2-1.9-6.5-2.6c-11.4-3.6-22.8-7.2-34.2-10.7
	c-1-0.3-2.1-0.3-3.4-0.4c-0.5,6.5,0.7,12.2,1.2,18.1c13.6,7.3,26.8,14.4,40,21.5C47.6,576.3,49.2,576.8,51.3,577.6z M134.1,634.6
	c-8.5-7.7-24.9-18.3-32-20.6c0.2,3.4,0.7,6.7,0.4,9.8c-0.6,6.3,0.6,12.2,2.1,18.2c0.6,2.5,1.7,4.2,3.8,5.7
	c8.1,5.8,16.2,11.8,24.3,17.7c0.6,0.5,1.7,0.4,2.6,0.6C136.4,655.1,134.2,644.8,134.1,634.6z M95.6,609.2c-5.1-4-29-17.8-35.5-20.6
	c-0.3-0.1-0.9,0.2-1.6,0.4c0.1,7.5,1.4,14.9,2.5,22.4c0.2,1.2,1.3,2.5,2.4,3.3c9.5,7.2,19.1,14.3,28.7,21.4c1.5,1.1,3.2,1.9,5.4,3.2
	C97.8,628.6,97,618.8,95.6,609.2z M54.8,607c-1.8-7.8-0.8-15.4-2.8-23.1c-7.3-3.9-14.6-7.9-22-11.7c-7.3-3.8-14.3-8.3-22.7-11.4
	c0.8,7,1.6,13.3,2.3,19.7c0.4,0.4,0.9,1,1.5,1.4c13.4,8.2,26.9,16.5,40.4,24.7c0.4,0.2,0.9,0.3,1.3,0.5C52.9,607,53.1,607,54.8,607z
	 M-5,429.6c-15.7,9.9-28.8,22.1-43.1,32.3c-0.7,3.8-1.2,7,0.5,10.5c15.7-6.2,30.1-14.2,44-23.8C-5,442.4-3.6,436.2-5,429.6z
	 M-46.5,489.5c14.5-3.3,28.5-6.3,42.3-10.6c0.1-6.9,0.3-13.5,0.4-20.1c0-0.7-0.4-1.3-0.7-2.4c-1.4,0.6-2.7,1.1-3.9,1.8
	c-11.1,6.1-21.9,12.6-33.6,17.6c-1.9,0.8-3.8,1.7-5.8,2.7c0.1,3,0.2,5.6,0.4,8.1C-47.4,487.4-47,488-46.5,489.5z M-3.7,506.6
	c1.1-13,0.9-17.3-1-22.3c-14,4-28.5,6.1-42.7,10.4c-0.1,2.8-0.2,5.4-0.3,8.4C-32.9,505.4-18.5,506.6-3.7,506.6z M-47.6,520.6
	c-0.8,3.1-0.7,6,0.6,9.1c8.9,4.1,17.9,8.1,26.8,12.2c5.7,2.6,11.3,5.3,16.9,8c1,0.5,2,1.4,3.7-0.1c-0.2-2.4-0.3-5.2-0.6-8
	c-0.3-2.8-0.6-5.6-1-8.7c-14.4-5-29.3-8.8-44.1-12.8C-45.9,520.2-46.7,520.5-47.6,520.6z M2.1,575.5c0.3-0.3,1-0.6,1-0.9
	c-0.5-5.9-1.1-11.7-2.6-17.5c-15.5-7.7-31-14.9-47.2-21.8c-0.3,4,0.9,6.4,3.7,8.4C-27.9,554.3-12.9,564.9,2.1,575.5z M-3.4,511
	c-7.9-0.4-15.1-0.6-22.3-1c-7.1-0.4-14.1-2.5-21.9-1.6c-0.1,1.9-0.2,3.6-0.3,5.3c1.1,0.5,1.7,0.9,2.4,1.1c14,4,28.1,8,42.1,11.9
	c0.6,0.2,1.3-0.2,2.1-0.4C-1.1,521.2-2.1,516.4-3.4,511z M-53.9,468.2c-0.4,0-0.7-0.1-0.9,0c-7.7,4.7-14.2,11.1-20.9,17.1
	c-0.8,0.7-0.2,1.7,1.3,2.4c6.8-4.1,13.9-8.3,20.8-12.4C-52.9,472.6-52.9,470.4-53.9,468.2z M-53.2,481.8c-1.1,0.1-1.9,0-2.5,0.3
	c-6.4,3.7-12.8,7.4-19.2,11.1c-0.3,0.2-0.2,0.8-0.4,1.7c1.2,0,2.3,0.2,3.3,0c6.3-1.1,12.7-2.1,18.9-4.6c0.1-1.6,0.3-3,0.3-4.4
	C-52.8,484.6-53,483.3-53.2,481.8z M-53.3,518.4c-6.7-2.4-13.3-4-20.7-4.9c5,5,15.2,10.8,20.8,11.9
	C-53.2,523.1-53.3,520.8-53.3,518.4z M-52.9,502c0.3-2.4,0.9-4.3-1.2-5.8c-6.2,1.1-12.7,1.4-18.5,4.9
	C-66.2,501.3-59.9,503.3-52.9,502z M-74.6,506.3c0.2,0.7,0.2,1,0.4,1.1c1.3,0.7,17.5,4.3,20.7,4.6c0.2-0.7,0.5-1.3,0.5-2
	c0-0.9-0.3-1.7-0.6-2.8C-60.7,506.6-67.5,505.7-74.6,506.3z"/>
</svg>
