<?xml version="1.0" encoding="utf-8"?>
<!-- Generator: Adobe Illustrator 19.0.0, SVG Export Plug-In . SVG Version: 6.00 Build 0)  -->
<svg version="1.1" id="Layer_9" xmlns="http://www.w3.org/2000/svg" xmlns:xlink="http://www.w3.org/1999/xlink" x="0px" y="0px"
	 viewBox="-249 251 500 500" style="enable-background:new -249 251 500 500;" xml:space="preserve">
<path style="fill:#fff" d="M1588,821.9c1.3,1.6,2.1,2.7,3,3.8c-3.8,2.5-3.8,2.5-6.9,0.2C1585.2,824.7,1586.3,823.6,1588,821.9z"/>
<path style="fill:#fff" d="M1689.7,865.1c-2.1-1.7-2.6-3.3-1.9-5.3C1690.9,861.2,1690.9,861.2,1689.7,865.1z"/>
<path style="fill:#fff" d="M21.4,613.6c1.1,1.4,0.9,2.7-0.4,3.8c-0.3,0.2-1.4-0.2-1.5-0.5C18.9,615.1,19.9,614.2,21.4,613.6z"/>
<path style="fill:#fff" d="M159.4,458.8c-0.4-0.5-0.8-0.8-1.1-1.2c0-0.1,0.4-0.7,0.6-0.6c0.3,0.1,0.7,0.3,0.8,0.6C159.8,457.8,159.5,458.2,159.4,458.8
	z"/>
<path style="fill:#fff" d="M203.8,311.6c0.1,2.3,0.2,4.5,0.1,6.6c-0.1,4.5-0.5,8.9-0.5,13.4c0.1,18.9,0.4,37.7,0.5,56.6c0.1,19.6,0.2,39.2,0.1,58.8
	c-0.1,19.1-0.6,38.2-0.8,57.3c-0.1,6.7,0.5,13.4,0.3,20.1c-1.1,35.3,1.8,62.5,2.5,97.7c0.2,7.5-1.7,14.8-0.6,22.2
	c1.8,11.5,0.4,23,2.1,34.6c0.2,1.7,0.4,3.5,0.3,5.2c-0.2,2.6-2.1,4.2-4.4,3.5c-9.9-3-55.2-0.8-61.8-0.5c-2.6,0.1-5.2-0.1-8.2-0.2
	c-1.9-10.4-5.6-20-6.4-30.5c-0.7-9.6-2.5-19.2-4.1-28.7c-1.4-8.8-3.1-17.6-4.8-26.3c-3.7-18.7-6.6-37.6-12.6-55.8
	c-0.6-1.9-0.9-3.9-1.6-5.7c-0.8-2-2-3.8-3.5-6.4c0.4-1,1.2-2.7,1.9-4.5c0.5-1.4,1.5-2.9,1.3-4.1c-0.8-3.5,0.7-6.3,1.8-9.3
	c1.6-4.4,3-8.8,3.5-13.6c0.5-5.2,2-10.2,2.5-15.4c1.2-14.1,2-28.2,3.2-42.2c0.7-8.6,1.5-17.3,2.8-25.9c2-13,3.4-26,4.3-39.1
	c0.3-3.7,0.9-7.4,1.4-11.1c0.4-3.2,1.1-6.4,1.3-9.6c1-11.1,1.9-22.2,2.8-33.3c0.1-1,0.1-2,0-3c-0.2-4.8,0.8-6.3,4.8-7.5
	c1.4-0.4,2.8-0.7,4.2-0.8c5.7-0.4,11.4-0.8,17.1-1.2c6.9-0.4,30.5,0.3,43.2-2c1.6-0.3,3.3-0.3,5-0.4
	C202.1,310.7,202.5,311,203.8,311.6z M137.7,682c2.7,0.2,4.5,0.5,6.4,0.4c6.2-0.2,50-2.2,57.7-0.8c0.2,0,0.4-0.1,0.9-0.3
	c0.8-2.8,0.3-5.8-0.1-8.7c-0.6-4.7,1.4-9.3,0.8-13.9c-1.5-10.8-0.5-21.6-1.1-32.5c-1.2-24.8-2.8-41.6-3.3-66.4
	c-0.3-13.9,0-27.8,0-41.7c0-16.1-0.2-32.3-0.2-48.4c0-11.7,0.1-23.3,0.1-35c0-7.4-0.1-14.9-0.1-22.3c0-10.9,0.1-21.8,0-32.8
	c-0.1-9.9-0.4-19.9-0.4-29.8c0-9.7,0.3-19.3,0.4-29c0-1.4-0.3-2.8-0.5-4.4c-2.1,0.1-3.7,0-5.3,0.2c-11.2,1.1-31.9,0.8-39,1.3
	c-3.1,0.2-6.2,0.5-9.3,0.7c-3.1,0.2-6.1,0.4-9.1,0.6c-0.4,1-0.9,1.6-1,2.3c-0.4,3.2-0.8,6.4-1,9.6c-0.3,7.2-0.6,14.4-0.8,21.6
	c-0.3,10.4-1,20.8-0.9,31.3c0.1,15.6,0.8,31.3,1.1,46.9c0.1,7.9,0.3,15.9-0.2,23.8c-0.6,9.7-1.5,19.3-0.9,29
	c0.5,7.9,0.7,15.8,0.5,23.8c-0.2,7.7-0.2,15.4,1.4,23c0.4,1.7,0.3,3.5,0.3,5.2c-0.1,7.2-0.5,14.4-0.3,21.6
	c0.3,13.4,0.8,26.7,1.3,40.1c0.4,10.6,1,21.3,1.3,31.9c0.1,4-0.1,7.9,0,11.9c0.3,10.7,0.8,21.3,1.2,32
	C137.5,675.7,137.6,678.4,137.7,682z M123.6,456.6c4.1-9.2,3.8-7.5,3.7-14.3c-0.2-10.9-0.3-21.8-0.6-32.6
	c-0.1-5.2-0.6-10.4-0.9-15.6c0-0.2-0.1-0.5-0.2-0.7c-0.2,0.1-0.3,0.1-0.4,0.1C120.3,413.9,123.2,434.4,123.6,456.6z M130.1,640.5
	c1.9-4.1,1.8-7.3,1.6-10.6c-0.5-9.7-0.9-19.3-1.4-29c-0.2-4.7-0.5-9.4-0.7-14.1c-0.1-1.7-0.6-3-2.4-3.8c0.6,9.5,1.1,18.6,1.6,27.7
	c0.1,1.7,0.5,4-0.4,5.1c-2.5,3-1.4,6-0.9,9.1C128.4,629.8,129.1,634.7,130.1,640.5z M122.3,590.6c-0.2-6.2-0.2-12.1-0.5-17.9
	c-0.1-2.6-0.8-5.2-3.6-6.6C117.3,573.7,119,583.6,122.3,590.6z M120.5,506c-5.1,7.5-5.8,9.4-4.7,14.5c2.7-0.7,4.3-2.7,5.7-4.6
	c-0.1-2.1,0-3.8-0.2-5.5C121.2,509,120.8,507.6,120.5,506z M119.4,486.3c-4.7,10.7-5.7,14.6-5.2,20.2c2.1-4.3,4-7.9,5.8-11.6
	C121.3,492.1,121.2,489.3,119.4,486.3z M128.4,554.9c-1-0.2-1.8-0.3-3-0.5c-0.1,2.6-0.4,4.8-0.3,6.9c0.1,2.2,0.7,4.4,1.1,6.5
	c0.2,1.3,0.8,2.3,2.6,2C128.7,565,128.5,560.1,128.4,554.9z M121,523.9c-5.5,2.6-5.5,2.6-5.3,7.5c1.7,1,3.4,1.4,5.5,0.3
	C121.2,529.4,121.1,527,121,523.9z M120.5,556.8c0.8-6.9,0.6-7.3-4-8.7C116.9,551.5,117,554.9,120.5,556.8z M121,537
	c-2,0-3.5,0.1-5.2,0.1c0.3,3.2,1.6,5.1,5,5.8C120.8,540.8,120.9,539.1,121,537z M127.5,521.3c-2.6,7.8-2.5,9.4,0,11.6
	C128.7,529.5,127.7,526.3,127.5,521.3z M128.1,548.6c0.5-4,1.8-7.6-2.5-10.9C125.6,541.9,123.9,545.5,128.1,548.6z M126.2,466.5
	c-2.7,4.2-2.8,5.5-1.1,11.9C125.4,474.8,125.7,471.4,126.2,466.5z M118.8,459.6c-0.5,4-2,8.2,0.2,12.3
	C119.8,467.9,120,463.8,118.8,459.6z M119.9,452.3c-0.1,0-0.4,0-0.4,0.1c-0.1,0.2-0.1,0.4,0,0.6c0,0.2,0.2,0.3,0.3,0.5
	C119.8,453.1,119.8,452.7,119.9,452.3z"/>
</svg>
