<?xml version="1.0" encoding="utf-8"?>
<!-- Generator: Adobe Illustrator 19.0.0, SVG Export Plug-In . SVG Version: 6.00 Build 0)  -->
<svg version="1.1" id="Layer_9" xmlns="http://www.w3.org/2000/svg" xmlns:xlink="http://www.w3.org/1999/xlink" x="0px" y="0px"
	 viewBox="-249 251 500 500" style="enable-background:new -249 251 500 500;" xml:space="preserve">
<path style="fill:#fff" d="M148.3,315.4c1.2,0.7,2.4,1.2,3.5,1.9c10.5,6.4,20.8,12.9,30.5,20.5c6.8,5.4,12.9,11.4,19.4,17.1c4,3.5,5.2,7.6,5.1,12.5
	c-0.3,8.6-0.4,17.3-0.7,25.9c-0.4,15.1-0.6,30.3-1.2,45.4c-0.3,9.7-1.2,19.3-1.6,29c-0.4,9.7-0.8,19.3-1,29
	c-0.4,15.7-0.5,31.4-0.8,47.1c-0.3,16-0.7,31.9-1.1,47.8c-0.2,8.9-0.7,17.7-0.9,26.6c-0.1,5.2,0.1,10.4,0.4,15.7
	c0.2,2.7-0.8,4.4-3.1,5.7c-3.1,1.8-6,4.2-9,6.1c-2.2,1.4-4.3,3.1-6.7,3.8c-5.1,1.5-9.6,4.1-14.2,6.5c-3.7,1.9-7.5,3.7-11.4,5.2
	c-7.8,3-15.6,5.9-21.8,11.9c-2.8,2.7-6.3,3.2-10.2,1.7c-3.4-1.3-7-2.2-10.5-3c-7.6-1.8-15.2-4-22.4-7c-8.2-3.4-15.9-7.8-23.8-11.9
	c-2.1-1.1-4.1-2.3-5.9-3.4c-2.5,0.5-3.4,4-6.8,2.1c-0.3-1.4-0.6-3.1-1-5.1c-0.8-0.4-1.6-1-2.6-1.4c-20.9-8.2-41.8-16.5-62.8-24.4
	c-21.6-8-42.9-16.4-63.7-26.4c-9.9-4.7-20.1-8.8-30.1-13.3c-7.4-3.3-14.6-7.1-22-10.3c-11.5-5-23-10-34.7-14.5
	c-17.3-6.7-34.7-13.1-52.1-19.6c-4.4-1.7-8.9-3.1-12.4-6.4c-2.4-2.3-2.3-4.6,0.5-6.3c3.6-2.2,7.2-4.2,11-6
	c15.6-7.4,31.2-14.5,46-23.5c13.2-8,26.6-15.5,39.6-23.7c21.3-13.3,42.7-26.2,64.2-39.2c6.7-4.1,13.4-8.2,20.2-12
	c17.7-10,35.5-20,53.7-29c18.7-9.2,37.6-18.3,56-28.1c20.3-10.8,40.1-22.5,60.1-33.7C132.2,324.3,140.2,319.9,148.3,315.4z
	 M153.2,324.2c-0.4,2.4-1,4.9-1.3,7.4c-1.9,14.8-3.7,29.5-5.6,44.3c-1.3,10.4-2.9,20.7-3.9,31.1c-1.4,14.3-2.5,28.6-3.5,42.9
	c-1.3,18.8-2.7,37.5-3.5,56.3c-1.2,31.3-2,62.7-2.7,94c-0.1,6.2-1.7,12.5,0.9,18.7c0.2,0.4,0,1-0.2,1.5c-1.8,3.4-1,7.2-1.2,10.8
	c-0.2,3.1,0.4,6.4-0.2,9.4c-1.6,8.1,1.9,15.8,1.6,23.8c0,0.2,0.3,0.4,0.5,0.6c0.5,0,1.1,0.2,1.5-0.1c3.7-2,7.5-3.8,10.9-6.2
	c7.8-5.4,16.3-9.2,25.6-11.5c6.7-1.7,12.6-4.9,18.5-8.3c1.5-0.9,2.7-2.3,4-3.5c0-1.3,0-2.4,0-3.4c0-9.1-0.1-18.3,0.2-27.4
	c0.3-11,1.1-21.9,1.5-32.9c0.2-6.5,0-13,0.1-19.6c0.2-14.9,0.4-29.8,0.8-44.7c0.5-18.8,1.1-37.6,1.8-56.3
	c0.5-13.3,1.2-26.6,1.6-39.9c0.4-12.3,0.5-24.5,0.7-36.8c0.1-2.6,0.4-5.2,0.5-7.8c0-3.2-0.9-5.9-3.6-8.2
	c-6.5-5.6-12.6-11.7-19.2-17.3c-7.4-6.3-15.5-11.4-23.6-16.8C154.8,324.1,154.2,324.3,153.2,324.2z M130.7,497.3
	c0.4-7.3,0.7-14.3,1.1-21.3c0.4-7.3,1.2-14.6,1.4-21.8c0.2-6.9,1.7-13.9,0.3-20.8c-0.9-0.1-1.5-0.3-1.9-0.2
	c-9.6,2.6-19.1,5.3-28.7,7.9c-8.3,2.2-16.7,4.1-25,6.3c-5.5,1.5-11.3,1.9-16.4,5c-0.3,2.7-0.8,5.3-0.8,7.8c-0.4,14.3-0.7,28.7-1,43
	c0,0.9,0.4,1.8,0.7,3.1c11.8-1.2,23.3-2.1,34.6-3.5C106.6,501.3,118.2,499.2,130.7,497.3z M58.6,642.5c6.6,3.7,13,7.2,19.3,10.7
	c14.7,8.4,31,12,47.2,16.2c1.7,0.4,3.5-1.1,2.9-2.6c-2-5.6-1-11.3-0.9-17c0.1-10.1,0.1-20.2,0.2-30c-12-7.5-42-15.8-64.9-21.3
	c-0.9-0.2-2,0-2.8,0c-0.5,0.7-1,1.1-1,1.5C58.5,613.9,58.6,627.7,58.6,642.5z M62.4,405.7c6.7-0.8,11.4-4.9,16.8-7.2
	c5.5-2.3,10.9-5.1,16.3-7.7c5.2-2.5,10.4-4.8,15.5-7.5c5.3-2.8,10.6-5.7,15.8-8.7c5.1-3.1,10.1-6.4,14.8-9.4
	c2.5-10.5,5.6-36.6,4.9-42c-14.1,7.8-27.8,15.8-41.5,23.8c-13.9,8.1-28.8,14.7-42.3,23.7C62.9,382.5,61.3,393.9,62.4,405.7z
	 M59.5,548.7c22.6,4,45.4,7,68.4,5.6c0.3-1,0.5-1.5,0.6-2c0.6-15.1,1.2-30.2,1.7-45.3c0-1.2-0.4-2.4-0.7-3.9c-3,0.1-5.6,0.1-8.2,0.4
	c-7.7,1.1-15.5,2.5-23.2,3.6c-11.1,1.5-22.3,2.8-33.4,4.2c-1.5,0.2-3,0.5-4.4,0.8C59,517.6,58.5,541.4,59.5,548.7z M62.3,413
	c-0.2,10-0.5,19.3-0.6,28.7c0,1.2,0.6,2.4,0.9,3.5c16.1-1.9,64-15.3,72.6-20.3c0.8-8.4,1.5-16.9,2.4-25.5c0.9-8.4,3.2-16.7,3.3-26.3
	c-9.2,5-17.5,9.8-26,14.2c-8.5,4.4-17.3,8.5-25.9,12.7C80.4,404.3,71.7,408.5,62.3,413z M127.3,613.7c0.2-2.9,0.5-4.6,0.5-6.4
	c0-2.9-0.1-5.8-0.1-8.6c0.2-11.5,0.5-23,0.8-34.5c0-0.5,0.1-1.2-0.1-1.5c-0.7-1-1.5-2.2-2.5-2.6c-1.4-0.5-3.1-0.3-4.7-0.2
	c-12.6,0.4-25-0.3-37.5-2.2c-8-1.2-15.9-2.3-24.7-3.5c-0.2,12.9-1.2,25.3-0.3,38c5.9,1.6,11.4,3.2,16.9,4.7
	c5.8,1.6,11.7,2.8,17.4,4.6c5.5,1.7,10.8,3.8,16.2,5.8C115.1,609.3,120.7,611.3,127.3,613.7z M-6.5,468.4c0.4,13.8-2,26.7,0,39.9
	c2.3,0.2,4,0.6,5.8,0.5c14.8-0.4,29.7-0.8,44.5-1.4c3-0.1,6.3,0.3,8.9-1.6c1.8-12.2,2.6-44,1.3-51.6c-0.7-0.1-1.5-0.5-2.1-0.3
	C32.9,458.7,13.7,463.4-6.5,468.4z M52.6,595.9c-19.9-6.3-39.7-10.5-59.6-14c-2.5,7.5-2.7,22.7-0.5,34.6c0.8,0.4,1.7,1,2.7,1.3
	c11.7,4.4,23.5,8.8,35.1,13.3c6.3,2.4,12.5,5.2,18.8,7.7c1.3,0.5,2.8,0.4,4.6,0.7C53.3,624.9,52.9,610.8,52.6,595.9z M-8,576
	c19.2,4.6,38,7.6,56.1,13.4c0.7,0.2,1.5,0.3,2.3,0.3c0.5,0,1-0.3,1.4-0.4c1.7-14,1.6-28.1-0.1-35.7c-6.6-2.4-49.2-8.2-59-8
	C-8.4,555.3-8.1,565.2-8,576z M56.2,374.1c-2.2,0.8-4.2,1.4-6,2.2c-8,3.8-15.9,7.7-23.9,11.7c-9.3,4.6-18.6,9.3-28,13.9
	c-2.6,1.3-4,3-3.9,6.1c0.1,3.9-0.2,7.8-0.2,11.7c0,2.3,0.1,4.7,0.3,7c0.2,2.2-0.5,4.6,1.3,6.8c1.1-0.4,2.1-0.8,3-1.1
	c8.2-3.3,16.3-6.8,24.7-9.8c9.4-3.3,18.5-7,27.5-11c1.6-0.7,3.1-1.7,4.7-2.5c0.1-6.1,0.2-11.8,0.4-17.5
	C56.5,386,57.3,380.3,56.2,374.1z M-12.5,470.2c-11.4,3.5-21.7,6.3-31.8,9.8c-10,3.5-20.7,5-30.3,9.2c-1.1,7.4-2.1,14.4,0,21.7
	c17.6,0.9,34.9-2.7,52.4-1.8c1.8,0.1,3.6-0.3,5.4-0.6c1-0.2,1.9-0.6,3.2-1.1C-12.7,495.4-12.7,483.5-12.5,470.2z M-7.2,539.3
	c10.3,2,20.1,3.1,29.9,4.1c9.8,1,19.4,3.3,29.2,3.5c1.2-6.4,1.3-25.7,0.3-34.4c-19.4,0.6-38.9,0.3-58.8,1.9
	c-0.3,5.1-0.7,9.7-0.8,14.4C-7.4,532-7.2,535.1-7.2,539.3z M-75.4,564.8c0,1.4-0.2,3,0,4.5c0.6,5.5,1.3,10.9,1.8,16.4
	c0.3,3.2,2.1,5,5,6.3c16.2,7.3,32.4,14.6,49.2,20.3c1.3,0.4,2.8,0.4,4.6,0.6c0-5.7,0.4-11,0-16.1c-0.4-5.4,1.4-10.9,0.2-16.3
	c-19.9-5.4-39.5-10.8-59.1-16.1C-74,564.1-74.6,564.5-75.4,564.8z M54.9,447.3c1.6-16.1,1.5-24.1-0.3-30.7
	c-19.9,8.3-40.4,14.9-59.9,24.2c-0.9,7.3-1.5,14.1-0.3,21.3c1.5,0,2.5,0.1,3.5-0.1c17.7-4.3,35.4-8.7,53.1-13.1
	C52.3,448.5,53.5,447.9,54.9,447.3z M-11.4,407.3c-8,3.8-14.9,7.9-21.9,12c-7,4.1-14,8.1-20.9,12.3c-6.8,4.2-14.1,7.7-20.6,12.4
	c-0.1,3.5-0.2,6.7-0.4,9.8c-0.2,3.3-0.4,6.6,1.2,10.2c21-9.5,42.6-16.4,62.4-27.2C-10.7,430.5-10.5,412.9-11.4,407.3z M-14.7,543.9
	c-12.3-2.3-53.9-5.6-59.9-4.7c-1.3,2.7-1.1,5.9-1.1,8.9c-0.1,3.1-0.2,6.1-0.3,9.5c20.4,6.5,40.4,12.6,61.6,16.8
	C-14.4,564-12.5,554.2-14.7,543.9z M-13.6,514.4c-1-0.3-1.7-0.7-2.5-0.7c-18.8,0.9-37.6,1.9-56.4,3c-0.7,0-1.4,0.5-2.5,0.9
	c-0.3,4.8-1.2,9.6-0.2,14.9c20.5,2,40.7,4.4,61.2,5.5C-12.7,529.9-12.8,522.2-13.6,514.4z M-12.2,443.8c-2.5,1-4.2,1.7-5.9,2.4
	c-6,2.6-11.9,5.4-17.9,7.9c-10.8,4.6-21.7,9-32.4,13.7c-6.3,2.8-7.1,1.4-6.5,10.4c0.1,1.2,0.3,2.5,0.5,4.1
	c19.9-3.8,38.3-11.4,57.4-16.2c1.5-0.4,2.8-1.2,4.5-1.9C-12,457.6-10.9,451.2-12.2,443.8z M-125.3,549c0.4,5,0.7,8.6,1,12.1
	c0.4,4.3,2.5,7.3,6.8,8.5c1,0.3,1.8,1,2.8,1.4c10.4,4.8,20.8,9.5,31.2,14.2c1,0.5,2.3,1.5,3.9-0.4c-1.4-7.4-1.3-15.5-3-23.5
	C-96.5,557.4-110.2,553.4-125.3,549z M-126,502.2c-1.5,3.8-0.6,7.3-0.3,10.8c7.6,1,38.3-0.8,44.8-2.5c1.3-3.2,0.6-6.6,0.2-9.9
	c-0.4-3.2,1.9-6.6-0.1-9.7C-87.3,491.5-116.4,498.9-126,502.2z M-81.2,448.4c-8.7,3.2-15.9,8.4-23.4,13c-7.8,4.7-15.4,9.5-22.7,14.7
	c-0.1,3.5-0.2,6.6-0.3,9.7c8.5-1.3,36.3-12.8,47.3-19.5C-80.4,460.6-80.1,454.7-81.2,448.4z M-125.6,535.7c-0.6,7.3-0.6,7.4,5,9.1
	c9.7,3,19.5,6,29.2,8.8c2.7,0.8,5.5,1.2,9.1,2c0.2-6.1,1.1-11.6,0.3-17.3c-7.5-0.7-14.5-1.1-21.5-2.1
	C-110.7,535.3-117.9,534.4-125.6,535.7z M-125.6,529c12.7,1.2,24.8,2.4,36.9,3.5c2,0.2,4.1-0.3,6.6-0.5c0.4-2.2,0.9-4.5,1.1-6.7
	c0.2-2.5,0-5.1,0-7.4c-0.9-0.4-1.4-0.7-1.8-0.7c-12.7,0.6-25.4,1.3-38.1,2c-1.7,0.1-3.4,0.8-5.3,1.3C-126,523.4-125.8,526-125.6,529
	z M-130.6,563.3c0-3.1,0.1-5.7-0.1-8.2c-0.1-2.5-0.5-5-0.8-7.6c-12.6-4.1-25.2-6.2-37.6-9.2c-1-0.2-2-0.3-3.1-0.4
	c-0.2,0-0.5,0.1-0.7,0.2c-0.2,0.1-0.3,0.4-0.5,0.6c-1,5.6,1.4,8.4,6.8,10.3c9.6,3.4,18.8,7.7,28.2,11.5
	C-136,561.5-133.6,562.3-130.6,563.3z M-174.3,514.9c-0.2,3.1,1.6,2.7,3.1,2.6c6.5-0.3,13-0.7,19.4-1c4.7-0.3,9.4-0.5,14-0.9
	c1.7-0.2,3.4-0.8,5.2-1.3c0.2-2.7,0.5-5,0.4-7.3c0-1.2-0.6-2.3-1-3.8C-147.3,506.7-161.1,510-174.3,514.9z M-80.4,474
	c-2.2,0.6-3.9,1-5.5,1.6c-12.7,5.4-25.1,11.4-38.2,15.8c-0.7,0.2-1.6,0.6-1.9,1.2c-0.5,0.7-0.6,1.8-1.1,3.3
	c8.7-0.7,16.3-3.6,23.9-5.8c7.6-2.2,15.8-2.9,23.1-6.7C-80.3,480.1-80.3,477.3-80.4,474z M-132.3,521.2c-8.4-0.8-36.2,1.5-42.1,3.6
	c0.5,0.9,0.7,2,1.4,2.5c0.8,0.6,1.9,0.8,2.9,0.9c10.1,0.3,20.2,0.6,30.3,0.7c2.5,0,5.2,0.6,7.8-1c0.1-1,0.3-2,0.2-3
	C-131.8,523.7-132.1,522.4-132.3,521.2z M-133.6,479.9c-14,8.2-27.5,16-40.9,23.9c-0.2,0.1,0,0.8,0,1.8c7.6-1.4,14.2-5.1,21-8.1
	c6.8-3,14.2-4.9,20.6-9C-133.1,485.7-133.4,483.2-133.6,479.9z M-207.6,532.5c9.2,4.1,18.2,8.3,27.9,10.7c1.6-3.1,0.1-5.3-1.1-7.7
	C-189.7,533.4-198.3,530.4-207.6,532.5z M-155.2,535.3c7.4,1.9,14.4,4.7,22.1,5.7c1-2.1,2-3.9-0.1-6.2
	C-140.4,534.1-147.8,534.1-155.2,535.3z M-181,526.3c-2-2.5-4.5-2.6-11.5-0.7C-187.6,527.5-186.5,527.6-181,526.3z M-144.5,500.3
	c4.8-0.3,8.5-1.2,13-4.5C-137.2,495.7-140.5,497.6-144.5,500.3z M-182.9,517.5l0.5,0.2l0-0.4L-182.9,517.5z M-160.2,534.7l0.4-0.2
	l-0.5-0.1L-160.2,534.7z"/>
<path style="fill:#fff" d="M1588,821.9c1.3,1.6,2.1,2.7,3,3.8c-3.8,2.5-3.8,2.5-6.9,0.2C1585.2,824.7,1586.3,823.6,1588,821.9z"/>
<path style="fill:#fff" d="M1689.7,865.1c-2.1-1.7-2.6-3.3-1.9-5.3C1690.9,861.2,1690.9,861.2,1689.7,865.1z"/>
</svg>
